<svg xmlns="http://www.w3.org/2000/svg" xmlns:xlink="http://www.w3.org/1999/xlink" width="195.243" height="152.376" viewBox="0 0 195.243 152.376"><defs><style>.a,.an,.at,.d,.e,.g{fill:none;}.b{opacity:0.75;}.c{fill:#edeff4;}.d,.e{stroke:#2e3062;stroke-linejoin:round;stroke-width:2px;}.at,.d,.e,.g{stroke-linecap:round;}.e{stroke-dasharray:5 5;}.f{fill:#ff7d7d;}.g{stroke:#813882;}.an,.at,.g{stroke-miterlimit:10;}.h{fill:#813882;}.i{fill:#405ebf;}.j{fill:#9c3ee8;}.k{fill:url(#a);}.l{fill:url(#b);}.m{fill:url(#c);}.ag,.n,.o{fill:#fff;}.an,.n,.s{opacity:0.3;}.p{fill:url(#d);}.q{fill:url(#e);}.r{fill:#fccc54;}.s,.t{fill:#ffbe00;}.ar,.u{fill:#ffe6b3;}.ao,.u,.v{opacity:0.5;}.v{fill:#fce8c5;}.w{fill:url(#g);}.x{fill:#ab47ac;}.y{fill:url(#h);}.z{fill:url(#i);}.aa{fill:#1631a4;}.ab{clip-path:url(#j);}.ac{fill:url(#k);}.ad,.af{fill:#1d1d6d;}.ad,.ae{opacity:0.4;}.ag,.ar{opacity:0.2;}.ah{fill:url(#l);}.ai{fill:url(#m);}.aj{fill:url(#n);}.ak{fill:url(#o);}.al{fill:url(#p);}.am{fill:url(#q);}.an{stroke:#ffbe00;stroke-width:0.5px;}.ap{opacity:0.7;}.aq{clip-path:url(#r);}.as{fill:url(#s);}.at{stroke:#f9962b;stroke-width:0.57px;}.au{fill:url(#t);}.av{fill:url(#u);}.aw{fill:url(#v);}.ax{fill:url(#w);}.ay{fill:url(#x);}.az{fill:url(#y);}.ba{fill:url(#z);}.bb{fill:url(#aa);}.bc{fill:url(#ab);}.bd{fill:url(#ac);}.be{fill:url(#ad);}</style><linearGradient id="a" x1="0.396" y1="1.9" x2="0.893" y2="0.483" gradientUnits="objectBoundingBox"><stop offset="0.32" stop-color="#4f6ad9"/><stop offset="1" stop-color="#658bfd"/></linearGradient><linearGradient id="b" x1="0.213" y1="1.283" x2="0.681" y2="-0.262" gradientUnits="objectBoundingBox"><stop offset="0" stop-color="#f4ba38"/><stop offset="1" stop-color="#ffd349"/></linearGradient><linearGradient id="c" x1="0" y1="0.5" x2="1" y2="0.5" xlink:href="#b"/><radialGradient id="d" cx="0.032" cy="-0.022" r="2.731" gradientTransform="translate(0.066) scale(0.634 1)" gradientUnits="objectBoundingBox"><stop offset="0" stop-color="#f0dc20"/><stop offset="1" stop-color="#f07a20"/></radialGradient><linearGradient id="e" y1="0.5" x2="1" y2="0.5" gradientUnits="objectBoundingBox"><stop offset="0" stop-color="#fec008"/><stop offset="1" stop-color="#fe9c03"/></linearGradient><linearGradient id="g" y1="0.5" x2="1" y2="0.5" gradientUnits="objectBoundingBox"><stop offset="0" stop-color="#1c2d94" stop-opacity="0"/><stop offset="1" stop-color="#1094d2" stop-opacity="0.2"/></linearGradient><linearGradient id="h" y1="0.5" x2="1" y2="0.5" gradientUnits="objectBoundingBox"><stop offset="0" stop-color="#8daeff"/><stop offset="1" stop-color="#8daeff" stop-opacity="0"/></linearGradient><linearGradient id="i" x1="0" y1="0.5" x2="1.802" y2="0.5" xlink:href="#h"/><clipPath id="j"><rect class="a" width="37.08" height="27.698"/></clipPath><linearGradient id="k" x1="-2.281" y1="0.5" x2="3.281" y2="0.5" xlink:href="#g"/><linearGradient id="l" x1="0" y1="0.5" x2="1" y2="0.5" xlink:href="#b"/><linearGradient id="m" x1="0" y1="0.5" x2="1" y2="0.5" xlink:href="#e"/><radialGradient id="n" cx="0.615" cy="0.974" r="1.257" gradientTransform="translate(-0.226) scale(1.367 1)" xlink:href="#d"/><radialGradient id="o" cx="-0.355" cy="2.025" r="2.193" gradientTransform="translate(0.13) scale(1.367 1)" xlink:href="#d"/><linearGradient id="p" x1="0" y1="0.5" x2="1" y2="0.5" xlink:href="#e"/><radialGradient id="q" cx="0.945" cy="-0.216" r="1.693" gradientUnits="objectBoundingBox"><stop offset="0.08" stop-color="#f0dc20"/><stop offset="1" stop-color="#f07a20"/></radialGradient><clipPath id="r"><circle class="a" cx="8.617" cy="8.617" r="8.617"/></clipPath><linearGradient id="s" x1="-49.803" y1="0.991" x2="-49.374" y2="0.235" gradientUnits="objectBoundingBox"><stop offset="0" stop-color="#f4a238"/><stop offset="1" stop-color="#ffc949"/></linearGradient><linearGradient id="t" x1="-37.811" y1="1.026" x2="-38.21" y2="0.161" xlink:href="#b"/><linearGradient id="u" x1="-60.634" y1="1.129" x2="-60.398" y2="0.264" xlink:href="#b"/><linearGradient id="v" x1="18.599" y1="0.988" x2="19.03" y2="0.235" xlink:href="#s"/><linearGradient id="w" x1="13.52" y1="1.022" x2="13.122" y2="0.157" xlink:href="#b"/><linearGradient id="x" x1="23.965" y1="1.123" x2="24.199" y2="0.258" xlink:href="#b"/><linearGradient id="y" x1="-0.001" y1="0.5" x2="0.999" y2="0.5" xlink:href="#b"/><linearGradient id="z" x1="0.298" y1="0.963" x2="0.7" y2="0.037" gradientUnits="objectBoundingBox"><stop offset="0" stop-color="#cc2b5e"/><stop offset="1" stop-color="#753a88"/></linearGradient><linearGradient id="aa" x1="0.491" y1="0.559" x2="0.619" y2="0.283" xlink:href="#z"/><linearGradient id="ab" x1="0.486" y1="0.531" x2="0.529" y2="0.423" xlink:href="#z"/><linearGradient id="ac" x1="0.158" y1="1.282" x2="0.711" y2="-0.04" gradientUnits="objectBoundingBox"><stop offset="0" stop-color="#4f6ad9"/><stop offset="1" stop-color="#658bfd"/></linearGradient><linearGradient id="ad" x1="0.5" y1="0" x2="0.5" y2="1" xlink:href="#z"/></defs><g transform="translate(0.028 0.005)"><g transform="translate(-0.028 -0.005)"><g transform="translate(0 0)"><g class="b" transform="translate(4.281)"><path class="c" d="M188.583,55.271c-1.486-14.295-9.368-27.724-19.623-38.017-4.18-4.2-8.918-8.06-14.492-10s-12.214-1.68-16.97,1.858c-3.545,2.627-5.7,6.718-8.892,9.765C122,25.2,111.843,26.154,102.832,24.675s-17.606-5.031-26.609-6.5-19.166-.468-25.751,5.86c-7.673,7.376-8.138,19.5-6.276,29.976.632,3.549,1.457,7.268.308,10.683-1.735,5.146-7.212,7.8-11.623,10.962a38.091,38.091,0,0,0-15.168,35.579c2.118,14.748,13.158,27.152,26.423,33.937s28.515,8.647,43.416,8.729a127.762,127.762,0,0,0,19-1.148c18.252-2.642,35.423-10.664,50.554-21.206,8.45-5.89,16.42-12.664,22.451-21.013C190.9,94.845,193.729,73.876,188.583,55.271Z" transform="translate(-15.18 -3.805)"/><path class="c" d="M187.124,51.461C185.181,34,174.754,17.25,160.905,6.6c-6.77-5.2-15.818-8.546-24.224-5.351-4.217,1.6-7.06,4.7-9.784,8.153-2.661,3.344-5.47,6.239-9.509,7.889-8.227,3.344-17.379,1.858-25.676-.372-9.059-2.393-18.122-5.674-27.638-5.355-8.216.279-16.35,3.192-21.37,9.973-4.853,6.544-5.819,15.235-5.158,23.131.372,4.459,2.047,9.141,1.564,13.607-.45,4.173-3.812,6.755-7.06,8.944a55.611,55.611,0,0,0-9.464,7.432,40.5,40.5,0,0,0-10.638,33.911,44.049,44.049,0,0,0,10.4,21.455c11.928,13.923,29.913,19.865,47.663,21.626,19.72,1.955,39.689.152,58.1-7.432a137.487,137.487,0,0,0,24.558-13.266c7.8-5.258,15.261-11.177,21.381-18.345a66.244,66.244,0,0,0,15.272-48.789,73.682,73.682,0,0,0-2.293-12.927c-.743-2.768-5.05-1.594-4.3,1.185,4.314,15.915,2.857,33.517-5.269,48.005-8.6,15.339-24.253,26.383-39.44,34.539a113.816,113.816,0,0,1-25.078,10.014,110.77,110.77,0,0,1-28.359,3.244c-17.6-.026-36.27-2.493-50.8-13.243-12.262-9.085-20.5-24.1-17.093-39.577A36.36,36.36,0,0,1,28.146,75.5c5.459-4.771,13.8-7.644,15.216-15.651.769-4.362-.576-8.647-1.115-12.95a45.133,45.133,0,0,1-.1-11.716c1.033-7.6,5.046-14.406,12.407-17.308,16.721-6.592,33.755,5.258,50.495,5.793,7.673.245,15.748-1.605,21.448-7.03,3.04-2.895,5.057-6.826,8.416-9.4A15.221,15.221,0,0,1,146,4.6c8.42,1,15.235,7.473,20.623,13.5a66.843,66.843,0,0,1,13.191,21.433,51.651,51.651,0,0,1,2.861,11.92C182.981,54.282,187.44,54.315,187.124,51.461Z" transform="translate(-11.492 0.005)"/></g><path class="d" d="M364.713,160.73a7.928,7.928,0,0,1-.123.918" transform="translate(-229.104 -101.003)"/><path class="e" d="M188.289,123.936c-1.349,3.812-5.67,9.6-19.426,3.092-20.694-9.788-28.731-36.895-51.026-27.014s20.028,38.165,5.2,50.3C101.52,167.92,78.4,147.765,86.43,130.591" transform="translate(-53.278 -61.508)"/><path class="d" d="M90.32,182.33c.141-.271.294-.543.453-.81" transform="translate(-56.748 -114.068)"/><path class="f" d="M41.206,210.37c-1.115-5.548-6.391-9.223-11.593-11.445s-10.913-3.7-15.138-7.461c-1.758-1.568-3.181-4.411-1.557-6.116a3.939,3.939,0,0,1,2.2-1.029c5.02-.9,5.919,2.23,10.728.554,1.665-.587,3.251-2.267,2.687-3.939a4.158,4.158,0,0,0-1.178-1.583c-6.317-5.99-10.531-8.424-18.163-12.634C4.9,164.364.447,160.9,0,156.007a2.571,2.571,0,0,1,.223-1.527c.55-.948,1.884-1.011,2.973-.821,5.228.914,3.853,1.423,8.624,3.746,1.223.6,2.91,1,3.775-.052a2.81,2.81,0,0,0,.275-2.482c-1.4-5.414-12.838-11.032-5.622-13.8,1.888-.725,4.128,2.081,5.73.84,1.349-1.044.03-3.136-1.237-4.281-1.858-1.676-3.786-4.021-3.01-6.395.684-2.088,3.311-3.017,5.444-2.5a11.193,11.193,0,0,1,5.329,3.716,37.241,37.241,0,0,1,6.087,8.658c1.925,3.9,3.4,8.621,7.372,10.4a10.9,10.9,0,0,0,7.61-.03c1.267-.4,2.649-.925,3.876-.409a4.08,4.08,0,0,1,1.914,2.122,11.084,11.084,0,0,1-.572,10.479c-1.338,2.133-3.4,3.783-4.507,6.042s-.721,5.637,1.657,6.458c1.713.591,3.511-.412,5.228-.988a10.267,10.267,0,0,1,9.487,1.486,8.588,8.588,0,0,1,3.006,8.918c-1.706,5.719-8.833,7.432-13.407,11.248a15.885,15.885,0,0,0-5.414,14.295" transform="translate(0.028 -80.808)"/><path class="g" d="M42.3,134.43s24.525,37.861,27.5,80.218" transform="translate(-26.571 -84.476)"/><path class="g" d="M31.83,169.62S48.2,180.489,52.614,191.673" transform="translate(-19.992 -106.59)"/><path class="g" d="M108.162,199.31S98.04,209.228,97.33,220.026" transform="translate(-61.153 -125.248)"/><path class="g" d="M12.66,209s27.586,12.686,32.7,21.225" transform="translate(-7.945 -131.337)"/><path class="g" d="M130.729,272s-17.777,5.12-18.319,16.8" transform="translate(-70.63 -170.927)"/><path class="g" d="M45.6,289s21.518,4.526,25.45,14.67" transform="translate(-28.645 -181.61)"/><path class="f" d="M419.436,143.6c-.669-3.8,1.6-7.8.164-11.456a4.118,4.118,0,0,0-5.648-2.464c-2.995,1.341-3.872,4.515-4.589,7.432a12.353,12.353,0,0,1-2.553,5.574c-1.23,1.393-2.761,2.49-4.113,3.753a12.019,12.019,0,0,0-3.868,7.985c-.39,3.575.059,7.71-2.6,10.538-2.177,2.308-5.789,3.4-6.807,6.689-1.115,3.586,2.047,8.442-1.282,11.2-1.408,1.163-3.066,1.758-4.288,3.181a10.405,10.405,0,0,0-2.033,3.794,10.159,10.159,0,0,0,1.382,8.844.528.528,0,0,0,.29.2c1.486,2.742,3.248,5.533,6.023,7.09,2.464,1.379,5.6,1.683,7.974-.026,4.047-2.913,3.8-8.87,6.458-12.723a5.7,5.7,0,0,1,3.853-2.493c1.81-.327,3.694,0,5.418-.8,2.519-1.141,3.612-3.82,3.943-6.41.5-3.931-1.078-8.019.242-11.861,1.182-3.445,4.485-5.611,5.808-8.992C425.745,156.161,420.528,149.8,419.436,143.6Z" transform="translate(-239.642 -81.244)"/><path class="h" d="M423.287,150.386c-.022,4.786-1.817,9.312-3.415,13.749-1.549,4.3-3.106,8.595-4.734,12.868a220.808,220.808,0,0,1-10.988,24.9,128.241,128.241,0,0,1-7.911,13.091c-.342.49.461.959.8.468a145.491,145.491,0,0,0,13.2-24.034c3.712-8.368,6.9-17.007,10.033-25.639,1.791-4.968,3.931-10.033,3.957-15.41a.464.464,0,0,0-.929,0Z" transform="translate(-248.94 -94.204)"/><path class="i" d="M408.04,279.568q-.862-6.547-1.988-13.065c-.1-.587-1-.338-.9.245q1.115,6.391,1.955,12.82C407.189,280.151,408.118,280.159,408.04,279.568Z" transform="translate(-254.591 -167.262)"/><path class="h" d="M422.878,275.4a13.419,13.419,0,0,1,3.946-.888q2.174-.29,4.318-.743t4.154-1.029a13.749,13.749,0,0,0,3.623-1.486c.5-.32.037-1.115-.468-.8a13.446,13.446,0,0,1-3.653,1.486q-2.107.6-4.255,1.029c-1.412.29-2.831.52-4.258.706a13.034,13.034,0,0,0-3.879.944c-.539.253-.071,1.055.472.8Z" transform="translate(-265.286 -169.908)"/><path class="h" d="M433.778,221.618a12.139,12.139,0,0,0-.141-4.255q-.372-2.319-.613-4.652-.5-4.559-.635-9.152a.465.465,0,0,0-.929,0q.134,4.492.617,8.974.234,2.185.557,4.359a13.211,13.211,0,0,1,.249,4.481c-.115.583.78.832.9.245Z" transform="translate(-271.125 -127.635)"/><path class="h" d="M448.368,213.634a40.99,40.99,0,0,0,12.9-5.1.465.465,0,0,0-.468-.8,40.242,40.242,0,0,1-12.675,4.994c-.587.119-.338,1.014.245.9Z" transform="translate(-281.386 -130.501)"/><path class="h" d="M457.224,174.281a21.03,21.03,0,0,1-1.9-8.138.465.465,0,0,0-.929,0,22.232,22.232,0,0,0,2.021,8.606c.249.543,1.052.071.8-.468Z" transform="translate(-285.541 -104.124)"/><path class="j" d="M399.269,146.727c-3.95-1.832-11.816,5.648-15.235,13.7l2.174-12.214a25.677,25.677,0,0,1,7.409-5.927c5.945-3.315,11.723-7.9,7.762-9.736-3.716-1.72-10.873,4.767-14.559,12.229l2.791-15.7a16.908,16.908,0,0,1,4.21-3.21c3.757-2.092,7.387-4.983,4.89-6.139-2.163-1-6.194,2.43-8.624,6.689l.9-5.091a24.717,24.717,0,0,1,2.772-5.841c3.363-4.9,5.641-10.152,2.386-10.311s-7.008,8.963-6.562,16.554l-.468,2.62c-.227-5.54-3.281-11.776-6.042-11.553s-.327,4.191,2.478,7.45a15.255,15.255,0,0,1,3.281,5.7l-2.2,12.37c-.372-8.769-5.2-18.609-9.583-18.252s-.524,6.651,3.928,11.816a24.525,24.525,0,0,1,5.2,9.015l-2.635,14.83c-.561-8.628-5.317-18.427-9.557-17.747-3.27.524-1.486,4.964,3.5,10.817a28.047,28.047,0,0,1,5.537,9.851l-1.241,6.986a2.174,2.174,0,0,0,1.282.227l.494-2.779a24.836,24.836,0,0,1,7.944-6.614C397.477,153.152,403.23,148.563,399.269,146.727Z" transform="translate(-233.97 -66.091)"/><path class="k" d="M49.48,246.748c-3.92,1.9-3.106,12.727.959,20.467l-8.086-9.423a26,26,0,0,1,.1-9.487c1.208-6.715,1.3-14.079-2.623-12.173-3.679,1.784-3.188,11.434.249,19.014l-10.386-12.1a17,17,0,0,1,.182-5.284c.743-4.229.821-8.873-1.654-7.673-2.144,1.044-2.04,6.317-.29,10.906l-3.37-3.928a24.524,24.524,0,0,1-2.746-5.838c-1.665-5.7-4.288-10.776-6.473-8.372s2.5,11.1,8.658,15.558l1.732,2.018c-4.429-3.344-11.192-4.912-12.764-2.635s3.036,2.909,7.331,2.8a15.32,15.32,0,0,1,6.492,1.07l8.175,9.535c-7.027-5.265-17.7-7.74-20.188-4.151s4.831,4.615,11.634,4.437a24.513,24.513,0,0,1,10.267,1.683L46.492,264.6c-7.034-5.035-17.632-7.521-19.791-3.8-1.665,2.861,2.9,4.3,10.59,4.136a28.013,28.013,0,0,1,11.148,1.951l4.623,5.384a2.2,2.2,0,0,0,.988-.847l-1.858-2.144A24.519,24.519,0,0,1,52.1,258.94C53.311,252.211,53.4,244.846,49.48,246.748Z" transform="translate(-7.941 -139.66)"/><g transform="translate(4.712 82.584)"><path class="j" d="M49.48,246.748c-3.92,1.9-3.106,12.727.959,20.467l-8.086-9.423a26,26,0,0,1,.1-9.487c1.208-6.715,1.3-14.079-2.623-12.173-3.679,1.784-3.188,11.434.249,19.014l-10.386-12.1a17,17,0,0,1,.182-5.284c.743-4.229.821-8.873-1.654-7.673-2.144,1.044-2.04,6.317-.29,10.906l-3.37-3.928a24.524,24.524,0,0,1-2.746-5.838c-1.665-5.7-4.288-10.776-6.473-8.372s2.5,11.1,8.658,15.558l1.732,2.018c-4.429-3.344-11.192-4.912-12.764-2.635s3.036,2.909,7.331,2.8a15.32,15.32,0,0,1,6.492,1.07l8.175,9.535c-7.027-5.265-17.7-7.74-20.188-4.151s4.831,4.615,11.634,4.437a24.513,24.513,0,0,1,10.267,1.683L46.492,264.6c-7.034-5.035-17.632-7.521-19.791-3.8-1.665,2.861,2.9,4.3,10.59,4.136a28.013,28.013,0,0,1,11.148,1.951l4.623,5.384a2.2,2.2,0,0,0,.988-.847l-1.858-2.144A24.519,24.519,0,0,1,52.1,258.94C53.311,252.211,53.4,244.846,49.48,246.748Z" transform="translate(-12.653 -222.244)"/></g><path class="l" d="M431.737,271.026c-2.467-3.59-13.046-1.159-20.088,4.028l8.1-9.416a25.6,25.6,0,0,1,9.394-1.327c6.819.186,14.12-.829,11.638-4.422-2.315-3.37-11.783-1.434-18.758,3.106l10.4-12.088a16.881,16.881,0,0,1,5.258-.621c4.3.115,8.9-.524,7.335-2.787-1.353-1.966-6.57-1.066-10.824,1.349l3.374-3.917a24.428,24.428,0,0,1,5.355-3.593c5.384-2.5,10.033-5.864,7.305-7.658s-10.6,4.139-14.079,10.9l-1.739,2.018c2.623-4.883,3.173-11.805.684-13.005s-2.419,3.426-1.676,7.655a15.332,15.332,0,0,1-.082,6.581l-8.193,9.524c4.136-7.744,4.99-18.672,1.052-20.589s-3.838,5.455-2.638,12.169a24.425,24.425,0,0,1-.119,10.4l-9.817,11.415c3.935-7.71,4.831-18.579.821-20.144-3.08-1.215-3.816,3.511-2.5,11.092a28.063,28.063,0,0,1-.256,11.3l-4.63,5.381a2.23,2.23,0,0,0,.988.851l1.858-2.14a24.224,24.224,0,0,1,10.207-1.642C426.914,275.633,434.212,274.619,431.737,271.026Z" transform="translate(-255.792 -146.643)"/><path class="m" d="M307.356,213.1l-42.509,27.445a1.932,1.932,0,0,1-2.668-.576l-15.7-24.3a1.929,1.929,0,0,1,.572-2.668l42.532-27.445a1.929,1.929,0,0,1,2.668.576l15.685,24.29a1.932,1.932,0,0,1-.576,2.679Z" transform="translate(-154.684 -116.412)"/><rect class="n" width="54.459" height="9.635" transform="translate(94.604 103.586) rotate(-32.85)"/><rect class="o" width="25.767" height="1.369" rx="0.685" transform="matrix(0.841, -0.541, 0.541, 0.841, 104.108, 113.647)"/><rect class="o" width="25.803" height="1.371" rx="0.686" transform="translate(105.829 115.656) rotate(-32.85)"/><rect class="o" width="19.393" height="1.371" rx="0.686" transform="translate(107.284 117.916) rotate(-32.85)"/><rect class="p" width="8.688" height="5.507" rx="2.753" transform="translate(137.6 93.305) rotate(-32.85)"/><rect class="q" width="24.38" height="5.704" transform="translate(98.317 134.638)"/><rect class="r" width="24.38" height="0.817" transform="translate(98.317 134.638)"/><rect class="s" width="1.059" height="5.704" transform="translate(100.375 134.638)"/><rect class="s" width="1.059" height="5.704" transform="translate(103.575 134.638)"/><rect class="s" width="1.059" height="5.704" transform="translate(106.774 134.638)"/><rect class="t" width="1.059" height="5.704" transform="translate(109.977 134.638)"/><rect class="t" width="1.059" height="5.704" transform="translate(113.177 134.638)"/><rect class="t" width="1.059" height="5.704" transform="translate(116.376 134.638)"/><rect class="t" width="1.059" height="5.704" transform="translate(119.575 134.638)"/><rect class="u" width="13.34" height="5.704" transform="translate(107.711 134.638)"/><rect class="v" width="3.381" height="5.704" transform="translate(117.665 134.638)"/><rect class="q" width="24.38" height="5.704" transform="translate(127.148 134.638)"/><rect class="r" width="24.38" height="0.817" transform="translate(127.148 134.638)"/><rect class="s" width="1.059" height="5.704" transform="translate(129.21 134.638)"/><rect class="s" width="1.059" height="5.704" transform="translate(132.41 134.638)"/><rect class="s" width="1.059" height="5.704" transform="translate(135.609 134.638)"/><rect class="t" width="1.059" height="5.704" transform="translate(138.808 134.638)"/><rect class="t" width="1.059" height="5.704" transform="translate(142.008 134.638)"/><rect class="t" width="1.059" height="5.704" transform="translate(145.207 134.638)"/><rect class="t" width="1.059" height="5.704" transform="translate(148.41 134.638)"/><rect class="u" width="13.34" height="5.704" transform="translate(136.542 134.638)"/><rect class="v" width="3.381" height="5.704" transform="translate(146.5 134.638)"/><path class="h" d="M230.822,111.5c-.687-.212-1.367-.409-2.044-.6v-3.017a5.986,5.986,0,0,0-5.986-5.986H193.675a5.99,5.99,0,0,0-5.99,5.986v3.017c-.676.193-1.356.372-2.04.6h0a3.021,3.021,0,0,0-2.125,2.924l.914,67.628a10.033,10.033,0,0,0,10.033,9.88h27.568a10.033,10.033,0,0,0,10.014-9.88l.914-67.628a3.021,3.021,0,0,0-2.122-2.924Z" transform="translate(-115.316 -64.027)"/><rect class="o" width="35.999" height="41.577" transform="translate(74.915 16.76)"/><rect class="w" width="35.999" height="41.577" transform="translate(74.915 16.76)"/><path class="x" d="M191.51,149.7l1.891-.587a63.328,63.328,0,0,1,39.6,0l1.888.587-.832,61.263a8.784,8.784,0,0,1-8.781,8.662H201.119a8.781,8.781,0,0,1-8.781-8.662Z" transform="translate(-120.337 -91.708)"/><rect class="o" width="37.08" height="27.698" transform="translate(74.32 63.376)"/><rect class="y" width="37.08" height="4.805" transform="translate(74.32 63.376)"/><circle class="z" cx="8.662" cy="8.662" r="8.662" transform="translate(81.238 83.452) rotate(-63.3)"/><path class="aa" d="M241.04,201.856a.94.94,0,0,1-.8-.409l-3.861-5.667a.955.955,0,0,1,1.576-1.074l2.995,4.4,5.86-10.4a.955.955,0,1,1,1.661.936l-6.614,11.731a.959.959,0,0,1-.791.483Z" transform="translate(-148.449 -118.247)"/><rect class="o" width="5.986" height="3.779" rx="1.89" transform="translate(74.32 96.64)"/><rect class="o" width="5.986" height="3.779" rx="1.89" transform="translate(82.744 96.64)"/><rect class="o" width="5.986" height="3.779" rx="1.89" transform="translate(96.994 96.64)"/><rect class="o" width="5.986" height="3.779" rx="1.89" transform="translate(105.414 96.64)"/><rect class="o" width="7.933" height="4.671" rx="2.335" transform="translate(75.401 103.611)"/><rect class="o" width="7.933" height="4.671" rx="2.335" transform="translate(88.897 103.611)"/><rect class="o" width="7.933" height="4.671" rx="2.335" transform="translate(102.389 103.611)"/><rect class="o" width="7.933" height="4.671" rx="2.335" transform="translate(75.401 109.839)"/><rect class="o" width="7.933" height="4.671" rx="2.335" transform="translate(88.897 109.839)"/><rect class="o" width="7.933" height="4.671" rx="2.335" transform="translate(102.389 109.839)"/><rect class="o" width="7.933" height="4.671" rx="2.335" transform="translate(75.401 116.066)"/><rect class="o" width="7.933" height="4.671" rx="2.335" transform="translate(88.897 116.066)"/><rect class="o" width="7.933" height="4.671" rx="2.335" transform="translate(102.389 116.066)"/><g class="ab" transform="translate(74.32 63.376)"><rect class="ac" width="8.123" height="53.939" transform="matrix(0.677, 0.736, -0.736, 0.677, 35.637, -7.831)"/></g><rect class="ad" width="19.527" height="1.91" transform="translate(83.153 18.819)"/><g class="ae" transform="translate(77.315 24.634)"><line class="af" x2="31.094" transform="translate(0 5.511)"/><line class="af" x2="31.094"/><line class="af" x2="31.094" transform="translate(0 27.479)"/><rect class="af" width="8.424" height="0.977" transform="translate(0 8.535)"/><rect class="af" width="8.424" height="0.977" transform="translate(10.471 8.535)"/><rect class="af" width="2.077" height="0.977" transform="translate(29.017 8.535)"/><rect class="af" width="2.077" height="0.977" transform="translate(29.017 11.148)"/><rect class="af" width="2.077" height="0.977" transform="translate(29.017 13.756)"/><rect class="af" width="2.077" height="0.977" transform="translate(29.017 16.368)"/><rect class="af" width="2.077" height="0.977" transform="translate(29.017 18.977)"/><rect class="af" width="2.077" height="0.977" transform="translate(29.017 21.589)"/><rect class="af" width="1.092" height="0.977" transform="translate(26.884 8.535)"/><rect class="af" width="1.092" height="0.977" transform="translate(26.884 11.148)"/><rect class="af" width="1.092" height="0.977" transform="translate(26.884 13.756)"/><rect class="af" width="1.092" height="0.977" transform="translate(26.884 16.368)"/><rect class="af" width="1.092" height="0.977" transform="translate(26.884 18.977)"/><rect class="af" width="1.092" height="0.977" transform="translate(26.884 21.589)"/><rect class="af" width="10.791" height="0.977" transform="translate(0 11.148)"/><rect class="af" width="7.372" height="0.977" transform="translate(13.418 11.148)"/><rect class="af" width="8.424" height="0.977" transform="translate(0 14.302)"/><rect class="af" width="8.424" height="0.977" transform="translate(10.471 14.302)"/><rect class="af" width="10.791" height="0.977" transform="translate(0 16.911)"/><rect class="af" width="16.695" height="0.977" transform="translate(0 2.203)"/><rect class="af" width="11.802" height="0.977" transform="translate(19.293 2.203)"/><rect class="af" width="10.791" height="0.977" transform="translate(13.418 16.911)"/><rect class="af" width="8.424" height="0.977" transform="translate(0 20.066)"/><rect class="af" width="8.424" height="0.977" transform="translate(10.471 20.066)"/><rect class="af" width="10.791" height="0.977" transform="translate(0 22.674)"/><rect class="af" width="10.791" height="0.977" transform="translate(13.418 22.674)"/></g><path class="h" d="M5.19,0H49.269a5.19,5.19,0,0,1,5.19,5.19v22.4a5.19,5.19,0,0,1-5.19,5.19H5.19A5.19,5.19,0,0,1,0,27.595V5.19A5.19,5.19,0,0,1,5.19,0Z" transform="translate(100.249 98.985)"/><rect class="ag" width="54.459" height="9.635" transform="translate(100.249 106.071)"/><rect class="o" width="25.803" height="1.371" rx="0.686" transform="translate(103.133 119.622)"/><rect class="o" width="25.803" height="1.371" rx="0.686" transform="translate(103.133 122.305)"/><rect class="o" width="19.393" height="1.371" rx="0.686" transform="translate(103.133 124.988)"/><rect class="ah" width="8.688" height="5.507" rx="2.753" transform="translate(141.952 120.759)"/><rect class="ai" width="25.361" height="5.934" transform="translate(94.627 128.808)"/><rect class="r" width="25.361" height="0.851" transform="translate(94.627 128.808)"/><rect class="s" width="1.104" height="5.934" transform="translate(96.767 128.808)"/><rect class="s" width="1.104" height="5.934" transform="translate(100.097 128.808)"/><rect class="s" width="1.104" height="5.934" transform="translate(103.426 128.808)"/><rect class="t" width="1.104" height="5.934" transform="translate(106.756 128.808)"/><rect class="t" width="1.104" height="5.934" transform="translate(110.085 128.808)"/><rect class="t" width="1.104" height="5.934" transform="translate(113.411 128.808)"/><rect class="t" width="1.104" height="5.934" transform="translate(116.74 128.808)"/><rect class="u" width="13.875" height="5.934" transform="translate(104.396 128.808)"/><rect class="v" width="3.519" height="5.934" transform="translate(114.756 128.808)"/><path class="aj" d="M116.222,192.23c-.372,3.478-2.285,6.161-4.652,6.358,2.367.2,4.292,2.883,4.652,6.362.372-3.478,2.285-6.165,4.652-6.362C118.507,198.391,116.583,195.708,116.222,192.23Z" transform="translate(-70.102 -120.798)"/><path class="ak" d="M134.724,185.87c-.2,1.992-1.308,3.53-2.664,3.642,1.356.115,2.46,1.65,2.664,3.645.208-2,1.312-3.53,2.668-3.645C136.036,189.4,134.932,187.862,134.724,185.87Z" transform="translate(-82.978 -116.802)"/><circle class="al" cx="10.241" cy="10.241" r="10.241" transform="translate(34.364 63.916) rotate(-80.7)"/><circle class="am" cx="8.617" cy="8.617" r="8.617" transform="translate(37.503 46.847)"/><circle class="an" cx="8.379" cy="8.379" r="8.379" transform="translate(35.202 60.065) rotate(-67.82)"/><g class="ao" transform="translate(42.761 49.999)"><path class="t" d="M119.078,144.111V145.4h-1.152v-1.26a5.473,5.473,0,0,1-2.876-.922l.635-1.408a4.7,4.7,0,0,0,2.23.817V140.7c-1.282-.312-2.716-.743-2.716-2.389,0-1.226.892-2.274,2.716-2.482V134.55h1.152v1.26a5.173,5.173,0,0,1,2.345.7l-.576,1.419a4.689,4.689,0,0,0-1.769-.6V139.3c1.282.3,2.69.743,2.69,2.356C121.768,142.851,120.891,143.892,119.078,144.111Zm-1.152-5.106v-1.639c-.613.138-.855.476-.855.855S117.417,138.846,117.926,139.005Zm1.984,2.783c0-.4-.334-.624-.832-.8v1.594c.58-.126.832-.438.832-.81Z" transform="translate(-115.05 -134.55)"/></g><g class="ap" transform="translate(37.503 46.847)"><g class="aq"><rect class="ar" width="5.013" height="22.087" transform="matrix(0.492, 0.871, -0.871, 0.492, 18.086, 3.151)"/><path class="ar" d="M96.271,139.9l-1.661-1.531L113.84,127.5l1.661,1.531Z" transform="translate(-96.947 -126.969)"/></g></g><path class="as" d="M493.16,333.359s-.123-4.329-1.616-4.649-1.7,2.694,0,5.667Z" transform="translate(-308.13 -206.55)"/><path class="at" d="M493.1,331.8s.3,1.052,1.018,4.009" transform="translate(-309.861 -208.506)"/><path class="au" d="M495.7,337.957s2.274-2.2,1.419-3.266-2.973.78-3.552,3.266Z" transform="translate(-310.156 -210.13)"/><path class="at" d="M498.588,336.87a8.063,8.063,0,0,0-1.668,2.345" transform="translate(-312.262 -211.692)"/><path class="av" d="M490.29,340.107s-.58-2.5-1.75-2.289,0,2.27,0,2.27Z" transform="translate(-306.669 -212.28)"/><line class="at" x2="0.39" y2="1.457" transform="translate(182.083 126.047)"/><path class="aw" d="M234.571,347.727s-.111-4.322-1.6-4.648-1.706,2.7,0,5.682Z" transform="translate(-145.64 -215.579)"/><path class="at" d="M234.48,346.18s.3,1.052,1.022,4.006" transform="translate(-147.34 -217.543)"/><path class="ax" d="M237.093,352.365s2.27-2.2,1.419-3.266-2.973.78-3.552,3.266Z" transform="translate(-147.642 -219.183)"/><path class="at" d="M239.978,351.24a8.048,8.048,0,0,0-1.668,2.345" transform="translate(-149.747 -220.723)"/><path class="ay" d="M231.671,354.517s-.58-2.5-1.754-2.289,0,2.274,0,2.274Z" transform="translate(-144.145 -221.335)"/><line class="at" x2="0.394" y2="1.457" transform="translate(85.984 131.39)"/><path class="az" d="M346.784,86.72c-5.7,0-9.784,4.6-9.784,10.285,0,6.811,9.795,14.057,9.795,14.057s9.8-7.186,9.8-14.057C356.579,91.324,352.462,86.72,346.784,86.72Zm-.193,15.384a4.645,4.645,0,1,1,4.645-4.645A4.645,4.645,0,0,1,346.591,102.1Z" transform="translate(-211.766 -54.494)"/><g class="b" transform="translate(15.359 26.583)"><path class="c" d="M49.663,79.461A2.731,2.731,0,0,0,49.4,83.59a4.92,4.92,0,0,0,2.23-6.02,6.8,6.8,0,0,0-4.113,3.184c-.743,1.62,0,3.957,1.758,4.288a3.172,3.172,0,0,0,3.244-2.066,9.252,9.252,0,0,0,.427-4.087" transform="translate(-45.028 -75.328)"/><path class="c" d="M44.377,74.109a4.977,4.977,0,0,0-.264,7.261,2.252,2.252,0,0,0,2.679.346,7.194,7.194,0,0,0,3.24-8.52,2.244,2.244,0,0,0-2.724-1.546c-2.36.9-4.712,2.23-5.648,4.73a5.626,5.626,0,0,0,1.156,5.8,4.647,4.647,0,0,0,6.231.182c2.256-1.776,2.5-4.6,2.389-7.272-.123-2.839-4.548-2.854-4.426,0a6.411,6.411,0,0,1-.308,3.344c-.26.461-.595.769-.825.509-1.156-1.3,1.858-2.757,2.6-3.036l-2.716-1.538a2.773,2.773,0,0,1-1.2,3.519l2.679.346c-.372-.372-.074-.743.268-1a2.221,2.221,0,0,0,0-3.125,2.258,2.258,0,0,0-3.129,0Z" transform="translate(-41.306 -71.536)"/></g><path class="ba" d="M439.806,132.654a.862.862,0,0,0,0-1.724A.862.862,0,0,0,439.806,132.654Z" transform="translate(-275.845 -82.277)"/><path class="bb" d="M14.363,246.108a.877.877,0,0,0-.647-.438c-.294,0-.479.23-.647.438a1.278,1.278,0,0,0-.234.4.884.884,0,0,0,.045.595.914.914,0,0,0,.836.565.963.963,0,0,0,.791-.453.914.914,0,0,0,.108-.583A.977.977,0,0,0,14.363,246.108Z" transform="translate(-8.036 -154.381)"/><path class="bc" d="M77.82,141.072l.2-.1a1.583,1.583,0,0,0,0-2.735l-.2-.1a1.7,1.7,0,1,0-.858,3.166,1.657,1.657,0,0,0,.858-.234Z" transform="translate(-47.287 -86.663)"/><path class="bd" d="M452.565,121l-.565.554" transform="translate(-284.033 -76.036)"/><path class="be" d="M447.822,115.727l-.3.331-.338.435a1.594,1.594,0,0,0-.245.788,1.07,1.07,0,0,0,0,.572,1.583,1.583,0,0,0,.253.8,2.263,2.263,0,0,0,.773.773l.513.219a1.646,1.646,0,0,0,.858.037,1.029,1.029,0,0,0,.542-.149,1.628,1.628,0,0,0,.695-.442l.327-.308a1.586,1.586,0,0,0,.45-.695,2.23,2.23,0,0,0-.45-2.371,2.177,2.177,0,0,0-1.531-.635l-.576.078a2.192,2.192,0,0,0-.959.557Z" transform="translate(-280.825 -72.316)"/></g></g></g></svg>