<svg xmlns="http://www.w3.org/2000/svg" xmlns:xlink="http://www.w3.org/1999/xlink" width="27.586" height="21.769" viewBox="0 0 27.586 21.769"><defs><style>.a{fill:url(#a);}</style><linearGradient id="a" y1="0.689" x2="1" y2="0.735" gradientUnits="objectBoundingBox"><stop offset="0" stop-color="#cc2b5e"/><stop offset="1" stop-color="#753a88"/></linearGradient></defs><path class="a" d="M31.7,22.85l-3.015-6.675a.893.893,0,0,0-1.015-.523l-8.89,1.692a.816.816,0,0,0-.554.338L13.89,23.219H5.123a.906.906,0,0,0-.923.923V36.477a.906.906,0,0,0,.923.923H26.594a.906.906,0,0,0,.923-.923V26.849l3.907-2.891A.9.9,0,0,0,31.7,22.85ZM7.03,25.065v.185a.814.814,0,0,1-.8.8H6.015v-.984ZM6.046,34.57h.215a.814.814,0,0,1,.8.8v.185H6.046Zm18.641.984V35.37a.814.814,0,0,1,.8-.8h.185v.984Zm.984-2.83h-.185a2.665,2.665,0,0,0-2.645,2.645v.185H8.876V35.37A2.665,2.665,0,0,0,6.23,32.724H6.015V27.895H6.23A2.665,2.665,0,0,0,8.876,25.25v-.185H19.826l-1.507,1.6a4.329,4.329,0,0,0-6.675,3.661A4.406,4.406,0,0,0,12.905,33.4a4.351,4.351,0,0,0,3.076,1.261A4.406,4.406,0,0,0,19.057,33.4a4.746,4.746,0,0,0,1.015-1.569,2.837,2.837,0,0,0,1.538-.554l4.06-3.045Zm-7.383-1.477a2.458,2.458,0,0,1-.554.831,2.545,2.545,0,0,1-3.537,0,2.461,2.461,0,0,1,1.753-4.214,2.346,2.346,0,0,1,1.292.369,2.7,2.7,0,0,0,.584,2.645Zm2.184-1.477a.955.955,0,0,1-1.261-.154.9.9,0,0,1,.031-1.23l4.43-4.706a.914.914,0,1,0-1.323-1.261l-.769.831H16.227l3.23-4.153L27.3,17.59l2.4,5.322Z" transform="translate(-4.2 -15.631)"/></svg>