<svg xmlns="http://www.w3.org/2000/svg" xmlns:xlink="http://www.w3.org/1999/xlink" width="20" height="20" viewBox="0 0 20 20"><defs><style>.a{fill:url(#a);}</style><linearGradient id="a" x1="0.5" x2="0.5" y2="1" gradientUnits="objectBoundingBox"><stop offset="0" stop-color="#cc2b5e"/><stop offset="1" stop-color="#753a88"/></linearGradient></defs><g transform="translate(-40 -548)"><g transform="translate(39.998 548)"><path class="a" d="M18.8,1.2A3.94,3.94,0,0,0,15.911,0H4.093A3.941,3.941,0,0,0,1.2,1.2,3.941,3.941,0,0,0,0,4.091V15.909A3.941,3.941,0,0,0,1.2,18.8,3.94,3.94,0,0,0,4.093,20H15.911A4.1,4.1,0,0,0,20,15.909V4.091A3.942,3.942,0,0,0,18.8,1.2Zm-.618,14.709a2.278,2.278,0,0,1-2.273,2.272H4.093a2.188,2.188,0,0,1-1.605-.667,2.189,2.189,0,0,1-.668-1.605V4.091a2.189,2.189,0,0,1,.668-1.605,2.189,2.189,0,0,1,1.605-.668H15.911a2.189,2.189,0,0,1,1.605.668,2.189,2.189,0,0,1,.667,1.605V15.909Z"/></g><g transform="translate(45 548.186)"><g transform="translate(0 5.814)"><path class="a" d="M4.857,13.449a1.246,1.246,0,0,1-1.762,0l-2.73-2.73A1.246,1.246,0,1,1,2.127,8.957l1.627,1.626a.315.315,0,0,0,.445,0l4.4-4.4a1.246,1.246,0,1,1,1.762,1.762Z" transform="translate(0 -5.814)"/></g></g></g></svg>