<svg xmlns="http://www.w3.org/2000/svg" width="16.842" height="22.582" viewBox="0 0 16.842 22.582"><defs><style>.a{fill:#282c37;}</style></defs><g transform="translate(-37.747)"><path class="a" d="M46.168,0a8.432,8.432,0,0,0-8.421,8.424c0,6.921,7.583,13.679,7.906,13.963a.78.78,0,0,0,1.031,0c.323-.284,7.906-7.042,7.906-13.963A8.432,8.432,0,0,0,46.168,0Zm0,20.733c-1.676-1.625-6.861-7.073-6.861-12.309a6.861,6.861,0,1,1,13.723,0C53.029,13.66,47.844,19.109,46.168,20.733Z"/><path class="a" d="M101.125,59.183a3.924,3.924,0,1,0,3.9,3.924A3.916,3.916,0,0,0,101.125,59.183Zm0,6.289a2.365,2.365,0,1,1,2.339-2.365A2.355,2.355,0,0,1,101.125,65.472Z" transform="translate(-54.957 -54.683)"/></g></svg>