<svg xmlns="http://www.w3.org/2000/svg" xmlns:xlink="http://www.w3.org/1999/xlink" width="27.585" height="18.39" viewBox="0 0 27.585 18.39"><defs><style>.a{fill:url(#a);}</style><linearGradient id="a" y1="0.5" x2="1" y2="0.5" gradientUnits="objectBoundingBox"><stop offset="0" stop-color="#cc2b5e"/><stop offset="1" stop-color="#753a88"/></linearGradient></defs><g transform="translate(0 -85.333)"><g transform="translate(0 85.333)"><g transform="translate(0 0)"><path class="a" d="M24.712,85.333H2.873A2.877,2.877,0,0,0,0,88.206V100.85a2.877,2.877,0,0,0,2.873,2.873H24.711a2.877,2.877,0,0,0,2.873-2.873V88.206A2.877,2.877,0,0,0,24.712,85.333Zm1.724,15.517a1.726,1.726,0,0,1-1.724,1.724H2.873a1.726,1.726,0,0,1-1.724-1.724V88.206a1.726,1.726,0,0,1,1.724-1.724H24.711a1.726,1.726,0,0,1,1.724,1.724V100.85Z" transform="translate(0 -85.333)"/></g></g><g transform="translate(0 88.781)"><g transform="translate(0 0)"><path class="a" d="M27.01,149.333H.575a.575.575,0,0,0-.575.575v3.448a.575.575,0,0,0,.575.575H27.01a.575.575,0,0,0,.575-.575v-3.448A.575.575,0,0,0,27.01,149.333Zm-.575,3.448H1.149v-2.3H26.436v2.3Z" transform="translate(0 -149.333)"/></g></g><g transform="translate(3.448 96.827)"><g transform="translate(0 0)"><path class="a" d="M71.471,298.667h-6.9a.575.575,0,1,0,0,1.149h6.9a.575.575,0,1,0,0-1.149Z" transform="translate(-64 -298.667)"/></g></g><g transform="translate(3.448 99.125)"><path class="a" d="M71.471,341.333h-6.9a.575.575,0,0,0,0,1.149h6.9a.575.575,0,0,0,0-1.149Z" transform="translate(-64 -341.333)"/></g><g transform="translate(19.539 95.677)"><g transform="translate(0 0)"><path class="a" d="M365.54,277.333h-1.149a1.726,1.726,0,0,0-1.724,1.724v1.149a1.726,1.726,0,0,0,1.724,1.724h1.149a1.726,1.726,0,0,0,1.724-1.724v-1.149A1.726,1.726,0,0,0,365.54,277.333Zm.575,2.873a.575.575,0,0,1-.575.575h-1.149a.575.575,0,0,1-.575-.575v-1.149a.575.575,0,0,1,.575-.575h1.149a.575.575,0,0,1,.575.575Z" transform="translate(-362.667 -277.333)"/></g></g></g></svg>