<svg xmlns="http://www.w3.org/2000/svg" xmlns:xlink="http://www.w3.org/1999/xlink" width="73.333" height="73.326" viewBox="0 0 73.333 73.326"><defs><style>.a{opacity:0.89;}.b{fill:url(#a);}</style><linearGradient id="a" y1="-2.41" x2="0.5" y2="1.75" gradientUnits="objectBoundingBox"><stop offset="0" stop-color="#bc2e66"/><stop offset="1" stop-color="#753a88"/></linearGradient></defs><g class="a" transform="translate(0)"><path class="b" d="M199.961,420.347a33.8,33.8,0,0,0,6.594,8.627,2.149,2.149,0,0,0,2.866,0,33.812,33.812,0,0,0,6.592-8.627,34.614,34.614,0,0,1-8.026-4.605A34.618,34.618,0,0,1,199.961,420.347Zm0,0" transform="translate(-171.321 -356.196)"/><path class="b" d="M313.115,317.992c-.4.453-.81.893-1.233,1.316a35.372,35.372,0,0,1-16.652,8.971,52.332,52.332,0,0,1-9.519,1.468,23.874,23.874,0,0,0,13,4.4c10.372,0,18.516-8.963,18.858-9.345a2.148,2.148,0,0,0,0-2.866A32.285,32.285,0,0,0,313.115,317.992Zm0,0" transform="translate(-244.789 -272.446)"/><path class="b" d="M22.914,328.28a35.369,35.369,0,0,1-16.653-8.972q-.635-.634-1.234-1.316A32.335,32.335,0,0,0,.572,321.94a2.149,2.149,0,0,0,0,2.866c.342.382,8.486,9.344,18.858,9.344a23.876,23.876,0,0,0,13-4.4A52.363,52.363,0,0,1,22.914,328.28Zm0,0" transform="translate(-0.021 -272.446)"/><path class="b" d="M168.769,52.528a2.147,2.147,0,0,0,2.866,0c.527-.472,12.91-11.723,12.91-25.99S172.163,1.02,171.636.548a2.149,2.149,0,0,0-2.866,0c-.528.472-12.91,11.724-12.91,25.99S168.242,52.056,168.769,52.528Zm0,0" transform="translate(-133.535)"/><path class="b" d="M350.943,33.253a42.542,42.542,0,0,0-2.234-6.114,2.148,2.148,0,0,0-2.648-1.1,42.673,42.673,0,0,0-5.9,2.743,44.989,44.989,0,0,1,3.6,6.569A45.207,45.207,0,0,1,350.943,33.253Zm0,0" transform="translate(-291.439 -22.208)"/><path class="b" d="M107.338,28.784a42.613,42.613,0,0,0-5.9-2.743,2.148,2.148,0,0,0-2.648,1.1,42.687,42.687,0,0,0-2.234,6.115,45.156,45.156,0,0,1,7.183,2.1A45.042,45.042,0,0,1,107.338,28.784Zm0,0" transform="translate(-82.725 -22.207)"/><path class="b" d="M318.138,111.847a32.394,32.394,0,0,1-2.225,11.543,44.182,44.182,0,0,1-4.775,9.039,53.289,53.289,0,0,1-4.368,5.58c5.915-.765,14.167-2.927,20.116-8.876,10.088-10.088,9.288-26.8,9.249-27.507a2.148,2.148,0,0,0-2.026-2.026c-.1-.005-.57-.029-1.339-.029a46.385,46.385,0,0,0-16.105,2.906A31.559,31.559,0,0,1,318.138,111.847Zm0,0" transform="translate(-262.832 -85.309)"/><path class="b" d="M29.4,138.009a53.35,53.35,0,0,1-4.368-5.58,44.186,44.186,0,0,1-4.775-9.039,32.407,32.407,0,0,1-2.225-11.543,31.542,31.542,0,0,1,1.474-9.37A46.382,46.382,0,0,0,3.4,99.57c-.77,0-1.243.024-1.34.029A2.148,2.148,0,0,0,.03,101.626c-.039.707-.839,17.419,9.249,27.507C15.228,135.082,23.48,137.244,29.4,138.009Zm0,0" transform="translate(0 -85.309)"/></g></svg>