<svg xmlns="http://www.w3.org/2000/svg" width="44.796" height="45.516" viewBox="0 0 44.796 45.516"><defs><style>.a{opacity:0.4;}.b{fill:#ff7d7d;}</style></defs><g class="a" transform="translate(-348.059 -2125.388)"><path class="b" d="M53.881,137.323v-.309a1.7,1.7,0,0,0-3.219-.76l-5,9.991-1.454-.727,3.4-6.8L46.7,128h-1.1a2.445,2.445,0,0,0-2.3,1.618l-3.1,8.692a2.43,2.43,0,0,0-.142.82v12.441a.814.814,0,0,1-.052.286l-4.465,11.906H45.93l3.1-12.389,4.755-13.485A1.69,1.69,0,0,0,53.881,137.323Z" transform="translate(312.512 2007.142)"/><path class="b" d="M309.869,151.856a.814.814,0,0,1-.052-.285V139.129a2.431,2.431,0,0,0-.142-.82l-3.1-8.691a2.445,2.445,0,0,0-2.3-1.618h-1.284l-.838,10.487,3.515,7.031-1.454.727-5-9.991a1.7,1.7,0,0,0-3.219.76v.309a1.7,1.7,0,0,0,.1.566l4.734,13.411,3.119,12.463h10.384Z" transform="translate(78.521 2007.142)"/><path class="b" d="M172.381,52.183a3.33,3.33,0,0,1-.189-1.106v-.309a3.325,3.325,0,0,1,6.3-1.487l.074.148.945-11.8,0-4a1.626,1.626,0,1,0-3.251,0v3.251H174.63V33.219a1.219,1.219,0,0,0-2.438,0v3.658h-1.626V33.219a1.219,1.219,0,1,0-2.438,0v4.47H166.5V34.845a1.219,1.219,0,1,0-2.438,0V38.5h-1.626V36.47a1.219,1.219,0,0,0-2.438,0v3.658l.815,9.556.2-.4a3.325,3.325,0,0,1,6.3,1.487v.309a3.321,3.321,0,0,1-.189,1.106L162.392,65.6l-.166.663.4,4.736a7.131,7.131,0,0,0,14.213-.037l.388-4.881-.138-.554Zm-4.281-3.84a4.169,4.169,0,0,0-4.689-2.541l-.319-1.594a5.794,5.794,0,0,1,6.517,3.53l.087.215-1.51.6Zm3.6,10.317a7.3,7.3,0,0,1-2.764-7.233l.016-.08,1.594.321-.016.079a5.664,5.664,0,0,0,2.145,5.613Z" transform="translate(200.704 2093.388)"/></g></svg>