<svg xmlns="http://www.w3.org/2000/svg" width="59.395" height="55.327" viewBox="0 0 59.395 55.327"><defs><style>.a{fill:#fff;}</style></defs><path class="a" d="M58.235,53.508h-2.51v-30.6h.1a1.16,1.16,0,0,0,0-2.32H47.086V18.144h3.7a1.16,1.16,0,0,0,1.16-1.16V1.661A1.16,1.16,0,0,0,50.782.5H31a1.16,1.16,0,0,0-1.16,1.16V16.983A1.16,1.16,0,0,0,31,18.144h3.7v2.444H26.678V12.312H26.8a1.16,1.16,0,1,0,0-2.32H23.932V2.851a1.16,1.16,0,1,0-2.32,0V5.481H16.218a1.16,1.16,0,0,0-1.16,1.16V9.992H2.436a1.16,1.16,0,0,0,0,2.32v41.2H1.16a1.16,1.16,0,1,0,0,2.32H58.235a1.16,1.16,0,1,0,0-2.32ZM32.158,2.821H49.622v13H32.158Zm4.855,15.323h7.752v2.444H37.014ZM17.378,7.8h4.234V9.992H17.378ZM4.756,12.312h19.6V29.07a1.16,1.16,0,1,0,2.32,0V22.908H53.4V45.047H26.678V39.509a1.16,1.16,0,0,0-2.32,0v14H4.756ZM26.678,47.367h8.937v6.141H26.678Zm11.258,6.141V47.367h4.388v6.141Zm6.708,0V47.367H53.4v6.141Zm0,0" transform="translate(0 -0.501)"/><path class="a" d="M304.283,43.4a2.883,2.883,0,0,0-.58-1.738,2.9,2.9,0,0,0-2.317-4.635h-1.913a1.16,1.16,0,0,0-1.16,1.16v6.951a1.16,1.16,0,0,0,1.16,1.16h1.913a2.9,2.9,0,0,0,2.9-2.9Zm-3.651-4.053h.753a.578.578,0,0,1,0,1.155h-.579a1.157,1.157,0,0,0-.174.013Zm0,3.463a1.22,1.22,0,0,0,.174.013h.579a.578.578,0,0,1,0,1.155h-.753Zm0,0" transform="translate(-263.706 -32.793)"/><path class="a" d="M362.428,46.089h1.582a1.16,1.16,0,0,0,0-2.32h-1.582a.719.719,0,0,1-.718-.718V40.069a.719.719,0,0,1,.718-.718h1.582a1.16,1.16,0,0,0,0-2.32h-1.582a3.042,3.042,0,0,0-3.038,3.038v2.982A3.041,3.041,0,0,0,362.428,46.089Zm0,0" transform="translate(-317.699 -32.793)"/><path class="a" d="M79.474,128.586H68.089a1.16,1.16,0,0,0-1.16,1.16v11.385a1.16,1.16,0,0,0,1.16,1.16H79.474a1.16,1.16,0,0,0,1.16-1.16V129.746A1.16,1.16,0,0,0,79.474,128.586Zm-1.16,5.692H74.942v-3.372h3.372Zm-9.065-3.372h3.372v3.372H69.25Zm0,5.692h3.372v3.372H69.25Zm9.065,3.372H74.942V136.6h3.372Zm0,0" transform="translate(-59.165 -113.727)"/><path class="a" d="M79.474,362.094H68.089a1.16,1.16,0,0,0-1.16,1.16v5.692a1.16,1.16,0,0,0,1.16,1.16H79.474a1.16,1.16,0,0,0,1.16-1.16v-5.692A1.16,1.16,0,0,0,79.474,362.094Zm-10.225,2.32h3.372v3.372H69.25Zm9.065,3.372H74.942v-3.372h3.372Zm0,0" transform="translate(-59.165 -320.147)"/><path class="a" d="M79.474,269.875H68.089a1.16,1.16,0,0,0-1.16,1.16v5.693a1.16,1.16,0,0,0,1.16,1.16H79.474a1.16,1.16,0,0,0,1.16-1.16v-5.693A1.16,1.16,0,0,0,79.474,269.875ZM69.25,272.2h3.372v3.372H69.25Zm9.065,3.372H74.942V272.2h3.372Zm0,0" transform="translate(-59.165 -238.626)"/><path class="a" d="M261.793,223.052h17.366a1.16,1.16,0,0,0,1.16-1.16v-5.005a1.16,1.16,0,0,0-1.16-1.16H261.793a1.16,1.16,0,0,0-1.16,1.16v5.005A1.16,1.16,0,0,0,261.793,223.052Zm6.983-2.32v-2.685h3.438v2.685Zm9.224,0h-3.465v-2.685H278Zm-15.046-2.685h3.5v2.685h-3.5Zm0,0" transform="translate(-230.398 -190.759)"/><path class="a" d="M261.793,306.7h17.366a1.16,1.16,0,0,0,1.16-1.16v-5.005a1.16,1.16,0,0,0-1.16-1.16H261.793a1.16,1.16,0,0,0-1.16,1.16v5.005A1.16,1.16,0,0,0,261.793,306.7Zm6.983-2.32v-2.685h3.438v2.685Zm9.224,0h-3.465v-2.685H278Zm-15.046-2.685h3.5v2.685h-3.5Zm0,0" transform="translate(-230.398 -264.701)"/><path class="a" d="M210.51,283.887a1.16,1.16,0,1,0-.441-1.373A1.17,1.17,0,0,0,210.51,283.887Zm0,0" transform="translate(-185.635 -249.135)"/></svg>