<svg xmlns="http://www.w3.org/2000/svg" width="38" height="38" viewBox="0 0 38 38"><defs><style>.a{fill:#fff;stroke:#006496;}.b{fill:none;}.c{fill:#006496;fill-rule:evenodd;}.d{stroke:none;}</style></defs><g transform="translate(0 -165)"><g transform="translate(0 165)"><g class="a"><circle class="d" cx="19" cy="19" r="19"/><circle class="b" cx="19" cy="19" r="18.5"/></g></g><g transform="translate(11 176)"><rect class="b" width="16" height="16"/><path class="c" d="M2,5v9H14V5ZM13,2h2a.945.945,0,0,1,1,1V15a.945.945,0,0,1-1,1H1a.945.945,0,0,1-1-1V3A.945.945,0,0,1,1,2H3V1A.945.945,0,0,1,4,0,.945.945,0,0,1,5,1V2h6V1a1,1,0,0,1,2,0ZM12,12H8V8h4Z"/></g></g></svg>