<svg xmlns="http://www.w3.org/2000/svg" xmlns:xlink="http://www.w3.org/1999/xlink" width="104.848" height="72.61" viewBox="0 0 104.848 72.61"><defs><style>.a{fill:none;}.b{fill:#fbbc8d;}.c{fill:#f7a17c;}.d{fill:#231f20;}.e{fill:#58595b;}.f{fill:#99c8eb;}.g{fill:#72675e;}.h{fill:#5c5149;}.i{fill:#4479a0;}.j{fill:#359df3;}.k{fill:#4f92c3;}.l{fill:#6ba0d0;}.m{fill:#a0cfef;}.n{fill:#87bde6;}.o{fill:#90776e;}.p{fill:#c9503f;}.ae,.p,.r{opacity:0.5;}.q{fill:#ffeddc;}.r{fill:#fff;}.s{fill:#a9512d;}.t{fill:#e98a69;}.u{fill:#51332b;}.v{fill:#805b51;}.w{fill:#67554e;}.x{fill:#52403b;}.y{fill:#ae9792;}.z{fill:#e8b796;}.aa{fill:#dbad89;}.ab{clip-path:url(#a);}.ac,.ad,.ah{fill:#f7e129;}.ac{font-size:14px;}.ac,.ah{font-family:Multicolore;}.af{clip-path:url(#b);}.ag{clip-path:url(#e);}.ah{font-size:13px;}.ai{clip-path:url(#f);}</style><clipPath id="a"><rect class="a" width="13.472" height="16.105"/></clipPath><clipPath id="b"><rect class="a" width="9.148" height="2.341"/></clipPath><clipPath id="e"><rect class="a" width="13.131" height="15.697"/></clipPath><clipPath id="f"><rect class="a" width="8.916" height="2.281"/></clipPath></defs><g transform="translate(104.323 672)"><g transform="translate(-72 -672)"><path class="b" d="M197.163,139.882c-1.608,1.58-8.951-4.742-9.571-5.745-1.411-2.28.913-7.8,2.611-8.039C191.835,125.863,199.575,137.511,197.163,139.882Z" transform="translate(-161.147 -108.566)"/><path class="c" d="M195.271,138.214c-.6-2.078-.685-4.608.556-5.143-1.889-3.586-4.694-7.145-5.6-7.013-1.7.243-4.021,5.759-2.611,8.039.544.88,6.247,5.838,8.732,5.994A5.645,5.645,0,0,1,195.271,138.214Z" transform="translate(-161.164 -108.532)"/><path class="b" d="M201.1,202.679a2.515,2.515,0,0,1,4.462,1.678c-.1,2.669-5.674,5.246-8.5,8.506l-.438-.428C198.859,209.5,199.766,204.118,201.1,202.679Z" transform="translate(-169.294 -173.72)"/><path class="c" d="M203,195.642c-1.037-.389-1.619.556-2.224,1.419-1.333,1.44-1.9,7.089-4.141,10.022l.335.327c1.82-2.371,3.3-5.032,4.494-5.8,1.718-1.483,2.8-2.43,2.059-3.456A5.326,5.326,0,0,1,203,195.642Z" transform="translate(-169.303 -168.368)"/><path class="c" d="M188.929,277.147s-.762,1.4-1.056,1.312-.9-.713-.892-.973,1.532-.906,1.532-.906Z" transform="translate(-160.994 -238.133)"/><path class="b" d="M187.02,277.736c.081-.271.234-.466.342-.431s.131.278.05.556-.234.464-.342.431S186.939,278.007,187.02,277.736Z" transform="translate(-160.987 -238.754)"/><path class="b" d="M189.437,279.308c.081-.271.235-.464.343-.431s.131.278.05.556-.234.464-.343.431S189.357,279.573,189.437,279.308Z" transform="translate(-163.068 -240.107)"/><path class="b" d="M191.87,281.568c.081-.271.234-.464.342-.431s.139.278.051.556-.235.464-.343.431S191.789,281.839,191.87,281.568Z" transform="translate(-165.163 -242.053)"/><path class="b" d="M192.977,280.211c-.24-.175-.357-.395-.26-.491s.371-.028.613.147.357.4.26.491S193.219,280.387,192.977,280.211Z" transform="translate(-165.904 -240.799)"/><path class="b" d="M197.48,277.448c-.075.293-.4.813-.531.771s-.172-.311-.1-.6.239-.5.368-.456S197.554,277.154,197.48,277.448Z" transform="translate(-169.462 -238.627)"/><path class="d" d="M108.073,289.123c-.849-3.2-1.1-16.052-.168-18.261.965-2.285,10.613-1.529,11.885.673.242.417.883,12.919-1.318,17.932-.332.758-1.4.794-2.067-.207-.6-.9-2.421-11.378-3.029-10.865-.923.781-1.818,10.245-3.174,11.554C109.737,290.4,108.494,290.709,108.073,289.123Z" transform="translate(-92.4 -232.015)"/><path class="e" d="M107.458,287.822c-.849-3.2-.931-14.22,0-16.426.175-.417,3.218-.947,5.645-.742,2.155.181,4.615.609,5.574.325-.139-1.882-.163-2.316-.687-2.7-3.425-.963-11.111-.662-11.816,1-.931,2.207-.343,15.152.506,18.349.263.992.848,1.241,1.364,1.182A1.77,1.77,0,0,1,107.458,287.822Z" transform="translate(-91.014 -230.521)"/><path class="e" d="M155.255,341.149c-.595-.9-2.822-12.13-3.428-11.615a1.346,1.346,0,0,0-.3.549c.631.246,2.377,10.015,2.947,10.874a1.462,1.462,0,0,0,1.337.756A1.879,1.879,0,0,1,155.255,341.149Z" transform="translate(-130.472 -283.711)"/><path class="d" d="M110.671,398.718c-1.56-.278-2.28,3.926-2.234,5.092.1,2.476,1.357,8.071,1.558,10.653h.464l.973-10.507S112.093,398.977,110.671,398.718Z" transform="translate(-93.367 -343.282)"/><path class="e" d="M108.31,412.036a32.243,32.243,0,0,1,.07-4.256,11,11,0,0,0-.91,3.988c.1,2.477,1.492,7.923,1.693,10.509h.36C109.358,419.575,108.3,414.415,108.31,412.036Z" transform="translate(-92.534 -351.096)"/><path class="d" d="M168.454,399.046c-.847-.106-2.263,3.6-2.335,4.766a73.823,73.823,0,0,0,.973,10.943h.461s1.054-8.488,1.43-10.485C169.346,402.352,169.3,399.152,168.454,399.046Z" transform="translate(-143.021 -343.574)"/><path class="e" d="M164.434,429.42c.1-.958-.723-1.382-.8-.215a61.387,61.387,0,0,0,1.322,10.911h.278A60.334,60.334,0,0,1,164.434,429.42Z" transform="translate(-140.889 -368.934)"/><path class="e" d="M170.22,439.476l.1-.652-2.515-.524.06.723Z" transform="translate(-144.489 -377.373)"/><path class="e" d="M114.712,435.866l.09-.8-2.442-.289.036.724Z" transform="translate(-96.747 -374.342)"/><path class="f" d="M171,507.461h3.692s-1.957-1.35-2.718-1.207S171,507.461,171,507.461Z" transform="translate(-147.235 -435.872)"/><path class="f" d="M115,507.461h2.39s-.61-1.35-1.376-1.207S115,507.461,115,507.461Z" transform="translate(-99.02 -435.872)"/><path class="e" d="M141,324.08a3.869,3.869,0,0,0,4.031.12,4.042,4.042,0,0,1-2.534,1.244C141.488,325.385,141,324.08,141,324.08Z" transform="translate(-121.406 -279.03)"/><path class="e" d="M172.109,395.331a4.133,4.133,0,0,0,.961-2.341,13.574,13.574,0,0,1-.927,1.158C171.928,394.3,172.109,395.331,172.109,395.331Z" transform="translate(-148.128 -338.361)"/><path class="e" d="M112.991,395.458a4.3,4.3,0,0,0,.922-2.388,14.126,14.126,0,0,1-.908,1.2C112.794,394.441,112.991,395.458,112.991,395.458Z" transform="translate(-97.218 -338.43)"/><path class="g" d="M106.664,411.949a.517.517,0,0,0,.406.538l2.5.446a.463.463,0,0,0,.392-.113.548.548,0,0,0,.179-.395l.1-3.18a.516.516,0,0,0-.463-.548l-2.252-.118a.339.339,0,0,0-.339.27A19.2,19.2,0,0,0,106.664,411.949Z" transform="translate(-91.841 -351.784)"/><path class="g" d="M162,415.059a.293.293,0,0,0,.224.3l3,.712a.211.211,0,0,0,.26-.185l.334-3.741a.357.357,0,0,0-.085-.263.364.364,0,0,0-.247-.127l-2.146-.16a.3.3,0,0,0-.306.181A12.542,12.542,0,0,0,162,415.059Z" transform="translate(-139.485 -354.377)"/><path class="h" d="M163.519,413.447a3.787,3.787,0,0,1,.474-1.756l-.667-.049a.3.3,0,0,0-.306.181,12.648,12.648,0,0,0-1.031,3.286.293.293,0,0,0,.224.3l1.992.473A3.678,3.678,0,0,1,163.519,413.447Z" transform="translate(-139.477 -354.42)"/><path class="h" d="M107.96,410.02a6.255,6.255,0,0,1,.156-1.41l-.58-.031a.339.339,0,0,0-.339.27,18.687,18.687,0,0,0-.534,3.1.517.517,0,0,0,.406.538l1.643.293A4.557,4.557,0,0,1,107.96,410.02Z" transform="translate(-91.841 -351.784)"/><path class="h" d="M107.509,428.024a.556.556,0,0,1-.417-.588c.072-.987-.363-.79-.4.189a.517.517,0,0,0,.406.538l2.5.446a.455.455,0,0,0,.339-.075Z" transform="translate(-91.867 -367.46)"/><path class="h" d="M162.595,431.932a.3.3,0,0,1-.225-.3c.042-.945-.339-.824-.381.121a.293.293,0,0,0,.224.3l3,.712a.208.208,0,0,0,.172-.033.2.2,0,0,0,.076-.118Z" transform="translate(-139.477 -371.074)"/><path class="e" d="M140.686,331.677a14.592,14.592,0,0,1-1.764-.417h1.683Z" transform="translate(-119.587 -285.212)"/><path class="e" d="M150.417,331.007a11.628,11.628,0,0,0,1.991-.164,18.335,18.335,0,0,0-2.207-.343Z" transform="translate(-129.327 -284.558)"/><path class="e" d="M101.643,294.988c-.544-.834-.973-1.3-.973-2.135s.139-4.2,1.013-4.669S101.643,294.988,101.643,294.988Z" transform="translate(-86.682 -248.105)"/><path class="e" d="M151.93,286.779l.145,3.057.507-3.076Z" transform="translate(-130.816 -246.898)"/><path class="i" d="M62.142,133.992c-1.585-2.851-3.753-4.227-4.608-3.785-2.17,1.126,5.456,7.327,6.383,10.58C64.772,140.345,63.728,136.843,62.142,133.992Z" transform="translate(-49.209 -112.037)"/><path class="j" d="M82.08,134.106c-.488-1.668-.659-11.378-1.293-12.573s-6.134-8.969,1.055-10.83c10.74-2.78,14.924.8,16.194,2.459s.808,5.449-.966,7.44c-1.717,1.928-1.023,13.238-2.085,13.931-.352.228-3.475-.67-6.5-.639S82.325,134.937,82.08,134.106Z" transform="translate(-67.318 -94.432)"/><path class="k" d="M94.918,141.8c-2.833-1.083-10.306-1.022-10.551-1.852-.488-1.661-.495-11.676-1.127-12.868-.514-.973-4.4-5.977-1.946-8.937-6.4,2.095-1.159,9.512-.542,10.678.634,1.2.8,10.912,1.293,12.573.245.834,3.364-.182,6.394-.213s6.152.867,6.5.639v-.008Z" transform="translate(-67.289 -101.717)"/><path class="l" d="M57.123,104.671c2.316.482,5.163,6.757,5.936,9.073,1.849-.854,4.7-11.1,4.391-11.582C63.976,96.756,56.881,100.906,57.123,104.671Z" transform="translate(-49.182 -85.729)"/><path class="k" d="M59.632,104.341c-1.836-2.26,1.066-4.273,3.379-4.761-3.058,0-6.047,2.633-5.888,5.1.064,5.206,5.794,4.922,5.936,9.7.578-.267,1.689-2.171,1.9-3.607C63.372,109.5,61.658,106.825,59.632,104.341Z" transform="translate(-49.182 -85.737)"/><path class="j" d="M198.413,119.307c-.5.865-4.625,4.5-5.453,3.764-1.984-1.754-2.529-9.551-2.085-9.917C195.8,109.065,200.518,115.665,198.413,119.307Z" transform="translate(-164.223 -96.312)"/><path class="k" d="M211.544,163.39c.043.464.067.947.067,1.44a14.876,14.876,0,0,1-.231,2.641c1.271-.37,3.723-2.487,4.568-3.475A4.819,4.819,0,0,1,211.544,163.39Z" transform="translate(-182.002 -140.677)"/><path class="i" d="M129.39,109.913c1.362,1.123,3.165,4.383,4.8,4.5,1.728.124,3.281-2.951,4.545-3.753C136.955,109.589,132.1,109.077,129.39,109.913Z" transform="translate(-111.409 -94.275)"/><path class="b" d="M136.7,109.009a6.719,6.719,0,0,0,6.931.381A12.381,12.381,0,0,0,136.7,109.009Z" transform="translate(-117.703 -93.579)"/><path class="k" d="M102.72,169.59a17.591,17.591,0,0,1,3.15,3.438l-3.005-1.881Z" transform="translate(-88.447 -146.015)"/><path class="m" d="M160.79,146.716l.578,1.158.58-1.194Z" transform="translate(-138.445 -126.29)"/><path class="n" d="M205.257,117.088a18.53,18.53,0,0,0,3.286-3.956,4.39,4.39,0,0,0-1.56-.671,42.716,42.716,0,0,1-2.184,4.265Z" transform="translate(-176.337 -96.827)"/><path class="n" d="M217.166,125.739a18.046,18.046,0,0,0,3.438-2.79,5.959,5.959,0,0,0-1.012-1.329,42.81,42.81,0,0,1-2.812,3.681Z" transform="translate(-186.652 -104.714)"/><path class="n" d="M77.992,109.58l.507-.289a19.435,19.435,0,0,0-4.967-7.381A6.784,6.784,0,0,0,71.52,103,34.639,34.639,0,0,1,77.992,109.58Z" transform="translate(-61.584 -87.743)"/><path class="n" d="M100.229,104.507a20.3,20.3,0,0,0-1.825-4.413,4.99,4.99,0,0,0-2.744-.48,36.747,36.747,0,0,1,4.181,6.307C99.987,105.419,100.118,104.942,100.229,104.507Z" transform="translate(-82.368 -85.74)"/><path class="k" d="M161.1,272.355a4.069,4.069,0,0,0-1.094-.185S160.465,272.242,161.1,272.355Z" transform="translate(-137.773 -234.336)"/><path class="k" d="M167.88,273.5c1.529.436,3.272,1.486,3.937,1.191C172.526,274.376,169.565,273.8,167.88,273.5Z" transform="translate(-144.549 -235.481)"/><path class="o" d="M199.231,41l-.706-3.8-.755-.72.2-.207.82.784.724,3.892Z" transform="translate(-170.284 -31.228)"/><rect class="o" width="0.286" height="3.146" transform="translate(27.478 8.918) rotate(-28.16)"/><path class="d" d="M110.791,13.787A7.027,7.027,0,0,1,105.7,5.041c1.305-6.33,9.015-5.712,11.4-3.486,3.956,3.693.621,11.968-1.651,12.167A44.013,44.013,0,0,1,110.791,13.787Z" transform="translate(-90.822 0.004)"/><path class="e" d="M151.185,4.991l1.361-.072a8.6,8.6,0,0,0-1.672-4.75A9.149,9.149,0,0,0,148.33.045,5.6,5.6,0,0,1,151.185,4.991Z" transform="translate(-127.717 -0.006)"/><path class="d" d="M114.182,11.043c-3.319-1.168-5.263-3.812-5.133-6.223a5.848,5.848,0,0,0-3.336,4.375,7.026,7.026,0,0,0,5.092,8.746,45.293,45.293,0,0,0,4.653-.065c1.366-.12,3.115-3.161,3.433-6.369A10.439,10.439,0,0,1,114.182,11.043Z" transform="translate(-90.834 -4.149)"/><path class="e" d="M163.3,43.929c.847.26,3.565.449,1.04-8.849l-4.64.77S160.424,43.052,163.3,43.929Z" transform="translate(-137.506 -30.203)"/><path class="d" d="M160.989,43.912c.713.218,2.758.388,1.87-5.135a28.541,28.541,0,0,1,.065-3.677H157.39S158.114,43.033,160.989,43.912Z" transform="translate(-135.517 -30.22)"/><path class="b" d="M140.44,65.937,141.6,58.61l4.27,3.795.157,3.848Z" transform="translate(-120.923 -50.462)"/><path class="p" d="M134.74,84.03c1.348-.09,3.182-1.419,4.4-2.42a11.305,11.305,0,0,0-1.429-.455c-.154-.061-.329-.117-.512-.168l-.125-3.03c-1.318-.949-2.523-1.807-2.523-1.807l-2.385,1.473-.5,3.143-.225.046c-.192.028-.379.06-.556.095-.222.028-.456.065-.685.1C131.562,82.565,133.108,84.139,134.74,84.03Z" transform="translate(-112.107 -65.564)"/><path class="b" d="M144.288,43.113s1.521,2.858,5.5,1.79a1.715,1.715,0,0,0,.354-2.146c.973-4.071-.535-4.679.291-5.159.407-.238.391-2.43.1-2.47-.7-.1-4.2,0-6.215,0C143.422,35.128,143.653,42.252,144.288,43.113Z" transform="translate(-123.754 -30.207)"/><path class="c" d="M144.978,42.788c-.524-.709-.771-5.66-.338-7.388H144.3c-.9,0-.673,7.124-.038,7.984,0,0,1.521,2.858,5.5,1.79a3,3,0,0,0,.359-.509C146.407,45.474,144.978,42.788,144.978,42.788Z" transform="translate(-123.728 -30.479)"/><path class="c" d="M152.746,35.979l-6.537.321L146.04,35h6.67Z" transform="translate(-125.745 -30.134)"/><path class="q" d="M150.888,81.575l-2.481-3.315L147.93,80.5l2.768,1.384Z" transform="translate(-127.372 -67.381)"/><path class="d" d="M118.793,42.742c.856.267,3.8.306-.019-9.122l-3.9.816S115.883,41.839,118.793,42.742Z" transform="translate(-98.908 -28.946)"/><path class="e" d="M108.91,26.03c0-2.188.894-4.08-.058-4.08s-1.728,1.774-1.732,3.962.76,3.969,1.713,3.969S108.9,28.219,108.91,26.03Z" transform="translate(-92.235 -18.898)"/><path class="q" d="M170.487,101.739c.078-.389-.381,0-1.276,0s-1.882-.389-1.96,0,.581.7,1.476.7S170.408,102.126,170.487,101.739Z" transform="translate(-144.002 -87.447)"/><rect class="e" width="7.253" height="0.43" transform="translate(20.295 4.627)"/><path class="e" d="M140.946,30.175l-.906-.7c3.442,8.56,1.416,9.835.378,9.678l.046.017C141.32,39.444,144.358,39.362,140.946,30.175Z" transform="translate(-120.579 -25.382)"/><path class="r" d="M175.981,6.911c-.806-.815-1.738-1.2-2.085-.86s.038,1.273.845,2.085,1.738,1.2,2.085.86S176.79,7.721,175.981,6.911Z" transform="translate(-149.619 -5.103)"/><path class="r" d="M161.944,2.149c-.434-.06-.778.035-.766.21s.375.367.81.427.778-.033.766-.21S162.379,2.21,161.944,2.149Z" transform="translate(-138.778 -1.834)"/><path class="s" d="M156.567,47.869s2.171-.024,2.195-.095a6.951,6.951,0,0,0-.047-.765s-2.053.192-2.148.264A.668.668,0,0,0,156.567,47.869Z" transform="translate(-134.749 -40.475)"/><path class="s" d="M182.681,47.584a14.057,14.057,0,0,1-1.726-.113c-.017-.072.054-.762.054-.762a16.371,16.371,0,0,1,1.685.278A.818.818,0,0,1,182.681,47.584Z" transform="translate(-155.804 -40.216)"/><path class="t" d="M174.983,59.41h-.09a17.851,17.851,0,0,1,.573,2.13c-.036.214-1.145.375-1.145.375s1.251.072,1.39-.231S175.413,60.414,174.983,59.41Z" transform="translate(-150.094 -51.151)"/><path class="u" d="M171.952,81.51h1.934a1.014,1.014,0,0,1-1.075,1.194C171.8,82.7,171.952,81.51,171.952,81.51Z" transform="translate(-148.049 -70.179)"/><path class="q" d="M172.658,82h1.732s.174.581-.937.581C172.555,82.575,172.658,82,172.658,82Z" transform="translate(-148.66 -70.601)"/><path class="v" d="M164.71,57.314c0-.261-.139-.474-.3-.474s-.306.213-.306.474.139.475.306.475S164.71,57.575,164.71,57.314Z" transform="translate(-141.295 -48.938)"/><path class="v" d="M183.769,57.314c0-.261-.139-.474-.3-.474s-.3.213-.3.474.139.475.3.475S183.769,57.575,183.769,57.314Z" transform="translate(-157.705 -48.938)"/><path class="i" d="M148.118,84.048a.382.382,0,0,0-.517-.149.381.381,0,1,0,.521.149Z" transform="translate(-126.925 -72.196)"/><path class="i" d="M137.349,34.175a.346.346,0,0,0-.417-.254.341.341,0,0,0-.211.435.328.328,0,1,0,.627-.181Z" transform="translate(-117.705 -29.196)"/><path class="i" d="M129.75,38.782a.37.37,0,1,0-.239.491A.388.388,0,0,0,129.75,38.782Z" transform="translate(-111.105 -33.189)"/><rect class="q" width="7.516" height="0.464" transform="translate(20.032 4.699)"/><path class="w" d="M140.951,49.478h-4.47l-2.919-1.972L130.99,41.25l.264-.11,2.508,6.1,2.166-2.224h6.091l-.011,1.946Zm-4.383-.285h4.192l.973-2.32V45.309h-5.685l-2.077,2.128Z" transform="translate(-112.787 -35.421)"/><path class="x" d="M142.6,40.486l-1.6-3.877-2.174-.7.088-.274,2.3.737,1.653,4-.072.192-.156.156Z" transform="translate(-119.529 -30.685)"/><path class="w" d="M170.087,74.738l-.277-.076,1.127-4.062.275.076Z" transform="translate(-146.211 -60.786)"/><path class="w" d="M162.009,40.926a.1.1,0,0,1-.1.1h-6.394a.288.288,0,0,1-.286-.288h6.6A.185.185,0,0,1,162.009,40.926Z" transform="translate(-133.658 -35.076)"/><path class="x" d="M131.986,35.517l-1.312.949-.164-.235,1.154-.831Z" transform="translate(-112.374 -30.479)"/><rect class="w" width="4.101" height="0.286" transform="translate(27.799 13.807) rotate(-88.282)"/><path class="x" d="M136.472,49.462l.015-.335-2.524-1.707,2.016-2.066-.111-.3-2.114,2.166-2.509-6.1-.264.11,2.572,6.257,2.921,1.975Z" transform="translate(-112.778 -35.404)"/><path class="x" d="M148.828,85.194a.257.257,0,1,0-.256.291A.278.278,0,0,0,148.828,85.194Z" transform="translate(-127.704 -73.158)"/><path class="y" d="M149.442,85.681a.126.126,0,1,0-.057.125A.126.126,0,0,0,149.442,85.681Z" transform="translate(-128.457 -73.645)"/><path class="x" d="M130.407,39.84a.256.256,0,1,0-.254.292A.278.278,0,0,0,130.407,39.84Z" transform="translate(-111.847 -34.112)"/><path class="y" d="M131.067,40.494a.126.126,0,1,0-.125.139A.139.139,0,0,0,131.067,40.494Z" transform="translate(-112.636 -34.766)"/><path class="x" d="M137.828,35.184a.257.257,0,1,0-.254.291A.278.278,0,0,0,137.828,35.184Z" transform="translate(-118.233 -30.1)"/><path class="y" d="M138.455,35.881a.125.125,0,1,0-.125.139A.139.139,0,0,0,138.455,35.881Z" transform="translate(-119 -30.797)"/><path class="j" d="M66.267,107.271c1.362-3.82-1.989-7.591-4.678-7.668s-6.562,1.529-6.672,5.588,4.269,9.915,6.96,9.99S64.526,112.152,66.267,107.271Z" transform="translate(-47.287 -85.756)"/><path class="k" d="M60.627,114.109c-2.057-2.676-3.5-3.882-4.587-3.136-1.689,1.166-3.132,4.887-.054,9.433,1.893,2.8,4.348,5.143,5.541,3.6S62.685,116.785,60.627,114.109Z" transform="translate(-46.656 -95.359)"/><path class="i" d="M60.054,133.007c-1.39-2.572-2.744-2.555-4.073-1.515-1.394,1.1-1.088,2.851,1.608,6.763C62.327,145.128,61.379,135.468,60.054,133.007Z" transform="translate(-47.503 -112.647)"/><path class="b" d="M.849,146.292c.036-2.071,8.6-4.233,9.633-4.17,2.351.139,4.5,4.753,3.564,6.18C13.145,149.674.8,149.4.849,146.292Z" transform="translate(-0.736 -122.364)"/><path class="c" d="M11.33,146.139c2.5.056,4.707-.229,5.068-.781.94-1.428-.53-7.517-2.809-6.55-.834.356-8.308,1.946-10.008,3.77C10.106,142.189,10.946,145.279,11.33,146.139Z" transform="translate(-3.088 -119.423)"/><path class="b" d="M4.631,107.988c.218,1.718-2.4,4-4.031,2.352-1.558-1.564.637-7.112.556-11.016l.556-.083C1.98,102.527,4.654,106.2,4.631,107.988Z" transform="translate(-0.039 -85.444)"/><path class="c" d="M11.61,108.661a2.513,2.513,0,0,0,1.205-2.5c.022-1.786-3.036-5.361-3.31-8.649l-.425.068a21.027,21.027,0,0,0,1.75,5.674C11.731,105.622,11.974,107.17,11.61,108.661Z" transform="translate(-7.823 -83.955)"/><path class="c" d="M4.039,93.921s.139-1.132-.11-1.307a1.769,1.769,0,0,0-1.273.021c-.161.139.79,1.19.79,1.19Z" transform="translate(-2.276 -79.645)"/><path class="c" d="M9.505,88.758c-.075-.268-.154-.215-.278-.2s-.161.185-.086.463.217.425.318.353S9.582,89.024,9.505,88.758Z" transform="translate(-7.843 -76.235)"/><path class="c" d="M6.518,88.758c-.075-.268-.154-.215-.278-.2s-.158.185-.083.463.222.417.318.349S6.6,89.024,6.518,88.758Z" transform="translate(-5.272 -76.235)"/><path class="c" d="M3.541,88.758c-.075-.268-.153-.215-.278-.2s-.164.185-.089.463.221.417.32.349S3.616,89.024,3.541,88.758Z" transform="translate(-2.705 -76.235)"/><path class="c" d="M.53,88.73c-.086-.264-.163-.207-.278-.182s-.163.2-.076.46.236.417.335.339S.618,89,.53,88.73Z" transform="translate(-0.119 -76.218)"/><path class="c" d="M11.626,98.588c.225-.167.842-.263.863-.393s-.164-.26-.417-.288-.473.054-.493.183S11.423,98.739,11.626,98.588Z" transform="translate(-9.92 -84.292)"/><path class="z" d="M455.75,144.456c-1.625,1.6-9.048-4.794-9.676-5.81-1.426-2.3.923-7.882,2.641-8.128C450.363,130.28,458.2,142.057,455.75,144.456Z" transform="translate(-383.693 -112.372)"/><path class="z" d="M455.493,144.1c-1.584,1.557-8.818-4.673-9.431-5.663-1.39-2.246.9-7.682,2.574-7.921C450.243,130.286,457.876,141.764,455.493,144.1Z" transform="translate(-454.425 -110.99)"/><path class="aa" d="M453.789,142.81c-.609-2.1-.7-4.659.556-5.195-1.91-3.627-4.747-7.228-5.666-7.089-1.717.246-4.066,5.823-2.641,8.128.556.891,6.316,5.908,8.83,6.061A5.845,5.845,0,0,1,453.789,142.81Z" transform="translate(-383.663 -112.378)"/><path class="aa" d="M453.581,142.5c-.593-2.047-.677-4.541.542-5.063-1.861-3.535-4.627-7.045-5.522-6.909-1.673.24-3.963,5.675-2.574,7.921.542.868,6.156,5.758,8.606,5.907A5.7,5.7,0,0,1,453.581,142.5Z" transform="translate(-454.395 -110.996)"/><path class="z" d="M459.727,207.952a2.544,2.544,0,0,1,4.512,1.7c-.1,2.7-5.731,5.3-8.6,8.6l-.443-.434C457.464,214.852,458.381,209.408,459.727,207.952Z" transform="translate(-391.93 -178.252)"/><path class="z" d="M459.613,207.929a2.479,2.479,0,0,1,4.4,1.654c-.1,2.631-5.586,5.166-8.378,8.383l-.432-.423C457.407,214.654,458.3,209.347,459.613,207.929Z" transform="translate(-462.695 -177.14)"/><path class="aa" d="M461.637,200.833c-1.048-.393-1.638.556-2.251,1.436-1.347,1.455-1.922,7.169-4.187,10.134l.338.331c1.842-2.4,3.336-5.088,4.546-5.869,1.738-1.5,2.829-2.458,2.085-3.495A5.382,5.382,0,0,1,461.637,200.833Z" transform="translate(-391.93 -172.837)"/><path class="aa" d="M461.474,200.831c-1.022-.383-1.6.542-2.193,1.4-1.313,1.418-1.874,6.987-4.081,9.876l.329.322c1.8-2.338,3.251-4.959,4.43-5.72,1.693-1.462,2.757-2.4,2.032-3.406A5.246,5.246,0,0,1,461.474,200.831Z" transform="translate(-462.695 -171.703)"/><path class="c" d="M447.47,283.261s-.77,1.418-1.068,1.326-.906-.72-.9-.973,1.537-.924,1.537-.924Z" transform="translate(-383.578 -243.394)"/><path class="c" d="M447.42,283.247s-.751,1.382-1.041,1.292-.883-.7-.879-.948,1.5-.9,1.5-.9Z" transform="translate(-454.309 -242.549)"/><path class="b" d="M445.491,283.842c.082-.278.238-.468.346-.435s.139.278.051.556-.236.47-.346.436S445.41,284.117,445.491,283.842Z" transform="translate(-383.529 -244.008)"/><path class="b" d="M445.489,283.83c.08-.271.232-.457.337-.424s.135.271.05.542-.23.458-.337.425S445.411,284.1,445.489,283.83Z" transform="translate(-454.259 -243.165)"/><path class="b" d="M447.944,285.39c.082-.278.236-.47.346-.435s.132.278.051.556-.238.468-.348.435S447.862,285.665,447.944,285.39Z" transform="translate(-385.64 -245.34)"/><path class="b" d="M447.942,285.379c.08-.271.23-.458.337-.424s.129.271.05.542-.232.457-.339.424S447.862,285.647,447.942,285.379Z" transform="translate(-456.379 -244.503)"/><path class="b" d="M450.4,287.72c.082-.278.236-.47.346-.435s.139.278.051.556-.236.47-.346.435S450.32,288,450.4,287.72Z" transform="translate(-387.756 -247.347)"/><path class="b" d="M450.4,287.709c.08-.271.23-.458.337-.424s.135.271.05.542-.23.458-.337.424S450.321,287.977,450.4,287.709Z" transform="translate(-458.504 -246.517)"/><path class="b" d="M451.517,286.353c-.243-.178-.361-.4-.263-.495s.375-.029.62.149.361.4.263.495S451.761,286.535,451.517,286.353Z" transform="translate(-388.503 -246.084)"/><path class="b" d="M451.509,286.34c-.237-.173-.352-.389-.256-.482s.366-.028.6.145.352.39.256.482S451.748,286.517,451.509,286.34Z" transform="translate(-459.254 -245.25)"/><path class="b" d="M456.072,283.549c-.075.3-.4.823-.535.781s-.175-.316-.1-.612.242-.5.373-.461S456.148,283.253,456.072,283.549Z" transform="translate(-392.103 -243.877)"/><path class="b" d="M456.055,283.541c-.073.289-.394.8-.522.761s-.171-.308-.1-.6.236-.49.363-.45S456.13,283.253,456.055,283.541Z" transform="translate(-462.869 -243.034)"/><path class="d" d="M366.087,296.452c-.849-3.2-1.1-16.052-.168-18.26.965-2.285,10.613-1.529,11.885.673.242.417.884,12.918-1.316,17.932-.334.759-1.4.794-2.068-.207-.595-.9-2.421-11.378-3.022-10.862-.923.783-1.82,10.245-3.175,11.556C367.752,297.729,366.508,298.038,366.087,296.452Z" transform="translate(-314.549 -238.326)"/><path class="d" d="M366.067,295.953c-.828-3.116-1.072-15.645-.164-17.8.94-2.227,10.344-1.49,11.583.656.236.406.862,12.59-1.283,17.477-.325.74-1.368.774-2.016-.2-.58-.872-2.36-11.089-2.945-10.586-.9.763-1.773,9.985-3.094,11.262C367.69,297.2,366.478,297.5,366.067,295.953Z" transform="translate(-384.997 -237.46)"/><path class="e" d="M365.478,295.146c-.851-3.2-.931-14.22,0-16.428.177-.417,3.218-.945,5.646-.742,2.153.182,4.615.609,5.574.327-.146-1.882-.164-2.316-.688-2.7-3.424-.963-11.111-.66-11.816,1-.931,2.207-.343,15.152.506,18.349.264.993.849,1.243,1.365,1.182A1.739,1.739,0,0,1,365.478,295.146Z" transform="translate(-313.167 -236.826)"/><path class="e" d="M365.434,294.636c-.829-3.116-.908-13.859,0-16.011.172-.406,3.136-.921,5.5-.723,2.1.177,4.5.593,5.433.318-.142-1.834-.16-2.257-.671-2.628-3.337-.939-10.829-.644-11.516.974-.908,2.151-.335,14.767.493,17.883.257.967.828,1.211,1.33,1.152A1.7,1.7,0,0,1,365.434,294.636Z" transform="translate(-383.61 -235.953)"/><path class="e" d="M413.274,348.471c-.595-.9-2.82-12.13-3.428-11.617a1.356,1.356,0,0,0-.3.556c.63.246,2.376,10.017,2.946,10.874a1.458,1.458,0,0,0,1.337.756A1.906,1.906,0,0,1,413.274,348.471Z" transform="translate(-352.626 -290.014)"/><path class="e" d="M413.18,348.176c-.58-.872-2.749-11.822-3.341-11.322a1.322,1.322,0,0,0-.289.542c.614.24,2.315,9.763,2.871,10.6a1.421,1.421,0,0,0,1.3.737A1.858,1.858,0,0,1,413.18,348.176Z" transform="translate(-423.23 -289.36)"/><path class="d" d="M368.69,406.048c-1.558-.278-2.278,3.926-2.232,5.092.1,2.476,1.355,8.069,1.558,10.652h.461l.973-10.507S370.112,406.308,368.69,406.048Z" transform="translate(-315.521 -349.593)"/><path class="d" d="M368.633,406.048c-1.519-.271-2.22,3.826-2.176,4.963.095,2.413,1.321,7.865,1.519,10.382h.45l.948-10.241S370.019,406.3,368.633,406.048Z" transform="translate(-385.973 -349.183)"/><path class="e" d="M366.322,419.366a32.239,32.239,0,0,1,.069-4.256,11.041,11.041,0,0,0-.912,3.988c.1,2.477,1.492,7.923,1.694,10.507h.359C367.369,426.91,366.31,421.743,366.322,419.366Z" transform="translate(-314.68 -357.407)"/><path class="e" d="M366.3,419.258a31.42,31.42,0,0,1,.068-4.148A10.76,10.76,0,0,0,365.48,419c.095,2.414,1.454,7.722,1.651,10.241h.35C367.321,426.611,366.288,421.575,366.3,419.258Z" transform="translate(-385.128 -357.029)"/><path class="d" d="M426.454,406.376c-.847-.107-2.263,3.6-2.335,4.767a73.8,73.8,0,0,0,.973,10.941h.463s1.054-8.486,1.429-10.484C427.349,409.68,427.3,406.482,426.454,406.376Z" transform="translate(-365.158 -349.885)"/><path class="d" d="M426.394,406.376c-.825-.1-2.206,3.51-2.276,4.646a71.929,71.929,0,0,0,.948,10.664h.451s1.027-8.271,1.393-10.218C427.267,409.6,427.223,406.479,426.394,406.376Z" transform="translate(-435.813 -349.476)"/><path class="e" d="M422.454,436.746c.1-.959-.723-1.382-.8-.217a61.47,61.47,0,0,0,1.321,10.911h.278A60.41,60.41,0,0,1,422.454,436.746Z" transform="translate(-363.043 -375.241)"/><path class="e" d="M422.433,436.722c.1-.935-.7-1.347-.775-.211a59.914,59.914,0,0,0,1.287,10.634h.271A58.88,58.88,0,0,1,422.433,436.722Z" transform="translate(-433.689 -374.935)"/><path class="e" d="M428.239,446.8l.106-.652-2.515-.524.06.724Z" transform="translate(-366.643 -383.676)"/><path class="e" d="M428.178,446.766l.1-.635-2.451-.511.058.706Z" transform="translate(-437.304 -383.405)"/><path class="e" d="M372.723,443.2l.09-.8-2.444-.289.036.723Z" transform="translate(-318.892 -380.654)"/><path class="e" d="M372.664,443.168l.088-.776-2.382-.282.035.7Z" transform="translate(-389.358 -380.371)"/><path class="f" d="M429,514.8h3.692s-1.959-1.35-2.719-1.208S429,514.8,429,514.8Z" transform="translate(-369.372 -442.193)"/><path class="f" d="M429,514.772h3.6s-1.909-1.315-2.65-1.177S429,514.772,429,514.772Z" transform="translate(-440.045 -442.162)"/><path class="f" d="M373,514.8h2.388s-.61-1.35-1.375-1.208S373,514.8,373,514.8Z" transform="translate(-321.156 -442.193)"/><path class="f" d="M373,514.772h2.328s-.595-1.315-1.34-1.177S373,514.772,373,514.772Z" transform="translate(-391.631 -442.162)"/><path class="e" d="M399,331.4a3.869,3.869,0,0,0,4.031.121,4.031,4.031,0,0,1-2.534,1.243C399.491,332.705,399,331.4,399,331.4Z" transform="translate(-343.542 -285.333)"/><path class="e" d="M399,331.4a3.77,3.77,0,0,0,3.929.118,3.929,3.929,0,0,1-2.47,1.211C399.478,332.672,399,331.4,399,331.4Z" transform="translate(-414.109 -284.659)"/><path class="e" d="M430.129,402.659a4.143,4.143,0,0,0,.961-2.339,13.855,13.855,0,0,1-.927,1.158C429.948,401.634,430.129,402.659,430.129,402.659Z" transform="translate(-370.282 -344.673)"/><path class="e" d="M430.127,402.6a4.038,4.038,0,0,0,.936-2.28,13.5,13.5,0,0,1-.9,1.129C429.951,401.6,430.127,402.6,430.127,402.6Z" transform="translate(-440.959 -344.242)"/><path class="e" d="M371.007,402.787a4.284,4.284,0,0,0,.923-2.387,14.21,14.21,0,0,1-.908,1.2C370.811,401.771,371.007,402.787,371.007,402.787Z" transform="translate(-319.369 -344.741)"/><path class="e" d="M371.005,402.726a4.175,4.175,0,0,0,.9-2.326,13.855,13.855,0,0,1-.885,1.172C370.814,401.736,371.005,402.726,371.005,402.726Z" transform="translate(-389.837 -344.311)"/><path class="g" d="M364.684,419.279a.514.514,0,0,0,.4.535l2.5.446a.466.466,0,0,0,.392-.114.556.556,0,0,0,.179-.395l.1-3.179a.514.514,0,0,0-.463-.548l-2.241-.115a.338.338,0,0,0-.341.27A18.1,18.1,0,0,0,364.684,419.279Z" transform="translate(-313.995 -358.095)"/><path class="g" d="M364.684,419.193a.5.5,0,0,0,.394.522l2.439.435a.454.454,0,0,0,.382-.111.542.542,0,0,0,.175-.385l.1-3.1a.5.5,0,0,0-.451-.534l-2.184-.112a.329.329,0,0,0-.332.263A17.637,17.637,0,0,0,364.684,419.193Z" transform="translate(-384.441 -357.719)"/><path class="g" d="M420,422.381a.293.293,0,0,0,.225.3l3,.713a.217.217,0,0,0,.172-.033.209.209,0,0,0,.086-.152l.334-3.742a.354.354,0,0,0-.085-.261.359.359,0,0,0-.246-.126l-2.148-.161a.307.307,0,0,0-.3.181A12.664,12.664,0,0,0,420,422.381Z" transform="translate(-361.622 -360.681)"/><path class="g" d="M420,422.293a.286.286,0,0,0,.219.289l2.922.695a.211.211,0,0,0,.168-.032.2.2,0,0,0,.084-.148l.325-3.647a.345.345,0,0,0-.083-.255.35.35,0,0,0-.24-.123l-2.093-.157a.3.3,0,0,0-.3.176A12.343,12.343,0,0,0,420,422.293Z" transform="translate(-432.263 -360.316)"/><path class="h" d="M421.528,420.767A3.782,3.782,0,0,1,422,419l-.669-.05a.307.307,0,0,0-.3.181A12.664,12.664,0,0,0,420,422.421a.293.293,0,0,0,.225.3l1.992.473A3.674,3.674,0,0,1,421.528,420.767Z" transform="translate(-361.622 -360.716)"/><path class="h" d="M421.489,420.721a3.686,3.686,0,0,1,.465-1.718l-.652-.049a.3.3,0,0,0-.3.176,12.343,12.343,0,0,0-1.007,3.2.286.286,0,0,0,.219.289l1.941.461A3.581,3.581,0,0,1,421.489,420.721Z" transform="translate(-432.263 -360.351)"/><path class="h" d="M365.961,417.349a6.264,6.264,0,0,1,.154-1.41l-.578-.031a.338.338,0,0,0-.341.27,18.554,18.554,0,0,0-.532,3.1.514.514,0,0,0,.407.535l1.643.293A4.541,4.541,0,0,1,365.961,417.349Z" transform="translate(-313.978 -358.095)"/><path class="h" d="M365.928,417.313a6.106,6.106,0,0,1,.15-1.374l-.564-.03a.329.329,0,0,0-.332.263,18.082,18.082,0,0,0-.519,3.021.5.5,0,0,0,.4.522l1.6.286A4.426,4.426,0,0,1,365.928,417.313Z" transform="translate(-384.424 -357.719)"/><path class="h" d="M365.527,435.333a.556.556,0,0,1-.417-.589c.072-.986-.363-.788-.4.19a.514.514,0,0,0,.4.538l2.5.446a.457.457,0,0,0,.338-.075Z" transform="translate(-314.019 -373.753)"/><path class="h" d="M365.506,435.3a.542.542,0,0,1-.406-.574c.07-.961-.354-.768-.387.186a.5.5,0,0,0,.39.524l2.439.435a.446.446,0,0,0,.329-.073Z" transform="translate(-384.465 -373.441)"/><path class="h" d="M420.606,439.257a.293.293,0,0,1-.225-.3c.042-.947-.341-.824-.382.12a.293.293,0,0,0,.225.3l3,.713a.217.217,0,0,0,.172-.033.208.208,0,0,0,.079-.122Z" transform="translate(-361.622 -377.381)"/><path class="h" d="M420.591,439.233a.286.286,0,0,1-.219-.289c.041-.923-.332-.8-.373.116a.286.286,0,0,0,.219.289l2.922.7a.211.211,0,0,0,.168-.033.2.2,0,0,0,.077-.119Z" transform="translate(-432.263 -377.085)"/><path class="e" d="M398.7,339.007a14.493,14.493,0,0,1-1.763-.417h1.682Z" transform="translate(-341.739 -291.523)"/><path class="e" d="M398.657,339a14.126,14.126,0,0,1-1.718-.406h1.639Z" transform="translate(-412.299 -290.875)"/><path class="e" d="M408.427,338.337a11.789,11.789,0,0,0,1.992-.164,18.344,18.344,0,0,0-2.209-.343Z" transform="translate(-351.472 -290.869)"/><path class="e" d="M408.421,338.324a11.488,11.488,0,0,0,1.941-.16,17.882,17.882,0,0,0-2.153-.335Z" transform="translate(-422.071 -290.218)"/><path class="e" d="M359.653,302.31c-.542-.834-.973-1.3-.973-2.135s.139-4.2,1.013-4.671S359.653,302.31,359.653,302.31Z" transform="translate(-308.827 -254.408)"/><path class="e" d="M359.628,302.137c-.528-.813-.948-1.271-.948-2.081s.135-4.093.988-4.552S359.628,302.137,359.628,302.137Z" transform="translate(-379.251 -253.608)"/><path class="e" d="M409.95,294.109l.145,3.055.506-3.075Z" transform="translate(-352.97 -253.209)"/><path class="e" d="M409.95,294.109l.141,2.978.493-3Z" transform="translate(-423.575 -252.404)"/><path class="i" d="M319.235,138.508c-1.6-2.879-3.8-4.269-4.659-3.827-2.195,1.138,5.516,7.409,6.453,10.7C321.889,144.932,320.838,141.391,319.235,138.508Z" transform="translate(-270.516 -115.889)"/><path class="i" d="M319.107,138.408c-1.561-2.806-3.7-4.161-4.541-3.73-2.139,1.11,5.376,7.221,6.289,10.432C321.693,144.67,320.669,141.218,319.107,138.408Z" transform="translate(-340.784 -114.522)"/><path class="j" d="M339.393,138.616c-.493-1.679-.667-11.5-1.307-12.712s-6.2-9.07,1.066-10.952c10.859-2.808,15.089.808,16.374,2.487s.817,5.51-.973,7.524c-1.736,1.946-1.036,13.383-2.113,14.085-.356.231-3.51-.678-6.576-.648S339.639,139.457,339.393,138.616Z" transform="translate(-288.825 -98.081)"/><path class="j" d="M339.293,137.989c-.481-1.637-.65-11.211-1.273-12.39s-6.046-8.84,1.039-10.674c10.584-2.737,14.706.787,15.958,2.424s.8,5.37-.948,7.333c-1.692,1.9-1.009,13.044-2.059,13.728-.347.225-3.421-.661-6.41-.631S339.533,138.809,339.293,137.989Z" transform="translate(-359.168 -96.641)"/><path class="k" d="M352.409,146.4c-2.866-1.1-10.425-1.033-10.667-1.871-.493-1.681-.5-11.8-1.141-13.011-.52-.981-4.448-6.044-1.961-9.035-6.472,2.118-1.172,9.619-.546,10.8.639,1.209.813,11.033,1.307,12.712.246.834,3.4-.183,6.468-.215s6.221.879,6.576.648v-.008Z" transform="translate(-288.832 -105.454)"/><path class="k" d="M351.979,145.79c-2.794-1.068-10.161-1.007-10.4-1.824-.481-1.638-.488-11.5-1.112-12.681-.507-.956-4.335-5.891-1.912-8.806-6.308,2.065-1.142,9.375-.532,10.524.623,1.179.793,10.753,1.274,12.39.24.813,3.314-.179,6.3-.21s6.063.856,6.41.631v-.008Z" transform="translate(-359.175 -104.044)"/><path class="l" d="M314.152,108.851c2.342.488,5.221,6.832,6,9.174,1.868-.863,4.753-11.223,4.44-11.711C321.076,100.848,313.908,105.045,314.152,108.851Z" transform="translate(-270.483 -89.28)"/><path class="l" d="M314.152,108.72c2.283.476,5.089,6.659,5.85,8.942,1.821-.841,4.632-10.939,4.327-11.414C320.9,100.92,313.914,105.011,314.152,108.72Z" transform="translate(-340.751 -87.803)"/><path class="k" d="M316.663,108.515c-1.868-2.285,1.079-4.322,3.414-4.815-3.093,0-6.116,2.663-5.955,5.156.065,5.264,5.859,4.978,6,9.808.585-.271,1.707-2.2,1.925-3.648C320.445,113.726,318.713,111.027,316.663,108.515Z" transform="translate(-270.457 -89.285)"/><path class="k" d="M316.6,108.393c-1.821-2.227,1.051-4.212,3.327-4.693-3.014,0-5.961,2.6-5.8,5.025.064,5.131,5.71,4.851,5.85,9.559a6.322,6.322,0,0,0,1.876-3.555C320.285,113.472,318.6,110.841,316.6,108.393Z" transform="translate(-340.725 -87.808)"/><path class="j" d="M457.03,123.646c-.5.873-4.676,4.547-5.514,3.806-2-1.774-2.555-9.657-2.11-10.028C454.382,113.289,459.156,119.962,457.03,123.646Z" transform="translate(-386.817 -99.976)"/><path class="j" d="M456.833,123.455c-.492.851-4.557,4.432-5.374,3.709-1.954-1.729-2.49-9.412-2.057-9.773C454.252,113.361,458.9,119.865,456.833,123.455Z" transform="translate(-457.561 -98.543)"/><path class="k" d="M470.3,168.22c.043.47.067.958.067,1.457a15.184,15.184,0,0,1-.232,2.683c1.283-.373,3.764-2.515,4.619-3.514A4.911,4.911,0,0,1,470.3,168.22Z" transform="translate(-404.785 -144.836)"/><path class="k" d="M470.291,168.22c.042.458.065.933.065,1.42a14.8,14.8,0,0,1-.226,2.615c1.25-.363,3.669-2.451,4.5-3.425A4.787,4.787,0,0,1,470.291,168.22Z" transform="translate(-475.602 -143.587)"/><path class="i" d="M387.23,114.15c1.376,1.136,3.2,4.432,4.851,4.548,1.746.125,3.317-2.984,4.6-3.8C394.878,113.822,389.964,113.3,387.23,114.15Z" transform="translate(-333.408 -97.919)"/><path class="i" d="M387.23,114.139c1.341,1.107,3.116,4.319,4.728,4.433,1.7.122,3.233-2.909,4.479-3.705C394.684,113.82,389.895,113.316,387.23,114.139Z" transform="translate(-403.934 -96.478)"/><path class="b" d="M394.62,113.237a6.78,6.78,0,0,0,7,.381A12.493,12.493,0,0,0,394.62,113.237Z" transform="translate(-339.771 -97.214)"/><path class="b" d="M394.62,113.228a6.608,6.608,0,0,0,6.825.371A12.176,12.176,0,0,0,394.62,113.228Z" transform="translate(-410.322 -95.77)"/><path class="k" d="M360.26,174.49a17.784,17.784,0,0,1,3.185,3.475l-3.039-1.9Z" transform="translate(-310.187 -150.234)"/><path class="k" d="M360.26,174.49a17.334,17.334,0,0,1,3.1,3.387l-2.962-1.853Z" transform="translate(-380.617 -149.007)"/><path class="m" d="M418.97,151.358l.585,1.17.585-1.208Z" transform="translate(-360.736 -130.285)"/><path class="m" d="M418.97,151.357l.57,1.141.57-1.177Z" transform="translate(-431.373 -128.976)"/><path class="n" d="M463.933,121.409a18.8,18.8,0,0,0,3.324-4,4.474,4.474,0,0,0-1.578-.678,42.949,42.949,0,0,1-2.209,4.309Z" transform="translate(-399.05 -100.503)"/><path class="n" d="M463.921,121.29a18.325,18.325,0,0,0,3.239-3.9,4.361,4.361,0,0,0-1.538-.661,41.861,41.861,0,0,1-2.153,4.2Z" transform="translate(-469.845 -99.073)"/><path class="n" d="M475.946,130.17a18.272,18.272,0,0,0,3.475-2.82,6.022,6.022,0,0,0-1.029-1.35,43.341,43.341,0,0,1-2.843,3.723Z" transform="translate(-409.451 -108.485)"/><path class="n" d="M475.936,130.064a17.807,17.807,0,0,0,3.387-2.749,5.869,5.869,0,0,0-1-1.315,42.247,42.247,0,0,1-2.771,3.628Z" transform="translate(-480.288 -107.087)"/><path class="n" d="M335.254,113.815l.513-.292a19.661,19.661,0,0,0-5.022-7.463,6.853,6.853,0,0,0-2.035,1.1A35.016,35.016,0,0,1,335.254,113.815Z" transform="translate(-283.023 -91.316)"/><path class="n" d="M335.088,113.618l.5-.285a19.162,19.162,0,0,0-4.895-7.274,6.679,6.679,0,0,0-1.983,1.076A34.128,34.128,0,0,1,335.088,113.618Z" transform="translate(-353.342 -89.848)"/><path class="n" d="M357.706,108.675a20.554,20.554,0,0,0-1.846-4.462,5.037,5.037,0,0,0-2.78-.485,37.113,37.113,0,0,1,4.227,6.378C357.46,109.6,357.592,109.115,357.706,108.675Z" transform="translate(-304.005 -89.281)"/><path class="n" d="M357.589,108.548a20.033,20.033,0,0,0-1.8-4.349,4.91,4.91,0,0,0-2.71-.473,36.172,36.172,0,0,1,4.12,6.216C357.349,109.448,357.478,108.978,357.589,108.548Z" transform="translate(-374.41 -87.805)"/><path class="k" d="M419.252,278.406a4.1,4.1,0,0,0-1.112-.186S418.607,278.292,419.252,278.406Z" transform="translate(-360.021 -239.545)"/><path class="k" d="M419.224,278.4a3.993,3.993,0,0,0-1.084-.182S418.6,278.29,419.224,278.4Z" transform="translate(-430.656 -238.684)"/><path class="k" d="M426.14,279.56c1.543.442,3.308,1.5,3.98,1.205C430.837,280.445,427.843,279.859,426.14,279.56Z" transform="translate(-366.909 -240.699)"/><path class="k" d="M426.14,279.56c1.5.431,3.224,1.465,3.879,1.175C430.718,280.423,427.8,279.851,426.14,279.56Z" transform="translate(-437.572 -239.843)"/><path class="o" d="M456.982,45.269l-.708-3.8-.755-.72.2-.206.82.783.724,3.894Z" transform="translate(-392.205 -34.904)"/><path class="o" d="M456.945,45.149l-.69-3.707-.736-.7.194-.2.8.763.706,3.795Z" transform="translate(-462.972 -33.205)"/><rect class="o" width="0.286" height="3.146" transform="translate(63.307 9.513) rotate(-28.16)"/><rect class="o" width="0.279" height="3.066" transform="translate(-7.459 11.114) rotate(-28.16)"/><path class="d" d="M368.541,18.052a7.027,7.027,0,0,1-5.095-8.746c1.305-6.333,9.015-5.712,11.4-3.486,3.956,3.693.621,11.967-1.651,12.167A45.294,45.294,0,0,1,368.541,18.052Z" transform="translate(-312.743 -3.667)"/><path class="d" d="M368.407,17.7a6.849,6.849,0,0,1-4.965-8.524c1.272-6.172,8.786-5.567,11.109-3.4,3.856,3.6.606,11.663-1.609,11.858A44.145,44.145,0,0,1,368.407,17.7Z" transform="translate(-383.184 -1.84)"/><path class="e" d="M408.961,9.257l1.361-.071a8.578,8.578,0,0,0-1.668-4.75,9.2,9.2,0,0,0-2.544-.125A5.61,5.61,0,0,1,408.961,9.257Z" transform="translate(-349.664 -3.679)"/><path class="e" d="M408.889,9.13l1.326-.069a8.361,8.361,0,0,0-1.626-4.629,8.969,8.969,0,0,0-2.479-.122A5.468,5.468,0,0,1,408.889,9.13Z" transform="translate(-420.256 -1.852)"/><path class="d" d="M371.956,15.312c-3.319-1.168-5.263-3.812-5.133-6.222a5.848,5.848,0,0,0-3.336,4.375,7.03,7.03,0,0,0,5.095,8.746,45.294,45.294,0,0,0,4.653-.065c1.366-.12,3.115-3.161,3.433-6.369a10.441,10.441,0,0,1-4.711-.464Z" transform="translate(-312.777 -7.826)"/><path class="d" d="M371.736,15.154c-3.235-1.138-5.129-3.715-5-6.064a5.7,5.7,0,0,0-3.251,4.264,6.852,6.852,0,0,0,4.965,8.524,44.145,44.145,0,0,0,4.534-.064c1.332-.117,3.036-3.081,3.346-6.208a10.176,10.176,0,0,1-4.591-.452Z" transform="translate(-383.218 -6.016)"/><path class="e" d="M421.05,48.189c.847.259,3.566.449,1.04-8.849l-4.64.769S418.174,47.312,421.05,48.189Z" transform="translate(-359.427 -33.871)"/><path class="e" d="M420.959,47.965c.825.252,3.475.438,1.013-8.625l-4.522.749S418.156,47.11,420.959,47.965Z" transform="translate(-430.059 -32.167)"/><path class="d" d="M418.735,48.172c.713.218,2.758.389,1.87-5.133a28.565,28.565,0,0,1,.065-3.678h-5.53S415.864,47.293,418.735,48.172Z" transform="translate(-357.439 -33.888)"/><path class="d" d="M418.644,47.948c.7.213,2.688.379,1.822-5a27.842,27.842,0,0,1,.064-3.585H415.14S415.846,47.092,418.644,47.948Z" transform="translate(-428.062 -32.185)"/><path class="b" d="M398.19,70.2l1.161-7.327,4.27,3.795.157,3.849Z" transform="translate(-342.845 -54.13)"/><path class="b" d="M398.19,70.011l1.131-7.141,4.162,3.7.153,3.751Z" transform="translate(-413.409 -52.509)"/><path class="aa" d="M392.49,88.292c1.348-.09,3.182-1.419,4.4-2.42a11.539,11.539,0,0,0-1.425-.456c-.154-.06-.329-.115-.512-.168l-.125-3.03c-1.318-.948-2.523-1.807-2.523-1.807l-2.39,1.472-.5,3.143c-.076.015-.152.029-.225.046-.192.028-.379.06-.556.095-.222.028-.456.065-.685.1C389.307,86.825,390.858,88.4,392.49,88.292Z" transform="translate(-334.028 -69.232)"/><path class="aa" d="M392.375,88.092c1.314-.088,3.1-1.383,4.287-2.359a11.245,11.245,0,0,0-1.389-.444c-.15-.058-.321-.112-.5-.164l-.122-2.953c-1.284-.924-2.459-1.761-2.459-1.761l-2.329,1.435-.485,3.063c-.074.015-.148.028-.219.045-.187.027-.37.058-.542.092-.217.027-.444.064-.668.1C389.272,86.662,390.784,88.2,392.375,88.092Z" transform="translate(-404.556 -67.673)"/><path class="z" d="M402.038,47.391s1.521,2.858,5.5,1.792a1.715,1.715,0,0,0,.354-2.146c.973-4.071-.535-4.68.291-5.159.407-.238.391-2.43.1-2.47-.7-.1-4.2,0-6.215,0C401.172,39.407,401.4,46.53,402.038,47.391Z" transform="translate(-345.675 -33.892)"/><path class="z" d="M402.024,47.188s1.482,2.785,5.364,1.746a1.672,1.672,0,0,0,.345-2.092c.948-3.968-.522-4.562.283-5.028.4-.232.381-2.368.1-2.407-.677-.1-4.089,0-6.057,0C401.18,39.406,401.4,46.348,402.024,47.188Z" transform="translate(-416.251 -32.188)"/><path class="aa" d="M402.754,47.058c-.524-.709-.771-5.66-.338-7.388h-.341c-.9,0-.673,7.123-.038,7.984,0,0,1.521,2.858,5.5,1.79a3,3,0,0,0,.359-.509C404.183,49.742,402.754,47.058,402.754,47.058Z" transform="translate(-345.675 -34.155)"/><path class="aa" d="M402.722,46.871c-.511-.691-.752-5.517-.329-7.2h-.332c-.881,0-.656,6.942-.037,7.782,0,0,1.482,2.785,5.364,1.745a2.924,2.924,0,0,0,.35-.5A4.4,4.4,0,0,1,402.722,46.871Z" transform="translate(-416.251 -32.453)"/><path class="aa" d="M410.5,40.239l-6.537.322-.168-1.3h6.669Z" transform="translate(-347.666 -33.802)"/><path class="aa" d="M410.326,40.214l-6.372.314-.164-1.268h6.5Z" transform="translate(-418.25 -32.098)"/><path class="q" d="M408.638,85.845l-2.481-3.315-.477,2.241,2.768,1.384Z" transform="translate(-349.293 -71.057)"/><path class="q" d="M408.563,85.761l-2.418-3.231-.465,2.184,2.7,1.349Z" transform="translate(-419.884 -69.506)"/><path class="d" d="M376.543,47c.856.265,3.8.3-.019-9.123l-3.9.816S373.633,46.1,376.543,47Z" transform="translate(-320.829 -32.614)"/><path class="d" d="M376.443,46.771c.835.259,3.7.3-.019-8.891l-3.8.8S373.608,45.89,376.443,46.771Z" transform="translate(-391.303 -30.905)"/><path class="e" d="M366.61,30.3c0-2.188.894-4.08-.058-4.08S364.824,28,364.82,30.182s.769,3.963,1.719,3.963S366.606,32.488,366.61,30.3Z" transform="translate(-314.113 -22.575)"/><path class="e" d="M366.565,30.2c0-2.132.871-3.976-.057-3.976s-1.684,1.731-1.688,3.861.749,3.862,1.676,3.862S366.561,32.329,366.565,30.2Z" transform="translate(-384.56 -20.825)"/><path class="q" d="M428.237,106.009c.078-.389-.381,0-1.276,0s-1.882-.389-1.96,0,.581.7,1.476.7S428.16,106.4,428.237,106.009Z" transform="translate(-365.924 -91.123)"/><path class="q" d="M428.155,106c.076-.379-.371,0-1.244,0s-1.834-.379-1.91,0,.566.677,1.439.677S428.079,106.382,428.155,106Z" transform="translate(-436.582 -89.654)"/><rect class="e" width="7.253" height="0.43" transform="translate(56.124 5.22)"/><rect class="e" width="7.069" height="0.419" transform="translate(-14.46 6.93)"/><path class="e" d="M398.7,34.445l-.906-.7c3.442,8.56,1.416,9.833.378,9.678.015,0,.029.013.046.017C399.07,43.713,402.108,43.631,398.7,34.445Z" transform="translate(-342.5 -29.058)"/><path class="e" d="M398.673,34.427l-.883-.677c3.354,8.343,1.381,9.584.368,9.432.015,0,.028.012.045.016C399.038,43.46,402,43.38,398.673,34.427Z" transform="translate(-413.063 -27.335)"/><path class="r" d="M433.732,11.147c-.806-.815-1.738-1.2-2.085-.86s.038,1.272.845,2.085,1.738,1.2,2.085.86S434.541,11.96,433.732,11.147Z" transform="translate(-371.54 -8.75)"/><path class="r" d="M433.675,11.122c-.786-.794-1.693-1.169-2.032-.839s.037,1.24.824,2.032,1.693,1.169,2.032.839S434.464,11.915,433.675,11.122Z" transform="translate(-442.222 -6.944)"/><path class="r" d="M419.694,6.419c-.434-.06-.778.035-.766.21s.375.367.81.427.778-.035.766-.21S420.129,6.484,419.694,6.419Z" transform="translate(-360.7 -5.511)"/><path class="r" d="M419.674,6.418c-.423-.058-.759.034-.746.2s.366.358.79.416.759-.034.746-.2S420.1,6.482,419.674,6.418Z" transform="translate(-431.337 -3.691)"/><path class="s" d="M414.338,52.139s2.171-.025,2.195-.1a6.918,6.918,0,0,0-.047-.763s-2.053.192-2.148.263A.658.658,0,0,0,414.338,52.139Z" transform="translate(-356.686 -44.151)"/><path class="s" d="M414.336,52.117s2.116-.024,2.139-.093a6.739,6.739,0,0,0-.046-.744s-2,.187-2.093.256A.642.642,0,0,0,414.336,52.117Z" transform="translate(-427.307 -42.49)"/><path class="s" d="M440.431,51.836a14.336,14.336,0,0,1-1.726-.113c-.017-.071.054-.763.054-.763a16.759,16.759,0,0,1,1.685.278A.822.822,0,0,1,440.431,51.836Z" transform="translate(-377.725 -43.876)"/><path class="s" d="M440.387,51.814a13.972,13.972,0,0,1-1.683-.11c-.016-.069.053-.744.053-.744a16.333,16.333,0,0,1,1.642.271A.8.8,0,0,1,440.387,51.814Z" transform="translate(-448.432 -42.213)"/><path class="aa" d="M432.733,63.68h-.09a17.85,17.85,0,0,1,.573,2.13c-.036.214-1.145.375-1.145.375s1.251.072,1.39-.232S433.163,64.682,432.733,63.68Z" transform="translate(-372.015 -54.828)"/><path class="aa" d="M432.716,63.68h-.088a17.4,17.4,0,0,1,.558,2.076c-.035.209-1.116.366-1.116.366s1.219.07,1.355-.226S433.135,64.657,432.716,63.68Z" transform="translate(-442.699 -53.21)"/><path class="u" d="M429.666,85.78H431.6a1.014,1.014,0,0,1-1.074,1.194C429.523,86.974,429.666,85.78,429.666,85.78Z" transform="translate(-369.939 -73.856)"/><path class="u" d="M429.666,85.78h1.885a.988.988,0,0,1-1.047,1.164C429.527,86.944,429.666,85.78,429.666,85.78Z" transform="translate(-440.614 -72.316)"/><path class="q" d="M430.408,86.23h1.732s.174.581-.937.581C430.3,86.811,430.408,86.23,430.408,86.23Z" transform="translate(-370.581 -74.243)"/><path class="q" d="M430.408,86.23H432.1s.169.566-.913.566C430.307,86.8,430.408,86.23,430.408,86.23Z" transform="translate(-441.259 -72.705)"/><path class="v" d="M422.46,61.584c0-.263-.139-.474-.3-.474s-.306.211-.306.474.139.474.306.474S422.46,61.845,422.46,61.584Z" transform="translate(-363.216 -52.615)"/><path class="v" d="M422.445,61.572c0-.256-.135-.462-.3-.462s-.3.206-.3.462.135.462.3.462S422.445,61.827,422.445,61.572Z" transform="translate(-433.863 -50.988)"/><path class="v" d="M441.519,61.584c0-.263-.139-.474-.3-.474s-.3.211-.3.474.139.474.3.474S441.519,61.845,441.519,61.584Z" transform="translate(-379.626 -52.615)"/><path class="v" d="M441.5,61.572c0-.256-.135-.462-.3-.462s-.3.206-.3.462.135.462.3.462S441.5,61.827,441.5,61.572Z" transform="translate(-450.341 -50.988)"/><path class="i" d="M405.868,88.315a.381.381,0,0,0-.517-.149.381.381,0,1,0,.521.149Z" transform="translate(-348.847 -75.869)"/><path class="i" d="M405.851,88.31a.371.371,0,0,0-.5-.145.371.371,0,1,0,.508.145Z" transform="translate(-419.435 -74.337)"/><path class="i" d="M395.089,38.441a.345.345,0,0,0-.417-.253.341.341,0,0,0-.211.435.347.347,0,0,0,.417.254.341.341,0,0,0,.211-.436Z" transform="translate(-339.617 -32.87)"/><path class="i" d="M395.073,38.434a.336.336,0,0,0-.406-.247.332.332,0,0,0-.206.424.339.339,0,0,0,.406.248.332.332,0,0,0,.206-.425Z" transform="translate(-410.168 -31.163)"/><path class="i" d="M387.494,43.027a.37.37,0,1,0-.239.488.384.384,0,0,0,.239-.488Z" transform="translate(-333.02 -36.842)"/><path class="i" d="M387.476,43.021a.36.36,0,1,0-.233.476.374.374,0,0,0,.233-.476Z" transform="translate(-403.544 -35.15)"/><rect class="q" width="7.516" height="0.464" transform="translate(55.861 5.291)"/><rect class="q" width="7.325" height="0.452" transform="translate(-14.716 6.999)"/><path class="w" d="M398.7,53.739h-4.47l-2.919-1.974L388.74,45.51,389,45.4l2.508,6.1,2.166-2.224h6.091l-.011,1.939Zm-4.383-.286h4.188l.973-2.32V49.569h-5.685L391.722,51.7Z" transform="translate(-334.708 -39.089)"/><path class="w" d="M398.448,53.527h-4.357L391.246,51.6l-2.506-6.1L389,45.4l2.444,5.948,2.111-2.168h5.937l-.011,1.89Zm-4.272-.279h4.082l.948-2.261V49.463h-5.541l-2.02,2.074Z" transform="translate(-405.239 -37.406)"/><path class="x" d="M400.347,44.754l-1.6-3.877-2.174-.694.088-.274,2.3.737,1.653,4-.072.19-.156.156Z" transform="translate(-341.45 -34.362)"/><path class="x" d="M400.251,44.631l-1.562-3.779-2.119-.676.085-.267,2.242.718,1.611,3.9-.07.186-.152.152Z" transform="translate(-412.008 -32.66)"/><path class="w" d="M427.837,79l-.277-.078,1.127-4.062.275.076Z" transform="translate(-368.132 -64.453)"/><path class="w" d="M427.83,78.895l-.27-.076,1.1-3.959.268.075Z" transform="translate(-438.8 -62.875)"/><path class="w" d="M419.778,45.188a.1.1,0,0,1-.1.1h-6.4A.286.286,0,0,1,413,45h6.6a.185.185,0,0,1,.181.188Z" transform="translate(-355.596 -38.744)"/><path class="w" d="M419.606,45.183a.1.1,0,0,1-.1.1h-6.239A.279.279,0,0,1,413,45h6.43A.18.18,0,0,1,419.606,45.183Z" transform="translate(-426.212 -37.061)"/><path class="x" d="M389.736,39.787l-1.312.948-.164-.234,1.154-.831Z" transform="translate(-334.295 -34.155)"/><path class="x" d="M389.7,39.784l-1.279.924-.16-.228,1.124-.81Z" transform="translate(-404.824 -32.453)"/><rect class="w" width="4.101" height="0.286" transform="translate(63.574 14.381) rotate(-88.282)"/><rect class="w" width="3.997" height="0.279" transform="translate(-7.199 15.859) rotate(-88.282)"/><path class="x" d="M394.222,53.73l.015-.335-2.524-1.707,2.016-2.066-.111-.295L391.5,51.494l-2.509-6.1-.264.11,2.572,6.257,2.921,1.974Z" transform="translate(-334.7 -39.08)"/><path class="x" d="M394.083,53.519l.015-.327-2.46-1.664,1.964-2.013-.108-.287-2.061,2.111-2.445-5.949-.257.107,2.506,6.1,2.846,1.924Z" transform="translate(-405.23 -37.398)"/><path class="x" d="M406.537,89.48a.256.256,0,1,0-.254.292A.278.278,0,0,0,406.537,89.48Z" transform="translate(-349.594 -76.852)"/><path class="x" d="M406.525,89.474a.249.249,0,1,0-.248.285A.271.271,0,0,0,406.525,89.474Z" transform="translate(-420.185 -75.324)"/><path class="y" d="M407.207,90.134a.126.126,0,1,0-.127.139A.139.139,0,0,0,407.207,90.134Z" transform="translate(-350.391 -77.506)"/><path class="y" d="M407.2,90.131a.123.123,0,1,0-.123.135A.136.136,0,0,0,407.2,90.131Z" transform="translate(-420.986 -75.981)"/><path class="x" d="M388.157,44.11a.256.256,0,1,0-.254.292A.278.278,0,0,0,388.157,44.11Z" transform="translate(-333.768 -37.788)"/><path class="x" d="M388.145,44.1a.249.249,0,1,0-.248.285A.271.271,0,0,0,388.145,44.1Z" transform="translate(-404.295 -36.101)"/><path class="y" d="M388.817,44.764a.126.126,0,1,0-.125.139A.139.139,0,0,0,388.817,44.764Z" transform="translate(-334.557 -38.443)"/><path class="y" d="M388.81,44.761a.123.123,0,1,0-.122.135A.135.135,0,0,0,388.81,44.761Z" transform="translate(-405.087 -36.758)"/><path class="x" d="M395.539,39.452a.257.257,0,1,0-.254.292A.278.278,0,0,0,395.539,39.452Z" transform="translate(-340.121 -33.776)"/><path class="x" d="M395.526,39.447a.251.251,0,1,0-.248.285A.271.271,0,0,0,395.526,39.447Z" transform="translate(-410.674 -32.072)"/><path class="y" d="M396.226,39.9a.126.126,0,1,0-.249,0,.125.125,0,1,0,.249,0Z" transform="translate(-340.938 -34.229)"/><path class="y" d="M396.219,39.9a.123.123,0,1,0-.242,0,.122.122,0,1,0,.242,0Z" transform="translate(-411.494 -32.527)"/><path class="j" d="M323.384,111.485c1.379-3.862-2.011-7.675-4.726-7.751s-6.635,1.55-6.752,5.649,4.32,10.026,7.038,10.1S321.623,116.418,323.384,111.485Z" transform="translate(-268.553 -89.312)"/><path class="j" d="M323.092,111.288c1.344-3.764-1.96-7.48-4.606-7.554s-6.466,1.511-6.58,5.506,4.211,9.772,6.859,9.847S321.376,116.1,323.092,111.288Z" transform="translate(-338.812 -87.835)"/><path class="k" d="M317.7,118.395c-2.085-2.706-3.543-3.927-4.637-3.171-1.708,1.179-3.168,4.942-.056,9.539,1.914,2.826,4.4,5.2,5.6,3.638S319.78,121.1,317.7,118.395Z" transform="translate(-267.936 -99.017)"/><path class="k" d="M317.538,118.309c-2.032-2.638-3.453-3.827-4.52-3.09-1.665,1.149-3.088,4.816-.054,9.3,1.866,2.754,4.285,5.066,5.46,3.545S319.562,120.945,317.538,118.309Z" transform="translate(-338.193 -97.58)"/><path class="i" d="M317.1,137.512c-1.4-2.6-2.78-2.583-4.117-1.529-1.414,1.112-1.1,2.882,1.626,6.838C319.4,149.768,318.445,140,317.1,137.512Z" transform="translate(-268.774 -116.506)"/><path class="i" d="M316.978,137.456c-1.364-2.535-2.71-2.517-4.013-1.49-1.378,1.084-1.072,2.808,1.585,6.664C319.219,149.4,318.286,139.88,316.978,137.456Z" transform="translate(-339.035 -115.141)"/><path class="z" d="M273.276,152.1c.813,1.89,9.405-2.246,10.478-3.1,1.086-1.795-1.009-4.6-2.177-7.195C279.652,141.817,271.441,147.836,273.276,152.1Z" transform="translate(-235.066 -122.097)"/><path class="z" d="M273.269,151.839c.793,1.843,9.167-2.189,10.212-3.017,1.058-1.749-.984-4.48-2.122-7.012C279.484,141.817,271.481,147.683,273.269,151.839Z" transform="translate(-305.188 -120.755)"/><path class="aa" d="M289.84,133.89c-1.322,0-3.994,2.641-6.51,6.533,1.888-1.735,3.078-2.747,5.013-.681,1.7,1.818.973,3.475-.083,4.643a51.505,51.505,0,0,0,5.028-2.16C294.339,138.246,292.568,135.279,289.84,133.89Z" transform="translate(-243.951 -115.278)"/><path class="aa" d="M289.674,133.89c-1.288,0-3.892,2.574-6.344,6.367,1.84-1.691,3-2.677,4.885-.664,1.661,1.772.948,3.387-.081,4.525a50.2,50.2,0,0,0,4.9-2.105C294.06,138.136,292.334,135.243,289.674,133.89Z" transform="translate(-314.11 -113.908)"/><path class="z" d="M280.186,192.926c-1.807-2.207-4.8-.57-4.672,2.284.125,2.715,7.353,5.894,10.425,9.286l.468-.417C284.92,202.044,281.914,195.039,280.186,192.926Z" transform="translate(-237.218 -165.226)"/><path class="z" d="M280.068,192.9c-1.761-2.151-4.681-.555-4.553,2.226.122,2.646,7.167,5.744,10.161,9.05l.457-.406C284.681,201.786,281.752,194.96,280.068,192.9Z" transform="translate(-307.349 -164.061)"/><path class="aa" d="M275.552,210.67a3.833,3.833,0,0,0-.033.7c.125,2.715,7.353,5.894,10.425,9.286l.239-.215C282.869,216.746,275.814,213.262,275.552,210.67Z" transform="translate(-237.222 -181.385)"/><path class="aa" d="M275.551,210.67a3.736,3.736,0,0,0-.033.677c.122,2.646,7.167,5.744,10.161,9.05l.233-.21C282.682,216.592,275.807,213.2,275.551,210.67Z" transform="translate(-307.353 -180.286)"/><path class="g" d="M278.55,194.251S274,191,272.4,191.959a4.153,4.153,0,0,0,.053,3.827l5.938-1.034Z" transform="translate(-234.146 -165.123)"/><path class="g" d="M278.382,194.188s-4.438-3.166-5.992-2.234a4.048,4.048,0,0,0,.051,3.73l5.788-1.008Z" transform="translate(-304.265 -163.957)"/><path class="h" d="M273.382,193.688a4.067,4.067,0,0,1,.595-1.807,2.147,2.147,0,0,0-1.575.058,4.153,4.153,0,0,0,.053,3.827l1.182-.206A4.066,4.066,0,0,1,273.382,193.688Z" transform="translate(-234.146 -165.107)"/><path class="h" d="M316.26,207.82a.978.978,0,0,1-.007.139,4.366,4.366,0,0,1-.113.66l.314-.054.157-.5S316.474,207.966,316.26,207.82Z" transform="translate(-272.2 -178.931)"/><path class="h" d="M316.257,207.82a.954.954,0,0,1-.007.135,4.255,4.255,0,0,1-.11.644l.306-.053.153-.488S316.465,207.962,316.257,207.82Z" transform="translate(-342.475 -177.822)"/><path class="z" d="M353.856,275.947c-.311-.078-.973-.057-1.006.07s.2.292.509.371.592.039.624-.088S354.169,276.027,353.856,275.947Z" transform="translate(-303.804 -237.549)"/><path class="z" d="M353.831,275.946c-.3-.076-.948-.056-.981.068s.191.284.5.362.577.038.608-.085S354.136,276.023,353.831,275.946Z" transform="translate(-374.209 -236.68)"/><path class="aa" d="M361.45,278.82c-.065-.316-.221-.549-.349-.523s-.181.3-.115.617.221.549.349.523S361.52,279.136,361.45,278.82Z" transform="translate(-310.788 -239.61)"/><path class="aa" d="M361.438,278.807c-.064-.307-.215-.535-.34-.509s-.176.3-.112.6.215.535.34.509S361.506,279.114,361.438,278.807Z" transform="translate(-381.221 -238.749)"/><path class="aa" d="M358.228,277.464c.1-.3.088-.585-.036-.628s-.309.171-.417.475-.088.585.036.627S358.125,277.769,358.228,277.464Z" transform="translate(-307.987 -238.349)"/><path class="aa" d="M358.215,277.448c.1-.3.085-.57-.035-.612s-.3.167-.406.463-.085.57.035.611S358.114,277.745,358.215,277.448Z" transform="translate(-378.408 -237.483)"/><path class="z" d="M348.71,277.195s.73,1.668,1.077,1.592,1.1-.709,1.125-1-1.653-1.191-1.653-1.191Z" transform="translate(-300.243 -238.15)"/><path class="z" d="M348.71,277.18s.711,1.626,1.05,1.551,1.076-.691,1.1-.97-1.611-1.161-1.611-1.161Z" transform="translate(-370.632 -237.284)"/><path class="q" d="M340,267.819l1.045-.969,1.031,1.564-.553.831Z" transform="translate(-292.743 -229.756)"/><path class="q" d="M340,267.794l1.019-.944,1.005,1.524-.539.81Z" transform="translate(-363.102 -228.855)"/><g class="ab" transform="translate(15.779 21.376)"><text class="ac" transform="translate(1.564 15.066)"><tspan x="0" y="0">H</tspan></text><path class="ad" d="M138.7,175.235a3.874,3.874,0,0,1,5.41,0c.278.278.706-.154.428-.425a4.488,4.488,0,0,0-6.265,0c-.278.278.149.7.427.425" transform="translate(-134.756 -170.789)"/><g class="ae" transform="translate(2.073 0.984)"><g class="af"><path class="ad" d="M128.977,163.114a5.8,5.8,0,0,1,8.114,0,.3.3,0,0,0,.427-.427,6.417,6.417,0,0,0-8.967,0c-.278.278.149.7.427.427" transform="translate(-128.46 -160.859)"/></g></g></g><g class="ab" transform="translate(51.915 22.132)"><text class="ac" transform="translate(1.564 15.066)"><tspan x="0" y="0">H</tspan></text><path class="ad" d="M398.666,180.669a3.871,3.871,0,0,1,5.41,0c.278.278.706-.154.427-.425a4.484,4.484,0,0,0-6.264,0c-.278.27.147.7.427.425" transform="translate(-394.724 -176.222)"/><g class="ae" transform="translate(2.074 0.984)"><g class="af"><path class="ad" d="M388.946,168.547a5.8,5.8,0,0,1,8.115,0,.3.3,0,0,0,.427-.427,6.414,6.414,0,0,0-8.967,0,.3.3,0,0,0,.425.427" transform="translate(-388.43 -166.292)"/></g></g></g><g class="ag" transform="translate(-18.562 23.413)"><text class="ah" transform="translate(1.524 14.013)"><tspan x="0" y="0">H</tspan></text><path class="ad" d="M398.653,180.626a3.773,3.773,0,0,1,5.273,0c.271.271.688-.15.416-.415a4.371,4.371,0,0,0-6.1,0c-.271.263.144.677.416.415" transform="translate(-394.811 -176.292)"/><g class="ae" transform="translate(2.021 0.959)"><g class="ai"><path class="ad" d="M388.932,168.49a5.655,5.655,0,0,1,7.909,0,.294.294,0,0,0,.416-.416,6.251,6.251,0,0,0-8.74,0,.294.294,0,0,0,.415.416" transform="translate(-388.43 -166.292)"/></g></g></g></g></g></svg>