<svg xmlns="http://www.w3.org/2000/svg" width="60" height="60" viewBox="0 0 60 60"><defs><style>.a{fill:#ecf0f1;}.b{fill:#3a437e;}.c{fill:#e64c3c;}.d{fill:#f0c419;}.e{fill:#24ae5f;}.f{fill:#8697cb;}.g{fill:#bdc3c7;}.h{fill:#4482c3;}</style></defs><path class="a" d="M56.638,153.379H3.362A3.357,3.357,0,0,1,0,150.027v-44.1H60v44.1A3.357,3.357,0,0,1,56.638,153.379Z" transform="translate(0 -93.379)"/><path class="b" d="M60,12.552H0V3.4A3.381,3.381,0,0,1,3.362,0H56.638A3.381,3.381,0,0,1,60,3.4Z"/><rect class="c" width="4.184" height="4.184" transform="translate(4.184 4.184)"/><rect class="d" width="4.184" height="4.184" transform="translate(12.404 4.184)"/><rect class="e" width="4.184" height="4.184" transform="translate(20.673 4.184)"/><g transform="translate(5.23 17.115)"><rect class="d" width="6.276" height="6.276"/><rect class="c" width="6.276" height="6.276" transform="translate(0 10.46)"/><rect class="e" width="6.276" height="6.276" transform="translate(0 20.92)"/><rect class="f" width="6.276" height="6.276" transform="translate(0 31.379)"/></g><g transform="translate(15.387 17.564)"><path class="g" d="M152.287,152.16H133.459a1.046,1.046,0,0,1,0-2.092h18.828a1.046,1.046,0,1,1,0,2.092Z" transform="translate(-132.413 -150.068)"/><path class="g" d="M157.516,187.47H133.459a1.046,1.046,0,1,1,0-2.092h24.057a1.046,1.046,0,0,1,0,2.092Z" transform="translate(-132.413 -181.194)"/></g><path class="h" d="M387.954,163.081h-6.276a2.091,2.091,0,0,1-2.092-2.092h0a2.091,2.091,0,0,1,2.092-2.092h6.276a2.091,2.091,0,0,1,2.092,2.092h0A2.091,2.091,0,0,1,387.954,163.081Z" transform="translate(-335.276 -140.292)"/><g transform="translate(15.387 27.895)"><path class="g" d="M152.287,240.436H133.459a1.046,1.046,0,0,1,0-2.092h18.828a1.046,1.046,0,1,1,0,2.092Z" transform="translate(-132.413 -238.344)"/><path class="g" d="M157.516,275.746H133.459a1.046,1.046,0,1,1,0-2.092h24.057a1.046,1.046,0,0,1,0,2.092Z" transform="translate(-132.413 -269.47)"/></g><path class="h" d="M387.954,251.357h-6.276a2.091,2.091,0,0,1-2.092-2.092h0a2.091,2.091,0,0,1,2.092-2.092h6.276a2.091,2.091,0,0,1,2.092,2.092h0A2.091,2.091,0,0,1,387.954,251.357Z" transform="translate(-335.276 -218.231)"/><g transform="translate(15.387 38.227)"><path class="g" d="M152.287,328.712H133.459a1.046,1.046,0,0,1,0-2.092h18.828a1.046,1.046,0,1,1,0,2.092Z" transform="translate(-132.413 -326.62)"/><path class="g" d="M157.516,364.022H133.459a1.046,1.046,0,1,1,0-2.092h24.057a1.046,1.046,0,0,1,0,2.092Z" transform="translate(-132.413 -357.746)"/></g><path class="h" d="M387.954,339.633h-6.276a2.091,2.091,0,0,1-2.092-2.092h0a2.091,2.091,0,0,1,2.092-2.092h6.276a2.091,2.091,0,0,1,2.092,2.092h0A2.091,2.091,0,0,1,387.954,339.633Z" transform="translate(-335.276 -296.171)"/><g transform="translate(15.387 48.494)"><path class="g" d="M152.287,416.988H133.459a1.046,1.046,0,0,1,0-2.092h18.828a1.046,1.046,0,1,1,0,2.092Z" transform="translate(-132.413 -414.896)"/><path class="g" d="M157.516,452.3H133.459a1.046,1.046,0,1,1,0-2.092h24.057a1.046,1.046,0,0,1,0,2.092Z" transform="translate(-132.413 -446.022)"/></g><path class="h" d="M387.954,427.908h-6.276a2.091,2.091,0,0,1-2.092-2.092h0a2.091,2.091,0,0,1,2.092-2.092h6.276a2.091,2.091,0,0,1,2.092,2.092h0A2.091,2.091,0,0,1,387.954,427.908Z" transform="translate(-335.276 -374.184)"/></svg>