<svg xmlns="http://www.w3.org/2000/svg" width="16" height="16" viewBox="0 0 16 16"><defs><style>.a{fill:#fff;}</style></defs><path class="a" d="M6.167,0h-5A1.168,1.168,0,0,0,0,1.167v3A1.168,1.168,0,0,0,1.167,5.333h5A1.168,1.168,0,0,0,7.333,4.167v-3A1.168,1.168,0,0,0,6.167,0Zm0,0"/><path class="a" d="M6.167,213.332h-5A1.168,1.168,0,0,0,0,214.5v7a1.168,1.168,0,0,0,1.167,1.167h5A1.168,1.168,0,0,0,7.333,221.5v-7A1.168,1.168,0,0,0,6.167,213.332Zm0,0" transform="translate(0 -206.665)"/><path class="a" d="M283.5,341.332h-5a1.168,1.168,0,0,0-1.167,1.167v3a1.168,1.168,0,0,0,1.167,1.167h5a1.168,1.168,0,0,0,1.167-1.167v-3A1.168,1.168,0,0,0,283.5,341.332Zm0,0" transform="translate(-268.665 -330.665)"/><path class="a" d="M283.5,0h-5a1.168,1.168,0,0,0-1.167,1.167v7A1.168,1.168,0,0,0,278.5,9.333h5a1.168,1.168,0,0,0,1.167-1.167v-7A1.168,1.168,0,0,0,283.5,0Zm0,0" transform="translate(-268.665)"/></svg>