<svg xmlns="http://www.w3.org/2000/svg" width="55.512" height="55.327" viewBox="0 0 55.512 55.327"><defs><style>.a{fill:none;}.b{fill:#fff;}</style></defs><g transform="translate(9.313 0.922)"><path class="a" d="M28.844,46,27,59.832h9.221L34.377,46Z" transform="translate(-13.168 -6.349)"/><ellipse class="a" cx="2.766" cy="2.766" rx="2.766" ry="2.766" transform="translate(0.922 44.262)"/><path class="a" d="M31.6,37.784h-.007l-4.751,4.925,1.988,2.651h5.533l1.988-2.651Z" transform="translate(-13.156 -5.709)"/><path class="a" d="M32,37.784l0,0,0,0Z" transform="translate(-13.557 -5.709)"/><path class="a" d="M45.2,14.065V6.688A3.688,3.688,0,0,0,41.508,3H12v7.377a7.377,7.377,0,0,0,7.377,7.377H41.508A3.688,3.688,0,0,0,45.2,14.065Z" transform="translate(-12 -3)"/><path class="a" d="M13,53.766A2.766,2.766,0,1,0,15.766,51,2.766,2.766,0,0,0,13,53.766Z" transform="translate(-12.078 -6.738)"/><path class="a" d="M45.465,22H43.953v1.761a12.887,12.887,0,0,1-.559,3.732v.04h1.77a1.85,1.85,0,0,0,1.817-1.54l.3-1.844A1.844,1.844,0,0,0,45.465,22Z" transform="translate(-14.445 -4.48)"/><path class="a" d="M19.717,22H18.2a1.844,1.844,0,0,0-1.817,2.149l.3,1.844a1.85,1.85,0,0,0,1.817,1.54h1.77v-.04a12.887,12.887,0,0,1-.562-3.732Z" transform="translate(-12.34 -4.48)"/><path class="a" d="M31.136,37.513a3.689,3.689,0,0,1-1.111-.184l-1.079-.36A12.851,12.851,0,0,1,24.059,34H24.05l-2.49,3.523,4.094,5.726,5.533-5.732C31.168,37.517,31.152,37.513,31.136,37.513Z" transform="translate(-12.745 -5.414)"/><path class="a" d="M41.626,37.523,39.138,34h-.013a12.851,12.851,0,0,1-4.887,2.969l-1.079.36a3.689,3.689,0,0,1-1.107.184h-.047l5.533,5.732,4.093-5.725Z" transform="translate(-13.558 -5.414)"/></g><path class="b" d="M56.266,45.3a10.1,10.1,0,0,0-10.1-9.182H42.632a2.766,2.766,0,0,1-2.259-1.17l-2.387-3.38A13.789,13.789,0,0,0,40.814,26.9h1.116a2.756,2.756,0,0,0,2.727-2.312l.307-1.838a2.766,2.766,0,0,0-2.729-3.227h-.59V18.506a4.619,4.619,0,0,0,3.688-4.518V6.611A4.616,4.616,0,0,0,40.721,2H10.291v8.3a8.309,8.309,0,0,0,7.377,8.245v.977h-.59a2.766,2.766,0,0,0-2.729,3.221l.305,1.844A2.754,2.754,0,0,0,17.382,26.9H18.5a13.789,13.789,0,0,0,2.831,4.671l-2.387,3.38a2.766,2.766,0,0,1-2.262,1.17H13.143A10.1,10.1,0,0,0,3.045,45.3L1.9,57.327H57.412ZM38.15,35l-3.068,4.291-3.6-3.732.7-.235a13.8,13.8,0,0,0,4.446-2.472ZM33.1,39.893l-1.172,1.758H27.383l-1.172-1.758,3.445-3.571Zm9.133-18.528a.922.922,0,0,1,.705.329.9.9,0,0,1,.2.747l-.3,1.844a.922.922,0,0,1-.906.768h-.59a13.885,13.885,0,0,0,.3-2.849v-.839ZM17.382,25.053a.922.922,0,0,1-.906-.768l-.306-1.85a.9.9,0,0,1,.2-.738.922.922,0,0,1,.705-.333h.59V22.2a13.885,13.885,0,0,0,.3,2.849ZM12.136,10.3V3.844H40.721a2.766,2.766,0,0,1,2.766,2.766v7.377a2.766,2.766,0,0,1-2.766,2.766H18.59A6.462,6.462,0,0,1,12.136,10.3Zm7.377,11.9V18.6H39.8V22.2a11.964,11.964,0,0,1-8.194,11.371l-1.079.36a2.766,2.766,0,0,1-1.74,0l-1.08-.36A11.964,11.964,0,0,1,19.513,22.2Zm3.166,10.649a13.79,13.79,0,0,0,4.445,2.472l.705.235-3.6,3.732L21.164,35Zm1.559,22.631H3.929l.953-10.009a8.267,8.267,0,0,1,8.262-7.512h.836v8.43a3.688,3.688,0,1,0,1.844,0v-8.43h.856A4.611,4.611,0,0,0,20,36.545l4.02,5.625.883-.915L25.931,42.8ZM14.9,48.106a1.844,1.844,0,1,1-1.844,1.844A1.844,1.844,0,0,1,14.9,48.106Zm11.2,7.377L27.7,43.5h3.919l1.6,11.988Zm8.976,0L33.382,42.8l1.029-1.544.883.915,4.02-5.625a4.611,4.611,0,0,0,3.318,1.421h.856v4.684a6.455,6.455,0,0,0-5.533,6.381v4.611h3.688V51.795H39.8V49.028a4.611,4.611,0,1,1,9.221,0v2.766H47.176v1.844h3.688V49.028a6.455,6.455,0,0,0-5.533-6.381V37.963h.836a8.267,8.267,0,0,1,8.262,7.512l.953,10.009Z" transform="translate(-1.9 -2)"/><path class="b" d="M15,53h1.844v1.844H15Z" transform="translate(-2.92 -5.972)"/></svg>