<svg xmlns="http://www.w3.org/2000/svg" width="64.371" height="64" viewBox="0 0 64.371 64"><defs><style>.a{fill:#3a437e;}.b{fill:#7dc7ff;}.c{fill:#f73445;}.d{fill:#359ed8;}.e{fill:#f7f769;}.f{fill:#ffc943;}.g{fill:#f8ee86;}.h{fill:#349cf3;}</style></defs><g transform="translate(-1.652 -2)"><path class="a" d="M1.652,19.564H19.785V64.829H1.652Z" transform="translate(0 1.171)"/><path class="a" d="M44.862,19.564h18.28V64.829H44.862Z" transform="translate(2.881 1.171)"/><path class="b" d="M18.652,2H46.61V66H18.652Z" transform="translate(1.133)"/><path class="c" d="M34.452,49.056a4.185,4.185,0,0,0,2.02-3.566,4.267,4.267,0,1,0-8.534,0,4.185,4.185,0,0,0,2.02,3.566,6.317,6.317,0,0,0-4.153,5.908v8.421h12.8V54.964a6.317,6.317,0,0,0-4.153-5.908Z" transform="translate(1.61 2.615)"/><g transform="translate(24.086 20.735)"><path class="d" d="M22.684,23.512h2.151v2.105H22.684Z" transform="translate(-22.684 -19.301)"/><path class="d" d="M22.684,27.459h2.151v2.105H22.684Z" transform="translate(-22.684 -19.038)"/><path class="d" d="M22.684,31.407h2.151v2.105H22.684Z" transform="translate(-22.684 -18.774)"/><path class="d" d="M22.684,35.354h2.151v2.105H22.684Z" transform="translate(-22.684 -18.511)"/><path class="d" d="M26.717,23.512h2.151v2.105H26.717Z" transform="translate(-22.415 -19.301)"/><path class="d" d="M26.717,27.459h2.151v2.105H26.717Z" transform="translate(-22.415 -19.038)"/><path class="d" d="M26.717,31.407h2.151v2.105H26.717Z" transform="translate(-22.415 -18.774)"/><path class="d" d="M26.717,35.354h2.151v2.105H26.717Z" transform="translate(-22.415 -18.511)"/><path class="d" d="M30.749,23.512H32.9v2.105H30.749Z" transform="translate(-22.146 -19.301)"/><path class="d" d="M30.749,27.459H32.9v2.105H30.749Z" transform="translate(-22.146 -19.038)"/><path class="d" d="M30.749,31.407H32.9v2.105H30.749Z" transform="translate(-22.146 -18.774)"/><path class="d" d="M30.749,35.354H32.9v2.105H30.749Z" transform="translate(-22.146 -18.511)"/><path class="d" d="M34.781,23.512h2.151v2.105H34.781Z" transform="translate(-21.878 -19.301)"/><path class="d" d="M26.717,19.564h2.151v2.105H26.717Z" transform="translate(-22.415 -19.564)"/><path class="d" d="M30.749,19.564H32.9v2.105H30.749Z" transform="translate(-22.146 -19.564)"/><path class="d" d="M34.781,19.564h2.151v2.105H34.781Z" transform="translate(-21.878 -19.564)"/><path class="d" d="M34.781,27.459h2.151v2.105H34.781Z" transform="translate(-21.878 -19.038)"/><path class="d" d="M34.781,31.407h2.151v2.105H34.781Z" transform="translate(-21.878 -18.774)"/><path class="d" d="M34.781,35.354h2.151v2.105H34.781Z" transform="translate(-21.878 -18.511)"/><path class="d" d="M38.814,23.512h2.151v2.105H38.814Z" transform="translate(-21.609 -19.301)"/><path class="d" d="M38.814,27.459h2.151v2.105H38.814Z" transform="translate(-21.609 -19.038)"/><path class="d" d="M38.814,31.407h2.151v2.105H38.814Z" transform="translate(-21.609 -18.774)"/><path class="d" d="M38.814,35.354h2.151v2.105H38.814Z" transform="translate(-21.609 -18.511)"/></g><path class="e" d="M13.925,52.84a3.126,3.126,0,0,0,1.243-2.482,3.2,3.2,0,1,0-6.4,0,3.126,3.126,0,0,0,1.244,2.482,5.258,5.258,0,0,0-3.377,4.886V62.99H17.3V57.726a5.258,5.258,0,0,0-3.377-4.886Z" transform="translate(0.332 3.01)"/><path class="f" d="M23,49.879A3.126,3.126,0,0,0,24.242,47.4a3.2,3.2,0,1,0-6.4,0,3.126,3.126,0,0,0,1.244,2.482,5.258,5.258,0,0,0-3.377,4.886v8.421H26.375V54.765A5.258,5.258,0,0,0,23,49.879Z" transform="translate(0.937 2.813)"/><path class="e" d="M54.249,52.84a3.126,3.126,0,0,0,1.243-2.482,3.2,3.2,0,1,0-6.4,0,3.126,3.126,0,0,0,1.244,2.482,5.258,5.258,0,0,0-3.377,4.886V62.99H57.626V57.726a5.258,5.258,0,0,0-3.377-4.886Z" transform="translate(3.021 3.01)"/><path class="f" d="M45.177,49.879A3.126,3.126,0,0,0,46.42,47.4a3.2,3.2,0,1,0-6.4,0,3.126,3.126,0,0,0,1.244,2.482,5.258,5.258,0,0,0-3.377,4.886v8.421H48.553V54.765a5.258,5.258,0,0,0-3.377-4.886Z" transform="translate(2.416 2.813)"/><path class="g" d="M49.9,26.472h2.151V43.315H49.9Z" transform="translate(3.217 1.631)"/><path class="g" d="M55.951,26.472H58.1V43.315H55.951Z" transform="translate(3.62 1.631)"/><path class="g" d="M5.546,26.472H7.7V43.315H5.546Z" transform="translate(0.26 1.631)"/><path class="g" d="M11.6,26.472h2.151V43.315H11.6Z" transform="translate(0.663 1.631)"/><path class="h" d="M23.692,4.761H40.9V15.288h-17.2Z" transform="translate(1.469 0.184)"/></g></svg>