<svg xmlns="http://www.w3.org/2000/svg" xmlns:xlink="http://www.w3.org/1999/xlink" width="117.622" height="55.683" viewBox="0 0 117.622 55.683"><defs><style>.a{fill:#fffeff;}.b{fill:url(#a);}.c{fill:url(#b);}.d{fill:#f8ee86;}.e{opacity:0.5;}</style><linearGradient id="a" x1="0.416" y1="0.097" x2="0.546" y2="0.722" gradientUnits="objectBoundingBox"><stop offset="0.005" stop-color="#b6c8dc"/><stop offset="1" stop-color="#fff"/></linearGradient><linearGradient id="b" x1="-49.902" y1="-54.163" x2="-49.771" y2="-53.538" xlink:href="#a"/></defs><g transform="translate(-603.517 -506.983)"><g transform="translate(603.517 506.983)"><g transform="translate(2.929 19.923)"><path class="a" d="M617.44,609.3h0a4.119,4.119,0,0,1-4.119-4.119V577.664a4.119,4.119,0,0,1,4.119-4.119h0a4.119,4.119,0,0,1,4.119,4.119v27.522A4.119,4.119,0,0,1,617.44,609.3Z" transform="translate(-613.315 -573.545)"/><path class="a" d="M709.391,609.3h0a4.119,4.119,0,0,1-4.119-4.119V577.664a4.119,4.119,0,0,1,4.119-4.119h0a4.119,4.119,0,0,1,4.119,4.119v27.522A4.119,4.119,0,0,1,709.391,609.3Z" transform="translate(-677.744 -573.545)"/><path class="a" d="M613.321,623.639h0a4.119,4.119,0,0,1,4.119-4.119h27.522a4.119,4.119,0,0,1,4.119,4.119h0a4.119,4.119,0,0,1-4.119,4.118H617.44A4.118,4.118,0,0,1,613.321,623.639Z" transform="translate(-613.315 -605.759)"/><path class="b" d="M621.544,647.04h-3.881a4.263,4.263,0,0,0-4.263,4.327,34.039,34.039,0,0,1-.093,5.088h8.237Z" transform="translate(-613.301 -625.042)"/><path class="c" d="M705.262,597.482h3.881a4.263,4.263,0,0,0,4.263-4.327,34.029,34.029,0,0,1,.093-5.088h-8.237Z" transform="translate(-677.737 -583.721)"/></g><g transform="translate(6.148 8.016)"><path class="d" d="M626.413,541.5a17.62,17.62,0,0,1,24.621,0c1.269,1.231,3.212-.708,1.941-1.941a20.417,20.417,0,0,0-28.5,0c-1.27,1.233.672,3.173,1.942,1.941Z" transform="translate(-624.057 -533.765)"/></g><g class="e"><path class="d" d="M605.869,517.237a26.4,26.4,0,0,1,36.924,0c1.263,1.238,3.206-.7,1.941-1.942a29.2,29.2,0,0,0-40.807,0c-1.264,1.239.678,3.18,1.942,1.942Z" transform="translate(-603.517 -506.983)"/></g></g><g transform="translate(649.989 536.62)"><path class="d" d="M758.778,620.528V607.476a1.222,1.222,0,0,1,.366-.888,1.207,1.207,0,0,1,.894-.371,1.175,1.175,0,0,1,.873.377,1.228,1.228,0,0,1,.366.883v5.535h7.538v-5.535a1.261,1.261,0,0,1,1.265-1.26,1.173,1.173,0,0,1,.87.371,1.228,1.228,0,0,1,.362.888v13.052a1.226,1.226,0,0,1-.362.888,1.172,1.172,0,0,1-.87.371,1.261,1.261,0,0,1-1.265-1.26v-5.374h-7.538v5.374a1.227,1.227,0,0,1-.366.883,1.174,1.174,0,0,1-.873.377,1.206,1.206,0,0,1-.894-.371A1.221,1.221,0,0,1,758.778,620.528Z" transform="translate(-758.778 -606.151)"/><path class="d" d="M808.356,625.166a6.1,6.1,0,0,1,.366-2.132,5.229,5.229,0,0,1,.958-1.664,6.315,6.315,0,0,1,1.351-1.158,5.937,5.937,0,0,1,1.534-.711,5.224,5.224,0,0,1,3.042,0,5.848,5.848,0,0,1,1.535.711,6.5,6.5,0,0,1,1.351,1.158,5.165,5.165,0,0,1,.964,1.664,6.406,6.406,0,0,1,0,4.27,5.121,5.121,0,0,1-.964,1.653,6.384,6.384,0,0,1-1.357,1.147,5.911,5.911,0,0,1-1.534.7,5.337,5.337,0,0,1-3.037,0,5.909,5.909,0,0,1-1.534-.7,6.268,6.268,0,0,1-1.351-1.147,5.167,5.167,0,0,1-.958-1.653A6.085,6.085,0,0,1,808.356,625.166Zm2.423,0a4.375,4.375,0,0,0,.3,1.646,3.284,3.284,0,0,0,.781,1.192,3.506,3.506,0,0,0,1.061.693,2.984,2.984,0,0,0,2.337,0,3.506,3.506,0,0,0,1.061-.693,3.34,3.34,0,0,0,.786-1.192,4.311,4.311,0,0,0,.3-1.646,4.424,4.424,0,0,0-.3-1.668,3.271,3.271,0,0,0-.786-1.2,3.634,3.634,0,0,0-1.061-.693,2.923,2.923,0,0,0-2.337,0,3.642,3.642,0,0,0-1.061.693,3.216,3.216,0,0,0-.781,1.2A4.492,4.492,0,0,0,810.779,625.166Z" transform="translate(-793.517 -615.301)"/><path class="d" d="M850.341,620.633a1.14,1.14,0,0,1,1.142-1.141,1.15,1.15,0,0,1,.624.183.885.885,0,0,1,.388.474l2.52,7.344,3.069-7.247a1.146,1.146,0,0,1,2.154,0l3.069,7.247,2.509-7.344a.886.886,0,0,1,.388-.474,1.168,1.168,0,0,1,.635-.183,1.139,1.139,0,0,1,1.141,1.141,2.684,2.684,0,0,1-.151.56l-3.284,8.949a1.64,1.64,0,0,1-.447.678.952.952,0,0,1-.641.248q-.678,0-1.12-.926l-3.177-6.989-3.177,6.989q-.442.926-1.12.926-.743,0-1.088-.926l-3.284-8.949A2.744,2.744,0,0,1,850.341,620.633Z" transform="translate(-822.935 -615.453)"/><path class="d" d="M914.417,615.842a6.593,6.593,0,0,1,.328-2.116,5.343,5.343,0,0,1,.872-1.653,5.811,5.811,0,0,1,1.249-1.163,5.232,5.232,0,0,1,1.453-.711,5.145,5.145,0,0,1,1.492-.226,4.554,4.554,0,0,1,2.154.463,3.45,3.45,0,0,1,1.314,1.142v-4.361A1.233,1.233,0,0,1,924.5,606a1.151,1.151,0,0,1,.851.361,1.178,1.178,0,0,1,.355.856v13.278A1.214,1.214,0,0,1,924.5,621.7a1.177,1.177,0,0,1-.856-.356,1.152,1.152,0,0,1-.361-.851v-.775a1.947,1.947,0,0,1-1.1,1.367,4.433,4.433,0,0,1-2.369.635,5.186,5.186,0,0,1-2.945-.921,5.7,5.7,0,0,1-1.249-1.158,5.326,5.326,0,0,1-.872-1.664A6.721,6.721,0,0,1,914.417,615.842Zm2.423,0a4.381,4.381,0,0,0,.3,1.637,3.382,3.382,0,0,0,.77,1.2,3.476,3.476,0,0,0,1.05.706,2.93,2.93,0,0,0,1.169.248,3.283,3.283,0,0,0,1.2-.221,3.216,3.216,0,0,0,1.039-.657,3.031,3.031,0,0,0,.748-1.19,5.461,5.461,0,0,0,0-3.452,3.007,3.007,0,0,0-.754-1.184,3.241,3.241,0,0,0-1.034-.652,3.306,3.306,0,0,0-1.2-.215,2.933,2.933,0,0,0-1.169.247,3.345,3.345,0,0,0-1.82,1.911A4.31,4.31,0,0,0,916.84,615.842Z" transform="translate(-867.832 -605.999)"/><path class="d" d="M959.138,620.374a1.1,1.1,0,0,1,1.1-1.1,1.129,1.129,0,0,1,1.012.657l3.575,7.764,3.349-7.721a1.1,1.1,0,0,1,.4-.512,1.119,1.119,0,0,1,1.739.931,1.4,1.4,0,0,1-.086.42l-5.783,13.7a1.134,1.134,0,0,1-.4.49,1.047,1.047,0,0,1-.614.189,1.1,1.1,0,0,1-1.1-1.1,1.4,1.4,0,0,1,.086-.42l1.26-3.134-4.458-9.724A.974.974,0,0,1,959.138,620.374Z" transform="translate(-899.167 -615.301)"/></g></g></svg>