<svg xmlns="http://www.w3.org/2000/svg" width="60.833" height="60.833" viewBox="0 0 60.833 60.833"><defs><style>.a{fill:#f8ee86;}.b{fill:#3a437e;}.c{fill:#515da7;}.d{fill:#fff;}</style></defs><path class="a" d="M224.987,230.525l7.657,2.118-2.118-7.657a18.772,18.772,0,1,0-5.539,5.538Zm0,0" transform="translate(-172.712 -172.712)"/><path class="b" d="M125.005,0,115.5,23.228l9.505,23.228a23.228,23.228,0,1,0,0-46.457Zm0,0" transform="translate(-101.777)"/><path class="c" d="M0,23.229A23.156,23.156,0,0,0,3.221,35.035L.085,46.371l11.336-3.135a23.156,23.156,0,0,0,11.807,3.221V0A23.254,23.254,0,0,0,0,23.229Zm0,0" transform="translate(0 0)"/><path class="d" d="M180.5,271h3.564v3.564H180.5Zm0,0" transform="translate(-159.054 -238.801)"/><path class="d" d="M180.5,192.3v4.349h1.782l1.188-2.99-1.188-2.99Zm0,0" transform="translate(-159.054 -168.011)"/><path class="d" d="M135.5,97.129h3.564a3.568,3.568,0,0,1,3.564-3.564l1.188-1.782L142.629,90A7.137,7.137,0,0,0,135.5,97.129Zm0,0" transform="translate(-119.401 -79.307)"/><path class="d" d="M195.5,90v3.564a3.568,3.568,0,0,1,3.564,3.564,3.528,3.528,0,0,1-1.16,2.631l-2.4,2.2v5.981h1.782v-2.78l3.028-2.772A7.129,7.129,0,0,0,195.5,90Zm0,0" transform="translate(-172.272 -79.307)"/></svg>