<svg xmlns="http://www.w3.org/2000/svg" width="16.807" height="21.39" viewBox="0 0 16.807 21.39"><defs><style>.a{fill:#bcbccb;}</style></defs><g transform="translate(-54.815)"><g transform="translate(54.815)"><path class="a" d="M71.395,4.811a.734.734,0,0,0-.537-.227h-3.82V1.146A1.1,1.1,0,0,0,66.7.334,1.106,1.106,0,0,0,65.892,0H60.545a1.1,1.1,0,0,0-.812.334,1.1,1.1,0,0,0-.334.812V4.584h-3.82a.774.774,0,0,0-.764.764V20.626a.774.774,0,0,0,.764.764H70.858a.775.775,0,0,0,.764-.764V5.348A.734.734,0,0,0,71.395,4.811ZM60.927,1.91a.387.387,0,0,1,.382-.382h.764a.387.387,0,0,1,.382.382V3.056h1.528V1.91a.387.387,0,0,1,.382-.382h.764a.387.387,0,0,1,.382.382V5.73a.387.387,0,0,1-.382.382h-.764a.387.387,0,0,1-.382-.382V4.584H62.455V5.73a.387.387,0,0,1-.382.382h-.764a.387.387,0,0,1-.382-.382Zm9.167,17.953H65.51V17.189a.387.387,0,0,0-.382-.382h-3.82a.387.387,0,0,0-.382.382v2.674H56.343V6.112H59.4v.382a1.141,1.141,0,0,0,1.146,1.146h5.348a1.141,1.141,0,0,0,1.146-1.146V6.112h3.056V19.863h0Z" transform="translate(-54.815 0)"/><path class="a" d="M129.053,365.449h-.764a.387.387,0,0,0-.382.382v.764a.387.387,0,0,0,.382.382h.764a.387.387,0,0,0,.382-.382v-.764a.387.387,0,0,0-.382-.382Z" transform="translate(-124.851 -350.17)"/><path class="a" d="M129.053,292.362h-.764a.387.387,0,0,0-.382.382v.764a.387.387,0,0,0,.382.382h.764a.387.387,0,0,0,.382-.382v-.764a.387.387,0,0,0-.382-.382Z" transform="translate(-124.851 -280.139)"/><path class="a" d="M202.146,292.362h-.764a.387.387,0,0,0-.382.382v.764a.387.387,0,0,0,.382.382h.764a.387.387,0,0,0,.382-.382v-.764a.387.387,0,0,0-.382-.382Z" transform="translate(-194.888 -280.139)"/><path class="a" d="M129.053,219.271h-.764a.387.387,0,0,0-.382.382v.764a.387.387,0,0,0,.382.382h.764a.387.387,0,0,0,.382-.382v-.764a.387.387,0,0,0-.382-.382Z" transform="translate(-124.851 -210.104)"/><path class="a" d="M348.33,365.449h-.764a.387.387,0,0,0-.382.382v.764a.386.386,0,0,0,.382.382h.764a.386.386,0,0,0,.382-.382v-.764a.387.387,0,0,0-.382-.382Z" transform="translate(-334.96 -350.17)"/><path class="a" d="M275.232,292.362h-.764a.387.387,0,0,0-.382.382v.764a.387.387,0,0,0,.382.382h.764a.387.387,0,0,0,.382-.382v-.764a.386.386,0,0,0-.382-.382Z" transform="translate(-264.919 -280.139)"/><path class="a" d="M202.146,219.271h-.764a.387.387,0,0,0-.382.382v.764a.387.387,0,0,0,.382.382h.764a.387.387,0,0,0,.382-.382v-.764a.387.387,0,0,0-.382-.382Z" transform="translate(-194.888 -210.104)"/><path class="a" d="M348.33,292.362h-.764a.387.387,0,0,0-.382.382v.764a.387.387,0,0,0,.382.382h.764a.387.387,0,0,0,.382-.382v-.764a.387.387,0,0,0-.382-.382Z" transform="translate(-334.96 -280.139)"/><path class="a" d="M275.232,219.271h-.764a.387.387,0,0,0-.382.382v.764a.387.387,0,0,0,.382.382h.764a.387.387,0,0,0,.382-.382v-.764a.387.387,0,0,0-.382-.382Z" transform="translate(-264.919 -210.104)"/><path class="a" d="M347.177,220.417a.387.387,0,0,0,.382.382h.764a.387.387,0,0,0,.382-.382v-.764a.387.387,0,0,0-.382-.382h-.764a.387.387,0,0,0-.382.382Z" transform="translate(-334.954 -210.104)"/></g></g></svg>