<svg xmlns="http://www.w3.org/2000/svg" width="60" height="60" viewBox="0 0 60 60"><defs><style>.a{fill:#fff5f5;}.b{fill:#efe2dd;}.c{fill:#3a437e;}.d{fill:#0091d0;}.e{fill:#ff5757;}.f{fill:#ffc143;}.g{fill:#a3e72d;}.h{fill:#ff4343;}.i{fill:#ffb509;}.j{fill:#80cf00;}.k{fill:#c9f0ff;}.l{fill:#9ae7fd;}.m{fill:#f72c2c;}.n{fill:#7ca1b1;}</style></defs><g transform="translate(0 -0.001)"><path class="a" d="M58.828,60H1.172A1.172,1.172,0,0,1,0,58.829V1.173A1.172,1.172,0,0,1,1.172,0H58.828A1.172,1.172,0,0,1,60,1.173V58.829A1.172,1.172,0,0,1,58.828,60Z" transform="translate(0 0)"/><path class="b" d="M467.513,1.814V58.187A1.823,1.823,0,0,1,465.679,60h-4.146a1.823,1.823,0,0,0,1.834-1.813V1.814A1.823,1.823,0,0,0,461.533,0h4.146a1.823,1.823,0,0,1,1.834,1.813Z" transform="translate(-407.513 0)"/><path class="c" d="M60,10.625H0V1.186A1.178,1.178,0,0,1,1.172,0H58.828A1.178,1.178,0,0,1,60,1.186Z" transform="translate(0 0)"/><path class="d" d="M467.513,1.835v8.79h-4.146V1.835A1.833,1.833,0,0,0,461.533,0h4.146a1.833,1.833,0,0,1,1.834,1.834Z" transform="translate(-407.513)"/><circle class="e" cx="2.01" cy="2.01" r="2.01" transform="translate(5.22 3.46)"/><circle class="f" cx="2.01" cy="2.01" r="2.01" transform="translate(12.829 3.46)"/><circle class="g" cx="2.01" cy="2.01" r="2.01" transform="translate(20.499 3.46)"/><path class="h" d="M52.718,31.2a2.008,2.008,0,0,1-3.395,1.453A2.008,2.008,0,0,0,50.662,29.2h.047a2.009,2.009,0,0,1,2.008,2.01Z" transform="translate(-43.479 -25.735)"/><path class="i" d="M118.215,31.2a2.009,2.009,0,0,1-3.4,1.453A2.008,2.008,0,0,0,116.16,29.2h.046A2.009,2.009,0,0,1,118.215,31.2Z" transform="translate(-101.373 -25.735)"/><path class="j" d="M183.722,31.2a2.009,2.009,0,0,1-3.4,1.453,2.008,2.008,0,0,0,1.339-3.461h.047A2.01,2.01,0,0,1,183.722,31.2Z" transform="translate(-159.208 -25.735)"/><path class="g" d="M100.267,136.451H54.451a.731.731,0,0,1-.726-.736v-4.407a.731.731,0,0,1,.726-.736h45.816a.731.731,0,0,1,.726.736v4.407A.731.731,0,0,1,100.267,136.451Z" transform="translate(-47.359 -115.288)"/><path class="g" d="M100.267,219.05H54.451a.731.731,0,0,1-.726-.736v-4.407a.731.731,0,0,1,.726-.736h45.816a.731.731,0,0,1,.726.736v4.407A.731.731,0,0,1,100.267,219.05Z" transform="translate(-47.359 -188.219)"/><path class="j" d="M431.666,136.451h-2.741v-5.879h2.741a.736.736,0,0,1,.736.736v4.407A.736.736,0,0,1,431.666,136.451Z" transform="translate(-378.769 -115.288)"/><path class="j" d="M431.666,219.049h-2.741V213.17h2.741a.736.736,0,0,1,.736.736v4.407A.736.736,0,0,1,431.666,219.049Z" transform="translate(-378.769 -188.218)"/><path class="k" d="M100.267,308.467H54.451a.731.731,0,0,1-.726-.736V296.505a.731.731,0,0,1,.726-.736h45.816a.731.731,0,0,1,.726.736v11.226A.731.731,0,0,1,100.267,308.467Z" transform="translate(-47.359 -261.21)"/><path class="l" d="M428.925,295.772h2.741a.736.736,0,0,1,.736.736v11.226a.736.736,0,0,1-.736.736h-2.741Z" transform="translate(-378.769 -261.212)"/><path class="e" d="M369.484,440.431H359.121a.736.736,0,0,1-.736-.736v-3.041a.736.736,0,0,1,.736-.736h10.363a.736.736,0,0,1,.736.736v3.041A.736.736,0,0,1,369.484,440.431Z" transform="translate(-316.587 -384.932)"/><path class="m" d="M431.666,440.431h-2.741v-4.513h2.741a.736.736,0,0,1,.736.736v3.041A.736.736,0,0,1,431.666,440.431Z" transform="translate(-378.769 -384.932)"/><g transform="translate(9.269 37.683)"><path class="n" d="M83.7,323.647H80.68a.889.889,0,0,1,0-1.777H83.7a.889.889,0,1,1,0,1.777Z" transform="translate(-79.791 -321.87)"/><path class="n" d="M153.114,323.647h-18.42a.889.889,0,0,1,0-1.777h18.42a.889.889,0,0,1,0,1.777Z" transform="translate(-127.405 -321.87)"/><path class="n" d="M216.421,349.963h-6.736a.889.889,0,0,1,0-1.777h6.736a.889.889,0,0,1,0,1.777Z" transform="translate(-193.51 -345.068)"/><path class="n" d="M164.331,349.963h-2.1a.889.889,0,1,1,0-1.777h2.1a.889.889,0,0,1,0,1.777Z" transform="translate(-151.68 -345.068)"/><path class="n" d="M86.963,349.963H80.68a.889.889,0,0,1,0-1.777h6.284a.889.889,0,1,1,0,1.777Z" transform="translate(-79.791 -345.068)"/></g></g></svg>