<svg xmlns="http://www.w3.org/2000/svg" width="38" height="38" viewBox="0 0 38 38"><defs><style>.a{fill:#fff;stroke:#ffca83;}.b{fill:#ffca83;}.c{stroke:none;}.d{fill:none;}</style></defs><g class="a"><circle class="c" cx="19" cy="19" r="19"/><circle class="d" cx="19" cy="19" r="18.5"/></g><g transform="translate(11 11)"><path class="b" d="M10,13H5l1.828-2H13a1,1,0,0,0,1-1V4h1a1,1,0,0,1,1,1v7a1,1,0,0,1-1,1H13v3ZM3,9H1A1,1,0,0,1,0,8V1A1,1,0,0,1,1,0H11a1,1,0,0,1,1,1V8a1,1,0,0,1-1,1H6L3,12Z"/></g></svg>