<svg xmlns="http://www.w3.org/2000/svg" width="49.048" height="53.834" viewBox="0 0 49.048 53.834"><defs><style>.a{fill:#42adc0;}</style></defs><path class="a" d="M927.784,210.549h-7.728l2.23-2.036a11.964,11.964,0,0,0,4.782-9.569V188.177A7.175,7.175,0,0,0,919.9,181H901.962a1.2,1.2,0,0,0-1.2,1.2,7.178,7.178,0,0,0,3.372,6.077,11.9,11.9,0,0,0-.981,4.689v5.981a11.964,11.964,0,0,0,4.782,9.569l1.051,2.036h-7.728c-4.9,0-11.264,3.95-11.264,8.823v9.042a6.431,6.431,0,0,0,5.533,6.347v.073h42.593a.92.92,0,0,0,.922-.917V219.372C939.048,214.5,932.684,210.549,927.784,210.549Zm-24.471-27.156H919.9a4.784,4.784,0,0,1,4.782,4.785v3.864l-2.547-4.462a1.2,1.2,0,0,0-1.04-.6H907.94A4.783,4.783,0,0,1,903.313,183.392Zm2.236,15.55v-5.981a9.575,9.575,0,0,1,.789-3.78,7.077,7.077,0,0,0,1.6.191H920.4l4.28,7.5v2.069a9.565,9.565,0,1,1-19.129,0Zm4.365,13.44a.92.92,0,0,0,.922-.917l-.5-1.566a11.878,11.878,0,0,0,9.565,0l-1.683,1.566a.92.92,0,0,0,.922.917h1.549l-.553,2.009a5.54,5.54,0,0,1-4.684,2.577H913.6a5.539,5.539,0,0,1-4.74-2.669l-.526-1.917Zm9.222,5.42-2.647,3.63a3.615,3.615,0,0,0-1.706,1.669l-.83,1.642h-.857l-3.375-7.051a7.279,7.279,0,0,0,3.882,1.11h1.844A7.409,7.409,0,0,0,919.135,217.8Zm-27.291,1.568c.005-3.858,5.541-6.984,9.419-6.989h.553l4.768,12.362h-4.97v-1.356a.92.92,0,0,0-.922-.917h-8.848ZM903.458,233h-7a4.6,4.6,0,0,1-4.611-4.586v-4.107h7.926v1.356a.92.92,0,0,0,.922.917h2.766Zm1.844,0v-6.42h1.752l1.669,6.42Zm5.33,0-6.907-20.616h2.7L913.334,233Zm9.424,0h-4.813l-1.641-6.42h6.455Zm-1.844-8.254h-2.195l.415-.816a1.845,1.845,0,0,1,1.641-1.018h2.766A2.766,2.766,0,0,1,918.213,224.745Zm.3-3.669,4.094-8.693h2.693l-4.094,8.693Zm5.238,11.006a.92.92,0,0,1-.922.917H921.9v-6.42h.922a.92.92,0,0,1,.922.917ZM937.2,233h-7.925v-8.693H937.2Zm0-13.628v3.1h-8.848a.92.92,0,0,0-.922.917V233h-2.01a2.738,2.738,0,0,0,.166-.917V227.5a2.759,2.759,0,0,0-2.766-2.751H921.9a4.506,4.506,0,0,0,.922-2.55l4.39-9.812h.572c3.879.005,9.414,3.131,9.419,6.989Z" transform="translate(-890 -181)"/></svg>