<svg xmlns="http://www.w3.org/2000/svg" width="59.442" height="59.442" viewBox="0 0 59.442 59.442"><defs><style>.a{fill:#42adc0;}</style></defs><g transform="translate(0)"><path class="a" d="M47.019,25.927V3.876A2.88,2.88,0,0,0,44.143,1H28.8a2.88,2.88,0,0,0-2.876,2.876V22.1l-5.835,0L19.7,17.421a7.474,7.474,0,0,0-3.429-5.656,5.757,5.757,0,1,0-6.6-.7,7.452,7.452,0,0,0-4.839,6.967v7.891H1V60.442H60.442V25.927ZM27.845,3.876a.96.96,0,0,1,.959-.959h15.34a.96.96,0,0,1,.959.959V25.927H31.5a2.844,2.844,0,0,0,.176-.959A2.88,2.88,0,0,0,28.8,22.092h-.959ZM13.464,2.917A3.835,3.835,0,1,1,9.629,6.752,3.839,3.839,0,0,1,13.464,2.917ZM6.752,18.036A5.531,5.531,0,0,1,17.8,17.579l.387,4.686a1.907,1.907,0,0,0,1.909,1.744H28.8a.959.959,0,0,1,0,1.917h-9.92a2.861,2.861,0,0,1-2.864-2.615l-.641-7.058-1.91.174.641,7.058a4.8,4.8,0,0,0,.933,2.442H6.752ZM58.524,58.524H2.917V27.845H58.524Z" transform="translate(-1 -1)"/><path class="a" d="M33.876,12.752h7.67a2.876,2.876,0,0,0,0-5.752h-7.67a2.876,2.876,0,1,0,0,5.752ZM42.5,9.876a.96.96,0,0,1-.959.959H38.67V8.917h2.876A.96.96,0,0,1,42.5,9.876Zm-8.629-.959h2.876v1.917H33.876a.959.959,0,0,1,0-1.917Z" transform="translate(-2.238 -1.248)"/><path class="a" d="M33.876,22.752h7.67a2.876,2.876,0,0,0,0-5.752h-7.67a2.876,2.876,0,1,0,0,5.752ZM42.5,19.876a.96.96,0,0,1-.959.959H38.67V18.917h2.876A.96.96,0,0,1,42.5,19.876Zm-8.629-.959h2.876v1.917H33.876a.959.959,0,0,1,0-1.917Z" transform="translate(-2.238 -1.66)"/><path class="a" d="M17.464,52.587H16.3a2.957,2.957,0,0,0-.668-3.191l-5.52-5.52a2.992,2.992,0,0,0-4.232,4.232l4.479,4.479H9.794a2.876,2.876,0,0,0,0,5.752h7.67a2.876,2.876,0,0,0,0-5.752Zm-10.546-6.6a1.075,1.075,0,0,1,1.835-.76l2.082,2.082L9.314,48.835,7.232,46.752A1.071,1.071,0,0,1,6.917,45.992Zm5.835,6.281L10.67,50.191l1.521-1.521,2.082,2.082a1.075,1.075,0,0,1-1.521,1.521ZM8.835,55.464a.96.96,0,0,1,.959-.959H12.67v1.917H9.794A.96.96,0,0,1,8.835,55.464Zm8.629.959H14.587V54.5h2.876a.959.959,0,0,1,0,1.917Z" transform="translate(-1.165 -2.733)"/><path class="a" d="M23,33.876V53.051a2.88,2.88,0,0,0,2.876,2.876H54.638a2.88,2.88,0,0,0,2.876-2.876V33.876A2.88,2.88,0,0,0,54.638,31H25.876A2.88,2.88,0,0,0,23,33.876ZM54.638,54.01H25.876a.96.96,0,0,1-.959-.959V44.422H55.6v8.629A.96.96,0,0,1,54.638,54.01ZM55.6,33.876V42.5H24.917V33.876a.96.96,0,0,1,.959-.959H54.638A.96.96,0,0,1,55.6,33.876Z" transform="translate(-1.908 -2.238)"/><path class="a" d="M29.876,40.752h1.917a2.876,2.876,0,1,0,0-5.752H29.876a2.876,2.876,0,0,0,0,5.752Zm0-3.835h1.917a.959.959,0,1,1,0,1.917H29.876a.959.959,0,0,1,0-1.917Z" transform="translate(-2.073 -2.403)"/><path class="a" d="M39.876,40.752h1.917a2.876,2.876,0,0,0,0-5.752H39.876a2.876,2.876,0,1,0,0,5.752Zm0-3.835h1.917a.959.959,0,0,1,0,1.917H39.876a.959.959,0,1,1,0-1.917Z" transform="translate(-2.485 -2.403)"/><path class="a" d="M49.876,40.752h1.917a2.876,2.876,0,0,0,0-5.752H49.876a2.876,2.876,0,0,0,0,5.752Zm0-3.835h1.917a.959.959,0,1,1,0,1.917H49.876a.959.959,0,0,1,0-1.917Z" transform="translate(-2.898 -2.403)"/><path class="a" d="M31.794,47H29.876a2.876,2.876,0,0,0,0,5.752h1.917a2.876,2.876,0,1,0,0-5.752Zm0,3.835H29.876a.959.959,0,0,1,0-1.917h1.917a.959.959,0,1,1,0,1.917Z" transform="translate(-2.073 -2.898)"/><path class="a" d="M41.794,47H39.876a2.876,2.876,0,1,0,0,5.752h1.917a2.876,2.876,0,0,0,0-5.752Zm0,3.835H39.876a.959.959,0,1,1,0-1.917h1.917a.959.959,0,0,1,0,1.917Z" transform="translate(-2.485 -2.898)"/><path class="a" d="M51.794,47H49.876a2.876,2.876,0,0,0,0,5.752h1.917a2.876,2.876,0,0,0,0-5.752Zm0,3.835H49.876a.959.959,0,0,1,0-1.917h1.917a.959.959,0,1,1,0,1.917Z" transform="translate(-2.898 -2.898)"/><path class="a" d="M5,31H6.917v1.917H5Z" transform="translate(-1.165 -2.238)"/><path class="a" d="M9,31h1.917v1.917H9Z" transform="translate(-1.33 -2.238)"/><path class="a" d="M13,31h1.917v1.917H13Z" transform="translate(-1.495 -2.238)"/><path class="a" d="M5,35h9.587v1.917H5Z" transform="translate(-1.165 -2.403)"/><path class="a" d="M5,39h9.587v1.917H5Z" transform="translate(-1.165 -2.568)"/></g></svg>