<svg xmlns="http://www.w3.org/2000/svg" width="20" height="20" viewBox="0 0 20 20"><defs><style>.a{fill:none;}.b{fill:#3a437e;}</style></defs><path class="a" d="M0,0H20V20H0Z"/><path class="b" d="M16.333,2.667H12.85a2.49,2.49,0,0,0-4.7,0H4.667A1.672,1.672,0,0,0,3,4.333V16a1.672,1.672,0,0,0,1.667,1.667H16.333A1.672,1.672,0,0,0,18,16V4.333A1.672,1.672,0,0,0,16.333,2.667Zm-5.833,0a.833.833,0,1,1-.833.833A.836.836,0,0,1,10.5,2.667Zm.833,11.667H7.167a.833.833,0,1,1,0-1.667h4.167a.833.833,0,1,1,0,1.667ZM13.833,11H7.167a.833.833,0,1,1,0-1.667h6.667a.833.833,0,0,1,0,1.667Zm0-3.333H7.167A.833.833,0,0,1,7.167,6h6.667a.833.833,0,0,1,0,1.667Z" transform="translate(-0.5 -0.167)"/></svg>