<svg xmlns="http://www.w3.org/2000/svg" width="27.191" height="17.217" viewBox="0 0 27.191 17.217"><defs><style>.a{fill:#006496;}.b{fill:#42adc0;}</style></defs><g transform="translate(-1316 -635.236)"><path class="a" d="M6.8,14.74h11.9v10.2a1.7,1.7,0,0,1-1.7,1.7H1.7a1.7,1.7,0,0,1-1.7-1.7V13.04a1.7,1.7,0,0,1,1.7-1.7H16.994a1.7,1.7,0,0,1,1.7,1.7H6.8Zm0,6.8a1.7,1.7,0,1,0-1.7,1.7A1.7,1.7,0,0,0,6.8,21.537Z" transform="translate(1316 624.856)"/><path class="b" d="M25.831,10.66c.747-.561,1.359-.254,1.359.68V26.636c0,.934-.612,1.241-1.359.68l-4.079-3.06a3.845,3.845,0,0,1-1.359-2.718v-5.1a3.845,3.845,0,0,1,1.359-2.719Z" transform="translate(1316 624.856)"/></g></svg>