<svg xmlns="http://www.w3.org/2000/svg" width="16.689" height="15.642" viewBox="0 0 16.689 15.642"><defs><style>.a{fill:#3a437e;}</style></defs><path class="a" d="M311.168,318.52h1.641v1.663h-1.641Zm0,0" transform="translate(-301.025 -308.137)"/><path class="a" d="M51.921,255.41a3.033,3.033,0,0,1-3.142,0,3.033,3.033,0,0,1-3.142,0,3.033,3.033,0,0,1-3.142,0,3.037,3.037,0,0,1-2.322.345v5.174a1.8,1.8,0,0,0,1.8,1.8h.82V258.31a.489.489,0,0,1,.489-.489H45.9a.489.489,0,0,1,.489.489v4.417h6.058a1.8,1.8,0,0,0,1.8-1.8v-5.174a3.037,3.037,0,0,1-2.322-.345Zm-.3,4.209a.489.489,0,0,1-.489.489H48.517a.489.489,0,0,1-.489-.489v-2.641a.489.489,0,0,1,.489-.489h2.619a.489.489,0,0,1,.489.489Zm0,0" transform="translate(-38.863 -247.085)"/><path class="a" d="M150.5,359.367h1.641v3.928H150.5Zm0,0" transform="translate(-145.594 -347.653)"/><path class="a" d="M3.142,145.3v-2.834H0v1.082A2.058,2.058,0,0,0,3.142,145.3Zm0,0" transform="translate(0 -137.825)"/><path class="a" d="M19.546,1.614A2.324,2.324,0,0,0,17.407,0h-11A2.324,2.324,0,0,0,4.27,1.614L3.684,3.666H20.133Zm0,0" transform="translate(-3.564)"/><path class="a" d="M127.485,145.611a2.045,2.045,0,0,0,1.082-.308v-2.834H126.4V145.3A2.045,2.045,0,0,0,127.485,145.611Zm0,0" transform="translate(-122.283 -137.825)"/><path class="a" d="M415.6,142.469V145.3a2.058,2.058,0,0,0,3.142-1.752v-1.082Zm0,0" transform="translate(-402.055 -137.825)"/><path class="a" d="M223.883,145.611a2.045,2.045,0,0,0,1.082-.308v-2.834H222.8V145.3A2.045,2.045,0,0,0,223.883,145.611Zm0,0" transform="translate(-215.538 -137.825)"/><path class="a" d="M320.281,145.611a2.045,2.045,0,0,0,1.082-.308v-2.834H319.2V145.3A2.045,2.045,0,0,0,320.281,145.611Zm0,0" transform="translate(-308.794 -137.825)"/></svg>