<svg xmlns="http://www.w3.org/2000/svg" width="38" height="38" viewBox="0 0 38 38"><defs><style>.a{fill:#fff;stroke:#4ad991;}.b{fill:#4ad991;}.c{stroke:none;}.d{fill:none;}</style></defs><g class="a"><circle class="c" cx="19" cy="19" r="19"/><circle class="d" cx="19" cy="19" r="18.5"/></g><path class="b" d="M12,16V14H10V12h2V10h2v2h2v2H14v2ZM0,16V15a4.951,4.951,0,0,1,5-5H8v2H5a2.913,2.913,0,0,0-2.8,2H8v2ZM3,5V4a4,4,0,0,1,8,0V5A4,4,0,1,1,3,5ZM5,4V5A2,2,0,0,0,9,5V4A2,2,0,1,0,5,4Z" transform="translate(11 11)"/></svg>