<svg xmlns="http://www.w3.org/2000/svg" width="20" height="27.528" viewBox="0 0 20 27.528"><defs><style>.a{fill:#42adc0;}.b{fill:#006496;}</style></defs><g transform="translate(-50.868)"><path class="a" d="M128.761,13.485V4.972a4.971,4.971,0,1,0-9.942,0v8.513a4.971,4.971,0,0,0,9.942,0Z" transform="translate(-62.923)"/><path class="b" d="M69.693,101.866V97.775c.506-.364,1.135-.908,1.172-1.39.058-.762-1.172-1.491-1.172-1.491H67.955v6.973a7.08,7.08,0,1,1-14.161,0V94.894h-1.74s-1.246.683-1.184,1.491c.037.485.677,1.035,1.184,1.4v4.083a8.835,8.835,0,0,0,6.732,8.569v3.1H57.171V115.4h7.393v-1.864H62.949v-3.1A8.834,8.834,0,0,0,69.693,101.866Z" transform="translate(0 -87.872)"/></g></svg>