<svg xmlns="http://www.w3.org/2000/svg" width="18.861" height="25" viewBox="0 0 18.861 25"><defs><style>.a{fill:#454f60;}</style></defs><g transform="translate(-14.5)"><path class="a" d="M23.92,0A9.414,9.414,0,0,0,14.5,9.42c0,2.71,1.355,5.165,2.688,7.43a39.506,39.506,0,0,0,5.843,7.769,1.253,1.253,0,0,0,1.8,0,36.338,36.338,0,0,0,5.229-6.562c1.588-2.562,3.3-5.525,3.3-8.637A9.459,9.459,0,0,0,23.92,0Zm0,14.882a5.716,5.716,0,1,1,5.716-5.716A5.719,5.719,0,0,1,23.92,14.882Z" transform="translate(0)"/></g></svg>