<svg xmlns="http://www.w3.org/2000/svg" width="17.461" height="22.923" viewBox="0 0 17.461 22.923"><defs><style>.a{fill:#813882;}</style></defs><g transform="translate(-0.001)"><path class="a" d="M17.461,1.343H10.631a2.015,2.015,0,0,0-3.8,0H0v21.58H17.461ZM5.373,2.686H8.059V2.015a.672.672,0,1,1,1.343,0v.672h2.686V4.029H5.373ZM16.118,21.58H1.344V2.686H4.03V5.373h9.4V2.686h2.686Zm0,0"/><path class="a" d="M62.841,160.785l-3.127,3.128-5.278,5.278-1.425,4.274,4.274-1.425,8.405-8.405Zm-6.282,10.081-1.425.475.475-1.425,5.054-5.054.95.95ZM61.8,164.1l-.19-.19,1.228-1.228.95.95-1.228,1.228Zm0,0" transform="translate(-50.637 -153.586)"/></g></svg>