<svg xmlns="http://www.w3.org/2000/svg" width="23.436" height="23.336" viewBox="0 0 23.436 23.336"><defs><style>.a{fill:none;stroke:#282c37;stroke-linecap:round;}</style></defs><g transform="translate(0.549 0.5)"><path class="a" d="M199.961,417.145a10.3,10.3,0,0,0,2.008,2.628.655.655,0,0,0,.873,0,10.3,10.3,0,0,0,2.008-2.628,10.545,10.545,0,0,1-2.445-1.4A10.546,10.546,0,0,1,199.961,417.145Zm0,0" transform="translate(-191.237 -397.604)"/><path class="a" d="M294.058,317.992c-.122.138-.247.272-.376.4a10.775,10.775,0,0,1-5.072,2.733,15.941,15.941,0,0,1-2.9.447,7.272,7.272,0,0,0,3.96,1.341c3.159,0,5.64-2.73,5.744-2.846a.654.654,0,0,0,0-.873A9.836,9.836,0,0,0,294.058,317.992Zm0,0" transform="translate(-273.246 -304.118)"/><path class="a" d="M7,321.126a10.774,10.774,0,0,1-5.073-2.733q-.194-.193-.376-.4a9.849,9.849,0,0,0-1.357,1.2.655.655,0,0,0,0,.873c.1.116,2.585,2.846,5.744,2.846A7.273,7.273,0,0,0,9.9,321.573,15.952,15.952,0,0,1,7,321.126Zm0,0" transform="translate(-0.023 -304.118)"/><path class="a" d="M159.792,16a.654.654,0,0,0,.873,0c.161-.144,3.932-3.571,3.932-7.917S160.825.311,160.665.167a.655.655,0,0,0-.873,0c-.161.144-3.933,3.571-3.933,7.917S159.631,15.857,159.792,16Zm0,0" transform="translate(-149.059)"/><path class="a" d="M343.445,28.154a12.966,12.966,0,0,0-.68-1.862.654.654,0,0,0-.807-.334,13,13,0,0,0-1.8.836,13.7,13.7,0,0,1,1.1,2A13.77,13.77,0,0,1,343.445,28.154Zm0,0" transform="translate(-325.319 -24.79)"/><path class="a" d="M99.839,26.792a12.98,12.98,0,0,0-1.8-.836.654.654,0,0,0-.807.334,13,13,0,0,0-.68,1.863,13.755,13.755,0,0,1,2.188.64A13.722,13.722,0,0,1,99.839,26.792Zm0,0" transform="translate(-92.342 -24.788)"/><path class="a" d="M310.233,103.31a9.868,9.868,0,0,1-.678,3.516,13.459,13.459,0,0,1-1.454,2.753,16.24,16.24,0,0,1-1.331,1.7,10.6,10.6,0,0,0,6.128-2.7c3.073-3.073,2.829-8.164,2.817-8.379a.654.654,0,0,0-.617-.617c-.03,0-.174-.009-.408-.009a14.129,14.129,0,0,0-4.906.885A9.613,9.613,0,0,1,310.233,103.31Zm0,0" transform="translate(-293.386 -95.226)"/><path class="a" d="M8.954,111.279a16.251,16.251,0,0,1-1.331-1.7,13.459,13.459,0,0,1-1.455-2.753,9.871,9.871,0,0,1-.678-3.516,9.608,9.608,0,0,1,.449-2.854,14.128,14.128,0,0,0-4.906-.885c-.235,0-.379.007-.408.009a.654.654,0,0,0-.617.617c-.012.215-.255,5.306,2.817,8.379A10.6,10.6,0,0,0,8.954,111.279Zm0,0" transform="translate(0 -95.226)"/></g></svg>