<svg xmlns="http://www.w3.org/2000/svg" width="16.09" height="19.616" viewBox="0 0 16.09 19.616"><defs><style>.a{fill:#fff;}</style></defs><g transform="translate(-46.022)"><path class="a" d="M51.356,133.055c-2.92-.017-5.334-5.977-5.334-9.012,0-4.958,3.719-6.043,5.153-6.043a5.929,5.929,0,0,1,1.944.478,4.346,4.346,0,0,0,1.11.318,3.455,3.455,0,0,0,.8-.258,6.383,6.383,0,0,1,2.4-.58h.006a4.92,4.92,0,0,1,4.117,2.079l.3.451-.432.326a3.636,3.636,0,0,0-1.744,3,3.385,3.385,0,0,0,1.889,3.129c.271.163.551.331.551.7,0,.24-1.913,5.386-4.69,5.386a3.772,3.772,0,0,1-1.584-.384,3.212,3.212,0,0,0-1.41-.34,3.626,3.626,0,0,0-1.116.3,5.468,5.468,0,0,1-1.936.452Z" transform="translate(0 -113.439)"/><path class="a" d="M258.84,0c.072,2.608-1.793,4.418-3.656,4.3A4.156,4.156,0,0,1,258.84,0Z" transform="translate(-201.12)"/></g></svg>