<svg xmlns="http://www.w3.org/2000/svg" width="25.003" height="25" viewBox="0 0 25.003 25"><defs><style>.a{fill:#9595a1;}</style></defs><g transform="translate(0 -0.028)"><path class="a" d="M23.384,1.646a5.514,5.514,0,0,0-7.8,0L1.27,15.95a.716.716,0,0,0-.2.41L.007,24.213a.714.714,0,0,0,.2.6.728.728,0,0,0,.506.213.579.579,0,0,0,.1-.005l4.731-.639a.72.72,0,0,0-.192-1.428l-3.793.511L2.3,17.991l5.764,5.764a.728.728,0,0,0,.506.213.705.705,0,0,0,.506-.213l14.309-14.3a5.511,5.511,0,0,0,0-7.8ZM15.856,3.4l2.4,2.4L5.2,18.864l-2.4-2.4ZM8.574,22.231,6.224,19.882,19.282,6.824l2.349,2.349ZM22.633,8.146,16.884,2.4a4.083,4.083,0,0,1,5.748,5.748Z" transform="translate(0)"/></g></svg>