<svg xmlns="http://www.w3.org/2000/svg" width="37.798" height="53.052" viewBox="0 0 37.798 53.052"><defs><style>.a{opacity:0.4;}.b{fill:#ff7d7d;}</style></defs><g class="a"><path class="b" d="M159.615,283.827a2.35,2.35,0,0,1-1.433.666,1.354,1.354,0,0,1-1.1-.381.82.82,0,1,0-1.191,1.129,2.925,2.925,0,0,0,2.164.9c.08,0,.16,0,.242-.008a3.99,3.99,0,0,0,2.45-1.112.82.82,0,0,0-1.129-1.191Z" transform="translate(-146.264 -252.583)"/><path class="b" d="M285.086,284.112a1.357,1.357,0,0,1-1.1.381,2.349,2.349,0,0,1-1.433-.666.82.82,0,0,0-1.129,1.191,3.99,3.99,0,0,0,2.45,1.112q.122.009.242.008a2.926,2.926,0,0,0,2.164-.9.82.82,0,1,0-1.191-1.129Z" transform="translate(-258.04 -252.584)"/><path class="b" d="M80.442,85.2a17.888,17.888,0,0,1-1.417-1.814,22.841,22.841,0,0,0-4.394,3.8c-3.55,3.962-5.307,8.77-4.82,13.19a5.2,5.2,0,0,0,.62,2.433,2.459,2.459,0,0,0,.787-.4c.016-.919.286-3.449,4.944-10.855C77.875,88.83,79.605,86.369,80.442,85.2Z" transform="translate(-69.732 -74.266)"/><path class="b" d="M196.949,61.513c-3.883-4.381-9.428-7.212-14.125-7.212a16.667,16.667,0,0,0-7.322,1.867c3.308,4.82,12.986,11.048,13.364,11.242a38.2,38.2,0,0,1,8.086,6.333c1.038.985,1.934,1.836,2.712,2.441a3.5,3.5,0,0,0,1.3.761,5.075,5.075,0,0,0,.674-2.49C202.162,70.112,200.5,65.516,196.949,61.513Z" transform="translate(-163.934 -48.362)"/><path class="b" d="M129.935,122.169a62.2,62.2,0,0,1-5.6-4.669,87.183,87.183,0,0,0-7.4,12.072C120.269,126.448,124.679,122.509,129.935,122.169Z" transform="translate(-111.776 -104.649)"/><path class="b" d="M147.239,8.4c-.184-4.661-5.983-8.4-13.11-8.4-7.227,0-13.088,3.847-13.114,8.6A21.526,21.526,0,0,1,134.3,3.314C138.586,3.314,143.28,5.2,147.239,8.4Z" transform="translate(-115.406)"/><path class="b" d="M128.309,191.126c-3.361-3.192-7.544-7.164-12.32-7.164-4.793,0-9.011,3.968-12.4,7.157-1.118,1.052-2.091,1.967-2.984,2.646a18.579,18.579,0,0,0-.146,2.369c0,9.907,6.971,20.759,15.569,20.759S131.6,206.041,131.6,196.134a18.763,18.763,0,0,0-.125-2.2A36.642,36.642,0,0,1,128.309,191.126Zm-23.563,3.542c0-2.679,2.172-4.1,4.851-4.1s4.851,1.42,4.851,4.1a4.851,4.851,0,1,1-9.7,0Zm11.282,18.613c-2.064,0-3.9-1.525-3.971-2.733a3.085,3.085,0,0,1,2.4-2.627,1.829,1.829,0,0,1,1.376.5c.043.032.1.071.146.107.054-.038.112-.08.158-.113a1.861,1.861,0,0,1,1.364-.5,3.111,3.111,0,0,1,2.5,2.642C119.932,211.756,118.092,213.28,116.028,213.28Zm6.431-13.762a4.851,4.851,0,0,1-4.851-4.851c0-2.679,2.172-4.1,4.851-4.1s4.851,1.42,4.851,4.1A4.851,4.851,0,0,1,122.459,199.519Z" transform="translate(-97.098 -163.842)"/></g></svg>