<svg xmlns="http://www.w3.org/2000/svg" xmlns:xlink="http://www.w3.org/1999/xlink" width="85" height="85" viewBox="0 0 85 85"><defs><style>.a{fill:url(#a);}.b{fill:#fff;}</style><linearGradient id="a" x1="-0.142" y1="1" x2="0.708" y2="0.274" gradientUnits="objectBoundingBox"><stop offset="0" stop-color="#cc2b5e"/><stop offset="1" stop-color="#753a88"/></linearGradient></defs><g transform="translate(-44 -526)"><circle class="a" cx="42.5" cy="42.5" r="42.5" transform="translate(44 526)"/><g transform="translate(62 544)"><path class="b" d="M24.894,0A24.895,24.895,0,0,0,5.532,40.542,1,1,0,1,0,7.08,39.289,22.9,22.9,0,1,1,10.5,42.707a1,1,0,0,0-1.253,1.548A24.894,24.894,0,1,0,24.894,0Z"/><path class="b" d="M96.655,72.513a1,1,0,0,0-.3-1.375,18.266,18.266,0,1,0,4.211,3.718,1,1,0,1,0-1.531,1.274,16.244,16.244,0,1,1-3.754-3.315A1,1,0,0,0,96.655,72.513Z" transform="translate(-61.629 -61.629)"/><path class="b" d="M212.766,144.167a1,1,0,1,0,1.992,0,4.987,4.987,0,0,0-3.983-4.878v-1.76a1,1,0,0,0-1.992,0v1.76a4.979,4.979,0,0,0,0,9.757v5.9a2.992,2.992,0,0,1-1.992-2.816,1,1,0,0,0-1.992,0,4.987,4.987,0,0,0,3.983,4.879v1.76a1,1,0,1,0,1.992,0v-1.76a4.979,4.979,0,0,0,0-9.757v-5.9A2.992,2.992,0,0,1,212.766,144.167Zm-3.983,2.816a2.987,2.987,0,0,1,0-5.632Zm3.983,5.15a2.992,2.992,0,0,1-1.992,2.816v-5.632A2.992,2.992,0,0,1,212.766,152.133Z" transform="translate(-184.885 -123.256)"/></g></g></svg>