<svg xmlns="http://www.w3.org/2000/svg" xmlns:xlink="http://www.w3.org/1999/xlink" width="61" height="55" viewBox="0 0 61 55"><defs><style>.a{fill:#ff7d7d;opacity:0.1;}.b{opacity:0.89;}.c{fill:url(#a);}</style><linearGradient id="a" y1="-2.41" x2="0.5" y2="1.75" gradientUnits="objectBoundingBox"><stop offset="0" stop-color="#bc2e66"/><stop offset="1" stop-color="#753a88"/></linearGradient></defs><rect class="a" width="61" height="55" rx="4"/><g class="b" transform="translate(7.93 4.947)"><path class="c" d="M199.961,418.551a20.62,20.62,0,0,0,4.022,5.262,1.311,1.311,0,0,0,1.748,0,20.626,20.626,0,0,0,4.021-5.262,21.114,21.114,0,0,1-4.9-2.809A21.117,21.117,0,0,1,199.961,418.551Zm0,0" transform="translate(-182.49 -379.419)"/><path class="c" d="M302.427,317.992c-.244.276-.494.545-.752.8a21.577,21.577,0,0,1-10.158,5.472,31.919,31.919,0,0,1-5.806.9,14.563,14.563,0,0,0,7.931,2.686c6.327,0,11.3-5.468,11.5-5.7a1.31,1.31,0,0,0,0-1.748A19.694,19.694,0,0,0,302.427,317.992Zm0,0" transform="translate(-260.748 -290.209)"/><path class="c" d="M13.987,324.268a21.575,21.575,0,0,1-10.158-5.473q-.388-.387-.753-.8A19.727,19.727,0,0,0,.358,320.4a1.311,1.311,0,0,0,0,1.748c.209.233,5.177,5.7,11.5,5.7a14.565,14.565,0,0,0,7.932-2.686A31.94,31.94,0,0,1,13.987,324.268Zm0,0" transform="translate(-0.022 -290.209)"/><path class="c" d="M163.734,32.042a1.31,1.31,0,0,0,1.748,0c.322-.288,7.875-7.151,7.875-15.854S165.8.622,165.483.334a1.311,1.311,0,0,0-1.748,0c-.322.288-7.875,7.152-7.875,15.854S163.413,31.754,163.734,32.042Zm0,0" transform="translate(-142.242)"/><path class="c" d="M346.738,30.394a25.946,25.946,0,0,0-1.363-3.73,1.31,1.31,0,0,0-1.615-.669,26.031,26.031,0,0,0-3.6,1.673,27.445,27.445,0,0,1,2.2,4.007A27.577,27.577,0,0,1,346.738,30.394Zm0,0" transform="translate(-310.44 -23.656)"/><path class="c" d="M103.132,27.667a25.994,25.994,0,0,0-3.6-1.673,1.31,1.31,0,0,0-1.615.669,26.041,26.041,0,0,0-1.363,3.73,27.545,27.545,0,0,1,4.382,1.281A27.475,27.475,0,0,1,103.132,27.667Zm0,0" transform="translate(-88.119 -23.654)"/><path class="c" d="M313.7,107.059a19.761,19.761,0,0,1-1.357,7.041,26.953,26.953,0,0,1-2.912,5.514,32.5,32.5,0,0,1-2.665,3.4c3.608-.467,8.642-1.786,12.271-5.414,6.153-6.153,5.666-16.348,5.642-16.779a1.311,1.311,0,0,0-1.236-1.236c-.059,0-.348-.018-.817-.018a28.3,28.3,0,0,0-9.824,1.773A19.25,19.25,0,0,1,313.7,107.059Zm0,0" transform="translate(-279.968 -90.871)"/><path class="c" d="M17.931,123.018a32.542,32.542,0,0,1-2.665-3.4,26.953,26.953,0,0,1-2.913-5.514A19.768,19.768,0,0,1,11,107.059a19.241,19.241,0,0,1,.9-5.716A28.293,28.293,0,0,0,2.072,99.57c-.47,0-.758.014-.817.018a1.31,1.31,0,0,0-1.236,1.236c-.024.431-.512,10.626,5.642,16.779C9.289,121.232,14.323,122.551,17.931,123.018Zm0,0" transform="translate(0 -90.871)"/></g></svg>