<svg xmlns="http://www.w3.org/2000/svg" width="33" height="31.083" viewBox="0 0 33 31.083"><defs><style>.a{fill:#fff;}</style></defs><path class="a" d="M9.043,21.436,4.209,33.553H1.162a1.162,1.162,0,0,0,0,2.324H5a1.162,1.162,0,0,0,1.079-.731l2.768-6.938h7.781v9.18H13.952a1.162,1.162,0,1,0,0,2.324h7.669a1.162,1.162,0,1,0,0-2.324H18.948v-9.18h8.428a1.162,1.162,0,0,0,1.125-.871l4.462-17.255a1.162,1.162,0,0,0-1.125-1.453H26.661a1.162,1.162,0,0,0-1.125.871l-1.758,6.8H13.952A1.162,1.162,0,0,0,12.79,17.46v3.248H10.121a1.167,1.167,0,0,0-1.078.728Zm6.071-2.814h8.064l-.539,2.086H15.114V18.622Zm11.363,7.262H9.77l1.138-2.853h12.63a1.162,1.162,0,0,0,1.125-.871l2.9-11.208h2.776Z" transform="translate(0 -8.629)"/></svg>