<svg xmlns="http://www.w3.org/2000/svg" width="40.243" height="49.127" viewBox="0 0 40.243 49.127"><defs><style>.a{fill:#fff;}</style></defs><path class="a" d="M68.953,21.046A11.539,11.539,0,0,0,58.873.556H35.04c-1.944,0-1.609,10.545,0,10.545H50.881c0,.15-.022.295-.022.443a11.539,11.539,0,0,0,9.657,11.378v2.5H59.184v2.5h1.333v1.5H59.184v2.5h1.333v4.907a4.777,4.777,0,0,0-1.333,3.307,4.884,4.884,0,0,0,6.966,4.363l3.1,4.635,1.29-.865-3.109-4.641a4.764,4.764,0,0,0,1.233-5.1h.283V21.046ZM62.4,7.326a4.192,4.192,0,0,1,2.338.708H60.065A4.2,4.2,0,0,1,62.4,7.326Zm-2.828,1.1h5.658a4.242,4.242,0,0,1,.762.916h-7.18A4.232,4.232,0,0,1,59.575,8.422Zm-.974,1.3h7.6a4.27,4.27,0,0,1,.334.985H58.267A4.277,4.277,0,0,1,58.6,9.727Zm3.8,6.035a4.191,4.191,0,0,1-2.314-.693h4.631A4.2,4.2,0,0,1,62.4,15.763Zm2.815-1.082H59.59a4.193,4.193,0,0,1-.734-.86h7.1A4.316,4.316,0,0,1,65.218,14.68Zm.956-1.248H58.635a4.246,4.246,0,0,1-.329-.9h8.2A4.131,4.131,0,0,1,66.173,13.432Zm.4-1.29H58.231a4.022,4.022,0,0,1-.046-.6,4.221,4.221,0,0,1,.023-.443H66.6c.014.147.025.295.025.443A4.472,4.472,0,0,1,66.575,12.142Z" transform="translate(-33.704)"/><path class="a" d="M68.4,172.967h-.889v-9.546h-.832v9.546h-.666v-9.546h-.832v9.546H64.3v-9.546h-.834v9.546h-.832v-9.546H61.8v9.546h-.889v-9.546h-.832v9.546H59.024v-9.546h-.832v9.546H57.3v-9.546h-.833v14.806l1.332,6.285h10.1l1.331-6.285V163.421H68.4Z" transform="translate(-53.471 -141.884)"/></svg>