<svg xmlns="http://www.w3.org/2000/svg" width="20.73" height="16.288" viewBox="0 0 20.73 16.288"><defs><style>.a{fill:#454f60;}</style></defs><g transform="translate(0 -54.82)"><g transform="translate(0 54.82)"><path class="a" d="M1.99,59.841q.393.278,2.371,1.648T7.392,63.6q.116.081.492.353t.625.44q.249.168.6.376a3.491,3.491,0,0,0,.665.312,1.833,1.833,0,0,0,.578.1h.023a1.834,1.834,0,0,0,.578-.1,3.494,3.494,0,0,0,.665-.312q.353-.208.6-.376t.625-.44q.376-.272.492-.353l5.414-3.76a5.5,5.5,0,0,0,1.411-1.423,3.055,3.055,0,0,0,.567-1.747,1.867,1.867,0,0,0-1.851-1.851H1.851a1.652,1.652,0,0,0-1.371.6,2.335,2.335,0,0,0-.48,1.5A2.7,2.7,0,0,0,.636,58.5,5.742,5.742,0,0,0,1.99,59.841Z" transform="translate(0 -54.82)"/><path class="a" d="M19.573,185.443q-3.794,2.568-5.761,3.991-.659.486-1.07.758a6.606,6.606,0,0,1-1.093.555,3.329,3.329,0,0,1-1.272.283h-.023a3.33,3.33,0,0,1-1.272-.283,6.609,6.609,0,0,1-1.093-.555q-.411-.272-1.07-.758-1.562-1.145-5.749-3.991A6.128,6.128,0,0,1,0,184.437v9.185a1.782,1.782,0,0,0,.544,1.307,1.782,1.782,0,0,0,1.307.544H18.879a1.857,1.857,0,0,0,1.851-1.851v-9.185A6.379,6.379,0,0,1,19.573,185.443Z" transform="translate(0 -179.185)"/></g></g></svg>