<svg xmlns="http://www.w3.org/2000/svg" width="21" height="23" viewBox="0 0 21 23"><defs><style>.a{fill:#fff;}.b{fill:#ff7d7d;stroke:#fff;stroke-width:2px;}.c{stroke:none;}.d{fill:none;}</style></defs><g transform="translate(0 2)"><path class="a" d="M6,14h4a2,2,0,1,1-4,0ZM1,13a1,1,0,0,1,0-2h.5A4.353,4.353,0,0,0,3,8V5A4.952,4.952,0,0,1,8,0a4.951,4.951,0,0,1,5,5V8a4.351,4.351,0,0,0,1.5,3H15a1,1,0,0,1,0,2Z" transform="translate(0 5)"/><g class="b" transform="translate(11)"><circle class="c" cx="4" cy="4" r="4"/><circle class="d" cx="4" cy="4" r="5"/></g></g></svg>