<svg xmlns="http://www.w3.org/2000/svg" width="47.321" height="47.854" viewBox="0 0 47.321 47.854"><defs><style>.a{opacity:0.4;}.b{fill:#ff7d7d;}</style></defs><g class="a"><g transform="translate(0)"><path class="b" d="M44.935,113.317a10.818,10.818,0,0,1-6.019-1.823A124.407,124.407,0,0,1,27.8,103.15L4.774,83.76,2.848,86.048l5.234,4.413A5.264,5.264,0,0,0,7.2,99.148c-.117-.175-2.543,3.767-2.659,3.89l-1.454,2.614,12.041,6.691-.3.449a7.075,7.075,0,0,0,5.893,10.994,17.047,17.047,0,0,0,5.407-.878,6.08,6.08,0,0,1,3.378-.13,33.75,33.75,0,0,0,8.183,1.008h7.247a5.234,5.234,0,1,0,0-10.468ZM19.829,100.905a2.829,2.829,0,0,1-2.692,1.944,2.278,2.278,0,0,1-1.46-.529l-6.565-5.47a2.278,2.278,0,0,1,.737-3.911l.843-.281,9.272,7.814Z" transform="translate(-2.848 -75.931)"/><path class="b" d="M192.162,8.7V16.45a4.486,4.486,0,1,0,8.973,0,1.5,1.5,0,0,1,1.5-1.5,4.486,4.486,0,0,0,4.486-4.486v-1.5h7.477a4.486,4.486,0,1,0,0-8.973H211.6V2.991h2.991a1.5,1.5,0,1,1,0,2.991H193.657a1.5,1.5,0,0,1,0-2.991h2.991V0h-2.991a4.476,4.476,0,0,0-1.5,8.7Z" transform="translate(-171.758 0)"/><rect class="b" width="2.991" height="2.991" transform="translate(27.881 0)"/><rect class="b" width="2.991" height="2.991" transform="translate(33.862 0)"/></g></g></svg>