<svg xmlns="http://www.w3.org/2000/svg" width="20.145" height="36.924" viewBox="0 0 20.145 36.924"><defs><style>.a{fill:#ff7d7d;}</style></defs><path class="a" d="M6.783-26.979c0,4.131-2.958,5.661-6.732,8.721-1.683,1.377-1.683,1.989-1.683,4.488v4.59H1.02v-4.539c0-1.683,0-1.836.663-2.5,3.06-2.856,7.854-5.049,7.854-10.761,0-5.661-4.59-9.333-10.047-9.333a10,10,0,0,0-10.1,7.344l2.5.816a7.37,7.37,0,0,1,7.6-5.559C4.182-33.711,6.783-30.753,6.783-26.979ZM-2.346-1.428A2.046,2.046,0,0,0-.306.612a2.046,2.046,0,0,0,2.04-2.04,2.046,2.046,0,0,0-2.04-2.04A2.046,2.046,0,0,0-2.346-1.428Z" transform="translate(10.608 36.312)"/></svg>