<svg xmlns="http://www.w3.org/2000/svg" xmlns:xlink="http://www.w3.org/1999/xlink" width="99.797" height="94.404" viewBox="0 0 99.797 94.404"><defs><style>.a{opacity:0.89;}.b{fill:url(#a);}</style><linearGradient id="a" y1="-2.41" x2="0.5" y2="1.75" gradientUnits="objectBoundingBox"><stop offset="0" stop-color="#bc2e66"/><stop offset="1" stop-color="#753a88"/></linearGradient></defs><g class="a"><path class="b" d="M199.961,421.671a43.521,43.521,0,0,0,8.489,11.106,2.767,2.767,0,0,0,3.69,0,43.535,43.535,0,0,0,8.487-11.106,44.568,44.568,0,0,1-10.333-5.929A44.573,44.573,0,0,1,199.961,421.671Zm0,0" transform="translate(-160.396 -339.078)"/><path class="b" d="M320.992,317.992c-.514.583-1.043,1.15-1.588,1.694-5.435,5.434-12.647,9.32-21.439,11.55a67.382,67.382,0,0,1-12.255,1.89c4.323,2.888,10.185,5.669,16.739,5.669,13.353,0,23.839-11.54,24.279-12.031a2.765,2.765,0,0,0,0-3.689A41.569,41.569,0,0,0,320.992,317.992Zm0,0" transform="translate(-227.642 -259.354)"/><path class="b" d="M29.494,331.237c-8.792-2.23-16-6.116-21.44-11.551q-.818-.817-1.588-1.694a41.632,41.632,0,0,0-5.737,5.083,2.767,2.767,0,0,0,0,3.69c.44.491,10.926,12.03,24.278,12.03,6.555,0,12.417-2.78,16.74-5.669A67.42,67.42,0,0,1,29.494,331.237Zm0,0" transform="translate(-0.02 -259.354)"/><path class="b" d="M172.48,67.627a2.764,2.764,0,0,0,3.69,0c.679-.607,16.621-15.094,16.621-33.461S176.849,1.313,176.171.705a2.766,2.766,0,0,0-3.69,0c-.679.608-16.621,15.094-16.621,33.461S171.8,67.02,172.48,67.627Zm0,0" transform="translate(-124.427 0)"/><path class="b" d="M354.043,35.361a54.755,54.755,0,0,0-2.876-7.872,2.766,2.766,0,0,0-3.409-1.413,54.949,54.949,0,0,0-7.6,3.532,57.917,57.917,0,0,1,4.634,8.457A58.208,58.208,0,0,1,354.043,35.361Zm0,0" transform="translate(-273.241 -21.141)"/><path class="b" d="M110.437,29.608a54.862,54.862,0,0,0-7.6-3.532,2.765,2.765,0,0,0-3.409,1.412,54.959,54.959,0,0,0-2.876,7.872,58.138,58.138,0,0,1,9.248,2.7A57.99,57.99,0,0,1,110.437,29.608Zm0,0" transform="translate(-77.56 -21.139)"/><path class="b" d="M321.405,115.376a41.707,41.707,0,0,1-2.864,14.861,56.883,56.883,0,0,1-6.147,11.637,68.587,68.587,0,0,1-5.624,7.184c7.616-.985,18.24-3.769,25.9-11.427,12.987-12.987,11.958-34.5,11.908-35.414a2.766,2.766,0,0,0-2.609-2.609c-.125-.006-.734-.037-1.724-.037a59.718,59.718,0,0,0-20.735,3.741A40.633,40.633,0,0,1,321.405,115.376Zm0,0" transform="translate(-244.817 -81.209)"/><path class="b" d="M37.846,149.058a68.684,68.684,0,0,1-5.624-7.184,56.887,56.887,0,0,1-6.148-11.637,41.723,41.723,0,0,1-2.864-14.861,40.609,40.609,0,0,1,1.9-12.064A59.715,59.715,0,0,0,4.372,99.57c-.991,0-1.6.03-1.725.037a2.766,2.766,0,0,0-2.609,2.609c-.05.91-1.08,22.426,11.908,35.414C19.606,145.29,30.23,148.073,37.846,149.058Zm0,0" transform="translate(0 -81.209)"/></g></svg>