<svg xmlns="http://www.w3.org/2000/svg" width="25.333" height="25.33" viewBox="0 0 25.333 25.33"><defs><style>.a{opacity:0.89;}.b{fill:#ff7d7d;}</style></defs><g class="a"><path class="b" d="M199.961,417.333a11.678,11.678,0,0,0,2.278,2.98.742.742,0,0,0,.99,0,11.681,11.681,0,0,0,2.277-2.98,11.957,11.957,0,0,1-2.773-1.591A11.958,11.958,0,0,1,199.961,417.333Zm0,0" transform="translate(-190.067 -395.172)"/><path class="b" d="M295.178,317.992c-.138.156-.28.309-.426.455a12.219,12.219,0,0,1-5.752,3.1,18.08,18.08,0,0,1-3.288.507,8.247,8.247,0,0,0,4.491,1.521c3.583,0,6.4-3.1,6.514-3.228a.742.742,0,0,0,0-.99A11.155,11.155,0,0,0,295.178,317.992Zm0,0" transform="translate(-271.575 -302.258)"/><path class="b" d="M7.932,321.546a12.218,12.218,0,0,1-5.753-3.1q-.219-.219-.426-.455a11.168,11.168,0,0,0-1.539,1.364.742.742,0,0,0,0,.99c.118.132,2.932,3.228,6.514,3.228a8.248,8.248,0,0,0,4.492-1.521A18.09,18.09,0,0,1,7.932,321.546Zm0,0" transform="translate(-0.023 -302.258)"/><path class="b" d="M160.319,18.145a.742.742,0,0,0,.99,0c.182-.163,4.46-4.05,4.46-8.978S161.491.352,161.309.189a.742.742,0,0,0-.99,0c-.182.163-4.46,4.05-4.46,8.978S160.137,17.983,160.319,18.145Zm0,0" transform="translate(-148.147 0)"/><path class="b" d="M343.885,28.454a14.693,14.693,0,0,0-.772-2.112.742.742,0,0,0-.915-.379,14.742,14.742,0,0,0-2.038.948,15.534,15.534,0,0,1,1.243,2.269A15.617,15.617,0,0,1,343.885,28.454Zm0,0" transform="translate(-323.33 -24.638)"/><path class="b" d="M100.28,26.909a14.72,14.72,0,0,0-2.038-.948.742.742,0,0,0-.915.379,14.746,14.746,0,0,0-.772,2.112,15.6,15.6,0,0,1,2.481.726A15.559,15.559,0,0,1,100.28,26.909Zm0,0" transform="translate(-91.777 -24.637)"/><path class="b" d="M310.7,103.811a11.191,11.191,0,0,1-.768,3.987,15.263,15.263,0,0,1-1.649,3.123,18.4,18.4,0,0,1-1.509,1.928,12.02,12.02,0,0,0,6.949-3.066c3.485-3.485,3.209-9.258,3.2-9.5a.742.742,0,0,0-.7-.7c-.033,0-.2-.01-.463-.01a16.023,16.023,0,0,0-5.564,1A10.9,10.9,0,0,1,310.7,103.811Zm0,0" transform="translate(-291.592 -94.644)"/><path class="b" d="M10.155,112.849a18.43,18.43,0,0,1-1.509-1.928A15.264,15.264,0,0,1,7,107.8a11.2,11.2,0,0,1-.768-3.987,10.9,10.9,0,0,1,.509-3.237,16.022,16.022,0,0,0-5.563-1c-.266,0-.429.008-.463.01a.742.742,0,0,0-.7.7c-.014.244-.29,6.017,3.2,9.5A12.021,12.021,0,0,0,10.155,112.849Zm0,0" transform="translate(0 -94.644)"/></g></svg>