<svg xmlns="http://www.w3.org/2000/svg" width="20.001" height="20.001" viewBox="0 0 20.001 20.001"><defs><style>.a{fill:#454f60;}</style></defs><g transform="translate(0 0)"><g transform="translate(14.099 11.773)"><path class="a" d="M366.3,304.377l-2.486-2.486a1.8,1.8,0,0,0-2.486,0l-.415.415,4.972,4.972.414-.414A1.756,1.756,0,0,0,366.3,304.377Z" transform="translate(-360.917 -301.393)"/></g><g transform="translate(0 1.775)"><g transform="translate(0)"><path class="a" d="M13.247,57.159a1.318,1.318,0,0,1-1.747-.09L6.585,52.151A1.319,1.319,0,0,1,6.5,50.4l-4.961-4.96a6.327,6.327,0,0,0,.3,8.591l7.778,7.781a6.291,6.291,0,0,0,8.591.3Z" transform="translate(0 -45.443)"/></g></g><g transform="translate(2.329 0)"><g transform="translate(0 0)"><path class="a" d="M65,2.984,62.513.5a1.8,1.8,0,0,0-2.486,0l-.415.415,4.972,4.972L65,5.47A1.756,1.756,0,0,0,65,2.984Z" transform="translate(-59.612 0)"/></g></g></g></svg>