<svg xmlns="http://www.w3.org/2000/svg" width="55.929" height="35.299" viewBox="0 0 55.929 35.299"><defs><style>.a{opacity:0.4;}.b{fill:#ff7d7d;}</style></defs><g class="a"><g transform="translate(0 0)"><path class="b" d="M61.024,73.067l.355-.234a1.513,1.513,0,0,0-1.731-2.482c-23.645,16.531-40.856.814-41.579.138a1.513,1.513,0,0,0-2.079,2.2c.033.031.571.524,1.554,1.253l-3.029,4.995a1.516,1.516,0,0,0,.507,2.078,1.539,1.539,0,0,0,.788.221A1.52,1.52,0,0,0,17.1,80.51l2.962-4.88a36.312,36.312,0,0,0,6.327,3.047l-1.46,4.88a1.5,1.5,0,0,0,1.009,1.88l.435.064a1.515,1.515,0,0,0,1.445-1.08l1.445-4.813a34.3,34.3,0,0,0,7.788,1.175v4.833a1.512,1.512,0,1,0,3.023,0v-4.86a35.574,35.574,0,0,0,7.811-1.338l1.861,4.907a1.516,1.516,0,0,0,1.414.975l.535-.1a1.512,1.512,0,0,0,.88-1.949l-1.812-4.781a44.871,44.871,0,0,0,7.708-3.751l2.449,3.269a1.519,1.519,0,0,0,1.209.607,1.48,1.48,0,0,0,.906-.3,1.512,1.512,0,0,0,.307-2.116Z" transform="translate(-8.469 -51.83)"/><path class="b" d="M55.834,34.719a13.635,13.635,0,0,0-1.876-2.044,24.279,24.279,0,0,0-2.393-1.957,32.567,32.567,0,0,0-3.354-2.063,29.4,29.4,0,0,0-4.232-1.85A26.537,26.537,0,0,0,39,25.526a32.911,32.911,0,0,0-5.511-.181c-1.886.159-3.772.161-5.672.392a50.455,50.455,0,0,0-5.6.695c-.918.16-1.829.288-2.715.484l-2.6.717a31.273,31.273,0,0,0-4.809,1.61,29.452,29.452,0,0,0-4.117,1.85c-1.236.653-2.368,1.21-3.342,1.77C3.7,33.5,2.885,34.045,2.216,34.5L.165,35.933,0,36.45a.449.449,0,0,0,.576.285l.049-.018,2.331-.793c.727-.255,1.615-.566,2.627-.924,1.03-.294,2.222-.553,3.488-.869a26.853,26.853,0,0,1,4.136-.753c.726-.106,1.475-.22,2.242-.333.774-.083,1.572-.1,2.369-.161l2.429-.15c.825,0,1.661.011,2.5.019A43.637,43.637,0,0,1,27.8,33c3.38.237,6.658,1.349,9.737,1.863a77.925,77.925,0,0,0,8.688.8c2.632.075,4.9.125,6.56.044,1.654-.06,2.67-.163,2.67-.163l.249-.1A.527.527,0,0,0,55.834,34.719Z" transform="translate(0 -25.306)"/></g></g></svg>