<svg xmlns="http://www.w3.org/2000/svg" width="25.877" height="23.077" viewBox="0 0 25.877 23.077"><defs><style>.a{fill:#a86a3f;}.b{fill:#3db39e;}.c{fill:#78cabb;}.d{fill:#5abeac;}.e{fill:#8cd2c5;}.f{fill:#c47e4d;}.g{fill:#efc75e;}.h{fill:#d7b354;}.i{fill:#b27245;}.j{fill:#ca8b5f;}</style></defs><g transform="translate(0 -27.277)"><path class="a" d="M2.022,83H22.238a2.028,2.028,0,0,1,2.022,2.022v2.426a2.028,2.028,0,0,1-2.022,2.022H2.022A2.028,2.028,0,0,1,0,87.448V85.022A2.028,2.028,0,0,1,2.022,83Z" transform="translate(0 -52.863)"/><path class="b" d="M55.021,62.571l12.655-3.356a.812.812,0,0,1,.991.566l2.1,7.763a.812.812,0,0,1-.566.991L53.727,72.921a.812.812,0,0,1-.991-.566l-1.536-5.7Z" transform="translate(-48.572 -30.27)"/><path class="c" d="M93.685,101.936l-2.729.728a.4.4,0,0,1-.2-.768l2.345-.627-1.253-4.69-2.345.627a.4.4,0,0,1-.2-.768l2.729-.728a.376.376,0,0,1,.485.283l1.456,5.458A.376.376,0,0,1,93.685,101.936Zm-11.321,3.053-2.729.728a.376.376,0,0,1-.485-.283l-1.456-5.458a.376.376,0,0,1,.283-.485l2.729-.728a.4.4,0,0,1,.2.768l-2.345.627,1.253,4.69,2.345-.627a.376.376,0,0,1,.485.283A.392.392,0,0,1,82.364,104.989Z" transform="translate(-73.691 -64.905)"/><path class="d" d="M2.776,35.131c3.6-2.062,13.3-7.743,13.3-7.743a.817.817,0,0,1,1.112.283l4.043,6.954a.8.8,0,0,1-.3,1.092l-14.8,8.491a.817.817,0,0,1-1.112-.283s-1.132-2.3-2.264-4.245C2.756,35.131,2.776,36.627,2.776,35.131Z" transform="translate(-2.615)"/><path class="e" d="M23.254,71.917l-2.83-4.892a.384.384,0,0,0-.546-.142L17.431,68.3a.4.4,0,0,0,.4.687l2.1-1.213,2.426,4.205-2.1,1.213a.4.4,0,0,0,.4.687l2.446-1.415A.392.392,0,0,0,23.254,71.917ZM12.539,77.638l-2.1,1.213L8.01,74.646l2.1-1.213a.4.4,0,1,0-.4-.687L7.262,74.161a.384.384,0,0,0-.142.546L9.951,79.6a.384.384,0,0,0,.546.142l2.446-1.415a.384.384,0,0,0,.142-.546A.392.392,0,0,0,12.539,77.638ZM13.57,70.5A3.242,3.242,0,1,0,18,71.694,3.239,3.239,0,0,0,13.57,70.5Zm9.684,1.415-2.83-4.892a.384.384,0,0,0-.546-.142L17.431,68.3a.4.4,0,0,0,.4.687l2.1-1.213,2.426,4.205-2.1,1.213a.4.4,0,0,0,.4.687l2.446-1.415A.392.392,0,0,0,23.254,71.917ZM12.539,77.638l-2.1,1.213L8.01,74.646l2.1-1.213a.4.4,0,1,0-.4-.687L7.262,74.161a.384.384,0,0,0-.142.546L9.951,79.6a.384.384,0,0,0,.546.142l2.446-1.415a.384.384,0,0,0,.142-.546A.392.392,0,0,0,12.539,77.638ZM13.57,70.5A3.242,3.242,0,1,0,18,71.694,3.239,3.239,0,0,0,13.57,70.5Z" transform="translate(-6.696 -37.514)"/><path class="f" d="M23.047,140.579H2.022A2.028,2.028,0,0,1,0,138.557V124H23.047a2.028,2.028,0,0,1,2.022,2.022v12.534A2.028,2.028,0,0,1,23.047,140.579ZM1.617,124H0v-1.617A1.622,1.622,0,0,0,1.617,124Z" transform="translate(0 -90.225)"/><path class="a" d="M376.281,273.769h-3.235a2.83,2.83,0,1,1,0-5.661h3.235a.811.811,0,0,1,.809.809v4.043A.811.811,0,0,1,376.281,273.769Z" transform="translate(-351.213 -228.469)"/><path class="g" d="M395.463,291.738a1.617,1.617,0,1,1-1.617,1.617A1.622,1.622,0,0,1,395.463,291.738Z" transform="translate(-373.63 -250.886)"/><path class="h" d="M395.868,299.8a1.629,1.629,0,0,1-1.334-2.547,1.575,1.575,0,0,0-.687,1.334,1.622,1.622,0,0,0,1.617,1.617,1.684,1.684,0,0,0,1.334-.687A1.63,1.63,0,0,1,395.868,299.8Z" transform="translate(-373.63 -256.116)"/><path class="i" d="M23.047,423.729H2.022A2.028,2.028,0,0,1,0,421.707v.809a2.028,2.028,0,0,0,2.022,2.022H23.047a2.028,2.028,0,0,0,2.022-2.022v-.809A2.028,2.028,0,0,1,23.047,423.729Z" transform="translate(0 -374.184)"/><path class="j" d="M23.047,124H1.617A1.622,1.622,0,0,1,0,122.384v.809a1.622,1.622,0,0,0,1.617,1.617H23.047a2.028,2.028,0,0,1,2.022,2.022v-.809A2.028,2.028,0,0,0,23.047,124Z" transform="translate(0 -90.225)"/></g></svg>