<svg xmlns="http://www.w3.org/2000/svg" xmlns:xlink="http://www.w3.org/1999/xlink" width="85" height="85" viewBox="0 0 85 85"><defs><style>.a{fill:#fff;stroke:#813882;stroke-width:2px;}.b{fill:url(#a);}.c{stroke:none;}.d{fill:none;}</style><linearGradient id="a" x1="-7.198" y1="3.597" x2="-0.822" y2="-4.965" gradientUnits="objectBoundingBox"><stop offset="0" stop-color="#cc2b5e"/><stop offset="1" stop-color="#753a88"/></linearGradient></defs><g transform="translate(-205 -526)"><g class="a" transform="translate(205 526)"><circle class="c" cx="42.5" cy="42.5" r="42.5"/><circle class="d" cx="42.5" cy="42.5" r="41.5"/></g><g transform="translate(2.171 5.311)"><g transform="translate(233.149 560.272)"><g transform="translate(32.02 12.921)"><circle class="b" cx="1.83" cy="1.83" r="1.83"/></g><g transform="translate(32.02 19.233)"><circle class="b" cx="1.83" cy="1.83" r="1.83"/></g><g transform="translate(32.02 25.546)"><circle class="b" cx="1.83" cy="1.83" r="1.83"/></g><g transform="translate(19.164 0)"><g transform="translate(0 0)"><circle class="b" cx="1.838" cy="1.838" r="1.838"/></g></g><g transform="translate(25.616 12.921)"><circle class="b" cx="1.83" cy="1.83" r="1.83"/></g><g transform="translate(25.596 0)"><g transform="translate(0 0)"><circle class="b" cx="1.838" cy="1.838" r="1.838"/></g></g><g transform="translate(19.212 12.921)"><circle class="b" cx="1.83" cy="1.83" r="1.83"/></g><g transform="translate(19.212 6.608)"><circle class="b" cx="1.83" cy="1.83" r="1.83"/></g><g transform="translate(25.616 25.546)"><circle class="b" cx="1.83" cy="1.83" r="1.83"/></g><g transform="translate(19.212 25.546)"><circle class="b" cx="1.83" cy="1.83" r="1.83"/></g><g transform="translate(12.808 25.546)"><circle class="b" cx="1.83" cy="1.83" r="1.83"/></g><g transform="translate(6.404 25.546)"><circle class="b" cx="1.83" cy="1.83" r="1.83"/></g><g transform="translate(0 25.546)"><circle class="b" cx="1.83" cy="1.83" r="1.83"/></g><g transform="translate(0 19.233)"><circle class="b" cx="1.83" cy="1.83" r="1.83"/></g></g><g transform="translate(221.829 540.727)"><path class="b" d="M13.545,211.484a1.132,1.132,0,0,1-.8-.327C12.229,210.64,0,198.411,0,191.166a13.545,13.545,0,0,1,27.09,0c0,7.245-12.229,19.473-12.749,19.991a1.131,1.131,0,0,1-.8.327Zm0-31.606A11.3,11.3,0,0,0,2.257,191.166c0,4.862,7.523,13.673,11.288,17.58,3.764-3.906,11.287-12.717,11.287-17.58A11.3,11.3,0,0,0,13.545,179.879Zm0,16.931a6.772,6.772,0,1,1,6.772-6.772A6.779,6.779,0,0,1,13.545,196.81Zm0-11.287a4.515,4.515,0,1,0,4.515,4.515A4.52,4.52,0,0,0,13.545,185.523Zm0,0" transform="translate(0 -177.37)"/><path class="b" d="M6.663,194.279a.557.557,0,0,1-.392-.161C6.016,193.864,0,187.848,0,184.284a6.663,6.663,0,0,1,13.326,0c0,3.564-6.016,9.579-6.272,9.834a.556.556,0,0,1-.391.161Zm0-15.547a5.559,5.559,0,0,0-5.553,5.553c0,2.392,3.7,6.726,5.553,8.648,1.852-1.922,5.552-6.256,5.552-8.648A5.559,5.559,0,0,0,6.663,178.732Zm0,8.329a3.331,3.331,0,1,1,3.331-3.331A3.335,3.335,0,0,1,6.663,187.061Zm0-5.553a2.221,2.221,0,1,0,2.221,2.221A2.223,2.223,0,0,0,6.663,181.508Zm0,0" transform="translate(32.157 -177.622)"/></g></g></g></svg>