<svg xmlns="http://www.w3.org/2000/svg" width="191" height="33" viewBox="0 0 191 33"><defs><style>.a{fill:#323333;}</style></defs><g transform="translate(0 -10)"><path class="a" d="M18.471,29.247a6.685,6.685,0,0,1-2.3,5.4,8.05,8.05,0,0,1-2.661,1.526,9.982,9.982,0,0,1-2.44.553q-1,.067-3.1.067H0V11.973H7.727q1.966,0,3.033.084a9.082,9.082,0,0,1,2.525.654,6.547,6.547,0,0,1,2.474,1.677,5.786,5.786,0,0,1,1.491,4.092,5.714,5.714,0,0,1-.763,2.9,5.516,5.516,0,0,1-2.152,2.1A5.594,5.594,0,0,1,18.471,29.247ZM11.117,19.42q0-1.878-2.508-1.878H6.135V21.4h2.44Q11.117,21.4,11.117,19.42Zm1.22,9.425q0-2.147-2.983-2.147H6.135v4.528H9.32Q12.337,31.226,12.337,28.845Zm25.826-8.453a9.433,9.433,0,0,1,2.915,7.078,9.461,9.461,0,0,1-2.9,7.077,9.966,9.966,0,0,1-7.236,2.818,9.966,9.966,0,0,1-7.236-2.818,9.46,9.46,0,0,1-2.9-7.077,9.46,9.46,0,0,1,2.9-7.078,9.967,9.967,0,0,1,7.236-2.818A9.909,9.909,0,0,1,38.163,20.392Zm-4,10.4a4.76,4.76,0,0,0,1.288-3.321,4.7,4.7,0,0,0-1.288-3.3,4.42,4.42,0,0,0-6.44,0,4.882,4.882,0,0,0,0,6.608,4.438,4.438,0,0,0,6.44.017Zm26.572-10.4A9.433,9.433,0,0,1,63.65,27.47a9.46,9.46,0,0,1-2.9,7.077,9.966,9.966,0,0,1-7.236,2.818,9.966,9.966,0,0,1-7.236-2.818,9.46,9.46,0,0,1-2.9-7.077,9.46,9.46,0,0,1,2.9-7.078,9.966,9.966,0,0,1,7.236-2.818A9.909,9.909,0,0,1,60.735,20.392Zm-4,10.4a4.76,4.76,0,0,0,1.288-3.321,4.7,4.7,0,0,0-1.288-3.3,4.42,4.42,0,0,0-6.44,0,4.882,4.882,0,0,0,0,6.608,4.438,4.438,0,0,0,6.44.017ZM84.63,18.178l-7.084,8.184,6.88,10.432H78.054l-5.321-8.956h-.068v8.956H67.039V11.973h5.626V24.92h.068l5.219-6.742ZM144.6,36.795h-6.948l-1.22-3.589h-8.71L126.4,36.795h-6.88l10.066-24.822h5.05Zm-9.862-8.62-2.576-8.486h-.1l-2.576,8.486Zm32.638-.5a9.96,9.96,0,0,1-2.576,6.893,8.444,8.444,0,0,1-6.575,2.868,7.332,7.332,0,0,1-5.66-2.314V43H146.94V18.178h5.287v2.046h.1a7.142,7.142,0,0,1,5.863-2.683,8.31,8.31,0,0,1,6.694,2.952A10.755,10.755,0,0,1,167.377,27.671Zm-5.626-.168a4.668,4.668,0,0,0-1.339-3.388,4.823,4.823,0,0,0-6.745,0,4.671,4.671,0,0,0-1.338,3.388,4.6,4.6,0,0,0,1.355,3.354,4.781,4.781,0,0,0,6.711,0A4.6,4.6,0,0,0,161.751,27.5ZM191,27.671a9.96,9.96,0,0,1-2.576,6.893,8.444,8.444,0,0,1-6.575,2.868,7.332,7.332,0,0,1-5.66-2.314V43h-5.626V18.178h5.287v2.046h.1a7.142,7.142,0,0,1,5.863-2.683,8.31,8.31,0,0,1,6.694,2.952A10.755,10.755,0,0,1,191,27.671Zm-5.626-.168a4.668,4.668,0,0,0-1.339-3.388,4.823,4.823,0,0,0-6.745,0,4.671,4.671,0,0,0-1.338,3.388,4.6,4.6,0,0,0,1.355,3.354,4.781,4.781,0,0,0,6.711,0A4.6,4.6,0,0,0,185.374,27.5ZM86.625,25.785a15.95,15.95,0,0,1,31.9,0,15.95,15.95,0,0,1-31.9,0Zm15.95-10.852A10.853,10.853,0,1,0,113.54,25.785,10.956,10.956,0,0,0,102.575,14.933Zm1.063,3.486v7.4l6.38,3.843-1.135,1.85-7.372-4.555V18.419Z"/></g></svg>