<svg xmlns="http://www.w3.org/2000/svg" width="48.525" height="42.515" viewBox="0 0 48.525 42.515">
  <g id="Layer_8" transform="translate(-10.282 -9.875)">
    <g id="Group_92" data-name="Group 92">
      <path id="Path_552" data-name="Path 552" d="M26.6,31.8c-1.4-1-2.2-1.3-1-4.3a11.8,11.8,0,0,1-2-.4,5.575,5.575,0,0,1-1.9-.9c-.7-.5-1.2-1.1-1.9-1.7a2.808,2.808,0,0,1-3-1c-1.7-1.8-3.6-3.6-5.4-5.4-1.1-1.1-1.1-1.7,0-2.8l4-4c1-1,1.6-.9,2.6,0,1.9,1.9,3.8,3.9,5.8,5.8a2.56,2.56,0,0,1,.8,2.3,1.613,1.613,0,0,0,.3.9,21.888,21.888,0,0,1,2,2.5,24.011,24.011,0,0,1,1.2,3.8,15.771,15.771,0,0,0,1.3,2.6c.2-3.6,2.6-6.3,3.6-9.5a26.984,26.984,0,0,0,.6-4.1V15q-.15-2.25,1.2-2.7a2.989,2.989,0,0,1,3.4,1,6.4,6.4,0,0,1,1,2.6,30.7,30.7,0,0,1,0,4.3,8.538,8.538,0,0,1,1.1-1.4c2.1-2.3,4.2-4.7,6.4-7a5.263,5.263,0,0,1,1.4-1.2,2.1,2.1,0,0,1,2.7.2,2.294,2.294,0,0,1,.6,2.7c-.2.5-.6,1-1,1.8a17.906,17.906,0,0,1,1.8-1.4,4.559,4.559,0,0,1,2.2-.6,2.132,2.132,0,0,1,1.5,3.2,10.986,10.986,0,0,1-.9,1.4c1.8-.3,2.6-.1,3.2.9.5,1,.2,2.1-1.1,3.3-.6.5-1.2,1-2,1.7a3.869,3.869,0,0,1,.9-.1,2.216,2.216,0,0,1,2.3,1.2,1.755,1.755,0,0,1-.6,2.3A12.352,12.352,0,0,1,55,28.9a64.662,64.662,0,0,0-10.6,6.6,15.43,15.43,0,0,1-6,3,6.9,6.9,0,0,0-3.3,2.2c-3.7,3.6-7.5,7.2-11.3,10.8a2.118,2.118,0,0,1-2.7.3c-3.3-1.7-6-3.9-7.2-7.6L13.6,43a3.638,3.638,0,0,1,2-4.5C19.5,36.5,23,34.1,26.6,31.8Zm20.1-6.9a1.115,1.115,0,0,1,.6-1.6c2.2-2,4.4-3.9,6.6-5.9A4.863,4.863,0,0,0,55,16a1.262,1.262,0,0,0-.1-1.2,1.517,1.517,0,0,0-1.3-.3,3.528,3.528,0,0,0-1.3.8c-2.3,1.9-4.6,3.9-6.9,5.9-.2.2-.6.2-.9.3a3.4,3.4,0,0,1,.1-1A2.181,2.181,0,0,1,45,20c1.5-1.7,3-3.4,4.4-5.2a5.244,5.244,0,0,0,1-1.8,1.247,1.247,0,0,0-.3-1.2,1.907,1.907,0,0,0-1.3-.2,4.125,4.125,0,0,0-1.3,1c-1.4,1.5-2.7,3-4,4.4-1.5,1.6-3,3.1-4.5,4.7-.2.2-.7.2-1,.3-.1-.4-.4-.7-.3-1.1.1-.7.3-1.4.4-2.2a7.036,7.036,0,0,0-.4-4.3,2.148,2.148,0,0,0-2.3-1.2c-1,.3-.8,1.2-.7,1.8a14.471,14.471,0,0,1-1.9,7.9,18.677,18.677,0,0,0-2,5.1,5.784,5.784,0,0,1-2.9,4.3c-3.9,2.5-7.8,5-11.7,7.4a2.371,2.371,0,0,0-1.3,2.9c0,.2.1.3.1.5.8,3.6,3.2,5.8,6.2,7.5a1.891,1.891,0,0,0,2.6-.3c3.6-3.5,7.3-7,10.9-10.5a10.654,10.654,0,0,1,3.5-2.3A32.16,32.16,0,0,0,43.5,35,72.3,72.3,0,0,1,53,29a25,25,0,0,0,3.9-2.3,1.536,1.536,0,0,0,.5-1.3c-.2-.7-.8-.7-1.4-.5a8.428,8.428,0,0,0-1.4.6c-1.7.9-3.4,1.7-5.2,2.6a3.334,3.334,0,0,1-1,0,4.053,4.053,0,0,1,.5-.9c.1-.1.2-.2.3-.2,2-1.5,4-2.9,5.9-4.4a17.969,17.969,0,0,0,2-1.9c.2-.3.3-1.1.1-1.3-.2-.3-.9-.3-1.3-.2a3.745,3.745,0,0,0-1.2.7c-2.2,1.6-4.4,3.2-6.7,4.7A3.079,3.079,0,0,0,46.7,24.9ZM11.5,16.6a7.531,7.531,0,0,0,.9.9c1.6,1.7,3.3,3.3,4.9,5a2.388,2.388,0,0,0,2.5.9,1.656,1.656,0,0,1,1.3.5c.6.5,1,1.3,1.7,1.7a14.161,14.161,0,0,0,3.1,1.1,1.063,1.063,0,0,0,.8-.1c.1-.1,0-.5-.1-.7-.2-.5-.8-1.1-.7-1.6a3.16,3.16,0,0,0-1.8-3c-.9-.5-.9-.9-.8-1.7a1.883,1.883,0,0,0-.3-1.5c-1.9-2.1-3.9-4-6-6a.75.75,0,0,0-.9,0A63.837,63.837,0,0,0,11.5,16.6Zm15.7,11h-.3a6.7,6.7,0,0,0-.7,1.8c-.1.3.2.8.4,1a1.4,1.4,0,0,0,1.1,0,1.777,1.777,0,0,0,.4-1A7.562,7.562,0,0,0,27.2,27.6Z" fill="#56b0c2" stroke="#52c7eb" stroke-miterlimit="10" stroke-width="0.586"/>
      <path id="Path_553" data-name="Path 553" d="M18.2,42.4c-.4-.5-.8-.9-.7-.9a3.126,3.126,0,0,1,1.1-.9c.1,0,.7.5.6.6A6.94,6.94,0,0,0,18.2,42.4Z" fill="#56b0c2" stroke="#52c7eb" stroke-miterlimit="10" stroke-width="0.586"/>
      <path id="Path_554" data-name="Path 554" d="M27.2,36.9c-.4-.5-.8-.9-.7-.9a5.241,5.241,0,0,1,1.1-1c.1,0,.7.5.6.6A11.319,11.319,0,0,1,27.2,36.9Z" fill="#56b0c2" stroke="#52c7eb" stroke-miterlimit="10" stroke-width="0.586"/>
      <path id="Path_555" data-name="Path 555" d="M25.5,37.4a6.289,6.289,0,0,1-1.4.9c-.2.1-.5-.4-.8-.6a4.3,4.3,0,0,1,1-.9A3.287,3.287,0,0,1,25.5,37.4Z" fill="#56b0c2" stroke="#52c7eb" stroke-miterlimit="10" stroke-width="0.586"/>
      <path id="Path_556" data-name="Path 556" d="M22.3,39.5a7.459,7.459,0,0,1-1.2.7c-.1,0-.4-.4-.7-.6a4.3,4.3,0,0,1,1-.9c.2-.1.5.3.8.4A.6.6,0,0,1,22.3,39.5Z" fill="#56b0c2" stroke="#52c7eb" stroke-miterlimit="10" stroke-width="0.586"/>
    </g>
  </g>
</svg>
