<svg xmlns="http://www.w3.org/2000/svg" width="30.688" height="40.968" viewBox="0 0 30.688 40.968">
  <g id="Layer_8" transform="translate(-5.846 -10.535)">
    <g id="Group_61" data-name="Group 61">
      <path id="Path_522" data-name="Path 522" d="M9.5,33.8v-1c.3-2.2-.6-4.1-1.7-5.9a14.164,14.164,0,0,1-1.4-11c1.3-4.5,6-6.5,10.6-4.6.2.1.5.2.7.3a6.935,6.935,0,0,0,6.7.1,8.9,8.9,0,0,1,6.4-.8c3.5,1,5.5,3.8,5.7,7.9A15.5,15.5,0,0,1,34,28.2a6.707,6.707,0,0,0-1,3.9A43.232,43.232,0,0,1,31.7,45,11.4,11.4,0,0,1,29,50.5a2.651,2.651,0,0,1-.6.5,1.856,1.856,0,0,1-3.1-1.1c-.3-1.5-.4-3-.7-4.6a35.259,35.259,0,0,0-2.1-8.5,10.1,10.1,0,0,0-1.3-1.6,10.1,10.1,0,0,0-1.3,1.6A40.879,40.879,0,0,0,17.5,47a25.351,25.351,0,0,1-.4,2.9c-.4,1.6-1.9,2-3.2,1a8.421,8.421,0,0,1-2.7-4.4A45.73,45.73,0,0,1,9.5,33.8ZM27.2,49.3c.1.1.3.1.4.2.5-.8,1.2-1.5,1.6-2.3,1.5-3.2,1.8-6.6,2.1-10.1.1-2,.1-4,.1-6,0-1.8.9-3.2,1.7-4.7a12.928,12.928,0,0,0,1.5-9.2,5.561,5.561,0,0,0-5.3-4.8,8.679,8.679,0,0,0-4.2,1,8.472,8.472,0,0,1-7.6,0,18.028,18.028,0,0,0-2.1-.8A5.618,5.618,0,0,0,8.3,16a9.185,9.185,0,0,0-.5,2.8A13.985,13.985,0,0,0,10,27.2a7.416,7.416,0,0,1,1.2,4.6,44.01,44.01,0,0,0,1,11.5A31.231,31.231,0,0,0,14,48.1c.2.5.8.9,1.2,1.4.1,0,.2-.1.3-.1,0-.3.1-.6.1-.8.5-3.1,1-6.2,1.6-9.3a11.819,11.819,0,0,1,2.2-5,2.243,2.243,0,0,1,3.7,0,13.5,13.5,0,0,1,1.5,2.6,37.358,37.358,0,0,1,2.2,9.9A21.657,21.657,0,0,1,27.2,49.3Z" fill="#56b0c2" stroke="#52c7eb" stroke-miterlimit="10" stroke-width="0.05"/>
      <path id="Path_523" data-name="Path 523" d="M10.6,19.5a13.655,13.655,0,0,1,.7-2.9,3.491,3.491,0,0,1,1.2-1.5,1.258,1.258,0,0,1,1.3.2c.4.3.3.9-.1,1.3a3.092,3.092,0,0,0-1,2.7,8.723,8.723,0,0,0,1.3,5c.4.6.6,1.2-.1,1.7-.5.4-1.1,0-1.6-.7A15.446,15.446,0,0,1,10.6,19.5Z" fill="#56b0c2" stroke="#52c7eb" stroke-miterlimit="10" stroke-width="0.05"/>
    </g>
  </g>
</svg>
