<svg xmlns="http://www.w3.org/2000/svg" width="43.159" height="44.584" viewBox="0 0 43.159 44.584">
  <g id="Layer_8" transform="translate(-8.588 -7.961)">
    <g id="Group_96" data-name="Group 96">
      <path id="Path_558" data-name="Path 558" d="M29.8,52.4a11.963,11.963,0,0,1-6.3-2A24.119,24.119,0,0,1,12.4,37.2a21.045,21.045,0,0,1-.6-2.4c-.6-1.9-1-3.9-1.8-5.8A18.829,18.829,0,0,1,9,19c.5-3.2.8-6.4,1.2-9.5a1.7,1.7,0,0,1,.1-.7c.3-.3.7-.7,1-.7s.6.5.9.9c.1.2,0,.5,0,.8-.5,3.7-.9,7.4-1.4,11.1a12.385,12.385,0,0,0,.8,6.3,37.885,37.885,0,0,1,2.1,6.5,22.331,22.331,0,0,0,3.6,8.7,21.327,21.327,0,0,0,10.1,7.7,9.07,9.07,0,0,0,7.5-.9A21.713,21.713,0,0,0,45.5,37.5c.3-.9.5-1.8.8-2.8a43.373,43.373,0,0,1,2-6.4,16.043,16.043,0,0,0,.8-9.9c-.5-2.9-.7-5.9-1-8.8-.1-.7.2-1.1,1-1.2a.892.892,0,0,1,1.1,1c.4,3.7.8,7.4,1.3,11.1a15.468,15.468,0,0,1-.9,7.4,55.258,55.258,0,0,0-2.4,7.9,22.259,22.259,0,0,1-10,13.8C35.7,51.2,33.2,52.5,29.8,52.4Z" fill="#56b0c2" stroke="#52c7eb" stroke-miterlimit="10" stroke-width="0.277"/>
      <path id="Path_559" data-name="Path 559" d="M20.2,16.6c1.2.2,3.3.6,5.3.9a.713.713,0,0,1,.6.3,1.738,1.738,0,0,1,.6,1.1c0,.2-.6.6-.9.7a7.15,7.15,0,0,1-2.5-.3,11.793,11.793,0,0,0-7.2-.2c-.3.1-.7-.1-1.1-.1.2-.4.2-.8.5-1.1C16.5,16.9,17.7,16.5,20.2,16.6Z" fill="#56b0c2" stroke="#52c7eb" stroke-miterlimit="10" stroke-width="0.277"/>
      <path id="Path_560" data-name="Path 560" d="M40.8,16.4a6.282,6.282,0,0,1,4,1.4,2.471,2.471,0,0,1,.4.9c-.3.1-.7.3-.9.2a11.721,11.721,0,0,0-7.4.2,6.878,6.878,0,0,1-2.5.3c-.3,0-.9-.4-.9-.7a1.174,1.174,0,0,1,.6-1,10.957,10.957,0,0,1,2.6-.6C38.1,16.9,39.5,16.7,40.8,16.4Z" fill="#56b0c2" stroke="#52c7eb" stroke-miterlimit="10" stroke-width="0.277"/>
      <path id="Path_561" data-name="Path 561" d="M35,40.9c-.4-.2-.6-.2-.8-.4a9.124,9.124,0,0,0-8.5-.1c-.1,0-.2.1-.3.2-.5.2-1,.3-1.3-.3s0-1,.6-1.1a31.914,31.914,0,0,1,4.4-1.3,8.764,8.764,0,0,1,6.1,1.3,1.389,1.389,0,0,1,.5,1C35.6,40.5,35.2,40.7,35,40.9Z" fill="#56b0c2" stroke="#52c7eb" stroke-miterlimit="10" stroke-width="0.277"/>
      <path id="Path_562" data-name="Path 562" d="M15.7,21.3c.2.1.5.1.7.2a10.172,10.172,0,0,0,4.6.8,32.329,32.329,0,0,1,4.4.1c.2,0,.5.3.7.5a4.348,4.348,0,0,1-.7.4,7.6,7.6,0,0,0-1.1.4,7.733,7.733,0,0,1-8.1-1.3,2.7,2.7,0,0,1-.7-.8C15.6,21.5,15.7,21.4,15.7,21.3Z" fill="#56b0c2" stroke="#52c7eb" stroke-miterlimit="10" stroke-width="0.277"/>
      <path id="Path_563" data-name="Path 563" d="M45,21.4a6.136,6.136,0,0,1-2.5,2.1c-2.3.9-4.5,1.2-6.8,0l-.9-.3a2.092,2.092,0,0,1-.6-.4c.2-.1.4-.4.6-.4a19.329,19.329,0,0,1,3.4-.1,11.11,11.11,0,0,0,6.2-.9Z" fill="#56b0c2" stroke="#52c7eb" stroke-miterlimit="10" stroke-width="0.277"/>
      <path id="Path_564" data-name="Path 564" d="M30,34.2a3.31,3.31,0,0,1-3-1.6c-.3-.4-.4-.8,0-1.1.4-.4.8-.1,1.1.2a3.359,3.359,0,0,0,1.5.9,1.819,1.819,0,0,0,1.9-.8c.4-.4.8-.7,1.3-.2s.2.9-.1,1.4A3.287,3.287,0,0,1,30,34.2Z" fill="#56b0c2" stroke="#52c7eb" stroke-miterlimit="10" stroke-width="0.277"/>
      <path id="Path_565" data-name="Path 565" d="M18.5,31.5a1.451,1.451,0,1,1,.1-2.9,1.316,1.316,0,0,1,1.3,1.5A1.43,1.43,0,0,1,18.5,31.5Z" fill="#56b0c2" stroke="#52c7eb" stroke-miterlimit="10" stroke-width="0.277"/>
      <path id="Path_566" data-name="Path 566" d="M36.8,26.5a1.52,1.52,0,0,1,1.5,1.4A1.288,1.288,0,0,1,37,29.3a1.4,1.4,0,1,1-.2-2.8Z" fill="#56b0c2" stroke="#52c7eb" stroke-miterlimit="10" stroke-width="0.277"/>
      <path id="Path_567" data-name="Path 567" d="M21.7,37.7c0,.8-.7,1.5-1.2,1.3a5.854,5.854,0,0,1-1.7-1,1.079,1.079,0,0,1,.2-.9,2.271,2.271,0,0,1,2.5,0C21.6,37.4,21.6,37.6,21.7,37.7Z" fill="#56b0c2" stroke="#52c7eb" stroke-miterlimit="10" stroke-width="0.277"/>
      <path id="Path_568" data-name="Path 568" d="M34.2,10.5c.5,0,1.3,0,1.3.8a1.889,1.889,0,0,1-.7,1.3c-.5.5-2.2-.3-2.3-1.1C32.5,11,33.1,10.5,34.2,10.5Z" fill="#56b0c2" stroke="#52c7eb" stroke-miterlimit="10" stroke-width="0.277"/>
      <path id="Path_569" data-name="Path 569" d="M30.6,14.8c-.4.3-.7.7-.9.6-.2,0-.5-.4-.7-.6.2-.2.4-.6.7-.7C29.9,14.1,30.2,14.5,30.6,14.8Z" fill="#56b0c2" stroke="#52c7eb" stroke-miterlimit="10" stroke-width="0.277"/>
      <path id="Path_570" data-name="Path 570" d="M23.7,33.5c-.5.3-.8.6-1,.5-.2,0-.4-.4-.7-.6.2-.2.5-.6.7-.6C23,32.8,23.2,33.1,23.7,33.5Z" fill="#56b0c2" stroke="#52c7eb" stroke-miterlimit="10" stroke-width="0.277"/>
      <path id="Path_571" data-name="Path 571" d="M41.1,32.3c-.3-.4-.7-.7-.7-.9.1-.3.4-.5.6-.7.2.2.6.4.6.7C41.7,31.5,41.4,31.8,41.1,32.3Z" fill="#56b0c2" stroke="#52c7eb" stroke-miterlimit="10" stroke-width="0.277"/>
    </g>
  </g>
</svg>
