<svg xmlns="http://www.w3.org/2000/svg" width="44.871" height="37.136" viewBox="0 0 44.871 37.136">
  <g id="Layer_8" transform="translate(-10.037 -11.652)">
    <g id="Group_88" data-name="Group 88">
      <path id="Path_549" data-name="Path 549" d="M19.8,29.3c.5,4,1,7.8,1.4,11.6.1,1.3.2,2.5.3,3.8.1,1.1-.1,2-1.4,2.1-1.1,0-1.4-.9-1.5-1.9-.3-3-.5-6-.9-9-.5-3.3-1-6.5-1.7-9.7a8.532,8.532,0,0,0-1.3-2.5,27.5,27.5,0,0,1-4.4-9.5c-.3-1.1-.3-2.1,1-2.4,1.2-.3,1.6.7,1.9,1.7,1.9,7.4,6.6,12.7,13,16.6A11.477,11.477,0,0,0,39,30c6.3-3.9,10.9-9.1,12.8-16.4.1-.3.1-.6.3-.7a9.908,9.908,0,0,1,1.7-1.1c.4.6,1.1,1.4,1,1.8-1,2.9-1.8,6-3.5,8.5A22.526,22.526,0,0,0,48,31.6c-.6,4.4-1,8.8-1.5,13.1v.5c-.1.9-.5,1.7-1.6,1.7-1.1-.1-1.4-.9-1.3-1.8.2-2.9.5-5.7.8-8.6.3-2.3.6-4.5,1-7.1-4.1,2.9-7.9,5.7-12.9,5.7C27.5,35,23.7,32.2,19.8,29.3Z" fill="#56b0c2" stroke="#52c7eb" stroke-miterlimit="10" stroke-width="0.204"/>
      <path id="Path_550" data-name="Path 550" d="M29.2,37.4c2.1-.1,4.2-.3,6.3-.4a4.29,4.29,0,0,1,4.1,6,9.061,9.061,0,0,1-5.2,5.3,5.114,5.114,0,0,1-4.5-.3,9.106,9.106,0,0,1-4.8-5.7A3.846,3.846,0,0,1,29.2,37.4Zm3.3,8.4c1.7,0,4.4-2.5,4.5-4.2A1.357,1.357,0,0,0,35.5,40h-6a1.421,1.421,0,0,0-1.6,1.7C28.1,43.3,30.8,45.8,32.5,45.8Z" fill="#56b0c2" stroke="#52c7eb" stroke-miterlimit="10" stroke-width="0.204"/>
    </g>
  </g>
</svg>
