<svg xmlns="http://www.w3.org/2000/svg" width="47.829" height="51.264" viewBox="0 0 47.829 51.264">
  <g id="Layer_8" transform="translate(-8.525 -6.7)">
    <g id="Group_43" data-name="Group 43">
      <path id="Path_506" data-name="Path 506" d="M26.2,47.8v6.1c0,3.4-2.7,5-5.8,3.5a1.535,1.535,0,0,0-1.6,0,5.125,5.125,0,0,1-4.2,0A2.893,2.893,0,0,1,13,54.5V42.7c0-.2-.4-.6-.6-.5a3.281,3.281,0,0,1-3.8-3.3c-.1-4.6-.1-9.2,0-13.9.1-3.7,2.6-5.9,6.3-6,3.2-.1,6.4,0,9.5,0a5.986,5.986,0,0,1,3.5,1c.5.4.8.8.5,1.5-.4.6-.9.5-1.5.3a11.557,11.557,0,0,0-3.1-.7c-2.8-.1-5.6,0-8.4,0-3.3,0-4.8,1.6-4.8,4.9V39c.1.7.5,1.3,1.2,1.3A1.155,1.155,0,0,0,13,39.1a16.152,16.152,0,0,0,0-2.2V28c.1-.6.4-1.1,1-1a1.949,1.949,0,0,1,1,1,2.879,2.879,0,0,1,.1,1.3V54.4c0,.6-.2,1.3.6,1.4a10.978,10.978,0,0,0,2.6-.2c.2,0,.3-.7.3-1V41.9c0-.3-.1-.7,0-.9.2-.4.7-.9,1-.9s.7.5,1,.9c.1.2,0,.6,0,.9V54.3c0,1.5.1,1.6,1.7,1.6h.4c1.3,0,1.4-.1,1.4-1.4V37.9A5.439,5.439,0,0,1,25.2,34a4.135,4.135,0,0,1,3.1-1.6h6.4c3.1,0,4.9,1.8,5,4.9v6.1H51.5a6.374,6.374,0,0,0-.2-.9c-1.4-4.2-2.8-8.5-4.2-12.7-.3-.8-.4-1.4.5-1.7s1.2.3,1.4,1c1,2.9,1.9,5.8,2.9,8.7a1.7,1.7,0,0,0,.6,1,1.232,1.232,0,0,0,1,.2c.3-.1.5-.5.6-.9a1.412,1.412,0,0,0-.1-.9c-1.4-4.4-2.9-8.8-4.3-13.2-.7-2.2-1.8-3-4.1-3h-5a4.024,4.024,0,0,0-3.1,1,.9.9,0,0,1-1.4,0,.933.933,0,0,1,.1-1.5c.8-.5,1.8-1.3,2.7-1.3a72.973,72.973,0,0,1,8.1-.1,4.9,4.9,0,0,1,4.6,3.8c1.5,4.4,2.9,8.9,4.4,13.3.9,2.7.1,4.1-2.6,5,.1.3.1.7.2,1.1.6,1.9-.3,3.2-2.3,3.3H49.5c-.6,0-.8.2-.8.8v7.5a3.631,3.631,0,0,1-2.1,3.7,2.783,2.783,0,0,1-2.8-.2.913.913,0,0,0-1.2,0,3.211,3.211,0,0,1-4.9-2.8c-.1-2,0-4,0-6,0-.4.2-.9-.5-.9-.6,0-.8.3-.8.9v6.3a2.68,2.68,0,0,1-2.9,2.9h-3a2.729,2.729,0,0,1-2.9-2.9V48.7C27.6,47.8,27.4,47.6,26.2,47.8Zm3.5,3v3.7c0,.8.3,1.2,1.1,1.2h2.3c.8,0,1.1-.3,1.1-1.1v-7c0-1.6.2-1.8,1.8-1.9,1.1,0,1.5-.4,1.5-1.5V37.1c0-1.7-.9-2.5-2.6-2.5H29c-1.9,0-2.7.8-2.7,2.7v6.4c0,1.8.1,1.9,2,2a1.224,1.224,0,0,1,1.4,1.4Zm10.1-.5v3.9c0,.7.2,1.3,1.1,1.3s1.2-.6,1.2-1.3V46.3c0-1-.6-.8-1.2-.8-.5,0-1.1-.1-1.1.8Zm6.6.2V46.4c0-.7-.4-.8-.9-.7s-1.3-.3-1.3.7v8.1c0,.7.3,1.3,1.2,1.2.8,0,1-.5,1-1.2Z" fill="#56b0c2"/>
      <path id="Path_507" data-name="Path 507" d="M37.6,12.1a5.4,5.4,0,0,1,5.5-5.4,5.463,5.463,0,0,1,5.4,5.5A5.616,5.616,0,0,1,43,17.7,5.552,5.552,0,0,1,37.6,12.1Zm8.8.1A3.23,3.23,0,0,0,43,8.9a3.329,3.329,0,0,0-3.3,3.3,3.35,3.35,0,0,0,6.7,0Z" fill="#56b0c2"/>
      <path id="Path_508" data-name="Path 508" d="M19.7,6.7a5.45,5.45,0,1,1,0,10.9,5.529,5.529,0,0,1-5.4-5.5A5.314,5.314,0,0,1,19.7,6.7Zm0,8.8A3.289,3.289,0,0,0,23,12.1a3.35,3.35,0,1,0-6.7.1A3.35,3.35,0,0,0,19.7,15.5Z" fill="#56b0c2"/>
      <path id="Path_509" data-name="Path 509" d="M36.3,26.7a4.439,4.439,0,0,1-4.4,4.4,4.35,4.35,0,1,1,.1-8.7A4.267,4.267,0,0,1,36.3,26.7ZM32,28.9a2.2,2.2,0,1,0-.1-4.4,2.308,2.308,0,0,0-2.2,2.3A2.227,2.227,0,0,0,32,28.9Z" fill="#56b0c2"/>
    </g>
  </g>
</svg>
