<svg xmlns="http://www.w3.org/2000/svg" width="50.25" height="44.202" viewBox="0 0 50.25 44.202">
  <g id="Layer_8" transform="translate(0.571 -6.173)">
    <g id="Group_100" data-name="Group 100">
      <path id="Path_573" data-name="Path 573" d="M29.4,6.4c.7,0,1.2-.1,1.9-.1.1,1.3.2,2.6.2,3.9.1,2,.9,2.9,2.9,3.1a22.314,22.314,0,0,1,4.5.8,20.218,20.218,0,0,1,5.3,2.1c3,1.8,4.5,4.8,5.1,8.2,1,6.4-1,12.1-4.6,17.3A18.859,18.859,0,0,1,35.1,49a26.6,26.6,0,0,1-14.8.4,14.212,14.212,0,0,1-7-3.3A10.615,10.615,0,0,1,11.7,44c-.6-1.1-.9-1.2-2-.5-1.2.8-2.4,1.6-3.7,2.4-.4-.5-.7-1-1.1-1.5.5-.4.9-.7,1.3-1,1.3-.8,2.6-1.6,4-2.3a1.933,1.933,0,0,1,2.6,1c1.8,3.6,5,4.8,8.6,5.5a24.137,24.137,0,0,0,14.3-.9,18.215,18.215,0,0,0,8.9-8.2,21.713,21.713,0,0,0,3.1-11.4c-.1-3.6-1.3-6.8-4.4-9a14.4,14.4,0,0,0-5.7-2A32.136,32.136,0,0,1,32.4,15a3.6,3.6,0,0,1-2.8-3.7C29.6,9.6,29.5,8.1,29.4,6.4Z" fill="#56b0c2" stroke="#52c7eb" stroke-miterlimit="10" stroke-width="0.253"/>
      <path id="Path_574" data-name="Path 574" d="M27,44.8c-3.2-.1-6.2-.4-9-2.1a7.618,7.618,0,0,1-2.9-3c-.9-1.6-.1-2.9,1.7-2.8,1,0,2.1.2,3.1.3a11,11,0,0,0,7.9-2,17.753,17.753,0,0,1,11.6-3.1,2.991,2.991,0,0,1,2.4,4.5,14.332,14.332,0,0,1-8.6,7.2A63.753,63.753,0,0,1,26.9,45C27,45,27,44.9,27,44.8Zm-9.8-5.9a5.478,5.478,0,0,0,3.4,2.8,19.342,19.342,0,0,0,13-.1,13.143,13.143,0,0,0,6.6-5.7c.6-1,.2-1.8-.9-1.9-3.4-.1-6.6.4-9.4,2.4a13.966,13.966,0,0,1-8.6,2.7C20,39.1,18.7,39,17.2,38.9Z" fill="#56b0c2" stroke="#52c7eb" stroke-miterlimit="10" stroke-width="0.253"/>
      <path id="Path_575" data-name="Path 575" d="M22.7,6.5h2c.1,1.5.1,3,.2,4.5a23.157,23.157,0,0,0,.6,4.5,4.141,4.141,0,0,0,1.2,1.9c3.6,2.8,5.1,9.7,1.3,13.9a9.3,9.3,0,0,1-7.8,3.2,35.329,35.329,0,0,0-4.6-.1,4.306,4.306,0,0,0-2.2.9A6.061,6.061,0,0,1,10,36.7a10.008,10.008,0,0,0-7.9,4.9c-.3.4-.5.8-.9,1.3-.6-.4-1-.7-1.6-1.1a17.223,17.223,0,0,1,4-4.9,12.824,12.824,0,0,1,6.8-2.5,2.106,2.106,0,0,0,1.3-.5,7.125,7.125,0,0,1,5.6-1.7c1.1,0,2.2.1,3.3.2,5.3.5,9.4-4.7,7.1-10.4a7.654,7.654,0,0,0-2.2-3.1c-1.6-1.2-2-3-2.2-4.7C22.9,11.6,22.9,9.1,22.7,6.5Z" fill="#56b0c2" stroke="#52c7eb" stroke-miterlimit="10" stroke-width="0.253"/>
    </g>
  </g>
</svg>
