<svg xmlns="http://www.w3.org/2000/svg" width="37.864" height="41.271" viewBox="0 0 37.864 41.271">
  <g id="Layer_8" transform="translate(-11.194 -11.304)">
    <g id="Group_57" data-name="Group 57">
      <path id="Path_520" data-name="Path 520" d="M34.8,39.7q-6.3-2.25-5.7-8.7a7.727,7.727,0,0,0-1.3-4.9c-1.1-1.7-2.1-3.5-3.1-5.4-1.9-3.8-.8-6.8,3.2-8.3a10.5,10.5,0,0,1,3.5-.8c.5,0,1.5,1,1.4,1.5,0,.6-.9,1.2-1.5,1.6a3.243,3.243,0,0,1-1.7,0c-2.7-.2-4,1.5-3.1,4a38.116,38.116,0,0,0,2.3,4.5c1.4,2.5,2.8,5,4.3,7.4,1.9,3.1,4.4,3.2,6.3,0,2.2-3.6,4.3-7.2,6.3-10.9,1.7-3.2.4-5.2-3.2-5-.5,0-1.2.2-1.5-.1-.6-.4-1.3-1-1.3-1.6A2.172,2.172,0,0,1,41,11.5c2.6-.4,4.8.8,6.6,2.6,1.6,1.6,1.6,3.8.6,5.8-1.1,2.2-2.5,4.2-3.5,6.5a12.053,12.053,0,0,0-1.2,4.5c0,4-1.2,6.9-5.1,8.5-.5.2-.8,1.3-.8,2a11.239,11.239,0,0,1-17.4,9.1c-3.4-2.1-4.9-5.4-5.1-9.3a14.054,14.054,0,0,1,0-2.9c.1-1.8,0-3.3-2-4.5-2.4-1.5-2.3-5.3-.2-7.4a5.213,5.213,0,0,1,7.6.4,4.818,4.818,0,0,1-1,7.3,3.15,3.15,0,0,0-1.7,3.4c.1,1,0,2.1,0,3.1,0,5.1,3.8,9.1,8.7,9,4.8-.1,8.4-3.9,8.4-9.1A3.745,3.745,0,0,0,34.8,39.7ZM16.4,32.6c1.5-.1,2.4-.9,2.4-2.3A2.1,2.1,0,0,0,16.7,28a2.18,2.18,0,0,0-2.5,2.2C14.2,31.6,15.1,32.3,16.4,32.6Zm24.3.7c-3.5,2.6-4.6,2.6-8.5.4A3.944,3.944,0,0,0,36,37C38.3,37.1,39.8,35.9,40.7,33.3Z" fill="#56b0c2" stroke="#52c7eb" stroke-miterlimit="10" stroke-width="0.236"/>
    </g>
  </g>
</svg>
