<svg xmlns="http://www.w3.org/2000/svg" width="52.983" height="47.608" viewBox="0 0 52.983 47.608">
  <g id="Layer_8" transform="translate(-8.258 -8.558)">
    <g id="Group_84" data-name="Group 84">
      <path id="Path_546" data-name="Path 546" d="M8.4,31.4c.9-.8,2-.5,3-.4A7.355,7.355,0,0,1,17,34a4.448,4.448,0,0,0,2.5,1.4,9.269,9.269,0,0,0,4.7-.5c.2,0,.3-.2.4-.4.3-.8.5-1.6.8-2.4.1-.2,0-.5,0-.7,0-.1-.1-.3-.1-.4-.3-1.2-.6-2.2-2.1-2.5a4.949,4.949,0,0,1-3.1-2.6c-.1-.2-.4-.3-.7-.4a24.425,24.425,0,0,1-2.4-1c-.5-.2-.8-.6-.4-1.1.3-.5.7-.4,1.2-.1a10.092,10.092,0,0,0,1.5.7l.2-.2a6.242,6.242,0,0,0-1-1.6c-.5-.5-1.1-.9-1.7-1.4-.4-.3-.6-.6-.4-1.1a.668.668,0,0,1,1.1-.2,6.08,6.08,0,0,1,3.4,4.8,2.909,2.909,0,0,0,1.5,2.2,15.106,15.106,0,0,0,1.8.9.616.616,0,0,0,.7-.1c.5-.3,1-.8,1.5-1.1a2.186,2.186,0,0,1,.5-.3,1,1,0,0,0,.5-.4c.4-1.2,1.1-2.4.4-3.9-.7-1.3-1.3-2.6-2.6-3.3a1.929,1.929,0,0,0-1-.3c-2.8-.3-4.6-2-5.9-4.3-.2-.4-.3-.9.2-1.1.4-.2.8-.1,1.1.5a6.844,6.844,0,0,0,3.5,3.2,1.7,1.7,0,0,0,.7.1c0-.2.1-.5,0-.7a15.106,15.106,0,0,0-.9-1.8.8.8,0,0,1,.2-1.1c.4-.3.8-.1,1.1.3a5.844,5.844,0,0,1,1.2,3.4.85.85,0,0,0,.3.5c2,1,3,2.8,3.7,4.9.1.3.3.8.5.9a3.219,3.219,0,0,0,1.7-.1c.9-.5,1.7-1.2,2.6-1.8.1-.1.2-.1.2-.2a4.672,4.672,0,0,0-.5-5.6c-1.7-1.5-2.1-3.5-2-5.7a2.118,2.118,0,0,1,.3-.7H33c.1.4.3.7.4,1.1a6.216,6.216,0,0,0,.8,3.3,2.2,2.2,0,0,0,.5.6c.1-.6.3-1,.3-1.3.1-.3,0-.6.1-.9,0-.5.3-.7.8-.7a.684.684,0,0,1,.7.7,29.31,29.31,0,0,1-.5,2.9c0,.2-.2.5-.1.6a6.434,6.434,0,0,1,.3,4.9.917.917,0,0,0,.5,1.3,8.65,8.65,0,0,1,1,.7,3.437,3.437,0,0,0,2.7.9,1.486,1.486,0,0,0,1.3-.6,7.306,7.306,0,0,0,1.7-3.4,3.709,3.709,0,0,0-.3-2.3,7.651,7.651,0,0,1,.4-7.2.731.731,0,0,1,1-.4c.5.2.5.6.3,1.1a6.445,6.445,0,0,0-.9,3.6,10.1,10.1,0,0,0,.3,1.7c.1,0,.1.1.2.1.2-.3.5-.5.7-.8a6.376,6.376,0,0,0,.8-1.4c.2-.5.5-.7,1-.5s.5.7.3,1.1a7.989,7.989,0,0,1-2,2.8.713.713,0,0,0-.3.6,7.833,7.833,0,0,1-2.3,6,1.314,1.314,0,0,0-.3,1.2,3.242,3.242,0,0,0,1.6,2c.2.2.5.3.7.5.5.6,1,.5,1.6.1a3.853,3.853,0,0,0,2-2.8c.2-1.8,1.5-2.9,3-3.8a.693.693,0,0,1,1,.3c.3.5,0,.7-.3,1-.6.6-1.3,1.2-1.9,1.8-.1.1-.1.3-.2.5l.1.1c.3-.2.7-.3,1-.5.5-.3,1-.3,1.2.2a.749.749,0,0,1-.5,1.1c-.6.3-1.3.5-1.9.8-.2.1-.5.2-.6.4a5.687,5.687,0,0,1-3,2.5,1.387,1.387,0,0,0-.7.8c-1,1.8-.4,3.6.2,5.3a1.724,1.724,0,0,0,.6.6A9.361,9.361,0,0,0,50,36.4a4.3,4.3,0,0,0,3.3-1.1,7.989,7.989,0,0,1,7.2-.7,2.651,2.651,0,0,1,.6.5v.4c-.1.5-.6.5-1.2.4a6.661,6.661,0,0,0-4.8.3c-.2.1-.4.3-.8.5.6.3,1.1.6,1.6.8a4.951,4.951,0,0,0,1.3.4c.5.1.8.4.7.9a.709.709,0,0,1-.9.6,11.663,11.663,0,0,1-2.6-1,2.708,2.708,0,0,0-2.6-.5,4.108,4.108,0,0,1-2.2,0,27.586,27.586,0,0,1-2.7-.8c-.1,0-.2-.1-.3-.2-1-.7-1.3-.7-2.2.2a3.039,3.039,0,0,1-.7.5c-.1.1-.2.1-.3.2-.6.6-1,2.6-.4,3.3a25.247,25.247,0,0,0,2.1,2.5,3.408,3.408,0,0,0,2.2.7,7.363,7.363,0,0,1,6.5,2.8c.4.5.5,1,.1,1.3s-.8.2-1.2-.3a6.585,6.585,0,0,0-3.8-2.3h-.8a3.5,3.5,0,0,0,.9,1.7l.6.6a.784.784,0,0,1,.1,1.1.706.706,0,0,1-1.1,0,6.986,6.986,0,0,1-1.9-2.9c-.1-.2-.3-.5-.4-.5a7.6,7.6,0,0,1-4.5-4.1c-.2-.5-.5-.5-1-.5a6.183,6.183,0,0,0-3.5,1.5,1.159,1.159,0,0,0-.4,1c.2,1.7.3,3.4-.7,4.9a3.908,3.908,0,0,0-.7,3.1,5.462,5.462,0,0,1-.1,1.8c-.1.6-.4.9-.9.8-.6-.1-.6-.5-.5-1,.1-.8.1-1.5.2-2.3a.349.349,0,0,1-.2-.1c-.2.2-.4.3-.6.5A6.076,6.076,0,0,0,31.7,55v.3c-.1.4-.4.8-.8.7a.676.676,0,0,1-.6-.9,6.849,6.849,0,0,1,1.1-3.4,6.356,6.356,0,0,1,2-2,4.506,4.506,0,0,0,2.3-3.8c.2-1.4,0-2.6-1.4-3.3a17.675,17.675,0,0,1-1.7-1.2,1.421,1.421,0,0,0-.6-.2,1.765,1.765,0,0,0-2.1,1A7.8,7.8,0,0,1,25.2,46c-.2,0-.3.3-.4.5-.5.9-1.1,1.8-1.6,2.7a1.38,1.38,0,0,1-.4.3c-.4.3-.7.4-1.1,0a.782.782,0,0,1,0-1.1c.4-.5.8-1.1,1.2-1.6l.3-.6c0-.1-.1-.1-.1-.2a9.512,9.512,0,0,0-1.8.4,6.9,6.9,0,0,0-2.8,2,2.651,2.651,0,0,1-.6.5c-.2,0-.7-.2-.7-.3a1.163,1.163,0,0,1,.2-1,9.23,9.23,0,0,1,2.9-2.3,5.924,5.924,0,0,1,3.2-.6,4.258,4.258,0,0,0,3.7-1.4A20.28,20.28,0,0,0,29,41a.367.367,0,0,0,.1-.3,4.473,4.473,0,0,0-.9-2.5A4.813,4.813,0,0,0,26.6,37a2.25,2.25,0,0,0-1.4-.1,12.7,12.7,0,0,1-3.4.5,6.574,6.574,0,0,1-3.4-.8,1.718,1.718,0,0,0-1.7,0,6.272,6.272,0,0,1-3.6.6c-.5,0-.8-.2-.8-.8a.709.709,0,0,1,.8-.7l2.4-.3a3.552,3.552,0,0,0,.9-.4,5.367,5.367,0,0,0-2.1-1.6,9.223,9.223,0,0,0-3.6-.7,1.964,1.964,0,0,1-1.5-.5C8.4,31.7,8.4,31.6,8.4,31.4ZM31,24.1c-1.4,0-1.4,0-1.7,1.2a1.945,1.945,0,0,1-.9,1.4A20.278,20.278,0,0,0,26.6,28a.822.822,0,0,0-.4.6c.1.5.3.9.4,1.3a3.289,3.289,0,0,1,.1,2.9,7.494,7.494,0,0,0-.5,1.6c0,.2,0,.5.1.6a4.44,4.44,0,0,0,1.1.8,3.247,3.247,0,0,1,1.9,2.6.831.831,0,0,0,1.1.8,3.086,3.086,0,0,1,2.6.7l1.2.9c1.1.8,1.1.8,2.2,0,.7-.5,1.4-1.3,2.4-1.2,1.7.1,2.6-.7,2.9-2.4a.935.935,0,0,1,.5-.7,21.413,21.413,0,0,1,1.9-1.3.524.524,0,0,0,.2-.8,5.508,5.508,0,0,1-.2-5,.6.6,0,0,0,.1-.4c.2-.5.1-.7-.3-1-1.1-.7-2.3-1.4-2.7-2.9-.3-1.1-.4-1.1-1.5-1a3.139,3.139,0,0,1-2.1-.7A23.069,23.069,0,0,0,35.7,22a1.1,1.1,0,0,0-.8,0,14.29,14.29,0,0,0-2,1.4A2.4,2.4,0,0,1,31,24.1Z" fill="#56b0c2" stroke="#52c7eb" stroke-miterlimit="10" stroke-width="0.284"/>
      <path id="Path_547" data-name="Path 547" d="M30.5,31.9a4.755,4.755,0,0,1,4.7-4.7,4.929,4.929,0,0,1,5,4.9,4.818,4.818,0,0,1-4.5,4.8A4.885,4.885,0,0,1,30.5,31.9ZM32,32a3.214,3.214,0,0,0,3,3.3c2.2,0,3.5-1.1,3.6-3.3.1-2.1-1.5-3.3-4-3.3A3.48,3.48,0,0,0,32,32Z" fill="#56b0c2" stroke="#52c7eb" stroke-miterlimit="10" stroke-width="0.284"/>
    </g>
  </g>
</svg>
