<svg xmlns="http://www.w3.org/2000/svg" width="41.535" height="43.433" viewBox="0 0 41.535 43.433">
  <g id="Layer_8" transform="translate(-9.259 -9.482)">
    <g id="Group_73" data-name="Group 73">
      <path id="Path_530" data-name="Path 530" d="M17.3,35.1a4.793,4.793,0,0,0-2.9-.1,8.648,8.648,0,0,1-2.3.6,2.418,2.418,0,0,1-2.7-2.8,11.344,11.344,0,0,1,4.3-7.5,2.543,2.543,0,0,1,1.7-.4,7.476,7.476,0,0,1,2.4,1.5,1.107,1.107,0,0,0,1.4.4,11.1,11.1,0,0,1,7-.5,3.952,3.952,0,0,0-1.7-2.4,27.061,27.061,0,0,0-3.7-2.1c-3.3-1.7-4.6-4.5-3.5-7.8.8-2.6,2.9-3.7,5.3-4.2a8.578,8.578,0,0,1,2.3-.2c.6,0,1.1.1,1.1.8s-.5.7-1,.7a8.447,8.447,0,0,0-4.6,1.3c-2.4,1.5-2.4,6,.2,7.4,1,.6,2,1.1,3,1.6a8.036,8.036,0,0,1,4.5,5.2c0,.1.1.2.1.3a1.715,1.715,0,0,0,.5-1.9,9.352,9.352,0,0,1,2.2-8.9,10.653,10.653,0,0,1,11.3-3.6c4.4,1.2,7.1,4.3,8.2,8.7a10.351,10.351,0,0,1-.7,6.7,15.326,15.326,0,0,0-1.1,2.7,11,11,0,0,0-.4,3.1,13.111,13.111,0,0,1-.7,5.2,14.944,14.944,0,0,1-5.4,6.5,35.016,35.016,0,0,1-16.5,7.2c-3.2.5-6.2.2-8.9-1.9a9.3,9.3,0,0,1-2.2-12.1C15.3,37.5,16.3,36.4,17.3,35.1Zm-.5-7.3c-.8-1.5-1.8-1.7-2.8-.6a10.521,10.521,0,0,0-2.9,5.5c-.2,1.1.3,1.6,1.4,1.4.4-.1.8-.3,1.2-.4.8-.2,1.8-.6,2.5-.3,2,.7,3.4,0,4.7-1.5.4-.5,1-1,1.6-.3.5.7-.2,1.1-.6,1.5A34.673,34.673,0,0,0,16,39.3a7.665,7.665,0,0,0,2.3,10.9,10.692,10.692,0,0,0,7.2,1,33.208,33.208,0,0,0,16.6-7.8c3-2.5,4.8-5.5,4.3-9.6a9.089,9.089,0,0,1,1.1-5.1c1.1-2.4,1.8-4.9,1-7.5-2-7-9.8-9.7-15.4-5.3-2.7,2.2-4.1,6.1-3,9.1a2.57,2.57,0,0,1-.3,2.4c-.2.3-.3.6-.5.9.2.1.3.2.4.2,1.6.2,1.6.2,1.7,1.8a.779.779,0,0,0,.3.7A6.885,6.885,0,0,0,33,32.1a1.431,1.431,0,0,0,1.1.3c1.6-.1,3.2-.3,4.8-.4a9.339,9.339,0,0,1,5.4,1.2c.3.2.6.7.5,1-.1.5-.6.6-1.1.3a10.833,10.833,0,0,0-6.4-.9c-2.3.4-4.5.9-6.8,1.4-.5.1-1,.2-1.2-.5-.2-.6.2-.9.8-1,.5-.1,1-.3,1.7-.5a5.5,5.5,0,0,1-1.6-1.1c-.3-.4-.2-1.1-.4-1.8a11.731,11.731,0,0,0-1.1.5,5.27,5.27,0,0,0-2,3.6,2.2,2.2,0,0,0,1.6,2.7,17.022,17.022,0,0,0,3.9.9c1.9.2,3.8.2,5.7.3.5,0,1,.2,1,.8s-.4.8-.9.8h-.4A31.751,31.751,0,0,1,28,38.4a2.994,2.994,0,0,0-.4.8c-.8,1.7-1.6,3.3-2.4,5-.2.5-.5,1.2-1.3.8s-.4-1-.2-1.5c.8-1.6,1.5-3.2,2.3-4.8a1.39,1.39,0,0,0-.1-1.9,3.128,3.128,0,0,1-.5-1,6.012,6.012,0,0,1,1.3-5.3c.7-1,.7-1.5-.3-2.2a4.128,4.128,0,0,0-1.5-.7,7.357,7.357,0,0,0-4.4.4c-1.4.5-2.8,1.2-4.3,1.8-.5.2-.8.2-1.1-.3s0-.8.4-1.1A13.918,13.918,0,0,0,16.8,27.8Z" fill="#56b0c2" stroke="#52c7eb" stroke-miterlimit="10" stroke-width="0.235"/>
      <path id="Path_531" data-name="Path 531" d="M39.6,27.1c-.3-.3-.8-.6-.8-.9-.1-.6.5-.8,1-.8a2.352,2.352,0,0,1,2.5,3.4,3.032,3.032,0,0,1-2.5,2,2.934,2.934,0,0,1-1.7-.6c-.2-.1-.2-.7,0-.9.1-.2.7-.3.9-.2.8.5,1.3,0,1.8-.5a1.637,1.637,0,0,0,.2-1.2c-.1-.2-.6-.3-.9-.5C39.7,26.9,39.6,27,39.6,27.1Z" fill="#56b0c2" stroke="#52c7eb" stroke-miterlimit="10" stroke-width="0.235"/>
    </g>
  </g>
</svg>
