<svg xmlns="http://www.w3.org/2000/svg" width="47.929" height="48.422" viewBox="0 0 47.929 48.422">
  <g id="Layer_8" transform="translate(-2.916 -5.607)">
    <g id="Group_80" data-name="Group 80">
      <path id="Path_535" data-name="Path 535" d="M25.3,46.9a16.2,16.2,0,0,1-12.1-4.8c-2.7-2.6-5.5-5.3-8.1-8S2.4,28.5,5,25.8c2.9-2.9,5.8-5.9,8.9-8.7,6.2-5.7,16.5-5.8,22.7-.2,3.3,3,6.4,6.2,9.6,9.4a5.349,5.349,0,0,1,1.3,2.6c.1.4-.4,1-.7,1.5-.4-.3-1-.5-1.3-.9a16.1,16.1,0,0,0-2.1-3,107.676,107.676,0,0,0-9.2-8.7,14.8,14.8,0,0,0-18.8.8c-3.2,2.9-6.2,6-9.2,9.1a3.05,3.05,0,0,0,.1,4.4c3,3,5.9,6.2,9.1,9,4.5,3.9,9.7,4.8,15.4,2.8.2-.1.4-.1.6-.2.7-.3,1.3-.3,1.6.5a1.135,1.135,0,0,1-.8,1.6L27.1,47C26.5,47,25.9,46.9,25.3,46.9Z" fill="#56b0c2" stroke="#52c7eb" stroke-miterlimit="10" stroke-width="0.258"/>
      <path id="Path_536" data-name="Path 536" d="M14.1,29.9A11.3,11.3,0,1,1,25.3,41.2,11.225,11.225,0,0,1,14.1,29.9ZM25.3,39c5,.3,9.2-4.3,9.2-9a9.354,9.354,0,0,0-9.1-9.2,9.208,9.208,0,0,0-9.2,9.1A9.062,9.062,0,0,0,25.3,39Z" fill="#56b0c2" stroke="#52c7eb" stroke-miterlimit="10" stroke-width="0.258"/>
      <path id="Path_537" data-name="Path 537" d="M42.7,32.2c3,0,3.4-.5,3.2,3.2,0,1.2.3,1.6,1.6,1.6,3.7-.1,3.2.1,3.2,3.2,0,3.7.3,3.4-3.3,3.3-1.2,0-1.5.4-1.5,1.5,0,3.3,0,3.3-3.3,3.3-3.9.1-3.3-.3-3.3-3.3,0-1.2-.3-1.6-1.5-1.6-3.1,0-3.3.7-3.2-3.3,0-3.6-.1-3.3,3.3-3.3,1.1,0,1.5-.3,1.5-1.5C39.3,31.9,39.2,32.2,42.7,32.2Zm-1.2,2.3v3c0,1-.4,1.7-1.6,1.6a17.634,17.634,0,0,0-2.3,0c-.8,0-1,.5-.9,1.1,0,.6-.1,1.3.9,1.3H40c1,0,1.5.5,1.5,1.4a19.219,19.219,0,0,1,0,2.4c0,.9.6.8,1.2.9.6,0,1.2,0,1.2-.9V42.9c0-1,.4-1.4,1.4-1.4a17.652,17.652,0,0,1,2.3,0c1,.1,1.1-.5,1.1-1.3s-.2-1.3-1.2-1.2a14.719,14.719,0,0,1-2.1,0c-1,0-1.4-.4-1.4-1.4V34.5Z" fill="#56b0c2" stroke="#52c7eb" stroke-miterlimit="10" stroke-width="0.258"/>
      <path id="Path_538" data-name="Path 538" d="M24.3,51.5a6.533,6.533,0,0,1,0-1.4c.2-.4.6-.9,1-.9a1.442,1.442,0,0,1,1.1.7,10.734,10.734,0,0,1,0,3.1,1.622,1.622,0,0,1-1.1.9c-.4,0-.8-.6-1-1.1a5.652,5.652,0,0,1,0-1.3Z" fill="#56b0c2" stroke="#52c7eb" stroke-miterlimit="10" stroke-width="0.258"/>
      <path id="Path_539" data-name="Path 539" d="M24.3,8.3a4.8,4.8,0,0,1,0-1.2,5.669,5.669,0,0,1,1-1.3c.4.4,1,.7,1.2,1.2a5.283,5.283,0,0,1,0,2.5c-.1.5-.7.8-1.1,1.2a4.125,4.125,0,0,1-1-1.3C24.2,9.1,24.3,8.7,24.3,8.3Z" fill="#56b0c2" stroke="#52c7eb" stroke-miterlimit="10" stroke-width="0.258"/>
      <path id="Path_540" data-name="Path 540" d="M11.4,44.3c0,.9-2.3,3.1-3,3.1a.955.955,0,0,1-.8-1.6,10.448,10.448,0,0,1,2.1-2.1,1.928,1.928,0,0,1,1.3,0C11.1,43.7,11.3,44.1,11.4,44.3Z" fill="#56b0c2" stroke="#52c7eb" stroke-miterlimit="10" stroke-width="0.258"/>
      <path id="Path_541" data-name="Path 541" d="M11.4,15.6c-.1.2-.3.6-.6.7a1.672,1.672,0,0,1-1.2-.1,13.9,13.9,0,0,1-2.1-2.1,1.079,1.079,0,0,1,0-1.1,1.268,1.268,0,0,1,.9-.4C9.2,12.5,11.3,14.7,11.4,15.6Z" fill="#56b0c2" stroke="#52c7eb" stroke-miterlimit="10" stroke-width="0.258"/>
      <path id="Path_542" data-name="Path 542" d="M43.6,13.4c-.2.3-.2.6-.4.8a13.149,13.149,0,0,1-2.1,2,1.41,1.41,0,0,1-1.4-.1,1.691,1.691,0,0,1,0-1.4,10.708,10.708,0,0,1,1.8-1.9,2.136,2.136,0,0,1,1.4-.1C43.2,12.7,43.4,13.1,43.6,13.4Z" fill="#56b0c2" stroke="#52c7eb" stroke-miterlimit="10" stroke-width="0.258"/>
      <path id="Path_543" data-name="Path 543" d="M18.2,29.9c.1-.2.5-.9.9-1,.8-.2,1.1.6,1.2,1.3A5.083,5.083,0,0,0,25.1,35c.5.1,1.2.7,1.2,1.1.1.8-.6,1-1.4,1C21.6,37.1,18.2,33.8,18.2,29.9Z" fill="#56b0c2" stroke="#52c7eb" stroke-miterlimit="10" stroke-width="0.258"/>
      <path id="Path_544" data-name="Path 544" d="M25.4,27.6a2.308,2.308,0,0,1,2.2,2.3,2.463,2.463,0,0,1-2.2,2.3,2.4,2.4,0,0,1-2.3-2.3A2.473,2.473,0,0,1,25.4,27.6Z" fill="#56b0c2" stroke="#52c7eb" stroke-miterlimit="10" stroke-width="0.258"/>
    </g>
  </g>
</svg>
