<svg xmlns="http://www.w3.org/2000/svg" width="32.833" height="47.208" viewBox="0 0 32.833 47.208">
  <g id="Layer_8" transform="translate(-13.642 -8.678)">
    <path id="Path_533" data-name="Path 533" d="M45.4,45.1c-1.3-1.6-3.1-1.9-5.1-.8A7.894,7.894,0,0,1,40,43a3.83,3.83,0,0,0-3.1-3.6c-1.3-.4-1.9-2.4-.8-3.1a4.152,4.152,0,0,0,2.1-3.7,3.405,3.405,0,0,0,4.1-.6,3.182,3.182,0,0,0,.4-3.9c-.9-1.6-2.4-2.1-4.6-1.5,0-.3-.1-.5-.1-.8A2.987,2.987,0,0,0,35.5,23c-.4-.1-1.2-.5-1.2-.8a4.94,4.94,0,0,1,.5-2.4,18.938,18.938,0,0,1,2.4-2.6,2.572,2.572,0,0,0,2.9-1.1,2.7,2.7,0,0,0,.1-3.2,2.905,2.905,0,0,0-3.4-1.3c-.9-2.4-1.4-2.8-4-2.8-1.8,0-3.5.1-5.3,0-2.1-.1-3.8.3-4.2,2.7-2.6-.2-3.9.8-3.9,2.8s1.3,3,3.4,2.9c1,1,1.7,1.8,2.5,2.5.7.7.8,2.6,0,3.1a7.272,7.272,0,0,0-.8.9h0a35.618,35.618,0,0,1-3.1,2.6,3.028,3.028,0,0,0-3.6,1,3.325,3.325,0,0,0-.3,3.9,4.26,4.26,0,0,0,2,1.5,5.1,5.1,0,0,0,2.1.1q1.05,1.65,2.1,3a2.284,2.284,0,0,1-.8,3.6,4,4,0,0,0-2.7,3.3c-.1.4-.2.9-.3,1.4a3.488,3.488,0,0,0-4.9.6,4.126,4.126,0,0,0,0,5.5,3.584,3.584,0,0,0,5,.6c.1.6.2,1.1.3,1.6.3,1.5,1,2.8,2.6,3.1,1.2.2,7.3.2,10.2.2h.1a15.038,15.038,0,0,0,3,0A3.811,3.811,0,0,0,40,52.2a10.26,10.26,0,0,1,.4-1.4,3.569,3.569,0,0,0,4.9-.6A3.71,3.71,0,0,0,45.4,45.1ZM25,17c-.2-1.5-1-1.8-2.5-1.4a1.325,1.325,0,0,1-1.1-.3,3.284,3.284,0,0,1,.1-1.7c0-.2.7-.3,1-.2,1.4.5,2.3.1,2.5-1.4a1.654,1.654,0,0,1,1.9-1.6h6.7a1.472,1.472,0,0,1,1.7,1.5c.3,1.6,1,2,2.6,1.5a1.113,1.113,0,0,1,1,.3,2.22,2.22,0,0,1,.1,1.6,1.085,1.085,0,0,1-1.1.5c-1.9-.4-2.2-.2-2.7,1.6-.1.4-.3.9-.6,1-2,.6-1.7,2.3-1.8,3.7V23H27.5c0-.9-.1-1.8-.1-2.9,1.1,0,2.1.1,3.1,0,.4,0,.7-.5,1.1-.7-.4-.3-.7-.7-1.1-.7a22.845,22.845,0,0,0-3.7,0C25.8,18.5,25.2,18.2,25,17ZM23.5,32.8c-.3-1.6-1.4-2.1-2.9-1.4A1.955,1.955,0,0,1,19,31a1.564,1.564,0,0,1,.1-2.4,1.768,1.768,0,0,1,1.6-.3,2.082,2.082,0,0,0,2.5-.7,39.107,39.107,0,0,0,3-3.1h7.9c2,0,2.3.2,2.8,2.2.4,1.5,1.5,2.2,2.6,1.5.9-.5,1.5-.3,1.8.4a3.944,3.944,0,0,1,.1,2.4c-.1.3-1.3.6-1.8.4-1.5-.5-2.5,0-2.7,1.6-.3,1.7-.7,2.1-2.4,2.1H26.2C24.3,35,23.9,34.7,23.5,32.8Zm10.7,3.7v2.7H25.7V36.5ZM43,50.2a1.1,1.1,0,0,1-.8,0C40,49,39,49.5,38.6,52a2.531,2.531,0,0,1-2.8,2.4,19.219,19.219,0,0,0-2.4,0H25.7c-3.3,0-3.3-.1-4.1-3.2a2,2,0,0,0-3.3-1.3,1.465,1.465,0,0,1-1.1.2,2.561,2.561,0,0,1-1.8-2.3A2.417,2.417,0,0,1,17,45.3a1.7,1.7,0,0,1,1,0c2,1,3.2.5,3.6-1.7.3-2,1-2.6,3.1-2.6H34.8c3,0,3.2.2,3.8,3.2.4,1.7,1.9,2.2,3.4,1.3a1.8,1.8,0,0,1,1-.2,2.534,2.534,0,0,1,1.8,2.6A2.433,2.433,0,0,1,43,50.2Z" fill="#56b0c2" stroke="#52c7eb" stroke-miterlimit="10" stroke-width="0.223"/>
  </g>
</svg>
