<svg xmlns="http://www.w3.org/2000/svg" width="47.297" height="43.993" viewBox="0 0 47.297 43.993">
  <g id="Layer_8" transform="translate(-12.277 -11.125)">
    <g id="Group_50" data-name="Group 50">
      <path id="Path_512" data-name="Path 512" d="M36.1,33.5c3.5,1,5.2,3.5,5.5,7a17.1,17.1,0,0,1,0,3.2c-.1.4-.6.8-.9,1.3-.3-.4-.8-.8-.8-1.3-.2-1.4-.1-2.8-.2-4.2-.2-2.7-3.4-4.8-5.6-4.5a16.59,16.59,0,0,0-1.6.6,12.35,12.35,0,0,1-10.3,0,4.968,4.968,0,0,0-6.1,1.5,5.4,5.4,0,0,0-1.2,3.6v9c0,.3.1.7,0,.9-.2.3-.5.7-.8.7a1.143,1.143,0,0,1-.8-.7,106.257,106.257,0,0,1,.1-11.3,6.368,6.368,0,0,1,5.2-5.7c-1-1.6-2-3.3-3.1-4.8-.5-.7-1.5-1.2-2-1.9-1.3-1.8-1.4-4,.3-5.4a15.494,15.494,0,0,0,2.6-3.7,12.876,12.876,0,0,1,7.8-6.1,12.6,12.6,0,0,1,14.3,6,12.849,12.849,0,0,0,2.7,4c1.3,1.2,1.6,4.3-.6,6.2a9.622,9.622,0,0,0-1.8,2.2A23.75,23.75,0,0,0,36.1,33.5ZM27.4,12.7a31.286,31.286,0,0,0-4.4,1,10.519,10.519,0,0,0-6.2,6.8,1.887,1.887,0,0,1-1,1.3,2.848,2.848,0,0,0-1.6,2.5,2.738,2.738,0,0,0,1.6,2.5A2.5,2.5,0,0,1,17,28.1c1.6,4.7,7.8,7.9,12.7,6.5a11.119,11.119,0,0,0,7.6-6.4,2.4,2.4,0,0,1,1.5-1.6,2.344,2.344,0,0,0,1.4-2.3c0-1-.2-2-1.1-2.4a2.45,2.45,0,0,1-1.5-1.8C36.5,16.1,32,12.8,27.4,12.7Z" fill="#56b0c2" stroke="#52c7eb" stroke-miterlimit="10" stroke-width="0.242"/>
      <path id="Path_513" data-name="Path 513" d="M55.7,16.9c-.5,1-1.1,1.3-1.8.6-.5-.5-.8-.3-1.2.2-1.5,1.8-3.1,3.6-4.7,5.4a3.108,3.108,0,0,0,.3,4.3,3.189,3.189,0,0,0,4.1-.3c1.6-1.8,3.1-3.7,4.7-5.6.4-.5.3-.8,0-1.3-.3-.4-.2-1-.3-1.5.5.2,1.1.2,1.4.5,1.6,1.5,1.6,1.6.4,3.2-1.7,2.1-3.4,4.2-5.1,6.2-1.2,1.3-2.9,1.2-4.5,1-1.1-.1-1.7.1-1.6,1.2a20.236,20.236,0,0,0,.5,4.3c.6,2.6,1.6,5.1,1.9,7.7A7.689,7.689,0,0,1,45.6,51a13.275,13.275,0,0,1-10.3,1.1,2.474,2.474,0,0,0-2.9.7,6.429,6.429,0,0,1-6.8,1.9A6.942,6.942,0,0,1,20.3,49c-.7-4.6,2.1-8.2,6.5-8.5,4.5-.3,7.6,2.8,7.8,7.4v.5c-.3,1.7-.3,1.7,1.3,2.1a11.413,11.413,0,0,0,9.8-1.7,5.549,5.549,0,0,0,2.3-4c.4-3.2-.7-6.2-1.8-9.1-.9-2.4-1.2-4.8.1-7.2a1.287,1.287,0,0,0-.1-1.2,4.755,4.755,0,0,1,.5-5.2c1.7-2.1,3.4-4.2,5.2-6.3,1-1.1,1.4-1.1,2.5-.1A14.2,14.2,0,0,0,55.7,16.9Zm-33.8,31a5.338,5.338,0,0,0,5.4,5.5,5.224,5.224,0,0,0,5.4-5.5,5.2,5.2,0,0,0-5.4-5.4C24.3,42.4,22.1,44.5,21.9,47.9Z" fill="#56b0c2" stroke="#52c7eb" stroke-miterlimit="10" stroke-width="0.242"/>
      <path id="Path_514" data-name="Path 514" d="M27.2,31.9a7.538,7.538,0,0,1-5.6-2.7,1.81,1.81,0,0,1-.1-1.6c.5-.7.9,0,1.2.4,2.7,2.9,6.6,2.8,9.3-.1.2-.3.8-.2,1.2-.3,0,.5.2,1.1,0,1.4A7.442,7.442,0,0,1,27.2,31.9Z" fill="#56b0c2" stroke="#52c7eb" stroke-miterlimit="10" stroke-width="0.242"/>
      <path id="Path_515" data-name="Path 515" d="M21.7,23.1a6.362,6.362,0,0,1-.6,1c-.3.2-.7.5-1,.4-.2,0-.6-.6-.5-.8a4.6,4.6,0,0,1,1-1.8,1.961,1.961,0,0,1,2.5,0,4.351,4.351,0,0,1,1,1.9c.1.1-.4.6-.6.7a1.008,1.008,0,0,1-.9-.3C22.3,24.1,22.1,23.7,21.7,23.1Z" fill="#56b0c2" stroke="#52c7eb" stroke-miterlimit="10" stroke-width="0.242"/>
      <path id="Path_516" data-name="Path 516" d="M33.2,23.2c-.3.4-.4.8-.6.9a4.671,4.671,0,0,1-1,.5c-.2-.4-.6-.8-.6-1.2a2.488,2.488,0,0,1,2.4-1.8,2.44,2.44,0,0,1,2.1,2.1,1.05,1.05,0,0,1-.5.9c-.2.1-.7-.1-1-.3A10.475,10.475,0,0,1,33.2,23.2Z" fill="#56b0c2" stroke="#52c7eb" stroke-miterlimit="10" stroke-width="0.242"/>
      <path id="Path_517" data-name="Path 517" d="M30.6,48a3.231,3.231,0,0,1-3.3,3.4,3.552,3.552,0,0,1,.1-7.1C29.4,44.4,30.6,45.8,30.6,48ZM29,47.8a1.605,1.605,0,0,0-1.7-1.6,1.752,1.752,0,0,0-1.7,1.7,1.915,1.915,0,0,0,1.7,1.7A1.71,1.71,0,0,0,29,47.8Z" fill="#56b0c2" stroke="#52c7eb" stroke-miterlimit="10" stroke-width="0.242"/>
    </g>
  </g>
</svg>
