<svg xmlns="http://www.w3.org/2000/svg" width="37.302" height="46.096" viewBox="0 0 37.302 46.096">
  <g id="Layer_8" transform="translate(-17.064 -7.775)">
    <g id="Group_65" data-name="Group 65">
      <path id="Path_525" data-name="Path 525" d="M48.8,43.2c-.3-.2-.7-.4-1-.6a8.651,8.651,0,0,1-1.7-.7.765.765,0,0,1-.4-1.1.8.8,0,0,1,1.1-.3,4.42,4.42,0,0,0,2.5.6,1.087,1.087,0,0,0,.5-.1c-.1-.2-.2-.3-.3-.5a2.414,2.414,0,0,1,.2-2.9,2.127,2.127,0,0,1,1.5-.7,3.4,3.4,0,0,0,1-.1c.8-.1,1-.4.5-1.1-.4-.7-1-1.4-1.4-2.1s-.9-1.3-1.3-2a6.1,6.1,0,0,1-.6-4,28.677,28.677,0,0,0,.5-3.1c.1-.3,0-.4-.4-.4H44.1c-.2,0-.5-.1-.6.2a.618.618,0,0,0,.2.7,3.155,3.155,0,0,1-2.6,5.6,3.189,3.189,0,0,1-2.5-2.9A2.905,2.905,0,0,1,39.8,25c.3-.2.2-.5.2-.7,0-.1-.3-.2-.5-.2H35.7c-.3,0-.4.1-.4.4v4.1a1.526,1.526,0,0,1-1.5,1.7h-.7a1.209,1.209,0,0,1-1.3-.7A1.88,1.88,0,0,0,28.4,31a1.927,1.927,0,0,0,1.9,1.5,1.65,1.65,0,0,0,1.5-.9,1.149,1.149,0,0,1,1.1-.6,4.869,4.869,0,0,1,1.2.1,1.4,1.4,0,0,1,1.2,1.4v5.3a.773.773,0,0,1-.7.8.713.713,0,0,1-.7-.8V33a2.034,2.034,0,0,0-.1-.5c-.3,0-.7-.2-1,.2a3.408,3.408,0,0,1-3.3,1.2A2.767,2.767,0,0,1,27,31a3.31,3.31,0,0,1,2.6-3.2,3.089,3.089,0,0,1,3.1,1.1.775.775,0,0,0,1,.2c.1,0,.1-.2.1-.3V24.7a.366.366,0,0,0-.4-.4H29.3a1.444,1.444,0,0,1-1.6-1.5V22a1.255,1.255,0,0,1,.6-1.1,1.9,1.9,0,0,0,.8-2.1,2.044,2.044,0,0,0-1.9-1.4,2.021,2.021,0,0,0-1.8,1.4,1.953,1.953,0,0,0,.8,2.1,1,1,0,0,1,.6,1,5.7,5.7,0,0,1-.1,1.3,1.32,1.32,0,0,1-1.4,1.1H19.7c-.6,0-.6,0-.6.6a24.883,24.883,0,0,0,1.4,7.6c.7,1.9,1.1,3.9,1.7,5.9a18.457,18.457,0,0,1,.4,2.3,8.673,8.673,0,0,1-.6,4.5c-.9,2.6-2.1,5.1-3.2,7.6a.765.765,0,0,1-1.1.4.809.809,0,0,1-.4-1.1c.5-1.2,1.1-2.4,1.6-3.7.7-1.6,1.3-3.2,1.9-4.9a7.152,7.152,0,0,0,0-4.1,47.1,47.1,0,0,0-1.6-6.2c-.4-1.3-.9-2.6-1.2-4a20.623,20.623,0,0,1-.3-7A15.986,15.986,0,0,1,26.9,9.7a16.516,16.516,0,0,1,10-1.6,17.2,17.2,0,0,1,11.3,6.6,15.163,15.163,0,0,1,3.1,7.9,12.353,12.353,0,0,1-.4,4.3,5.835,5.835,0,0,0,.4,4.3c.4.6.7,1.1,1.1,1.7.5.7,1,1.4,1.4,2.1a2.085,2.085,0,0,1-.3,2.7,2.716,2.716,0,0,1-1.7.6h-.9c-.5,0-.7.5-.5,1,.1.2.3.4.4.6a1.449,1.449,0,0,1-.7,2.3c-.1,0-.1.1-.2.1.3,1.3.1,1.8-1.1,2.3a1.22,1.22,0,0,0-.8.9,13.321,13.321,0,0,1-.5,1.9,3.534,3.534,0,0,1-4.3,2.5,20.156,20.156,0,0,1-2.3-.7,4.222,4.222,0,0,0-4.3.8,7.464,7.464,0,0,0-2.1,2.9c-.1.2-.1.3-.2.5a.751.751,0,0,1-1,.2.87.87,0,0,1-.4-.9C34,50,35.7,48,38.7,47.3a6.368,6.368,0,0,1,3.3.5,9.829,9.829,0,0,0,1.6.5,2.06,2.06,0,0,0,2.5-1.5c.2-.7.4-1.5.6-2.2a1.785,1.785,0,0,1,1.1-1.3,4.875,4.875,0,0,1,.7-.3C48.7,43.3,48.7,43.3,48.8,43.2Zm1-20.2v-.4a15.167,15.167,0,0,0-1.9-5.4,14.935,14.935,0,0,0-7.5-6.3,16.587,16.587,0,0,0-4.9-1.1c-.2,0-.4,0-.4.2v4.2c0,.2.4.4.6.5,0,0,.3-.1.3-.2a3.237,3.237,0,0,1,4.6-.7,3.138,3.138,0,0,1,1,3.8,3.293,3.293,0,0,1-3.4,2,3.369,3.369,0,0,1-2.3-1.3c-.1-.1-.2-.2-.3-.2-.3,0-.6.4-.6.7v3.7c0,.3.1.4.4.4h4.4A1.221,1.221,0,0,1,41.1,24a5.7,5.7,0,0,1,.1,1.3,1.05,1.05,0,0,1-.5.9,1.756,1.756,0,0,0-.8,2,1.828,1.828,0,0,0,3.5,0,1.756,1.756,0,0,0-.7-2,1.343,1.343,0,0,1-.7-1.4,1.268,1.268,0,0,1,.1-.6,1.344,1.344,0,0,1,1.4-1.3h4.8A8.084,8.084,0,0,0,49.8,23ZM25.4,23a.926.926,0,0,0-.3-1.2,3.076,3.076,0,0,1-.6-4,3.206,3.206,0,0,1,3.9-1.4A3.449,3.449,0,0,1,30.6,20a2.845,2.845,0,0,1-1.2,2.1c-.3.2-.2.6-.1.9,0,.1.3.1.4.2h3.8c.3,0,.4-.1.4-.4V18.9a1.419,1.419,0,0,1,.8-1.4,3.7,3.7,0,0,1,1.1-.5,1.15,1.15,0,0,1,1.4.5c.1.1.2.3.3.4a1.866,1.866,0,0,0,2.3.6,1.895,1.895,0,0,0-.6-3.6,1.677,1.677,0,0,0-1.8.9,1.433,1.433,0,0,1-1.9.6,3.328,3.328,0,0,1-1-.6,1.274,1.274,0,0,1-.5-1.1V10.6c0-.4-.1-.5-.5-.4a5.279,5.279,0,0,0-2.5,0A14.877,14.877,0,0,0,19.8,20.9a15.525,15.525,0,0,0-.4,2.1Z" fill="#56b0c2" stroke="#52c7eb" stroke-miterlimit="10" stroke-width="0.284"/>
    </g>
  </g>
</svg>
