<svg xmlns="http://www.w3.org/2000/svg" width="45.433" height="44.552" viewBox="0 0 45.433 44.552">
  <g id="Layer_8" transform="translate(-12.184 -7.876)">
    <g id="Group_104" data-name="Group 104">
      <path id="Path_577" data-name="Path 577" d="M43.1,17.3c1.2-1.3,2.5-2.7,3.7-4A15.729,15.729,0,0,1,45,11.4a5.228,5.228,0,0,1-.6-1.6,1.085,1.085,0,0,1,.8-.8c3.3-.3,6.6-.6,9.9-.8,1.6-.1,1.9.2,2,1.8.2,3.2.2,6.5.2,9.7a1.2,1.2,0,0,1-1.1,1.2,1.517,1.517,0,0,1-1.3-.3c-.8-.6-1.5-1.4-2.3-2.1-1.3,1.4-2.6,2.8-3.7,4.1A51.272,51.272,0,0,1,51.4,28a18.142,18.142,0,0,1-14,23.7c-6.2,1.1-12,0-16.9-3.9s-8-9.1-8-15.7a18.055,18.055,0,0,1,3.5-10c2.9-4.5,6.8-7.5,12.1-8.4A20.555,20.555,0,0,1,42,16.6,6.726,6.726,0,0,0,43.1,17.3Zm4.6-6.7a.349.349,0,0,1-.1.2c.5.4.9.9,1.4,1.3.8.7.9,1.3.1,2.1L44,19.6a1.39,1.39,0,0,1-1.9.1,46.264,46.264,0,0,0-5.3-2.9,14.808,14.808,0,0,0-11.5-.2c-4.5,1.9-7.2,5.6-9.2,9.8-2,4-1.2,8,0,12,.7,2.3,2.3,3.9,3.9,5.6a9.575,9.575,0,0,0,2.3,2.2,21.548,21.548,0,0,0,15.3,2.7,15.328,15.328,0,0,0,8.8-25.2c-.8-.9-.8-1.2,0-2.1l5.1-5.7c.5-.6,1.1-.6,1.8-.1.5.4.9.8,1.6,1.4V10.4C52.4,10.6,50,10.6,47.7,10.6Z" fill="#56b0c2" stroke="#fff" stroke-miterlimit="10" stroke-width="0.633"/>
      <path id="Path_578" data-name="Path 578" d="M46.9,33.4A13.63,13.63,0,0,1,35.1,46.7,14.092,14.092,0,0,1,24,44a16.229,16.229,0,0,1-4.8-6.7,11.556,11.556,0,0,1,.4-10.4c2.1-4,5-7.1,9.8-7.8a14.807,14.807,0,0,1,12.8,4.1A14.023,14.023,0,0,1,46.9,33.4ZM32.7,44.5a12.775,12.775,0,0,0,6.6-2c4.9-3.2,6.8-10.2,3-15.1a15.535,15.535,0,0,0-7.1-5.3c-4.2-1.5-8-.9-11,2.5-2.7,3-4.5,6.3-3,10.5,1.3,3.7,3.2,7,7.2,8.4A33.384,33.384,0,0,0,32.7,44.5Z" fill="#56b0c2" stroke="#fff" stroke-miterlimit="10" stroke-width="0.633"/>
    </g>
  </g>
</svg>
