<?xml version="1.0" standalone="no"?>
<!DOCTYPE svg PUBLIC "-//W3C//DTD SVG 1.1//EN" "http://www.w3.org/Graphics/SVG/1.1/DTD/svg11.dtd" >
<svg xmlns="http://www.w3.org/2000/svg" xmlns:xlink="http://www.w3.org/1999/xlink" version="1.1">
<metadata>
Created by FontForge 20161003 at Mon Jul 29 06:14:00 2019
 By www-data
Copyright (c) 2012 by Fontfabric LLC. All rights reserved.
</metadata>
<defs>
<font id="NexaLight" horiz-adv-x="631" >
  <font-face 
    font-family="NexaLight"
    font-weight="300"
    font-stretch="normal"
    units-per-em="1000"
    panose-1="2 0 0 0 0 0 0 0 0 0"
    ascent="700"
    descent="-300"
    x-height="494"
    cap-height="700"
    bbox="-139 -297 1050 932"
    underline-thickness="50"
    underline-position="-150"
    unicode-range="U+0020-FB02"
  />
<missing-glyph horiz-adv-x="645" 
d="M37 0v700h538v-700h-538zM127 447h35q0 58 41 82.5t98 24.5q151 0 151 -108q0 -46 -20 -66.5t-56 -30.5q-63 -19 -84.5 -51t-21.5 -103h35q0 65 13.5 85t66.5 37q21 6 35 13t31 20.5t26 38t9 57.5q0 52 -29 85t-68 44.5t-88 11.5q-73 0 -123.5 -34t-50.5 -106zM263 123
q0 -17 13.5 -24t27 0t13.5 24t-13.5 23.5t-27 0t-13.5 -23.5z" />
    <glyph glyph-name=".notdef" horiz-adv-x="645" 
d="M37 0v700h538v-700h-538zM127 447h35q0 58 41 82.5t98 24.5q151 0 151 -108q0 -46 -20 -66.5t-56 -30.5q-63 -19 -84.5 -51t-21.5 -103h35q0 65 13.5 85t66.5 37q21 6 35 13t31 20.5t26 38t9 57.5q0 52 -29 85t-68 44.5t-88 11.5q-73 0 -123.5 -34t-50.5 -106zM263 123
q0 -17 13.5 -24t27 0t13.5 24t-13.5 23.5t-27 0t-13.5 -23.5z" />
    <glyph glyph-name=".null" horiz-adv-x="0" 
 />
    <glyph glyph-name="nonmarkingreturn" horiz-adv-x="333" 
 />
    <glyph glyph-name="space" unicode=" " horiz-adv-x="265" 
 />
    <glyph glyph-name="exclam" unicode="!" horiz-adv-x="239" 
d="M94 700h51v-559h-51v559zM82 35q0 18 12.5 28.5t27 10.5t27 -10.5t12.5 -28.5t-12.5 -28.5t-27 -10.5t-27 10.5t-12.5 28.5z" />
    <glyph glyph-name="quotedbl" unicode="&#x22;" horiz-adv-x="338" 
d="M77 704h45v-256h-45v256zM217 704h44v-256h-44v256z" />
    <glyph glyph-name="numbersign" unicode="#" horiz-adv-x="629" 
d="M249 700h46l-41 -168h201l42 168h46l-42 -168h91v-38h-100l-72 -283h95v-40h-104l-42 -171h-46l42 171h-201l-42 -171h-46l42 171h-81v40h89l73 283h-85v38h94zM446 494h-201l-73 -283h202z" />
    <glyph glyph-name="dollar" unicode="$" horiz-adv-x="645" 
d="M304 805h45v-100q75 -4 138 -34t95 -87l-47 -26q-26 49 -85 72.5t-124 24.5q-34 0 -69 -7.5t-68.5 -22t-54.5 -43t-20 -64.5q1 -26 12.5 -45.5t28.5 -32.5t48 -23.5t57 -16.5t68 -14q131 -25 179 -49q96 -47 96 -152q0 -62 -41.5 -105.5t-96 -61.5t-117.5 -21v-97h-44v97
q-85 3 -157.5 37t-106.5 100l48 24q29 -56 96.5 -82.5t141.5 -26.5q36 0 72 7t71.5 21.5t57.5 42.5t22 66q0 25 -8 45.5t-26.5 35.5t-36 25t-49.5 19t-52 13.5t-58 11.5q-37 7 -55 11t-51 12.5t-49.5 16.5t-39.5 22t-34 29.5t-20 38.5t-10 50q-1 47 20.5 83.5t58.5 58
t78.5 33.5t86.5 14v100z" />
    <glyph glyph-name="percent" unicode="%" horiz-adv-x="722" 
d="M610 703l-55 -1l-446 -702h56zM190 705q49 0 84.5 -22t52 -54.5t16.5 -71t-16.5 -71t-52 -54.5t-84.5 -22q-42 0 -74.5 16.5t-49.5 42.5t-25 57t0 62.5t25 57.5t49.5 42.5t74.5 16.5zM531 289q42 0 75 -16.5t50 -42.5t25 -57t0 -62.5t-25 -57.5t-50 -42.5t-75 -16.5
q-48 0 -84 22t-52 54.5t-16 71t16 71t52 54.5t84 22zM531 248q-40 0 -68 -22t-34 -53t0.5 -62t34.5 -53t68 -22t68 22t34 53t-0.5 62t-34.5 53t-68 22zM190 662q-41 0 -68.5 -21.5t-34 -52t0 -61t34.5 -52t69 -21.5q40 0 67 21.5t33.5 52t0 61t-34 52t-67.5 21.5z" />
    <glyph glyph-name="ampersand" unicode="&#x26;" horiz-adv-x="688" 
d="M549 531h-47q0 32 -10 55.5t-26 37.5t-40 22t-48 11t-55 3q-97 0 -147.5 -39.5t-49.5 -101.5q0 -38 19 -66.5t49.5 -44t63.5 -22.5t67 -7h297v-43h-64v-153q0 -65 19.5 -103.5t67.5 -37.5v-42q-42 -6 -74 19t-43 70q-60 -98 -206 -98q-126 0 -192.5 52t-66.5 143
q0 61 41.5 106.5t99.5 64.5q-56 17 -92.5 60.5t-36.5 100.5q0 83 66 134.5t183 51.5q225 0 225 -173zM514 183v153h-192q-97 0 -152.5 -45.5t-55.5 -104.5q0 -70 52 -109t155 -39q33 0 64 6.5t61.5 21.5t49 45t18.5 72z" />
    <glyph glyph-name="quotesingle" unicode="'" horiz-adv-x="198" 
d="M77 704h44v-256h-44v256z" />
    <glyph glyph-name="parenleft" unicode="(" horiz-adv-x="321" 
d="M270 735l26 -38q-92 -64 -142.5 -173.5t-52 -224t48.5 -227t146 -182.5l-26 -39q-106 69 -163.5 191.5t-57.5 250.5t57.5 250.5t163.5 191.5z" />
    <glyph glyph-name="parenright" unicode=")" horiz-adv-x="322" 
d="M26 698l26 38q106 -69 163.5 -191.5t57.5 -250.5t-57.5 -250.5t-163.5 -191.5l-26 39q96 70 146 182.5t48.5 227t-52 224t-142.5 173.5z" />
    <glyph glyph-name="asterisk" unicode="*" horiz-adv-x="344" 
d="M221 493l-51 73l-53 -73l-33 23l57 71l-79 23l11 36l79 -26l-2 81h41l-2 -81l85 25l11 -36l-86 -22l55 -70z" />
    <glyph glyph-name="plus" unicode="+" horiz-adv-x="499" 
d="M51 366h175v172h47v-172h175v-48h-175v-177h-47v177h-175v48z" />
    <glyph glyph-name="comma" unicode="," horiz-adv-x="225" 
d="M73 30q0 18 12.5 28.5t27 10.5t27 -10.5t12.5 -28.5q0 -8 -3 -17l-40 -102h-43l31 83q-24 9 -24 36z" />
    <glyph glyph-name="hyphen" unicode="-" horiz-adv-x="496" 
d="M73 261v50h350v-50h-350z" />
    <glyph glyph-name="period" unicode="." horiz-adv-x="225" 
d="M73 30q0 18 12.5 28.5t27 10.5t27 -10.5t12.5 -28.5t-12.5 -28.5t-27 -10.5t-27 10.5t-12.5 28.5z" />
    <glyph glyph-name="slash" unicode="/" horiz-adv-x="479" 
d="M80 -82h-53l373 841h54z" />
    <glyph glyph-name="zero" unicode="0" horiz-adv-x="671" 
d="M121 434v-167q0 -54 18.5 -98t48.5 -71t69 -41.5t79 -14.5t79 14.5t69 41.5t48.5 71t18.5 98v167q0 54 -18.5 97.5t-48.5 70.5t-69 41.5t-79 14.5t-79 -14.5t-69 -41t-48.5 -70.5t-18.5 -98zM68 267v167q0 88 39.5 152t99.5 93t129 29t129 -29t99.5 -93.5t39.5 -151.5
v-167q0 -66 -23 -119.5t-60.5 -86.5t-86 -51t-98.5 -18t-98.5 17.5t-86 50.5t-60.5 87t-23 120z" />
    <glyph glyph-name="one" unicode="1" horiz-adv-x="401" 
d="M50 0v47h136v592l-129 -32v47l183 46v-653h137v-47h-327z" />
    <glyph glyph-name="two" unicode="2" horiz-adv-x="669" 
d="M124 514h-53q0 53 23.5 92.5t63.5 61t85 31.5t96 10q70 0 128 -18.5t100 -66.5t42 -119q0 -68 -42.5 -115t-101 -66.5t-124.5 -19.5q-221 -2 -221 -145v-107h482v-52h-535v158q0 56 23.5 95.5t64.5 60.5t86 30t98 9q37 0 73 7.5t70.5 24t55.5 47.5t21 73q0 44 -20.5 76
t-54 49t-70 24.5t-75.5 7.5q-38 0 -73.5 -7t-68.5 -23t-53 -46.5t-20 -71.5z" />
    <glyph glyph-name="three" unicode="3" horiz-adv-x="663" 
d="M121 529h-51q0 52 24 89t64 56t82.5 27t90.5 8q121 0 189 -52t69 -133q0 -59 -43 -105.5t-105 -57.5q66 -12 113.5 -61t47.5 -111q0 -86 -71 -142t-198 -56q-50 0 -94.5 8.5t-87 27.5t-67.5 58t-25 93h52q0 -36 15.5 -62.5t37 -40.5t54 -22t58.5 -10t58 -2
q105 0 161 41.5t56 104.5q0 60 -58 105t-160 45h-116v45h113q98 0 153.5 43.5t56.5 98.5q1 58 -54 99t-154 41q-211 0 -211 -135z" />
    <glyph glyph-name="four" unicode="4" horiz-adv-x="655" 
d="M432 700h89v-491h88v-51h-88v-158h-54v158h-429l-11 65zM467 209v451l-382 -451h382z" />
    <glyph glyph-name="five" unicode="5" horiz-adv-x="657" 
d="M356 380h-275v320h487v-48h-437v-224h225q68 0 118.5 -18t78.5 -49t41 -68t13 -80q0 -93 -70 -155.5t-202 -62.5q-52 0 -96.5 9.5t-85.5 30.5t-65 61.5t-24 96.5h54q0 -144 217 -144q108 0 163 45t55 118t-45 120.5t-152 47.5z" />
    <glyph glyph-name="six" unicode="6" horiz-adv-x="686" 
d="M134 516v-191q69 99 224 99q52 0 99 -12.5t87 -37t63.5 -67.5t23.5 -99q0 -57 -24 -100.5t-64 -67.5t-87 -36t-99 -12q-71 0 -131 20.5t-102.5 71.5t-42.5 126v306q0 93 78.5 143.5t187.5 50.5q110 0 185.5 -46t81.5 -131h-54q-4 61 -63.5 95t-149.5 34
q-86 0 -149.5 -38.5t-63.5 -107.5zM357 43q41 0 77.5 8t70 26t53.5 51.5t20 79.5q0 80 -67.5 123.5t-152.5 43.5t-153.5 -43t-69.5 -123q0 -45 20 -78.5t53.5 -52t71 -27t77.5 -8.5z" />
    <glyph glyph-name="seven" unicode="7" horiz-adv-x="561" 
d="M108 0l378 650h-454v50h510l7 -44l-380 -656h-61z" />
    <glyph glyph-name="eight" unicode="8" horiz-adv-x="701" 
d="M351 340q-34 0 -71.5 -8t-76 -24.5t-63 -49t-24.5 -74.5q0 -54 43.5 -89.5t93 -47t98.5 -11.5q35 0 72 7t75 23t63 46.5t25 71.5t-25 73t-63 49t-75.5 25.5t-71.5 8.5zM351 -15q-52 0 -100 10.5t-92 32t-70.5 62t-26.5 94.5q0 68 46 115.5t112 61.5q-146 45 -146 162
q0 52 25.5 91t68 60t88.5 31t95 10t94.5 -9.5t88 -30t68.5 -60t26 -92.5q0 -62 -42 -102.5t-110 -61.5q66 -14 114.5 -61.5t48.5 -113.5q0 -54 -26.5 -94.5t-70 -62t-91.5 -32t-100 -10.5zM351 669q-36 0 -71.5 -7t-71.5 -22.5t-58.5 -45.5t-22.5 -71q0 -38 22.5 -66
t58.5 -43t72 -21.5t71 -6.5t71 6.5t72 21.5t58.5 43t22.5 66q0 40 -22.5 70t-58 45.5t-72 23t-71.5 7.5z" />
    <glyph glyph-name="nine" unicode="9" horiz-adv-x="686" 
d="M553 186v191q-69 -99 -225 -99q-52 0 -99 12.5t-87 37t-63.5 67.5t-23.5 99q0 57 24 100.5t64 67.5t87 36t99 12q71 0 131 -20.5t102.5 -71.5t42.5 -126v-306q0 -93 -78.5 -143.5t-187.5 -50.5q-110 0 -185.5 46t-81.5 131h54q4 -61 63.5 -95t149.5 -34q86 0 150 38.5
t64 107.5zM329 659q-41 0 -77.5 -8t-70 -26t-53.5 -51.5t-20 -79.5q0 -44 20 -78t53 -52.5t70 -27.5t77 -9q85 0 153.5 43t69.5 123q0 45 -20 78.5t-53.5 52t-71 27t-77.5 8.5z" />
    <glyph glyph-name="colon" unicode=":" horiz-adv-x="225" 
d="M73 30q0 18 12.5 28.5t27 10.5t27 -10.5t12.5 -28.5t-12.5 -28.5t-27 -10.5t-27 10.5t-12.5 28.5zM73 330q0 18 12.5 28.5t27 10.5t27 -10.5t12.5 -28.5t-12.5 -28.5t-27 -10.5t-27 10.5t-12.5 28.5z" />
    <glyph glyph-name="semicolon" unicode=";" horiz-adv-x="235" 
d="M80 330q0 18 12.5 28.5t27 10.5t27 -10.5t12.5 -28.5t-12.5 -28.5t-27 -10.5t-27 10.5t-12.5 28.5zM80 30q0 18 12.5 28.5t27 10.5t27 -10.5t12.5 -28.5q0 -8 -3 -17l-40 -102h-43l31 83q-24 9 -24 36z" />
    <glyph glyph-name="less" unicode="&#x3c;" horiz-adv-x="363" 
d="M57 337l211 186l30 -34l-192 -171l196 -172l-34 -34l-211 186v39z" />
    <glyph glyph-name="equal" unicode="=" horiz-adv-x="553" 
d="M77 193v49h399v-49h-399zM77 390v50h399v-50h-399z" />
    <glyph glyph-name="greater" unicode="&#x3e;" horiz-adv-x="363" 
d="M95 523l211 -186v-39l-211 -186l-34 34l196 172l-192 171z" />
    <glyph glyph-name="question" unicode="?" horiz-adv-x="615" 
d="M88 508h-52q0 44 16 79.5t42 58t61.5 38t72.5 22t76 6.5q41 0 77.5 -6t72.5 -20.5t62 -37t42 -59t16 -82.5q0 -48 -12.5 -83t-37 -55.5t-45 -30.5t-50.5 -19q-79 -24 -99.5 -54t-20.5 -124h-51q0 103 33 150t125 74q52 15 79.5 44.5t27.5 97.5q0 47 -20 79.5t-54.5 48.5
t-69 22.5t-75.5 6.5q-38 0 -73 -7t-68.5 -23.5t-54 -49t-20.5 -76.5zM249 36q0 25 19.5 35t39 0t19.5 -35t-19.5 -35t-39 0t-19.5 35z" />
    <glyph glyph-name="at" unicode="@" horiz-adv-x="884" 
d="M446 695q177 0 282.5 -103t105.5 -282q0 -105 -40 -185q-21 -42 -58 -54.5t-65.5 10.5t-28.5 71v-1q-35 -48 -88.5 -75t-113.5 -27q-104 0 -177.5 73.5t-73.5 177.5q0 112 72 181.5t179 69.5q62 0 117 -28.5t85 -81.5v85h44v-373q0 -25 12 -34.5t28.5 -1.5t27.5 28
q33 59 33 165q0 163 -91 251t-250 88q-154 0 -247 -96t-93 -246t92.5 -242t247.5 -92q71 0 153 41l26 -38q-79 -49 -179 -49q-179 0 -285 106.5t-106 273.5q0 165 106.5 276.5t284.5 111.5zM440 504q-86 0 -144 -56t-58 -148q0 -84 59 -143.5t143 -59.5q65 0 112.5 30
t69 75.5t21.5 98t-21.5 98t-69 75.5t-112.5 30z" />
    <glyph glyph-name="A" unicode="A" horiz-adv-x="739" 
d="M713 0h-58l-77 172h-418l-76 -172h-58l314 700h59zM181 222h376l-188 426z" />
    <glyph glyph-name="B" unicode="B" horiz-adv-x="695" 
d="M153 332v-280h233q201 0 201 132q-1 76 -57.5 112t-136.5 36h-240zM153 654v-271h240q47 0 83 10t62.5 39.5t26.5 76.5q0 71 -53 108t-126 37h-233zM386 700q97 0 163.5 -48.5t66.5 -142.5q0 -54 -30.5 -93.5t-83.5 -56.5q65 -18 101.5 -66t36.5 -110q0 -52 -22 -89
t-60.5 -57t-80.5 -28.5t-91 -8.5h-287v700h287z" />
    <glyph glyph-name="C" unicode="C" horiz-adv-x="714" 
d="M633 131l36 -34q-105 -105 -255 -105q-169 0 -264 102t-96 252q-1 96 38 177t123 133t199 52q150 0 255 -105l-37 -32q-89 89 -218 89q-147 0 -228 -89.5t-80 -222.5q2 -130 82.5 -218t225.5 -88q128 0 219 89z" />
    <glyph glyph-name="D" unicode="D" horiz-adv-x="746" 
d="M336 700q86 0 154.5 -29t111 -78t65 -109t24.5 -126q2 -68 -19.5 -131t-64 -114.5t-112.5 -82t-159 -30.5h-237v700h237zM336 649h-183v-597h183q146 0 224.5 91.5t76.5 214.5q-2 120 -80.5 205.5t-220.5 85.5z" />
    <glyph glyph-name="E" unicode="E" horiz-adv-x="649" 
d="M152 649v-272h410v-49h-410v-276h442v-52h-495v700h483v-51h-430z" />
    <glyph glyph-name="F" unicode="F" horiz-adv-x="623" 
d="M153 646v-279h403v-51h-403v-317h-54v701h471v-54h-417z" />
    <glyph glyph-name="G" unicode="G" horiz-adv-x="744" 
d="M672 605l-31 -34q-45 44 -104.5 67t-120.5 23q-146 0 -228 -91t-81 -221q0 -131 81 -219t228 -88q125 0 213 81v196h-244v47h295v-262q-113 -113 -264 -113q-115 0 -198.5 50t-123 129.5t-39.5 177.5q-1 163 99.5 262.5t261.5 99.5q150 0 256 -105z" />
    <glyph glyph-name="H" unicode="H" horiz-adv-x="752" 
d="M653 0h-54v318h-446v-318h-54v700h54v-333h446v333h54v-700z" />
    <glyph glyph-name="I" unicode="I" horiz-adv-x="251" 
d="M152 0h-53v700h53v-700z" />
    <glyph glyph-name="J" unicode="J" horiz-adv-x="673" 
d="M529 264v389h-268v47h321v-436q0 -127 -77.5 -201t-199.5 -74q-120 0 -198 77t-78 198h50q0 -99 64 -162t162 -63q100 0 162 59.5t62 165.5z" />
    <glyph glyph-name="K" unicode="K" horiz-adv-x="590" 
d="M588 4v-4h-68l-369 345v-344h-54v699h54v-319l340 319h65v-5l-352 -330z" />
    <glyph glyph-name="L" unicode="L" horiz-adv-x="564" 
d="M99 700h54v-649h394v-51h-448v700z" />
    <glyph glyph-name="M" unicode="M" horiz-adv-x="861" 
d="M709 0v622l-268 -410h-18l-270 410v-622h-54v700h64l268 -408l265 408h66v-700h-53z" />
    <glyph glyph-name="N" unicode="N" horiz-adv-x="745" 
d="M99 700h23l471 -579v579h53v-700h-21l-472 578v-578h-54v700z" />
    <glyph glyph-name="O" unicode="O" horiz-adv-x="814" 
d="M407 711q168 0 261 -105.5t92 -256.5q0 -70 -23 -134t-65.5 -115t-111 -81.5t-153.5 -30.5t-153.5 30.5t-111.5 82t-65.5 115.5t-22.5 135q0 97 38 177t120 131.5t195 51.5zM407 661q-144 0 -222.5 -89.5t-77.5 -221.5q1 -128 80 -220t220 -92q96 0 166 46t102.5 115
t32.5 151q0 130 -79 220.5t-222 90.5z" />
    <glyph glyph-name="P" unicode="P" horiz-adv-x="670" 
d="M406 650h-253v-359h253q48 0 85.5 20t57 51.5t28.5 69.5t0 76.5t-28.5 70t-57 51.5t-85.5 20zM406 242h-253v-242h-54v700h307q55 0 99.5 -19.5t72 -52t42 -73.5t14.5 -84t-14.5 -84t-42 -73.5t-72 -52t-99.5 -19.5z" />
    <glyph glyph-name="Q" unicode="Q" horiz-adv-x="815" 
d="M408 709q169 0 261.5 -103.5t91.5 -255.5q0 -139 -82 -239l89 -86l-34 -35l-88 84q-92 -81 -238 -81q-170 0 -263 104.5t-91 258.5q2 149 94.5 251t259.5 102zM408 658q-132 0 -216.5 -86t-84.5 -216q-2 -132 77 -222t224 -90q143 0 221.5 88.5t78.5 217.5
q0 131 -78.5 219.5t-221.5 88.5z" />
    <glyph glyph-name="R" unicode="R" horiz-adv-x="700" 
d="M410 268l247 -268h-71l-242 265h-191v-265h-54v700h308q108 0 168.5 -64.5t61.5 -153.5q1 -91 -58.5 -152.5t-168.5 -61.5zM153 650v-334h248q88 0 132 45t45 122q1 67 -44 117t-127 50h-254z" />
    <glyph glyph-name="S" unicode="S" horiz-adv-x="657" 
d="M587 591l-44 -26q-35 56 -87.5 75t-124.5 20q-48 0 -92.5 -11t-82 -45t-37.5 -86q0 -26 12 -46t28.5 -32.5t48 -23.5t57 -16.5t68.5 -13.5q131 -25 179 -49q96 -47 96 -152q0 -56 -26.5 -96.5t-69.5 -61t-87.5 -29.5t-93.5 -9q-89 0 -169 38.5t-118 113.5l48 24
q30 -60 99.5 -93.5t139.5 -33.5q37 0 72 6t71 21t58 46t22 75q0 25 -8 45.5t-26.5 35.5t-36 25t-49.5 19t-52 13.5t-58 11.5q-42 8 -64.5 13t-58.5 15.5t-55.5 22.5t-40.5 30t-30.5 43t-9.5 56q-1 53 23.5 92.5t66 60.5t85.5 31t91 10q87 0 147.5 -24t108.5 -95z" />
    <glyph glyph-name="T" unicode="T" horiz-adv-x="590" 
d="M268 0v651h-253v48h560v-48h-253v-651h-54z" />
    <glyph glyph-name="U" unicode="U" horiz-adv-x="718" 
d="M574 700h53v-435q0 -66 -23 -119.5t-60.5 -86.5t-86 -51t-98.5 -18t-98.5 17.5t-86 50.5t-60.5 87t-23 120v435h53v-435q0 -54 18.5 -98t48.5 -71t69 -42t79 -15t79 15t69 42t48.5 71t18.5 98v435z" />
    <glyph glyph-name="V" unicode="V" horiz-adv-x="694" 
d="M606 700h58l-288 -702h-58l-288 702h58l259 -640z" />
    <glyph glyph-name="W" unicode="W" horiz-adv-x="1078" 
d="M309 60l215 640h30l214 -640l217 640h58l-247 -702h-58l-111 328l-88 277l-88 -275l-112 -330h-58l-245 702h57z" />
    <glyph glyph-name="X" unicode="X" horiz-adv-x="604" 
d="M302 400l213 299h58v-1l-238 -339l257 -358v-1h-64l-226 320l-226 -320h-64v1l257 358l-238 339v1h59z" />
    <glyph glyph-name="Y" unicode="Y" horiz-adv-x="659" 
d="M302 0v280l-273 419v1h63l237 -368l238 368h63v-1l-274 -419v-280h-54z" />
    <glyph glyph-name="Z" unicode="Z" horiz-adv-x="594" 
d="M50 650v50h507v-19l-451 -628h451v-53h-531v23l445 627h-421z" />
    <glyph glyph-name="bracketleft" unicode="[" horiz-adv-x="306" 
d="M91 -167v882h181v-48h-129v-786h129v-48h-181z" />
    <glyph glyph-name="backslash" unicode="\" horiz-adv-x="478" 
d="M451 -82h-52l-374 841h53z" />
    <glyph glyph-name="bracketright" unicode="]" horiz-adv-x="307" 
d="M216 716v-882h-181v48h129v786h-129v48h181z" />
    <glyph glyph-name="asciicircum" unicode="^" horiz-adv-x="580" 
d="M525 384l-2 -3h-52l-181 277l-181 -277h-52l-2 3l210 316h50z" />
    <glyph glyph-name="underscore" unicode="_" horiz-adv-x="614" 
d="M73 -72v46h468v-46h-468z" />
    <glyph glyph-name="grave" unicode="`" horiz-adv-x="234" 
d="M169 577h-48l-92 123v1h65l75 -120v-4z" />
    <glyph glyph-name="a" unicode="a" 
d="M501 494h49v-494h-49v105q-70 -113 -202 -113q-105 0 -178 72t-73 183t72.5 182t178.5 71q63 0 117.5 -29t84.5 -85v108zM299 453q-86 0 -144 -57.5t-58 -148.5t58 -149t144 -58q57 0 101 23t67 59t34 80t0 88.5t-34 80.5t-67 59t-101 23z" />
    <glyph glyph-name="b" unicode="b" 
d="M332 455q-87 0 -144.5 -58t-57.5 -149q0 -92 57 -150t145 -58q87 0 144.5 54t57.5 153q0 100 -57 154t-145 54zM81 700h48v-314q29 58 83.5 87t121.5 29q107 0 177.5 -68t70.5 -187t-70 -187t-177 -68q-64 0 -120 31t-86 86v-109h-48v700z" />
    <glyph glyph-name="c" unicode="c" horiz-adv-x="521" 
d="M449 99l33 -33q-74 -74 -180 -74q-107 0 -180.5 70.5t-73.5 184.5q0 115 72.5 185t181.5 70q104 0 180 -74l-31 -31q-59 59 -149 59q-87 0 -146.5 -56.5t-59.5 -152.5t59.5 -152.5t146.5 -56.5q86 0 147 61z" />
    <glyph glyph-name="d" unicode="d" 
d="M299 455q-88 0 -145 -54t-57 -154q0 -99 57.5 -153t144.5 -54q88 0 145 58t57 150q0 91 -57.5 149t-144.5 58zM502 700h48v-700h-48v109q-30 -55 -86 -86t-120 -31q-107 0 -177 68t-70 187t70.5 187t177.5 68q67 0 121.5 -29t83.5 -87v314z" />
    <glyph glyph-name="e" unicode="e" horiz-adv-x="587" 
d="M299 -8q-107 0 -179 70t-72 185q0 110 73 182.5t178 72.5q114 0 185.5 -71t58.5 -207h-445q7 -84 64.5 -134t136.5 -50q51 0 101 20t77 55l35 -28q-35 -46 -93 -70.5t-120 -24.5zM98 267h401q-1 90 -55 140t-145 50q-79 0 -136 -51t-65 -139z" />
    <glyph glyph-name="f" unicode="f" horiz-adv-x="358" 
d="M183 0h-48v447h-101v43h101v51q0 169 148 169q53 0 98 -34l-24 -36q-42 25 -76 25q-98 0 -98 -124v-51h163v-43h-163v-447z" />
    <glyph glyph-name="g" unicode="g" horiz-adv-x="606" 
d="M456 459l51 60l32 -28l-51 -60q33 -36 51 -73t18 -97q0 -71 -41 -133.5t-117 -80.5q70 -16 112 -57t42 -106q0 -85 -72.5 -133t-176.5 -48q-103 0 -173.5 53t-70.5 144h49q0 -72 57.5 -111t137.5 -39q83 0 142 33.5t59 100.5t-61 101.5t-140 34.5q-114 0 -184.5 64
t-70.5 177q0 112 78 176.5t177 64.5q91 0 152 -43zM304 456q-80 0 -143 -50.5t-63 -144.5q0 -96 57 -145.5t149 -49.5q91 0 148 57.5t57 137.5q0 96 -60 145.5t-145 49.5z" />
    <glyph glyph-name="h" unicode="h" horiz-adv-x="588" 
d="M81 700h47v-298q55 97 178 99q101 0 154 -59t53 -159v-283h-48v283q0 80 -39.5 125.5t-119.5 45.5q-77 0 -126.5 -52.5t-49.5 -130.5v-271h-49v700z" />
    <glyph glyph-name="i" unicode="i" horiz-adv-x="211" 
d="M130 496h-49v-496h49v496zM67 655q0 18 12.5 28.5t27 10.5t27 -10.5t12.5 -28.5t-12.5 -28.5t-27 -10.5t-27 10.5t-12.5 28.5z" />
    <glyph glyph-name="j" unicode="j" horiz-adv-x="210" 
d="M129 495h-48v-566q0 -60 -16 -91.5t-68 -31.5q-40 0 -75 20l-14 -42q45 -24 89 -24q76 0 104.5 44t27.5 125v566zM65 660q0 18 12.5 28.5t27 10.5t27 -10.5t12.5 -28.5t-12.5 -28.5t-27 -10.5t-27 10.5t-12.5 28.5z" />
    <glyph glyph-name="k" unicode="k" horiz-adv-x="464" 
d="M81 700h48v-422l233 216h65v-2l-250 -231l279 -258v-3h-62l-265 242v-242h-48v700z" />
    <glyph glyph-name="l" unicode="l" horiz-adv-x="225" 
d="M88 700h49v-700h-49v700z" />
    <glyph glyph-name="m" unicode="m" horiz-adv-x="937" 
d="M862 0h-49v296q0 71 -44 116.5t-114 45.5t-114.5 -46.5t-44.5 -118.5v-293h-49v293q0 72 -44.5 118t-114.5 46t-114 -46t-44 -118v-293h-49v494h46l1 -82q48 92 161 92q62 0 112.5 -30t70.5 -92q22 58 72.5 90t110.5 32q91 0 149 -58t58 -150v-296z" />
    <glyph glyph-name="n" unicode="n" horiz-adv-x="603" 
d="M81 494h48v-88q53 95 176 97q100 0 161.5 -58.5t61.5 -159.5v-285h-49v284q0 83 -47 127.5t-129 43.5q-76 -1 -124.5 -52t-48.5 -128v-275h-49v494z" />
    <glyph glyph-name="o" unicode="o" horiz-adv-x="598" 
d="M299 -8q-107 0 -179 69t-72 184t72 186t179 71t179 -71t72 -186t-72 -184t-179 -69zM299 40q87 0 145 56t58 149q0 94 -58.5 152.5t-144.5 58.5t-144.5 -58.5t-58.5 -152.5q0 -93 58 -149t145 -56z" />
    <glyph glyph-name="p" unicode="p" horiz-adv-x="632" 
d="M332 38q88 0 145 54.5t57 154.5t-57 153.5t-145 53.5q-86 0 -143 -58.5t-57 -149.5q0 -90 57.5 -149t142.5 -59zM128 -239h-47v733h48v-117q30 57 86.5 90.5t127.5 33.5q105 -4 172.5 -71.5t67.5 -182.5q0 -120 -71 -188t-180 -68q-65 0 -119 31.5t-85 91.5v-353z" />
    <glyph glyph-name="q" unicode="q" horiz-adv-x="632" 
d="M300 38q85 0 142.5 59t57.5 149q0 91 -57 149.5t-143 58.5q-88 0 -145 -53.5t-57 -153.5t57 -154.5t145 -54.5zM551 -239h-47v353q-31 -60 -85 -91.5t-119 -31.5q-109 0 -180 68t-71 188q0 115 67.5 182.5t172.5 71.5q71 0 127.5 -33.5t86.5 -90.5v117h48v-733z" />
    <glyph glyph-name="r" unicode="r" horiz-adv-x="403" 
d="M81 494h46l2 -88q22 47 67 70t97 23q56 2 106 -29l-22 -40q-37 23 -84 23q-69 -1 -116 -49t-47 -116v-288h-49v494z" />
    <glyph glyph-name="s" unicode="s" horiz-adv-x="501" 
d="M437 436l-30 -32q-59 52 -154 52q-63 1 -106.5 -22.5t-42.5 -68.5q0 -16 6.5 -28.5t20.5 -22t24.5 -15t33.5 -11t31.5 -7.5t33.5 -6q102 -17 138 -36q69 -34 66 -109q-1 -51 -35 -83.5t-76.5 -43.5t-91.5 -11q-68 0 -126.5 25.5t-89.5 73.5l36 32q29 -42 78.5 -63
t102.5 -21q36 0 67 6.5t58.5 29t28.5 58.5q1 21 -9 36.5t-22.5 25t-38 17t-42.5 11t-49 8.5q-37 6 -58 10.5t-50 14.5t-44.5 23t-27.5 34.5t-12 50.5q-1 68 56.5 103.5t139.5 34.5q114 0 184 -66z" />
    <glyph glyph-name="t" unicode="t" horiz-adv-x="376" 
d="M138 638l48 5v-149h168v-41h-168v-301q0 -57 18.5 -85.5t72.5 -28.5q34 0 76 20l17 -40q-52 -25 -93 -25q-75 0 -107 41t-32 118v301h-105v41h105v144z" />
    <glyph glyph-name="u" unicode="u" horiz-adv-x="602" 
d="M521 0h-48v89q-53 -95 -176 -97q-100 0 -161.5 58.5t-61.5 159.5v285h49v-284q0 -83 47 -127.5t129 -43.5q76 1 124.5 52t48.5 128v275h49v-495z" />
    <glyph glyph-name="v" unicode="v" horiz-adv-x="542" 
d="M244 0l-207 494h54l180 -437l180 437h54l-207 -494h-54z" />
    <glyph glyph-name="w" unicode="w" horiz-adv-x="822" 
d="M781 494l-175 -494h-54l-80 216l-60 192l-62 -193l-80 -215h-54l-176 494h54l149 -437l151 437h35l150 -437l148 437h54z" />
    <glyph glyph-name="x" unicode="x" horiz-adv-x="474" 
d="M90 494l147 -202l147 202h59v-2l-177 -236l191 -254v-2h-58l-162 221l-162 -221h-58v2l191 254l-177 236v2h59z" />
    <glyph glyph-name="y" unicode="y" horiz-adv-x="533" 
d="M446 494h53l-314 -733h-52l104 245l-198 488h53l115 -292l58 -143l57 144z" />
    <glyph glyph-name="z" unicode="z" horiz-adv-x="456" 
d="M46 450v44h372v-19l-312 -429h312v-46h-388v17l315 433h-299z" />
    <glyph glyph-name="braceleft" unicode="{" horiz-adv-x="304" 
d="M268 -87v-38q-90 -13 -121 17.5t-31 118.5v147q0 118 -79 118v39q79 0 79 118v135q0 87 33.5 120t118.5 17v-34q-64 10 -86 -12t-22 -91v-135q0 -20 -1 -33.5t-5 -32.5t-11 -31t-21 -23.5t-34 -16.5q24 -6 40 -20.5t22 -36t8 -39t2 -42.5v-147q0 -68 22 -88.5t86 -9.5z
" />
    <glyph glyph-name="bar" unicode="|" horiz-adv-x="236" 
d="M144 705v-823h-52v823h52z" />
    <glyph glyph-name="braceright" unicode="}" horiz-adv-x="303" 
d="M35 -131v38q64 -11 86 9.5t22 88.5v147q0 25 2 42.5t8 39t22 36t40 20.5q-20 5 -34 16.5t-21 23.5t-11 31t-5 32.5t-1 33.5v135q0 69 -22 91t-86 12v34q85 16 118.5 -17t33.5 -120v-135q0 -118 79 -118v-39q-79 0 -79 -118v-147q0 -88 -31 -118.5t-121 -17.5z" />
    <glyph glyph-name="asciitilde" unicode="~" horiz-adv-x="645" 
d="M570 334q-26 -69 -76 -90.5t-117 11.5l-109 63q-52 24 -92.5 7t-60.5 -63l-37 18q30 68 85 91.5t126 -11.5l102 -58q102 -55 138 48z" />
    <glyph glyph-name="exclamdown" unicode="&#xa1;" horiz-adv-x="220" 
d="M85 -201h51v559h-51v-559zM148 464q0 -18 -12.5 -28.5t-27 -10.5t-27 10.5t-12.5 28.5t12.5 28.5t27 10.5t27 -10.5t12.5 -28.5z" />
    <glyph glyph-name="cent" unicode="&#xa2;" horiz-adv-x="538" 
d="M328 -14v-71h-48v71q-101 9 -166 75t-65 176q0 106 65 174t166 77v60h48v-60q91 -10 156 -73l-34 -31q-62 60 -146 60q-89 0 -148 -54.5t-59 -152.5q0 -100 58.5 -153t148.5 -53q82 0 146 62l34 -35q-66 -64 -156 -72z" />
    <glyph glyph-name="sterling" unicode="&#xa3;" horiz-adv-x="644" 
d="M59 308v43h80q-27 101 -27 156q0 98 67.5 148.5t171.5 50.5q99 0 162 -42t64 -139h-46q0 52 -29 83.5t-66 41.5t-85 10q-86 0 -138 -39.5t-52 -113.5q0 -19 3 -41.5t6 -37t9.5 -41t8.5 -36.5h259v-43h-250q7 -46 7 -87.5t-21 -86.5t-64 -86h465v-48h-525v45q50 51 74 98
t24.5 85t-7.5 80h-91z" />
    <glyph glyph-name="currency" unicode="&#xa4;" horiz-adv-x="572" 
d="M505 514l-59 -59q43 -56 42.5 -130t-43.5 -129l60 -60l-35 -35l-61 60q-50 -37 -123 -37t-124 37l-60 -60l-35 35l60 60q-43 55 -43.5 129.5t42.5 129.5l-59 59l35 35l59 -60q52 39 125 39q72 0 124 -39l60 60zM286 171q42 0 74.5 17t49.5 44.5t25 60.5t0 66.5t-25 61
t-49.5 44.5t-74.5 17t-75 -17t-50 -44.5t-25 -60.5t0 -66.5t25 -61t50 -44.5t75 -17z" />
    <glyph glyph-name="yen" unicode="&#xa5;" horiz-adv-x="661" 
d="M149 167v41h154v63h-154v41h133l-252 387v1h61l239 -368l240 368h61v-1l-254 -387h139v-41h-160v-63h160v-41h-160v-167h-53v167h-154z" />
    <glyph glyph-name="brokenbar" unicode="&#xa6;" horiz-adv-x="238" 
d="M146 342h-54v364h54v-364zM92 275h54v-363h-54v363z" />
    <glyph glyph-name="section" unicode="&#xa7;" horiz-adv-x="540" 
d="M456 650l-30 -31q-59 51 -154 51q-62 1 -106 -22.5t-43 -66.5q1 -23 14 -40t39.5 -27t44.5 -14.5t51 -10.5q34 -5 57 -10t54.5 -16t50 -24.5t31.5 -36.5t12 -52q-3 -87 -102 -111q106 -32 102 -121q-1 -50 -35 -82t-76 -42.5t-92 -10.5q-68 0 -126.5 25t-89.5 72l36 31
q29 -41 78.5 -61.5t102.5 -20.5q26 0 49.5 4t48.5 13.5t40.5 28.5t16.5 46q1 31 -25 51t-48.5 25.5t-78.5 14.5q-7 1 -10 2q-191 30 -193 134q-1 37 24.5 70.5t68.5 48.5q-92 33 -93 113q-1 67 57 101.5t140 33.5q115 0 184 -65zM430 353q-1 32 -33 56t-78 31t-91 3t-76 -29
t-29 -65q1 -32 33 -55.5t77.5 -29.5t90.5 -1t76 29t30 61z" />
    <glyph glyph-name="dieresis" unicode="&#xa8;" horiz-adv-x="455" 
d="M64 678q0 18 12.5 28.5t27 10.5t27 -10.5t12.5 -28.5t-12.5 -28.5t-27 -10.5t-27 10.5t-12.5 28.5zM278 678q0 18 12.5 28.5t27 10.5t27 -10.5t12.5 -28.5t-12.5 -28.5t-27 -10.5t-27 10.5t-12.5 28.5z" />
    <glyph glyph-name="copyright" unicode="&#xa9;" horiz-adv-x="836" 
d="M418 713q167 0 264 -104.5t97 -260.5q0 -155 -97 -260t-264 -105q-168 0 -264.5 105t-96.5 260q0 156 96.5 260.5t264.5 104.5zM567 212l-35 37q-43 -43 -102 -43q-62 0 -103.5 42t-41.5 103t42 102.5t103 41.5q58 0 102 -42l35 36q-55 57 -137 57q-83 0 -139.5 -56
t-56.5 -139t56.5 -139.5t139.5 -56.5q82 0 137 57zM107 348q0 -138 83.5 -229t227.5 -91t227 91t83 229q0 139 -83 230t-227 91t-227.5 -91t-83.5 -230z" />
    <glyph glyph-name="ordfeminine" unicode="&#xaa;" horiz-adv-x="500" 
d="M366 639v62h44v-324h-44v63q-45 -67 -127 -67q-70 0 -117.5 45.5t-47.5 121.5t47.5 121t117.5 45q84 0 127 -67zM242 660q-50 0 -84 -33.5t-34 -86.5t34 -87t84 -34q45 0 76 25t38 60.5t0 70.5t-38 60t-76 25zM86 267v48h334v-48h-334z" />
    <glyph glyph-name="guillemotleft" unicode="&#xab;" horiz-adv-x="389" 
d="M50 297l138 219h52v-5l-135 -214l135 -214v-6h-52zM282 77l-138 220l138 219h52v-5l-135 -214l135 -214v-6h-52z" />
    <glyph glyph-name="logicalnot" unicode="&#xac;" horiz-adv-x="502" 
d="M424 362v-187h-50v136h-297v51h347z" />
    <glyph glyph-name="registered" unicode="&#xae;" horiz-adv-x="836" 
d="M418 713q168 0 264.5 -104.5t96.5 -260.5q0 -155 -96.5 -260t-264.5 -105q-167 0 -264 105t-97 260q0 156 97 260.5t264 104.5zM108 348q0 -138 83 -229t227 -91t227.5 91t83.5 229q0 139 -83.5 230t-227.5 91t-227 -91t-83 -230zM472 306q54 7 83.5 45.5t27.5 81.5
t-36 77.5t-92 34.5h-170v-383h47v144h83l125 -144h52v8zM332 348v151h123q31 0 51.5 -15.5t25.5 -37.5t-0.5 -44.5t-27 -38t-52.5 -15.5h-120z" />
    <glyph glyph-name="macron" unicode="&#xaf;" horiz-adv-x="394" 
d="M35 656v46h314v-46h-314z" />
    <glyph glyph-name="degree" unicode="&#xb0;" horiz-adv-x="325" 
d="M163 529q-50 0 -78.5 30.5t-28.5 67.5t28.5 67.5t78.5 30.5t78 -30.5t28 -67.5t-28 -67.5t-78 -30.5zM163 568q37 0 52 30t0 59.5t-52 29.5t-54 -29.5t-1.5 -59.5t55.5 -30z" />
    <glyph glyph-name="plusminus" unicode="&#xb1;" horiz-adv-x="526" 
d="M77 345v45h163v164h46v-164h162v-45h-162v-166h-46v166h-163zM85 47v47h358v-47h-358z" />
    <glyph glyph-name="twosuperior" unicode="&#xb2;" horiz-adv-x="358" 
d="M93 683h-46q0 106 135 106q56 0 94.5 -24t38.5 -82q0 -108 -132 -108q-33 0 -61.5 -15t-28.5 -53v-30h219v-49h-267v80q0 52 40.5 80.5t97.5 28.5q85 0 85 66q0 64 -87 64q-41 0 -64.5 -13t-23.5 -51z" />
    <glyph glyph-name="threesuperior" unicode="&#xb3;" horiz-adv-x="356" 
d="M179 593h-55v43h51q34 0 60 13.5t26 42.5q0 22 -23 39.5t-63 17.5q-32 0 -59.5 -15t-27.5 -50h-43q0 53 37.5 79t92.5 26t93.5 -25.5t38.5 -72.5q0 -30 -16 -50t-42 -27q30 -8 47.5 -31t17.5 -48q0 -110 -139 -110q-58 0 -96 25.5t-39 81.5h48q0 -62 88 -62q91 0 91 65
q0 21 -22 39.5t-66 18.5z" />
    <glyph glyph-name="acute" unicode="&#xb4;" horiz-adv-x="224" 
d="M87 577h-48v4l75 120h65v-1z" />
    <glyph glyph-name="mu" unicode="&#xb5;" horiz-adv-x="596" 
d="M489 70q-34 -60 -108.5 -81.5t-145.5 2.5t-95 82v-299h-51v717h49v-298q0 -63 35.5 -108.5t86.5 -57t102.5 -1.5t87 58.5t35.5 122.5v284h49v-491h-42z" />
    <glyph glyph-name="mu" unicode="&#x3bc;" horiz-adv-x="596" 
d="M489 70q-34 -60 -108.5 -81.5t-145.5 2.5t-95 82v-299h-51v717h49v-298q0 -63 35.5 -108.5t86.5 -57t102.5 -1.5t87 58.5t35.5 122.5v284h49v-491h-42z" />
    <glyph glyph-name="paragraph" unicode="&#xb6;" horiz-adv-x="782" 
d="M325 655v-871h-49v411q-68 0 -120.5 28t-79.5 72t-39 98t1.5 108t41.5 98t80.5 72t119.5 28h467v-44h-106v-871h-47v871h-269z" />
    <glyph glyph-name="periodcentered" unicode="&#xb7;" horiz-adv-x="225" 
d="M73 290q0 18 12.5 28.5t27 10.5t27 -10.5t12.5 -28.5t-12.5 -28.5t-27 -10.5t-27 10.5t-12.5 28.5z" />
    <glyph glyph-name="cedilla" unicode="&#xb8;" horiz-adv-x="296" 
d="M94 -71l-6 5l20 88h39l-13 -58q57 3 80.5 -28.5t13.5 -72.5q-9 -35 -38 -52.5t-65 -17.5q-74 0 -103 53l28 27q27 -39 75 -39q53 0 63 38q9 30 -16.5 49t-77.5 8z" />
    <glyph glyph-name="onesuperior" unicode="&#xb9;" horiz-adv-x="241" 
d="M38 427v41h63v260l-55 -14v44l103 23v-313h65v-41h-176z" />
    <glyph glyph-name="ordmasculine" unicode="&#xba;" horiz-adv-x="485" 
d="M83 260v48h319v-48h-319zM242 373q-70 0 -117.5 45.5t-47.5 121.5t47.5 121t117.5 45t117.5 -45t47.5 -121t-47.5 -121.5t-117.5 -45.5zM242 419q50 0 82.5 34t32.5 87t-32.5 86.5t-82.5 33.5t-82.5 -33.5t-32.5 -86.5t32.5 -87t82.5 -34z" />
    <glyph glyph-name="guillemotright" unicode="&#xbb;" horiz-adv-x="389" 
d="M339 298l-138 -220h-52v6l135 214l-135 214v5h52zM245 298l-138 -220h-52v6l135 214l-135 214v5h52z" />
    <glyph glyph-name="onequarter" unicode="&#xbc;" horiz-adv-x="717" 
d="M574 356h65v-233h42v-44h-42v-78h-45v78h-192l-3 37zM455 123h139v189zM194 -2h-53l371 705h54zM50 348v41h63v260l-55 -14v44l103 23v-313h65v-41h-176z" />
    <glyph glyph-name="onehalf" unicode="&#xbd;" horiz-adv-x="776" 
d="M508 255h-46q0 106 135 106q56 0 94.5 -24t38.5 -82q0 -108 -132 -108q-33 0 -61.5 -15t-28.5 -53v-37h216v-42h-264v80q0 52 40.5 80.5t97.5 28.5q85 0 85 66q0 64 -87 64q-41 0 -64.5 -13t-23.5 -51zM192 -2h-53l371 705h54zM50 349v41h63v260l-55 -14v44l103 23v-313
h65v-41h-176z" />
    <glyph glyph-name="threequarters" unicode="&#xbe;" horiz-adv-x="755" 
d="M611 356h65v-233h42v-44h-42v-78h-45v78h-192l-3 37zM492 123h139v189zM181 520h-54v42h50q33 0 59 13t26 42q0 22 -23 39t-62 17q-31 0 -58 -14.5t-27 -49.5h-42q0 52 36.5 77.5t90.5 25.5q55 0 92.5 -24.5t37.5 -71.5q0 -60 -57 -76q30 -7 47 -30t17 -47
q0 -59 -39 -83.5t-98 -24.5q-56 0 -93.5 25t-38.5 80h47q0 -61 86 -61q90 0 90 64q0 20 -22 38.5t-65 18.5zM247 -2h-53l371 705h54z" />
    <glyph glyph-name="questiondown" unicode="&#xbf;" horiz-adv-x="606" 
d="M574 -12h-52q0 -44 -20.5 -76.5t-54 -49t-68.5 -23.5t-73 -7q-219 0 -219 153q0 114 107 146q92 27 124.5 73.5t32.5 150.5h-50q0 -94 -20.5 -124.5t-99.5 -54.5q-60 -18 -102.5 -63.5t-42.5 -127.5q0 -46 16 -82t42 -58t62 -36t72.5 -19.5t77.5 -5.5q39 0 76 6.5
t72.5 22t61.5 38t42 58t16 79.5zM361 460q0 -25 -19.5 -35t-39 0t-19.5 35t19.5 35t39 0t19.5 -35z" />
    <glyph glyph-name="Agrave" unicode="&#xc0;" horiz-adv-x="739" 
d="M713 0h-58l-77 172h-418l-76 -172h-58l314 700h59zM181 222h376l-188 426zM397 772h-48l-92 123v1h65l75 -120v-4z" />
    <glyph glyph-name="Aacute" unicode="&#xc1;" horiz-adv-x="739" 
d="M655 0h58l-314 700h-59l-314 -700h58l76 172h418zM557 222h-376l188 426zM385 771h-48v4l75 120h65v-1z" />
    <glyph glyph-name="Acircumflex" unicode="&#xc2;" horiz-adv-x="739" 
d="M655 0h58l-314 700h-59l-314 -700h58l76 172h418zM557 222h-376l188 426zM207 766l142 132h40l142 -132v-7h-53l-109 96l-109 -96h-53v7z" />
    <glyph glyph-name="Atilde" unicode="&#xc3;" horiz-adv-x="739" 
d="M713 0h-58l-77 172h-418l-76 -172h-58l314 700h59zM181 222h376l-188 426zM278 785l-34 11q5 44 40.5 60.5t71.5 -2.5l41 -22q18 -10 36.5 -4t24.5 30l34 -11q-4 -45 -40 -61.5t-72 3.5l-41 22q-18 10 -36.5 3.5t-24.5 -29.5z" />
    <glyph glyph-name="Adieresis" unicode="&#xc4;" horiz-adv-x="739" 
d="M655 0h58l-314 700h-59l-314 -700h58l76 172h418zM557 222h-376l188 426zM224 811q0 18 12.5 28.5t27 10.5t27 -10.5t12.5 -28.5t-12.5 -28.5t-27 -10.5t-27 10.5t-12.5 28.5zM438 811q0 18 12.5 28.5t27 10.5t27 -10.5t12.5 -28.5t-12.5 -28.5t-27 -10.5t-27 10.5
t-12.5 28.5z" />
    <glyph glyph-name="Aring" unicode="&#xc5;" horiz-adv-x="739" 
d="M266 788q0 45 31 70.5t74 25.5t75 -25.5t32 -70.5q0 -37 -20.5 -62.5t-55.5 -33.5l311 -692h-58l-77 172h-418l-76 -172h-58l311 693q-71 18 -71 95zM181 222h376l-188 426zM370 846q-37 0 -52.5 -30t0 -59.5t52.5 -29.5q39 0 55 29.5t0 59.5t-55 30z" />
    <glyph glyph-name="AE" unicode="&#xc6;" horiz-adv-x="929" 
d="M498 651v-274h345v-49h-345v-277h379v-51h-429v248h-250l-147 -248h-62l426 700h448v-49h-365zM448 297v362h-5l-216 -362h221z" />
    <glyph glyph-name="Ccedilla" unicode="&#xc7;" horiz-adv-x="715" 
d="M370 -96l-6 5l21 84q-156 10 -242.5 110t-87.5 243q-1 96 38 177t123 133t199 52q150 0 255 -105l-37 -32q-89 89 -218 89q-147 0 -228 -89.5t-80 -222.5q2 -130 82.5 -218t225.5 -88q128 0 219 89l36 -34q-102 -102 -247 -105l-12 -53q57 3 81 -28.5t14 -72.5
q-9 -35 -38.5 -53.5t-65.5 -18.5q-32 0 -61 14t-43 40l29 28q27 -39 75 -39q53 0 63 38q9 30 -17 49t-78 8z" />
    <glyph glyph-name="Egrave" unicode="&#xc8;" horiz-adv-x="649" 
d="M152 649v-272h410v-49h-410v-276h442v-52h-495v700h483v-51h-430zM400 781h-48l-92 123v1h65l75 -120v-4z" />
    <glyph glyph-name="Eacute" unicode="&#xc9;" horiz-adv-x="649" 
d="M152 377v272h430v51h-483v-700h495v52h-442v276h410v49h-410zM356 778h-48v4l75 120h65v-1z" />
    <glyph glyph-name="Ecircumflex" unicode="&#xca;" horiz-adv-x="649" 
d="M152 377v272h430v51h-483v-700h495v52h-442v276h410v49h-410zM188 780l142 132h40l142 -132v-7h-53l-109 96l-109 -96h-53v7z" />
    <glyph glyph-name="Edieresis" unicode="&#xcb;" horiz-adv-x="649" 
d="M152 377v272h430v51h-483v-700h495v52h-442v276h410v49h-410zM210 818q0 18 12.5 28.5t27 10.5t27 -10.5t12.5 -28.5t-12.5 -28.5t-27 -10.5t-27 10.5t-12.5 28.5zM424 818q0 18 12.5 28.5t27 10.5t27 -10.5t12.5 -28.5t-12.5 -28.5t-27 -10.5t-27 10.5t-12.5 28.5z" />
    <glyph glyph-name="Igrave" unicode="&#xcc;" horiz-adv-x="251" 
d="M152 0h-53v700h53v-700zM157 778h-48l-92 123v1h65l75 -120v-4z" />
    <glyph glyph-name="Iacute" unicode="&#xcd;" horiz-adv-x="251" 
d="M99 0h53v700h-53v-700zM145 777h-48v4l75 120h65v-1z" />
    <glyph glyph-name="Icircumflex" unicode="&#xce;" horiz-adv-x="251" 
d="M99 0h53v700h-53v-700zM-24 767l128 131h36l127 -131v-7h-47l-98 95l-98 -95h-48v7z" />
    <glyph glyph-name="Idieresis" unicode="&#xcf;" horiz-adv-x="251" 
d="M6 810q0 18 12.5 28.5t27 10.5t27 -10.5t12.5 -28.5t-12.5 -28.5t-27 -10.5t-27 10.5t-12.5 28.5zM166 810q0 18 12.5 28.5t27 10.5t27 -10.5t12.5 -28.5t-12.5 -28.5t-27 -10.5t-27 10.5t-12.5 28.5zM99 0h53v700h-53v-700z" />
    <glyph glyph-name="Eth" unicode="&#xd0;" horiz-adv-x="752" 
d="M38 317v49h67v334h237q86 0 154.5 -29t111 -78t65 -109t24.5 -126q2 -68 -19.5 -131t-64 -114.5t-112.5 -82t-159 -30.5h-237v317h-67zM342 649h-183v-283h163v-49h-163v-265h183q146 0 224.5 91.5t76.5 214.5q-2 120 -80.5 205.5t-220.5 85.5z" />
    <glyph glyph-name="Ntilde" unicode="&#xd1;" horiz-adv-x="745" 
d="M99 700h23l471 -579v579h53v-700h-21l-472 578v-578h-54v700zM299 782l-34 11q5 44 40.5 60.5t71.5 -2.5l41 -22q18 -10 36.5 -4t24.5 30l34 -11q-4 -45 -40 -61.5t-72 3.5l-41 22q-18 10 -36.5 3.5t-24.5 -29.5z" />
    <glyph glyph-name="Ograve" unicode="&#xd2;" horiz-adv-x="814" 
d="M407 711q168 0 261 -105.5t92 -256.5q0 -70 -23 -134t-65.5 -115t-111 -81.5t-153.5 -30.5t-153.5 30.5t-111.5 82t-65.5 115.5t-22.5 135q0 97 38 177t120 131.5t195 51.5zM407 661q-144 0 -222.5 -89.5t-77.5 -221.5q1 -128 80 -220t220 -92q96 0 166 46t102.5 115
t32.5 151q0 130 -79 220.5t-222 90.5zM441 783h-48l-92 123v1h65l75 -120v-4z" />
    <glyph glyph-name="Oacute" unicode="&#xd3;" horiz-adv-x="814" 
d="M407 711q-113 0 -195 -51.5t-120 -131.5t-38 -177q0 -71 22.5 -135t65.5 -115.5t111.5 -82t153.5 -30.5t153.5 30.5t111 81.5t65.5 115t23 134q1 151 -92 256.5t-261 105.5zM407 661q143 0 222 -90.5t79 -220.5q0 -82 -32.5 -151t-102.5 -115t-166 -46q-141 0 -220 92
t-80 220q-1 132 77.5 221.5t222.5 89.5zM427 783h-48v4l75 120h65v-1z" />
    <glyph glyph-name="Ocircumflex" unicode="&#xd4;" horiz-adv-x="814" 
d="M407 711q-113 0 -195 -51.5t-120 -131.5t-38 -177q0 -71 22.5 -135t65.5 -115.5t111.5 -82t153.5 -30.5t153.5 30.5t111 81.5t65.5 115t23 134q1 151 -92 256.5t-261 105.5zM407 661q143 0 222 -90.5t79 -220.5q0 -82 -32.5 -151t-102.5 -115t-166 -46q-141 0 -220 92
t-80 220q-1 132 77.5 221.5t222.5 89.5zM252 786l142 132h40l142 -132v-7h-53l-109 96l-109 -96h-53v7z" />
    <glyph glyph-name="Otilde" unicode="&#xd5;" horiz-adv-x="814" 
d="M407 711q168 0 261 -105.5t92 -256.5q0 -70 -23 -134t-65.5 -115t-111 -81.5t-153.5 -30.5t-153.5 30.5t-111.5 82t-65.5 115.5t-22.5 135q0 97 38 177t120 131.5t195 51.5zM407 661q-144 0 -222.5 -89.5t-77.5 -221.5q1 -128 80 -220t220 -92q96 0 166 46t102.5 115
t32.5 151q0 130 -79 220.5t-222 90.5zM317 798l-34 11q5 44 40.5 60.5t71.5 -2.5l41 -22q18 -10 36.5 -4t24.5 30l34 -11q-4 -45 -40 -61.5t-72 3.5l-41 22q-18 10 -36.5 3.5t-24.5 -29.5z" />
    <glyph glyph-name="Odieresis" unicode="&#xd6;" horiz-adv-x="814" 
d="M407 711q-113 0 -195 -51.5t-120 -131.5t-38 -177q0 -71 22.5 -135t65.5 -115.5t111.5 -82t153.5 -30.5t153.5 30.5t111 81.5t65.5 115t23 134q1 151 -92 256.5t-261 105.5zM407 661q143 0 222 -90.5t79 -220.5q0 -82 -32.5 -151t-102.5 -115t-166 -46q-141 0 -220 92
t-80 220q-1 132 77.5 221.5t222.5 89.5zM272 822q0 18 12.5 28.5t27 10.5t27 -10.5t12.5 -28.5t-12.5 -28.5t-27 -10.5t-27 10.5t-12.5 28.5zM486 822q0 18 12.5 28.5t27 10.5t27 -10.5t12.5 -28.5t-12.5 -28.5t-27 -10.5t-27 10.5t-12.5 28.5z" />
    <glyph glyph-name="multiply" unicode="&#xd7;" horiz-adv-x="455" 
d="M73 447l31 31l124 -123l122 122l34 -33l-123 -123l124 -123l-31 -31l-124 123l-127 -127l-33 33l127 128z" />
    <glyph glyph-name="Oslash" unicode="&#xd8;" horiz-adv-x="814" 
d="M203 -79h-53l66 116q-79 48 -120.5 132t-41.5 182q0 97 38 177t120 131.5t195 51.5q96 0 170 -38l50 88h54l-64 -111q70 -49 106.5 -128.5t36.5 -172.5q0 -70 -23 -134t-65.5 -115t-111 -81.5t-153.5 -30.5q-79 0 -150 28zM407 661q-144 0 -222.5 -89.5t-77.5 -221.5
q0 -82 35 -153.5t100 -113.5l310 546q-66 32 -145 32zM407 38q96 0 166 46t102.5 115t32.5 151q0 77 -30 144t-86 110l-309 -543q55 -23 124 -23z" />
    <glyph glyph-name="Ugrave" unicode="&#xd9;" horiz-adv-x="718" 
d="M574 700h53v-435q0 -66 -23 -119.5t-60.5 -86.5t-86 -51t-98.5 -18t-98.5 17.5t-86 50.5t-60.5 87t-23 120v435h53v-435q0 -54 18.5 -98t48.5 -71t69 -42t79 -15t79 15t69 42t48.5 71t18.5 98v435zM402 774h-48l-92 123v1h65l75 -120v-4z" />
    <glyph glyph-name="Uacute" unicode="&#xda;" horiz-adv-x="718" 
d="M627 700h-53v-435q0 -54 -18.5 -98t-48.5 -71t-69 -42t-79 -15t-79 15t-69 42t-48.5 71t-18.5 98v435h-53v-435q0 -88 39.5 -152t99.5 -93t129 -29t129 29t99.5 93.5t39.5 151.5v435zM366 775h-48v4l75 120h65v-1z" />
    <glyph glyph-name="Ucircumflex" unicode="&#xdb;" horiz-adv-x="718" 
d="M627 700h-53v-435q0 -54 -18.5 -98t-48.5 -71t-69 -42t-79 -15t-79 15t-69 42t-48.5 71t-18.5 98v435h-53v-435q0 -88 39.5 -152t99.5 -93t129 -29t129 29t99.5 93.5t39.5 151.5v435zM197 775l142 132h40l142 -132v-7h-53l-109 96l-109 -96h-53v7z" />
    <glyph glyph-name="Udieresis" unicode="&#xdc;" horiz-adv-x="718" 
d="M627 700h-53v-435q0 -54 -18.5 -98t-48.5 -71t-69 -42t-79 -15t-79 15t-69 42t-48.5 71t-18.5 98v435h-53v-435q0 -88 39.5 -152t99.5 -93t129 -29t129 29t99.5 93.5t39.5 151.5v435zM213 819q0 18 12.5 28.5t27 10.5t27 -10.5t12.5 -28.5t-12.5 -28.5t-27 -10.5
t-27 10.5t-12.5 28.5zM427 819q0 18 12.5 28.5t27 10.5t27 -10.5t12.5 -28.5t-12.5 -28.5t-27 -10.5t-27 10.5t-12.5 28.5z" />
    <glyph glyph-name="Yacute" unicode="&#xdd;" horiz-adv-x="659" 
d="M302 280v-280h54v280l274 419v1h-63l-238 -368l-237 368h-63v-1zM337 777h-48v4l75 120h65v-1z" />
    <glyph glyph-name="Thorn" unicode="&#xde;" horiz-adv-x="673" 
d="M99 0v699h50v-122h257q55 0 99.5 -19.5t72 -52t42 -73.5t14.5 -84t-14.5 -84t-42 -73.5t-72 -52t-99.5 -19.5h-256v-119h-51zM406 527h-256v-359h256q48 0 85.5 20t57 51.5t28.5 70t0 76.5t-28.5 69.5t-57 51.5t-85.5 20z" />
    <glyph glyph-name="germandbls" unicode="&#xdf;" horiz-adv-x="595" 
d="M201 357v44h81q30 0 57 5.5t54 19t43.5 40.5t16.5 65q0 135 -163 135q-84 0 -121 -39.5t-40 -109.5v-517h-48v518q0 95 58.5 144t148.5 49q94 0 153.5 -44.5t59.5 -135.5q0 -54 -30.5 -94t-81.5 -53q158 -33 158 -201q0 -72 -33 -120t-85 -64.5t-111.5 -13t-116.5 26.5
v46q75 -32 141.5 -30.5t112 43t45.5 111.5q0 175 -214 175h-85z" />
    <glyph glyph-name="agrave" unicode="&#xe0;" 
d="M501 494h49v-494h-49v105q-70 -113 -202 -113q-105 0 -178 72t-73 183t72.5 182t178.5 71q63 0 117.5 -29t84.5 -85v108zM299 453q-86 0 -144 -57.5t-58 -148.5t58 -149t144 -58q57 0 101 23t67 59t34 80t0 88.5t-34 80.5t-67 59t-101 23zM350 584h-48l-92 123v1h65
l75 -120v-4z" />
    <glyph glyph-name="aacute" unicode="&#xe1;" 
d="M550 494h-49v-108q-30 56 -84.5 85t-117.5 29q-106 0 -178.5 -71t-72.5 -182t73 -183t178 -72q132 0 202 113v-105h49v494zM299 453q66 0 114 -30.5t70 -76.5t22 -99.5t-22 -99.5t-70 -76.5t-114 -30.5q-86 0 -144 58t-58 149t58 148.5t144 57.5zM316 582h-48v4l75 120
h65v-1z" />
    <glyph glyph-name="acircumflex" unicode="&#xe2;" 
d="M550 494h-49v-108q-30 56 -84.5 85t-117.5 29q-106 0 -178.5 -71t-72.5 -182t73 -183t178 -72q132 0 202 113v-105h49v494zM299 453q66 0 114 -30.5t70 -76.5t22 -99.5t-22 -99.5t-70 -76.5t-114 -30.5q-86 0 -144 58t-58 149t58 148.5t144 57.5zM147 571l142 132h40
l142 -132v-7h-53l-109 96l-109 -96h-53v7z" />
    <glyph glyph-name="atilde" unicode="&#xe3;" 
d="M501 494h49v-494h-49v105q-70 -113 -202 -113q-105 0 -178 72t-73 183t72.5 182t178.5 71q63 0 117.5 -29t84.5 -85v108zM299 453q-86 0 -144 -57.5t-58 -148.5t58 -149t144 -58q57 0 101 23t67 59t34 80t0 88.5t-34 80.5t-67 59t-101 23zM221 623l-34 11q5 44 40.5 60.5
t71.5 -2.5l41 -22q18 -10 36.5 -4t24.5 30l34 -11q-4 -45 -40 -61.5t-72 3.5l-41 22q-18 10 -36.5 3.5t-24.5 -29.5z" />
    <glyph glyph-name="adieresis" unicode="&#xe4;" 
d="M550 494h-49v-108q-30 56 -84.5 85t-117.5 29q-106 0 -178.5 -71t-72.5 -182t73 -183t178 -72q132 0 202 113v-105h49v494zM299 453q66 0 114 -30.5t70 -76.5t22 -99.5t-22 -99.5t-70 -76.5t-114 -30.5q-86 0 -144 58t-58 149t58 148.5t144 57.5zM172 668q0 18 12.5 28.5
t27 10.5t27 -10.5t12.5 -28.5t-12.5 -28.5t-27 -10.5t-27 10.5t-12.5 28.5zM386 668q0 18 12.5 28.5t27 10.5t27 -10.5t12.5 -28.5t-12.5 -28.5t-27 -10.5t-27 10.5t-12.5 28.5z" />
    <glyph glyph-name="aring" unicode="&#xe5;" 
d="M501 494h49v-494h-49v105q-70 -113 -202 -113q-105 0 -178 72t-73 183t72.5 182t178.5 71q63 0 117.5 -29t84.5 -85v108zM299 453q-86 0 -144 -57.5t-58 -148.5t58 -149t144 -58q57 0 101 23t67 59t34 80t0 88.5t-34 80.5t-67 59t-101 23zM208 652q0 43 30.5 67t73.5 24
t75 -24t32 -67q0 -44 -30.5 -69t-77.5 -25q-48 0 -75.5 25t-27.5 69zM311 707q-37 0 -52 -27.5t0 -55t52 -27.5q39 0 55 27.5t0 55t-55 27.5z" />
    <glyph glyph-name="ae" unicode="&#xe6;" horiz-adv-x="1033" 
d="M746 -7q-66 0 -119 28t-84 79v-100h-41v105q-70 -113 -203 -113q-105 0 -178 72t-73 183t72.5 182t178.5 71q63 0 119.5 -29.5t85.5 -84.5v108h41v-104q31 53 83.5 82.5t117.5 29.5q114 0 185.5 -71t58.5 -207h-447q7 -84 65 -133.5t138 -49.5q51 0 101 20t77 55l35 -28
q-35 -46 -93 -70.5t-120 -24.5zM299 453q-86 0 -144 -57.5t-58 -148.5t58 -149t144 -58q50 0 90.5 17.5t65 47t38 66.5t13.5 75.5t-13.5 75.5t-38 66.5t-65 47t-90.5 17.5zM543 267h403q-1 90 -55 140t-145 50q-79 0 -137 -51t-66 -139z" />
    <glyph glyph-name="ccedilla" unicode="&#xe7;" horiz-adv-x="523" 
d="M251 -88l-6 5l18 81q-93 12 -153.5 79t-60.5 170q0 115 72 183.5t182 68.5q104 0 180 -74l-32 -31q-59 59 -148 59q-88 0 -147 -55t-59 -151t59 -151t147 -55q86 0 147 61l33 -33q-74 -74 -180 -74h-1l-11 -48q57 3 80.5 -28.5t13.5 -72.5q-9 -35 -38 -52.5t-65 -17.5
q-74 0 -103 53l28 27q27 -39 75 -39q53 0 63 38q9 30 -16.5 49t-77.5 8z" />
    <glyph glyph-name="egrave" unicode="&#xe8;" horiz-adv-x="587" 
d="M299 -8q-107 0 -179 70t-72 185q0 110 73 182.5t178 72.5q114 0 185.5 -71t58.5 -207h-445q7 -84 64.5 -134t136.5 -50q51 0 101 20t77 55l35 -28q-35 -46 -93 -70.5t-120 -24.5zM98 267h401q-1 90 -55 140t-145 50q-79 0 -136 -51t-65 -139zM354 577h-48l-92 123v1h65
l75 -120v-4z" />
    <glyph glyph-name="eacute" unicode="&#xe9;" horiz-adv-x="587" 
d="M299 -8q62 0 120 24.5t93 70.5l-35 28q-27 -35 -77 -55t-101 -20q-79 0 -136.5 50t-64.5 134h445q13 136 -58.5 207t-185.5 71q-105 0 -178 -72.5t-73 -182.5q0 -115 72 -185t179 -70zM98 267q8 88 65 139t136 51q91 0 145 -50t55 -140h-401zM313 577h-48v4l75 120h65v-1
z" />
    <glyph glyph-name="ecircumflex" unicode="&#xea;" horiz-adv-x="587" 
d="M299 -8q62 0 120 24.5t93 70.5l-35 28q-27 -35 -77 -55t-101 -20q-79 0 -136.5 50t-64.5 134h445q13 136 -58.5 207t-185.5 71q-105 0 -178 -72.5t-73 -182.5q0 -115 72 -185t179 -70zM98 267q8 88 65 139t136 51q91 0 145 -50t55 -140h-401zM145 569l142 132h40
l142 -132v-7h-53l-109 96l-109 -96h-53v7z" />
    <glyph glyph-name="edieresis" unicode="&#xeb;" horiz-adv-x="587" 
d="M299 -8q62 0 120 24.5t93 70.5l-35 28q-27 -35 -77 -55t-101 -20q-79 0 -136.5 50t-64.5 134h445q13 136 -58.5 207t-185.5 71q-105 0 -178 -72.5t-73 -182.5q0 -115 72 -185t179 -70zM98 267q8 88 65 139t136 51q91 0 145 -50t55 -140h-401zM160 661q0 18 12.5 28.5
t27 10.5t27 -10.5t12.5 -28.5t-12.5 -28.5t-27 -10.5t-27 10.5t-12.5 28.5zM374 661q0 18 12.5 28.5t27 10.5t27 -10.5t12.5 -28.5t-12.5 -28.5t-27 -10.5t-27 10.5t-12.5 28.5z" />
    <glyph glyph-name="igrave" unicode="&#xec;" horiz-adv-x="211" 
d="M132 580h-46l-66 120v1h56l56 -117v-4zM81 496h49v-496h-49v496z" />
    <glyph glyph-name="iacute" unicode="&#xed;" horiz-adv-x="211" 
d="M122 580h-46v4l56 117h56v-1zM130 496h-49v-496h49v496z" />
    <glyph glyph-name="icircumflex" unicode="&#xee;" horiz-adv-x="211" 
d="M-4 581l98 120h31l93 -120v-7h-42l-67 84l-70 -84h-43v7zM130 496h-49v-496h49v496z" />
    <glyph glyph-name="idieresis" unicode="&#xef;" horiz-adv-x="211" 
d="M-1 658q0 23 18.5 32t37.5 0t19 -32t-18.5 -32t-37.5 0t-19 32zM137 658q0 23 18.5 32t37 0t18.5 -32t-18.5 -32t-37 0t-18.5 32zM130 496h-49v-496h49v496z" />
    <glyph glyph-name="eth" unicode="&#xf0;" horiz-adv-x="608" 
d="M380 716l32 -22l-46 -65q187 -125 190 -376q2 -118 -67.5 -191t-186.5 -73q-70 0 -124.5 27.5t-83 71.5t-41.5 97t0 106.5t41.5 97.5t83 71.5t124.5 27.5q103 0 185 -78q-31 104 -147 182l-42 -60l-32 22l41 59q-54 30 -104 43l14 42q68 -22 116 -49zM302 35
q56 0 100 22.5t66.5 58.5t33 79.5t0 87t-33 79.5t-66.5 58.5t-100 22.5t-100 -22.5t-66.5 -58.5t-33 -79.5t0 -87t33 -79.5t66.5 -58.5t100 -22.5z" />
    <glyph glyph-name="ntilde" unicode="&#xf1;" horiz-adv-x="603" 
d="M81 494h48v-88q53 95 176 97q100 0 161.5 -58.5t61.5 -159.5v-285h-49v284q0 83 -47 127.5t-129 43.5q-76 -1 -124.5 -52t-48.5 -128v-275h-49v494zM214 625l-34 10q5 41 40.5 56.5t70.5 -2.5l41 -21q18 -9 36.5 -3.5t24.5 27.5l34 -10q-4 -41 -40 -56.5t-72 2.5l-41 21
q-17 9 -35.5 3t-24.5 -27z" />
    <glyph glyph-name="ograve" unicode="&#xf2;" horiz-adv-x="598" 
d="M299 -8q-107 0 -179 69t-72 184t72 186t179 71t179 -71t72 -186t-72 -184t-179 -69zM299 40q87 0 145 56t58 149q0 94 -58.5 152.5t-144.5 58.5t-144.5 -58.5t-58.5 -152.5q0 -93 58 -149t145 -56zM340 586h-48l-92 119v1h65l75 -116v-4z" />
    <glyph glyph-name="oacute" unicode="&#xf3;" horiz-adv-x="598" 
d="M299 -8q107 0 179 69t72 184t-72 186t-179 71t-179 -71t-72 -186t72 -184t179 -69zM299 40q-87 0 -145 56t-58 149q0 94 58.5 152.5t144.5 58.5t144.5 -58.5t58.5 -152.5q0 -93 -58 -149t-145 -56zM313 580h-46v4l72 112h63v-1z" />
    <glyph glyph-name="ocircumflex" unicode="&#xf4;" horiz-adv-x="598" 
d="M299 -8q107 0 179 69t72 184t-72 186t-179 71t-179 -71t-72 -186t72 -184t179 -69zM299 40q-87 0 -145 56t-58 149q0 94 58.5 152.5t144.5 58.5t144.5 -58.5t58.5 -152.5q0 -93 -58 -149t-145 -56zM144 579l142 132h40l142 -132v-7h-53l-109 96l-109 -96h-53v7z" />
    <glyph glyph-name="otilde" unicode="&#xf5;" horiz-adv-x="598" 
d="M299 -8q-107 0 -179 69t-72 184t72 186t179 71t179 -71t72 -186t-72 -184t-179 -69zM299 40q87 0 145 56t58 149q0 94 -58.5 152.5t-144.5 58.5t-144.5 -58.5t-58.5 -152.5q0 -93 58 -149t145 -56zM214 622l-34 10q5 42 40.5 58.5t72.5 -2.5l41 -21q18 -10 36.5 -4
t24.5 29l34 -10q-4 -43 -40 -59.5t-72 3.5l-41 21q-18 9 -37 3t-25 -28z" />
    <glyph glyph-name="odieresis" unicode="&#xf6;" horiz-adv-x="598" 
d="M299 -8q107 0 179 69t72 184t-72 186t-179 71t-179 -71t-72 -186t72 -184t179 -69zM299 40q-87 0 -145 56t-58 149q0 94 58.5 152.5t144.5 58.5t144.5 -58.5t58.5 -152.5q0 -93 -58 -149t-145 -56zM158 643q0 18 12.5 28.5t27 10.5t27 -10.5t12.5 -28.5t-12.5 -28.5
t-27 -10.5t-27 10.5t-12.5 28.5zM372 643q0 18 12.5 28.5t27 10.5t27 -10.5t12.5 -28.5t-12.5 -28.5t-27 -10.5t-27 10.5t-12.5 28.5z" />
    <glyph glyph-name="divide" unicode="&#xf7;" horiz-adv-x="559" 
d="M78 359v-50h404v50h-404zM243 179q0 18 12.5 28.5t27 10.5t27 -10.5t12.5 -28.5t-12.5 -28.5t-27 -10.5t-27 10.5t-12.5 28.5zM243 484q0 18 12.5 28.5t27 10.5t27 -10.5t12.5 -28.5t-12.5 -28.5t-27 -10.5t-27 10.5t-12.5 28.5z" />
    <glyph glyph-name="oslash" unicode="&#xf8;" horiz-adv-x="599" 
d="M300 -7q-62 0 -110 22l-41 -69h-50l54 90q-104 69 -104 210q0 115 72 186t179 71q62 0 116 -26l37 62h51l-51 -85q98 -73 98 -208q0 -115 -72 -184t-179 -69zM300 457q-86 0 -144.5 -58.5t-58.5 -152.5q0 -112 81 -168l213 358q-44 21 -91 21zM300 41q87 0 145 56t58 149
q0 107 -75 167l-212 -356q36 -16 84 -16z" />
    <glyph glyph-name="ugrave" unicode="&#xf9;" horiz-adv-x="602" 
d="M521 0h-48v89q-53 -95 -176 -97q-100 0 -161.5 58.5t-61.5 159.5v285h49v-284q0 -83 47 -127.5t129 -43.5q76 1 124.5 52t48.5 128v275h49v-495zM345 577h-48l-92 123v1h65l75 -120v-4z" />
    <glyph glyph-name="uacute" unicode="&#xfa;" horiz-adv-x="602" 
d="M473 0h48v495h-49v-275q0 -77 -48.5 -128t-124.5 -52q-82 -1 -129 43.5t-47 127.5v284h-49v-285q0 -101 61.5 -159.5t161.5 -58.5q123 2 176 97v-89zM315 577h-48v4l75 120h65v-1z" />
    <glyph glyph-name="ucircumflex" unicode="&#xfb;" horiz-adv-x="602" 
d="M473 0h48v495h-49v-275q0 -77 -48.5 -128t-124.5 -52q-82 -1 -129 43.5t-47 127.5v284h-49v-285q0 -101 61.5 -159.5t161.5 -58.5q123 2 176 97v-89zM145 574l137 127h39l137 -127v-7h-51l-106 92l-105 -92h-51v7z" />
    <glyph glyph-name="udieresis" unicode="&#xfc;" horiz-adv-x="602" 
d="M473 0h48v495h-49v-275q0 -77 -48.5 -128t-124.5 -52q-82 -1 -129 43.5t-47 127.5v284h-49v-285q0 -101 61.5 -159.5t161.5 -58.5q123 2 176 97v-89zM160 661q0 18 12.5 28.5t27 10.5t27 -10.5t12.5 -28.5t-12.5 -28.5t-27 -10.5t-27 10.5t-12.5 28.5zM374 661
q0 18 12.5 28.5t27 10.5t27 -10.5t12.5 -28.5t-12.5 -28.5t-27 -10.5t-27 10.5t-12.5 28.5z" />
    <glyph glyph-name="yacute" unicode="&#xfd;" horiz-adv-x="533" 
d="M499 494h-53l-124 -291l-57 -144l-58 143l-115 292h-53l198 -488l-104 -245h52zM280 584h-45v4l70 113h62v-1z" />
    <glyph glyph-name="thorn" unicode="&#xfe;" horiz-adv-x="632" 
d="M128 -206h-47v905h46l1 -322q30 57 87 90.5t128 33.5q105 -4 172.5 -71.5t67.5 -182.5q0 -120 -71 -188t-180 -68q-65 0 -119 31.5t-85 91.5v-320zM332 38q88 0 145 54.5t57 154.5t-57 153.5t-145 53.5q-86 0 -143 -58.5t-57 -149.5q0 -90 57.5 -149t142.5 -59z" />
    <glyph glyph-name="ydieresis" unicode="&#xff;" horiz-adv-x="533" 
d="M499 494h-53l-124 -291l-57 -144l-58 143l-115 292h-53l198 -488l-104 -245h52zM134 667q0 24 19 33.5t37.5 0t18.5 -33.5q0 -23 -18.5 -32.5t-37.5 0t-19 32.5zM338 667q0 24 19 33.5t37.5 0t18.5 -33.5q0 -23 -18.5 -32.5t-37.5 0t-19 32.5z" />
    <glyph glyph-name="Amacron" unicode="&#x100;" horiz-adv-x="739" 
d="M713 0h-58l-77 172h-418l-76 -172h-58l314 700h59zM181 222h376l-188 426zM203 783v46h314v-46h-314z" />
    <glyph glyph-name="amacron" unicode="&#x101;" 
d="M501 494h49v-494h-49v105q-70 -113 -202 -113q-105 0 -178 72t-73 183t72.5 182t178.5 71q63 0 117.5 -29t84.5 -85v108zM299 453q-86 0 -144 -57.5t-58 -148.5t58 -149t144 -58q57 0 101 23t67 59t34 80t0 88.5t-34 80.5t-67 59t-101 23zM158 629v46h314v-46h-314z" />
    <glyph glyph-name="Abreve" unicode="&#x102;" horiz-adv-x="739" 
d="M713 0h-58l-77 172h-418l-76 -172h-58l314 700h59zM181 222h376l-188 426zM453 893h42q0 -58 -33.5 -90.5t-92.5 -32.5q-60 0 -93 32.5t-33 90.5h40q0 -83 86 -83q47 0 65.5 24.5t18.5 58.5z" />
    <glyph glyph-name="abreve" unicode="&#x103;" 
d="M501 494h49v-494h-49v105q-70 -113 -202 -113q-105 0 -178 72t-73 183t72.5 182t178.5 71q63 0 117.5 -29t84.5 -85v108zM299 453q-86 0 -144 -57.5t-58 -148.5t58 -149t144 -58q57 0 101 23t67 59t34 80t0 88.5t-34 80.5t-67 59t-101 23zM399 700h42q0 -58 -33.5 -90.5
t-92.5 -32.5q-60 0 -93 32.5t-33 90.5h40q0 -83 86 -83q47 0 65.5 24.5t18.5 58.5z" />
    <glyph glyph-name="Aogonek" unicode="&#x104;" horiz-adv-x="739" 
d="M640 -115q24 1 48 14t38 36l32 -18q-29 -61 -115 -70q-72 -7 -102.5 38t-2 94.5t100.5 54.5l-61 138h-418l-76 -172h-58l314 700h59l314 -700q-48 2 -69 -1q-46 -7 -65 -35.5t-1 -54t62 -24.5zM181 222h376l-188 426z" />
    <glyph glyph-name="aogonek" unicode="&#x105;" 
d="M299 453q-86 0 -144 -57.5t-58 -148.5t58 -149t144 -58q57 0 101 23t67 59t34 80t0 88.5t-34 80.5t-67 59t-101 23zM550 494v-524q-76 6 -101 -36q-19 -31 4 -56q18 -21 54 -19q24 1 48 14t38 36l32 -18q-15 -32 -47 -50t-68 -20q-52 -2 -81.5 23t-31 56.5t26 62
t77.5 38.5v104q-70 -113 -202 -113q-105 0 -178 72t-73 183t72.5 182t178.5 71q63 0 117.5 -29t84.5 -85v108h49z" />
    <glyph glyph-name="Cacute" unicode="&#x106;" horiz-adv-x="714" 
d="M669 97l-36 34q-91 -89 -219 -89q-145 0 -225.5 88t-82.5 218q-1 133 80 222.5t228 89.5q129 0 218 -89l37 32q-105 105 -255 105q-115 0 -199 -52t-123 -133t-38 -177q1 -150 96 -252t264 -102q150 0 255 105zM421 783h-46v4l71 114h62v-1z" />
    <glyph glyph-name="cacute" unicode="&#x107;" horiz-adv-x="521" 
d="M482 66l-33 33q-61 -61 -147 -61q-87 0 -146.5 56.5t-59.5 152.5t59.5 152.5t146.5 56.5q90 0 149 -59l31 31q-76 74 -180 74q-109 0 -181.5 -70t-72.5 -185q0 -114 73.5 -184.5t180.5 -70.5q106 0 180 74zM304 595h-42v4l65 102h55v-1z" />
    <glyph glyph-name="Ccircumflex" unicode="&#x108;" horiz-adv-x="714" 
d="M669 97l-36 34q-91 -89 -219 -89q-145 0 -225.5 88t-82.5 218q-1 133 80 222.5t228 89.5q129 0 218 -89l37 32q-105 105 -255 105q-115 0 -199 -52t-123 -133t-38 -177q1 -150 96 -252t264 -102q150 0 255 105zM259 788l137 127h39l137 -127v-7h-51l-106 92l-105 -92h-51
v7z" />
    <glyph glyph-name="ccircumflex" unicode="&#x109;" horiz-adv-x="521" 
d="M482 66l-33 33q-61 -61 -147 -61q-87 0 -146.5 56.5t-59.5 152.5t59.5 152.5t146.5 56.5q90 0 149 -59l31 31q-76 74 -180 74q-109 0 -181.5 -70t-72.5 -185q0 -114 73.5 -184.5t180.5 -70.5q106 0 180 74zM151 587l132 123h38l131 -123v-6h-49l-101 89l-101 -89h-50v6z
" />
    <glyph glyph-name="Cdotaccent" unicode="&#x10a;" horiz-adv-x="714" 
d="M669 97l-36 34q-91 -89 -219 -89q-145 0 -225.5 88t-82.5 218q-1 133 80 222.5t228 89.5q129 0 218 -89l37 32q-105 105 -255 105q-115 0 -199 -52t-123 -133t-38 -177q1 -150 96 -252t264 -102q150 0 255 105zM374 824q0 18 12.5 28.5t27 10.5t27 -10.5t12.5 -28.5
t-12.5 -28.5t-27 -10.5t-27 10.5t-12.5 28.5z" />
    <glyph glyph-name="cdotaccent" unicode="&#x10b;" horiz-adv-x="521" 
d="M482 66l-33 33q-61 -61 -147 -61q-87 0 -146.5 56.5t-59.5 152.5t59.5 152.5t146.5 56.5q90 0 149 -59l31 31q-76 74 -180 74q-109 0 -181.5 -70t-72.5 -185q0 -114 73.5 -184.5t180.5 -70.5q106 0 180 74zM261 652q0 23 18.5 32.5t37 0t18.5 -32.5t-18.5 -32t-37 0
t-18.5 32z" />
    <glyph glyph-name="Ccaron" unicode="&#x10c;" horiz-adv-x="714" 
d="M669 97l-36 34q-91 -89 -219 -89q-145 0 -225.5 88t-82.5 218q-1 133 80 222.5t228 89.5q129 0 218 -89l37 32q-105 105 -255 105q-115 0 -199 -52t-123 -133t-38 -177q1 -150 96 -252t264 -102q150 0 255 105zM550 900l-131 -122h-38l-132 122v7h50l101 -90l101 90h49
v-7z" />
    <glyph glyph-name="ccaron" unicode="&#x10d;" horiz-adv-x="521" 
d="M482 66l-33 33q-61 -61 -147 -61q-87 0 -146.5 56.5t-59.5 152.5t59.5 152.5t146.5 56.5q90 0 149 -59l31 31q-76 74 -180 74q-109 0 -181.5 -70t-72.5 -185q0 -114 73.5 -184.5t180.5 -70.5q106 0 180 74zM443 694l-130 -121h-37l-130 121v7h49l99 -89l100 89h49v-7z
" />
    <glyph glyph-name="Dcaron" unicode="&#x10e;" horiz-adv-x="746" 
d="M336 700h-237v-700h237q89 0 159 30.5t112.5 82t64 114.5t19.5 131q-2 66 -24.5 126t-65 109t-111 78t-154.5 29zM153 649h183q142 0 220.5 -85.5t80.5 -205.5q2 -123 -76.5 -214.5t-224.5 -91.5h-183v597zM476 900l-135 -126h-39l-136 126v7h51l104 -92l105 92h50v-7z
" />
    <glyph glyph-name="dcaron" unicode="&#x10f;" 
d="M299 455q-88 0 -145 -54t-57 -154q0 -99 57.5 -153t144.5 -54q88 0 145 58t57 150q0 91 -57.5 149t-144.5 58zM502 700h48v-700h-48v109q-30 -55 -86 -86t-120 -31q-107 0 -177 68t-70 187t70.5 187t177.5 68q67 0 121.5 -29t83.5 -87v314zM638 552h-39l40 149h50z" />
    <glyph glyph-name="Dcroat" unicode="&#x110;" horiz-adv-x="752" 
d="M40 327v47h65v326h237q86 0 154.5 -29t111 -78t65 -109t24.5 -126q2 -68 -19.5 -131t-64 -114.5t-112.5 -82t-159 -30.5h-237v327h-65zM342 649h-183v-275h145v-47h-145v-275h183q146 0 224.5 91.5t76.5 214.5q-2 120 -80.5 205.5t-220.5 85.5z" />
    <glyph glyph-name="dcroat" unicode="&#x111;" 
d="M502 700h48v-74h78v-40h-78v-586h-48v109q-30 -55 -86 -86t-120 -31q-107 0 -177 68t-70 187t70.5 187t177.5 68q67 0 121.5 -29t83.5 -87v200h-110v40h110v74zM299 455q-88 0 -145 -54t-57 -154q0 -99 57.5 -153t144.5 -54q88 0 145 58t57 150q0 91 -57.5 149t-144.5 58
z" />
    <glyph glyph-name="Emacron" unicode="&#x112;" horiz-adv-x="649" 
d="M152 649v-272h410v-49h-410v-276h442v-52h-495v700h483v-51h-430zM185 787v46h314v-46h-314z" />
    <glyph glyph-name="emacron" unicode="&#x113;" horiz-adv-x="587" 
d="M299 -8q-107 0 -179 70t-72 185q0 110 73 182.5t178 72.5q114 0 185.5 -71t58.5 -207h-445q7 -84 64.5 -134t136.5 -50q51 0 101 20t77 55l35 -28q-35 -46 -93 -70.5t-120 -24.5zM98 267h401q-1 90 -55 140t-145 50q-79 0 -136 -51t-65 -139zM148 652v42h307v-42h-307z
" />
    <glyph glyph-name="Ebreve" unicode="&#x114;" horiz-adv-x="649" 
d="M152 649v-272h410v-49h-410v-276h442v-52h-495v700h483v-51h-430zM438 898h42q0 -58 -33.5 -90.5t-92.5 -32.5q-60 0 -93 32.5t-33 90.5h40q0 -83 86 -83q47 0 65.5 24.5t18.5 58.5z" />
    <glyph glyph-name="ebreve" unicode="&#x115;" horiz-adv-x="587" 
d="M299 -8q-107 0 -179 70t-72 185q0 110 73 182.5t178 72.5q114 0 185.5 -71t58.5 -207h-445q7 -84 64.5 -134t136.5 -50q51 0 101 20t77 55l35 -28q-35 -46 -93 -70.5t-120 -24.5zM98 267h401q-1 90 -55 140t-145 50q-79 0 -136 -51t-65 -139zM383 700h42
q0 -58 -33.5 -90.5t-92.5 -32.5q-60 0 -93 32.5t-33 90.5h40q0 -83 86 -83q47 0 65.5 24.5t18.5 58.5z" />
    <glyph glyph-name="Edotaccent" unicode="&#x116;" horiz-adv-x="649" 
d="M152 377v272h430v51h-483v-700h495v52h-442v276h410v49h-410zM314 819q0 18 12.5 28.5t27 10.5t27 -10.5t12.5 -28.5t-12.5 -28.5t-27 -10.5t-27 10.5t-12.5 28.5z" />
    <glyph glyph-name="edotaccent" unicode="&#x117;" horiz-adv-x="587" 
d="M299 -8q62 0 120 24.5t93 70.5l-35 28q-27 -35 -77 -55t-101 -20q-79 0 -136.5 50t-64.5 134h445q13 136 -58.5 207t-185.5 71q-105 0 -178 -72.5t-73 -182.5q0 -115 72 -185t179 -70zM98 267q8 88 65 139t136 51q91 0 145 -50t55 -140h-401zM265 667q0 18 12.5 28.5
t27 10.5t27 -10.5t12.5 -28.5t-12.5 -28.5t-27 -10.5t-27 10.5t-12.5 28.5z" />
    <glyph glyph-name="Eogonek" unicode="&#x118;" horiz-adv-x="649" 
d="M594 0q-103 -5 -129 -54q-17 -31 10 -54q18 -15 48 -14q61 2 90 51l34 -18q-16 -35 -50.5 -57t-71.5 -24q-58 -2 -88.5 30.5t-19.5 74.5t57 65h-375v700h483v-51h-430v-272h410v-49h-410v-276h442v-52z" />
    <glyph glyph-name="eogonek" unicode="&#x119;" horiz-adv-x="587" 
d="M299 -7q-107 0 -179 69.5t-72 184.5q0 110 73 182.5t178 72.5q114 0 185.5 -71t58.5 -207h-445q7 -84 64.5 -133.5t136.5 -49.5q51 0 101 20t77 55l35 -28q-39 -51 -112 -78q-28 -14 -33.5 -40.5t14 -47t54.5 -19.5q24 1 48 14t38 36l32 -18q-15 -32 -48.5 -52.5
t-68.5 -22.5q-37 -2 -64 10.5t-38.5 33t-10.5 45.5t16 47q-33 -3 -40 -3zM98 267h401q-1 90 -55 140t-145 50q-79 0 -136 -51t-65 -139z" />
    <glyph glyph-name="Ecaron" unicode="&#x11a;" horiz-adv-x="649" 
d="M152 377v272h430v51h-483v-700h495v52h-442v276h410v49h-410zM512 900l-137 -127h-39l-136 127v7h51l105 -93l105 93h51v-7z" />
    <glyph glyph-name="ecaron" unicode="&#x11b;" horiz-adv-x="587" 
d="M299 -8q62 0 120 24.5t93 70.5l-35 28q-27 -35 -77 -55t-101 -20q-79 0 -136.5 50t-64.5 134h445q13 136 -58.5 207t-185.5 71q-105 0 -178 -72.5t-73 -182.5q0 -115 72 -185t179 -70zM98 267q8 88 65 139t136 51q91 0 145 -50t55 -140h-401zM455 694l-135 -125h-38
l-135 125v7h51l103 -91l104 91h50v-7z" />
    <glyph glyph-name="Gcircumflex" unicode="&#x11c;" horiz-adv-x="744" 
d="M641 571l31 34q-107 105 -256 105q-161 0 -261.5 -99.5t-99.5 -262.5q0 -98 39.5 -177.5t123 -129.5t198.5 -50q151 0 264 113v262h-295v-47h244v-196q-88 -81 -213 -81q-147 0 -228 88t-81 219q-1 130 81 221t228 91q61 0 120.5 -23t104.5 -67zM246 786l136 127h38
l135 -127v-6h-50l-104 92l-104 -92h-51v6z" />
    <glyph glyph-name="gcircumflex" unicode="&#x11d;" horiz-adv-x="606" 
d="M456 459l51 60l32 -28l-51 -60q33 -36 51 -73t18 -97q0 -71 -41 -133.5t-117 -80.5q70 -16 112 -57t42 -106q0 -85 -72.5 -133t-176.5 -48q-103 0 -173.5 53t-70.5 144h49q0 -72 57.5 -111t137.5 -39q83 0 142 33.5t59 100.5t-61 101.5t-140 34.5q-114 0 -184.5 64
t-70.5 177q0 112 78 176.5t177 64.5q91 0 152 -43zM304 456q-80 0 -143 -50.5t-63 -144.5q0 -96 57 -145.5t149 -49.5q91 0 148 57.5t57 137.5q0 96 -60 145.5t-145 49.5zM156 585l135 126h38l135 -126v-6h-50l-104 91l-103 -91h-51v6z" />
    <glyph glyph-name="Gbreve" unicode="&#x11e;" horiz-adv-x="744" 
d="M672 605l-31 -34q-45 44 -104.5 67t-120.5 23q-146 0 -228 -91t-81 -221q0 -131 81 -219t228 -88q125 0 213 81v196h-244v47h295v-262q-113 -113 -264 -113q-115 0 -198.5 50t-123 129.5t-39.5 177.5q-1 163 99.5 262.5t261.5 99.5q150 0 256 -105zM496 898h42
q0 -54 -34 -84.5t-93 -30.5q-60 0 -93.5 30.5t-33.5 84.5h41q0 -77 86 -77q47 0 66 22.5t19 54.5z" />
    <glyph glyph-name="gbreve" unicode="&#x11f;" horiz-adv-x="606" 
d="M456 459l51 60l32 -28l-51 -60q33 -36 51 -73t18 -97q0 -71 -41 -133.5t-117 -80.5q70 -16 112 -57t42 -106q0 -85 -72.5 -133t-176.5 -48q-103 0 -173.5 53t-70.5 144h49q0 -72 57.5 -111t137.5 -39q83 0 142 33.5t59 100.5t-61 101.5t-140 34.5q-114 0 -184.5 64
t-70.5 177q0 112 78 176.5t177 64.5q91 0 152 -43zM304 456q-80 0 -143 -50.5t-63 -144.5q0 -96 57 -145.5t149 -49.5q91 0 148 57.5t57 137.5q0 96 -60 145.5t-145 49.5zM392 710h42q0 -58 -33.5 -90.5t-92.5 -32.5q-60 0 -93 32.5t-33 90.5h40q0 -83 86 -83
q47 0 65.5 24.5t18.5 58.5z" />
    <glyph glyph-name="Gdotaccent" unicode="&#x120;" horiz-adv-x="744" 
d="M641 571l31 34q-107 105 -256 105q-161 0 -261.5 -99.5t-99.5 -262.5q0 -98 39.5 -177.5t123 -129.5t198.5 -50q151 0 264 113v262h-295v-47h244v-196q-88 -81 -213 -81q-147 0 -228 88t-81 219q-1 130 81 221t228 91q61 0 120.5 -23t104.5 -67zM374 817q0 24 20 33.5
t40.5 0t20.5 -33.5t-20.5 -33.5t-40.5 0t-20 33.5z" />
    <glyph glyph-name="gdotaccent" unicode="&#x121;" horiz-adv-x="606" 
d="M456 459l51 60l32 -28l-51 -60q33 -36 51 -73t18 -97q0 -71 -41 -133.5t-117 -80.5q70 -16 112 -57t42 -106q0 -85 -72.5 -133t-176.5 -48q-103 0 -173.5 53t-70.5 144h49q0 -72 57.5 -111t137.5 -39q83 0 142 33.5t59 100.5t-61 101.5t-140 34.5q-114 0 -184.5 64
t-70.5 177q0 112 78 176.5t177 64.5q91 0 152 -43zM304 456q-80 0 -143 -50.5t-63 -144.5q0 -96 57 -145.5t149 -49.5q91 0 148 57.5t57 137.5q0 96 -60 145.5t-145 49.5zM276 666q0 24 20 33.5t40.5 0t20.5 -33.5t-20.5 -33.5t-40.5 0t-20 33.5z" />
    <glyph glyph-name="Gcommaaccent" unicode="&#x122;" horiz-adv-x="744" 
d="M384 -123q0 18 12.5 28.5t27 10.5t27 -10.5t12.5 -28.5q0 -8 -3 -17l-36 -90h-43l27 71q-24 9 -24 36zM672 605l-31 -34q-45 44 -104.5 67t-120.5 23q-146 0 -228 -91t-81 -221q0 -131 81 -219t228 -88q125 0 213 81v196h-244v47h295v-262q-113 -113 -264 -113
q-115 0 -198.5 50t-123 129.5t-39.5 177.5q-1 163 99.5 262.5t261.5 99.5q150 0 256 -105z" />
    <glyph glyph-name="gcommaaccent" unicode="&#x123;" horiz-adv-x="606" 
d="M360 618q0 -18 -12.5 -28.5t-27 -10.5t-27 10.5t-12.5 28.5q0 8 3 17l36 90h43l-27 -71q24 -9 24 -36zM456 459l51 60l32 -28l-51 -60q33 -36 51 -73t18 -97q0 -71 -41 -133.5t-117 -80.5q70 -16 112 -57t42 -106q0 -85 -72.5 -133t-176.5 -48q-103 0 -173.5 53
t-70.5 144h49q0 -72 57.5 -111t137.5 -39q83 0 142 33.5t59 100.5t-61 101.5t-140 34.5q-114 0 -184.5 64t-70.5 177q0 112 78 176.5t177 64.5q91 0 152 -43zM304 456q-80 0 -143 -50.5t-63 -144.5q0 -96 57 -145.5t149 -49.5q91 0 148 57.5t57 137.5q0 96 -60 145.5
t-145 49.5z" />
    <glyph glyph-name="Hcircumflex" unicode="&#x124;" horiz-adv-x="752" 
d="M599 0h54v700h-54v-333h-446v333h-54v-700h54v318h446v-318zM226 778l138 129h39l138 -129v-7h-52l-106 94l-105 -94h-52v7z" />
    <glyph glyph-name="hcircumflex" unicode="&#x125;" horiz-adv-x="588" 
d="M128 700h-47v-700h49v271q0 78 49.5 130.5t126.5 52.5q80 0 119.5 -45.5t39.5 -125.5v-283h48v283q0 100 -53 159t-154 59q-123 -2 -178 -99v298zM135 772l136 127h38l137 -127v-7h-51l-105 92l-105 -92h-50v7z" />
    <glyph glyph-name="Hbar" unicode="&#x126;" horiz-adv-x="764" 
d="M659 0h-54v318h-446v-318h-54v531h-74v41h74v128h54v-128h446v128h54v-128h74v-41h-74v-531zM159 367h446v164h-446v-164z" />
    <glyph glyph-name="hbar" unicode="&#x127;" horiz-adv-x="588" 
d="M16 578v41h65v81h47v-81h127v-41h-127v-176q55 97 178 99q101 0 154 -59t53 -159v-283h-48v283q0 80 -39.5 125.5t-119.5 45.5q-77 0 -126.5 -52.5t-49.5 -130.5v-271h-49v578h-65z" />
    <glyph glyph-name="Itilde" unicode="&#x128;" horiz-adv-x="251" 
d="M152 0h-53v700h53v-700zM32 782l-33 11q5 42 40 58.5t70 -2.5l40 -21q17 -10 35 -4t24 29l33 -10q-4 -44 -39 -60t-70 3l-40 22q-17 9 -35.5 2.5t-24.5 -28.5z" />
    <glyph glyph-name="itilde" unicode="&#x129;" horiz-adv-x="211" 
d="M81 496h49v-496h-49v496zM32 638l-29 10q4 39 34 54t61 -2l35 -20q15 -9 31 -3.5t20 27.5l29 -10q-4 -40 -34 -55t-61 3l-34 20q-15 8 -31 2.5t-21 -26.5z" />
    <glyph glyph-name="Imacron" unicode="&#x12a;" horiz-adv-x="251" 
d="M152 0h-53v700h53v-700zM8 777v45h235v-45h-235z" />
    <glyph glyph-name="imacron" unicode="&#x12b;" horiz-adv-x="211" 
d="M81 496h49v-496h-49v496zM5 655v43h200v-43h-200z" />
    <glyph glyph-name="Ibreve" unicode="&#x12c;" horiz-adv-x="251" 
d="M205 885h39q3 -108 -117 -108q-59 0 -89 28t-28 81h39q0 -32 15.5 -51t62.5 -19q46 0 62 19t16 50zM152 0h-53v700h53v-700z" />
    <glyph glyph-name="ibreve" unicode="&#x12d;" horiz-adv-x="211" 
d="M81 496h49v-496h-49v496zM180 700h37q0 -54 -29.5 -85t-81.5 -31q-53 0 -82 31t-29 85h36q0 -78 75 -78q74 0 74 78z" />
    <glyph glyph-name="Iogonek" unicode="&#x12e;" horiz-adv-x="254" 
d="M154 700v-700q-67 -1 -80 -43q-11 -33 18 -56q18 -15 46 -14q58 2 85 46l32 -18q-15 -32 -47 -50t-68 -20q-48 -2 -78 21.5t-34.5 54t14.5 61.5t59 42v676h53z" />
    <glyph glyph-name="iogonek" unicode="&#x12f;" horiz-adv-x="214" 
d="M70 655q0 18 12.5 28.5t27 10.5t27 -10.5t12.5 -28.5t-12.5 -28.5t-27 -10.5t-27 10.5t-12.5 28.5zM133 496h-49v-473q-40 -12 -58 -42t-10 -62.5t37 -55.5q37 -30 89 -18.5t75 55.5l-30 17q-20 -26 -52.5 -32.5t-60.5 13.5q-18 15 -19.5 38.5t19.5 43t59 20.5v496z" />
    <glyph glyph-name="Idotaccent" unicode="&#x130;" horiz-adv-x="251" 
d="M99 0h53v700h-53v-700zM87 814q0 18 12.5 28.5t27 10.5t27 -10.5t12.5 -28.5t-12.5 -28.5t-27 -10.5t-27 10.5t-12.5 28.5z" />
    <glyph glyph-name="dotlessi" unicode="&#x131;" horiz-adv-x="211" 
d="M81 496h49v-496h-49v496z" />
    <glyph glyph-name="IJ" unicode="&#x132;" horiz-adv-x="924" 
d="M152 0h-53v700h53v-700zM780 264v389h-268v47h321v-436q0 -127 -77.5 -201t-199.5 -74q-120 0 -198 77t-78 198h50q0 -99 64 -162t162 -63q100 0 162 59.5t62 165.5z" />
    <glyph glyph-name="ij" unicode="&#x133;" horiz-adv-x="421" 
d="M130 496h-49v-496h49v496zM67 655q0 18 12.5 28.5t27 10.5t27 -10.5t12.5 -28.5t-12.5 -28.5t-27 -10.5t-27 10.5t-12.5 28.5zM340 495h-48v-566q0 -60 -16 -91.5t-68 -31.5q-40 0 -75 20l-14 -42q45 -24 89 -24q76 0 104.5 44t27.5 125v566zM276 660q0 18 12.5 28.5
t27 10.5t27 -10.5t12.5 -28.5t-12.5 -28.5t-27 -10.5t-27 10.5t-12.5 28.5z" />
    <glyph glyph-name="Jcircumflex" unicode="&#x134;" horiz-adv-x="673" 
d="M529 653v-389q0 -106 -62 -165.5t-162 -59.5q-98 0 -162 63t-64 162h-50q0 -121 78 -198t198 -77q122 0 199.5 74t77.5 201v436h-321v-47h268zM240 779l138 128h39l138 -128v-7h-52l-106 93l-105 -93h-52v7z" />
    <glyph glyph-name="jcircumflex" unicode="&#x135;" horiz-adv-x="210" 
d="M129 495h-48v-570q0 -60 -16 -91.5t-68 -31.5q-40 0 -75 20l-14 -42q45 -24 89 -24q76 0 104.5 44t27.5 125v570zM-19 575l112 126h31l111 -126v-6h-41l-86 91l-85 -91h-42v6z" />
    <glyph glyph-name="Kcommaaccent" unicode="&#x136;" horiz-adv-x="590" 
d="M285 -107q0 18 12.5 28.5t27 10.5t27 -10.5t12.5 -28.5q0 -8 -3 -17l-36 -90h-43l27 71q-24 9 -24 36zM588 4v-4h-68l-369 345v-344h-54v699h54v-319l340 319h65v-5l-352 -330z" />
    <glyph glyph-name="kcommaaccent" unicode="&#x137;" horiz-adv-x="464" 
d="M223 -109q0 23 18.5 32.5t37.5 0t19 -32.5q0 -9 -3 -16l-34 -86h-41l26 68q-23 7 -23 34zM81 700h48v-422l233 216h65v-2l-250 -231l279 -258v-3h-62l-265 242v-242h-48v700z" />
    <glyph glyph-name="kgreenlandic" unicode="&#x138;" horiz-adv-x="464" 
d="M81 495h48v-217l233 216h65v-2l-250 -231l279 -258v-3h-62l-265 242v-242h-48v495z" />
    <glyph glyph-name="Lacute" unicode="&#x139;" horiz-adv-x="564" 
d="M153 700h-54v-700h448v51h-394v649zM165 783h-45v4l71 112h60v-1z" />
    <glyph glyph-name="lacute" unicode="&#x13a;" horiz-adv-x="225" 
d="M137 700h-49v-700h49v700zM130 769h-42v4l66 105h57v-1z" />
    <glyph glyph-name="Lcommaaccent" unicode="&#x13b;" horiz-adv-x="564" 
d="M296 -118q0 18 12.5 28.5t27 10.5t27 -10.5t12.5 -28.5q0 -8 -3 -17l-36 -90h-43l27 71q-24 9 -24 36zM99 700h54v-649h394v-51h-448v700z" />
    <glyph glyph-name="lcommaaccent" unicode="&#x13c;" horiz-adv-x="225" 
d="M75 -118q0 23 18.5 32.5t37 0t18.5 -32.5q0 -7 -3 -16l-34 -84h-40l25 67q-22 7 -22 33zM88 700h49v-700h-49v700z" />
    <glyph glyph-name="Lcaron" unicode="&#x13d;" horiz-adv-x="565" 
d="M99 700h54v-649h394v-51h-448v700zM416 545h-40l41 153h52z" />
    <glyph glyph-name="lcaron" unicode="&#x13e;" horiz-adv-x="218" 
d="M88 700h49v-700h-49v700zM226 547h-40l41 154h52z" />
    <glyph glyph-name="Ldot" unicode="&#x13f;" horiz-adv-x="564" 
d="M99 700h54v-649h394v-51h-448v700zM309 297q0 18 12.5 28.5t27 10.5t27 -10.5t12.5 -28.5t-12.5 -28.5t-27 -10.5t-27 10.5t-12.5 28.5z" />
    <glyph glyph-name="ldot" unicode="&#x140;" horiz-adv-x="298" 
d="M88 700h49v-700h-49v700zM221 295q0 18 12.5 28.5t27 10.5t27 -10.5t12.5 -28.5t-12.5 -28.5t-27 -10.5t-27 10.5t-12.5 28.5z" />
    <glyph glyph-name="Lslash" unicode="&#x141;" horiz-adv-x="570" 
d="M105 700h54v-330l116 49v-50l-116 -48v-270h394v-51h-448v299l-70 -28v48l70 29v352z" />
    <glyph glyph-name="lslash" unicode="&#x142;" horiz-adv-x="255" 
d="M102 700h49v-333l81 33v-50l-81 -32v-318h-49v299l-72 -28v48l72 29v352z" />
    <glyph glyph-name="Nacute" unicode="&#x143;" horiz-adv-x="745" 
d="M122 700h-23v-700h54v578l472 -578h21v700h-53v-579zM382 777h-47v4l73 116h63v-1z" />
    <glyph glyph-name="nacute" unicode="&#x144;" horiz-adv-x="603" 
d="M129 494h-48v-494h49v275q0 77 48.5 128t124.5 52q82 1 129 -43.5t47 -127.5v-284h49v285q0 101 -61.5 159.5t-161.5 58.5q-123 -2 -176 -97v88zM306 584h-45v4l70 113h62v-1z" />
    <glyph glyph-name="Ncommaaccent" unicode="&#x145;" horiz-adv-x="745" 
d="M339 -115q0 18 12.5 28.5t27 10.5t27 -10.5t12.5 -28.5q0 -8 -3 -17l-36 -90h-43l27 71q-24 9 -24 36zM99 700h23l471 -579v579h53v-700h-21l-472 578v-578h-54v700z" />
    <glyph glyph-name="ncommaaccent" unicode="&#x146;" horiz-adv-x="603" 
d="M273 -110q0 23 18.5 32t36.5 0t18 -32q0 -9 -3 -16l-33 -84h-40l25 66q-22 9 -22 34zM81 494h48v-88q53 95 176 97q100 0 161.5 -58.5t61.5 -159.5v-285h-49v284q0 83 -47 127.5t-129 43.5q-76 -1 -124.5 -52t-48.5 -128v-275h-49v494z" />
    <glyph glyph-name="Ncaron" unicode="&#x147;" horiz-adv-x="745" 
d="M122 700h-23v-700h54v578l472 -578h21v700h-53v-579zM530 900l-135 -125h-38l-135 125v7h51l103 -91l104 91h50v-7z" />
    <glyph glyph-name="ncaron" unicode="&#x148;" horiz-adv-x="603" 
d="M129 494h-48v-494h49v275q0 77 48.5 128t124.5 52q82 1 129 -43.5t47 -127.5v-284h49v285q0 101 -61.5 159.5t-161.5 58.5q-123 -2 -176 -97v88zM454 699l-133 -123h-38l-132 123v7h49l102 -90l102 90h50v-7z" />
    <glyph glyph-name="napostrophe" unicode="&#x149;" horiz-adv-x="603" 
d="M81 494h48v-88q53 95 176 97q100 0 161.5 -58.5t61.5 -159.5v-285h-49v284q0 83 -47 127.5t-129 43.5q-76 -1 -124.5 -52t-48.5 -128v-275h-49v494z" />
    <glyph glyph-name="Eng" unicode="&#x14a;" horiz-adv-x="745" 
d="M99 700h23l471 -583v583h53v-728q1 -81 -27.5 -125t-104.5 -44q-39 0 -84 24l14 42q35 -20 70 -20q52 0 69 31.5t17 91.5v58l-447 548v-578h-54v700z" />
    <glyph glyph-name="eng" unicode="&#x14b;" horiz-adv-x="603" 
d="M528 285v-306q1 -81 -27.5 -125t-104.5 -44q-35 0 -80 24l14 42q35 -20 66 -20q27 0 44.5 9t25.5 28t10.5 38t2.5 48v305q0 83 -47 127.5t-129 43.5q-76 -1 -124.5 -52t-48.5 -128v-275h-49v494h48v-88q53 95 176 97q100 0 161.5 -58.5t61.5 -159.5z" />
    <glyph glyph-name="Omacron" unicode="&#x14c;" horiz-adv-x="814" 
d="M407 711q168 0 261 -105.5t92 -256.5q0 -70 -23 -134t-65.5 -115t-111 -81.5t-153.5 -30.5t-153.5 30.5t-111.5 82t-65.5 115.5t-22.5 135q0 97 38 177t120 131.5t195 51.5zM407 661q-144 0 -222.5 -89.5t-77.5 -221.5q1 -128 80 -220t220 -92q96 0 166 46t102.5 115
t32.5 151q0 130 -79 220.5t-222 90.5zM247 799v46h314v-46h-314z" />
    <glyph glyph-name="omacron" unicode="&#x14d;" horiz-adv-x="598" 
d="M299 -8q-107 0 -179 69t-72 184t72 186t179 71t179 -71t72 -186t-72 -184t-179 -69zM299 40q87 0 145 56t58 149q0 94 -58.5 152.5t-144.5 58.5t-144.5 -58.5t-58.5 -152.5q0 -93 58 -149t145 -56zM154 644v42h287v-42h-287z" />
    <glyph glyph-name="Obreve" unicode="&#x14e;" horiz-adv-x="814" 
d="M407 711q168 0 261 -105.5t92 -256.5q0 -70 -23 -134t-65.5 -115t-111 -81.5t-153.5 -30.5t-153.5 30.5t-111.5 82t-65.5 115.5t-22.5 135q0 97 38 177t120 131.5t195 51.5zM407 661q-144 0 -222.5 -89.5t-77.5 -221.5q1 -128 80 -220t220 -92q96 0 166 46t102.5 115
t32.5 151q0 130 -79 220.5t-222 90.5zM488 894h42q0 -52 -33.5 -81.5t-92.5 -29.5q-60 0 -92.5 29t-32.5 82h40q0 -75 85 -75q84 0 84 75z" />
    <glyph glyph-name="obreve" unicode="&#x14f;" horiz-adv-x="598" 
d="M299 -8q-107 0 -179 69t-72 184t72 186t179 71t179 -71t72 -186t-72 -184t-179 -69zM299 40q87 0 145 56t58 149q0 94 -58.5 152.5t-144.5 58.5t-144.5 -58.5t-58.5 -152.5q0 -93 58 -149t145 -56zM383 700h42q0 -55 -33.5 -86.5t-91.5 -31.5q-60 0 -92 31t-32 87h39
q0 -80 85 -80q46 0 64.5 23.5t18.5 56.5z" />
    <glyph glyph-name="Ohungarumlaut" unicode="&#x150;" horiz-adv-x="814" 
d="M407 711q-113 0 -195 -51.5t-120 -131.5t-38 -177q0 -71 22.5 -135t65.5 -115.5t111.5 -82t153.5 -30.5t153.5 30.5t111 81.5t65.5 115t23 134q1 151 -92 256.5t-261 105.5zM407 661q143 0 222 -90.5t79 -220.5q0 -82 -32.5 -151t-102.5 -115t-166 -46q-141 0 -220 92
t-80 220q-1 132 77.5 221.5t222.5 89.5zM358 786h-46v4l69 104h62v-1zM484 786h-46v4l69 104h63v-1z" />
    <glyph glyph-name="ohungarumlaut" unicode="&#x151;" horiz-adv-x="598" 
d="M299 -8q107 0 179 69t72 184t-72 186t-179 71t-179 -71t-72 -186t72 -184t179 -69zM299 40q-87 0 -145 56t-58 149q0 94 58.5 152.5t144.5 58.5t144.5 -58.5t58.5 -152.5q0 -93 -58 -149t-145 -56zM247 595h-45v3l67 91h59v-1zM368 595h-44v3l66 91h59v-1z" />
    <glyph glyph-name="OE" unicode="&#x152;" horiz-adv-x="950" 
d="M522 652v-275h340v-49h-340v-280h377v-48h-423q-37 -5 -69 -5q-85 0 -153.5 29.5t-111.5 79.5t-65.5 113t-22.5 134q0 97 38 175.5t119.5 129t195.5 50.5q38 0 71 -6h406v-48h-362zM407 664q-97 0 -166.5 -44.5t-102 -114.5t-31.5 -155q1 -128 80 -219t220 -91q36 0 69 6
v612q-33 6 -69 6z" />
    <glyph glyph-name="oe" unicode="&#x153;" horiz-adv-x="1025" 
d="M742 -7q-76 0 -135 40t-85 106q-27 -70 -85.5 -108t-136.5 -38q-107 0 -179 69t-72 184t72 186t179 71q78 0 136.5 -40t85.5 -111q27 67 86 108.5t134 41.5q113 0 183 -70.5t57 -207.5q-290 0 -438 -1q7 -84 63 -133t135 -49q51 0 99 20t75 55l35 -28
q-35 -46 -91.5 -70.5t-117.5 -24.5zM300 41q86 0 143.5 55.5t57.5 149.5t-57.5 152.5t-143.5 58.5t-144.5 -58.5t-58.5 -152.5q0 -93 58 -149t145 -56zM544 267h394q-1 90 -53.5 140t-142.5 50q-79 0 -134.5 -51t-63.5 -139z" />
    <glyph glyph-name="Racute" unicode="&#x154;" horiz-adv-x="700" 
d="M410 268q109 0 168.5 61.5t58.5 152.5q-1 89 -61.5 153.5t-168.5 64.5h-308v-700h54v265h191l242 -265h71zM153 316v334h254q82 0 127 -50t44 -117q-1 -77 -45 -122t-132 -45h-248zM350 783h-46v4l72 115h62v-1z" />
    <glyph glyph-name="racute" unicode="&#x155;" horiz-adv-x="403" 
d="M127 494h-46v-494h49v288q0 68 47 116t116 49q47 0 84 -23l22 40q-50 31 -106 29q-52 0 -97 -23t-67 -70zM241 591h-42v3l66 107h58v-1z" />
    <glyph glyph-name="Rcommaaccent" unicode="&#x156;" horiz-adv-x="700" 
d="M319 -115q0 18 12.5 28.5t27 10.5t27 -10.5t12.5 -28.5q0 -8 -3 -17l-36 -90h-43l27 71q-24 9 -24 36zM410 268l247 -268h-71l-242 265h-191v-265h-54v700h308q108 0 168.5 -64.5t61.5 -153.5q1 -91 -58.5 -152.5t-168.5 -61.5zM153 650v-334h248q88 0 132 45t45 122
q1 67 -44 117t-127 50h-254z" />
    <glyph glyph-name="rcommaaccent" unicode="&#x157;" horiz-adv-x="403" 
d="M70 -113q0 23 18.5 32.5t37 0t18.5 -32.5q0 -4 -2 -16l-34 -85h-41l25 67q-22 9 -22 34zM81 494h46l2 -88q22 47 67 70t97 23q56 2 106 -29l-22 -40q-37 23 -84 23q-69 -1 -116 -49t-47 -116v-288h-49v494z" />
    <glyph glyph-name="Rcaron" unicode="&#x158;" horiz-adv-x="700" 
d="M410 268q109 0 168.5 61.5t58.5 152.5q-1 89 -61.5 153.5t-168.5 64.5h-308v-700h54v265h191l242 -265h71zM153 316v334h254q82 0 127 -50t44 -117q-1 -77 -45 -122t-132 -45h-248zM491 900l-135 -125h-38l-135 125v7h51l103 -91l104 91h50v-7z" />
    <glyph glyph-name="rcaron" unicode="&#x159;" horiz-adv-x="403" 
d="M127 494h-46v-494h49v288q0 68 47 116t116 49q47 0 84 -23l22 40q-50 31 -106 29q-52 0 -97 -23t-67 -70zM384 697l-126 -123h-36l-126 123v7h47l97 -90l97 90h47v-7z" />
    <glyph glyph-name="Sacute" unicode="&#x15a;" horiz-adv-x="657" 
d="M543 565l44 26q-48 71 -108.5 95t-147.5 24q-47 0 -91 -10t-85.5 -31t-66 -60.5t-23.5 -92.5q0 -31 9.5 -56t30.5 -43t40.5 -30t55.5 -22.5t58.5 -15.5t64.5 -13q38 -7 58 -11.5t52 -13.5t49.5 -19t36 -25t26.5 -35.5t8 -45.5q0 -44 -22 -75t-58 -46t-71 -21t-72 -6
q-70 0 -139.5 33.5t-99.5 93.5l-48 -24q38 -75 118 -113.5t169 -38.5q49 0 93.5 9t87.5 29.5t69.5 61t26.5 96.5q0 43 -15 75t-40.5 52t-60.5 34t-72.5 22.5t-78.5 16.5q-5 1 -8 1q-43 8 -68.5 13.5t-57 16.5t-48 23.5t-28.5 32.5t-12 46q0 52 37.5 86t82 45t92.5 11
q72 -1 124.5 -20t87.5 -75zM347 783h-47v4l74 119h65v-1z" />
    <glyph glyph-name="sacute" unicode="&#x15b;" horiz-adv-x="501" 
d="M407 404l30 32q-70 66 -184 66q-82 1 -139.5 -34.5t-56.5 -103.5q0 -29 12 -50.5t27.5 -34.5t44.5 -23t50 -14.5t58 -10.5q32 -5 49 -8.5t42.5 -11t38 -17t22.5 -25t9 -36.5q-1 -36 -28.5 -58.5t-58.5 -29t-67 -6.5q-53 0 -102.5 21t-78.5 63l-36 -32q31 -48 89.5 -73.5
t126.5 -25.5q49 0 91.5 11t76.5 43.5t35 83.5q1 32 -11 56t-28.5 37.5t-47.5 24.5t-50.5 15t-54.5 10q-8 1 -12 2q-25 4 -33.5 6t-31.5 7.5t-33.5 11t-24.5 15t-20.5 22t-6.5 28.5q-1 45 42.5 68.5t106.5 22.5q95 0 154 -52zM261 587h-44v4l69 110h60z" />
    <glyph glyph-name="Scircumflex" unicode="&#x15c;" horiz-adv-x="657" 
d="M543 565l44 26q-48 71 -108.5 95t-147.5 24q-47 0 -91 -10t-85.5 -31t-66 -60.5t-23.5 -92.5q0 -31 9.5 -56t30.5 -43t40.5 -30t55.5 -22.5t58.5 -15.5t64.5 -13q38 -7 58 -11.5t52 -13.5t49.5 -19t36 -25t26.5 -35.5t8 -45.5q0 -44 -22 -75t-58 -46t-71 -21t-72 -6
q-70 0 -139.5 33.5t-99.5 93.5l-48 -24q38 -75 118 -113.5t169 -38.5q49 0 93.5 9t87.5 29.5t69.5 61t26.5 96.5q0 43 -15 75t-40.5 52t-60.5 34t-72.5 22.5t-78.5 16.5q-5 1 -8 1q-43 8 -68.5 13.5t-57 16.5t-48 23.5t-28.5 32.5t-12 46q0 52 37.5 86t82 45t92.5 11
q72 -1 124.5 -20t87.5 -75zM180 790l142 132h40l142 -132v-7h-53l-109 96l-109 -96h-53v7z" />
    <glyph glyph-name="scircumflex" unicode="&#x15d;" horiz-adv-x="501" 
d="M407 404l30 32q-70 66 -184 66q-82 1 -139.5 -34.5t-56.5 -103.5q0 -29 12 -50.5t27.5 -34.5t44.5 -23t50 -14.5t58 -10.5q32 -5 49 -8.5t42.5 -11t38 -17t22.5 -25t9 -36.5q-1 -36 -28.5 -58.5t-58.5 -29t-67 -6.5q-53 0 -102.5 21t-78.5 63l-36 -32q31 -48 89.5 -73.5
t126.5 -25.5q49 0 91.5 11t76.5 43.5t35 83.5q1 32 -11 56t-28.5 37.5t-47.5 24.5t-50.5 15t-54.5 10q-8 1 -12 2q-25 4 -33.5 6t-31.5 7.5t-33.5 11t-24.5 15t-20.5 22t-6.5 28.5q-1 45 42.5 68.5t106.5 22.5q95 0 154 -52zM107 578l132 123h38l131 -123v-6h-49l-101 89
l-101 -89h-50v6z" />
    <glyph glyph-name="Scedilla" unicode="&#x15e;" horiz-adv-x="657" 
d="M309 -96l-6 5l18 80q-88 2 -164 40.5t-113 111.5l48 24q30 -60 99.5 -93.5t139.5 -33.5q37 0 72 6t71 21t58 46t22 75q0 25 -8 45.5t-26.5 35.5t-36 25t-49.5 19t-52 13.5t-58 11.5q-42 8 -64.5 13t-58.5 15.5t-55.5 22.5t-40.5 30t-30.5 43t-9.5 56q-1 53 23.5 92.5
t66 60.5t85.5 31t91 10q87 0 147.5 -24t108.5 -95l-44 -26q-35 56 -87.5 75t-124.5 20q-48 0 -92.5 -11t-82 -45t-37.5 -86q0 -26 12 -46t28.5 -32.5t48 -23.5t57 -16.5t68.5 -13.5q131 -25 179 -49q96 -47 96 -152q0 -52 -22.5 -90.5t-60 -59.5t-78.5 -32t-87 -13l-11 -51
q57 3 80.5 -28.5t13.5 -72.5q-9 -35 -38 -52.5t-65 -17.5q-74 0 -103 53l28 27q27 -39 75 -39q53 0 63 38q9 30 -16.5 49t-77.5 8z" />
    <glyph glyph-name="scedilla" unicode="&#x15f;" horiz-adv-x="501" 
d="M233 -83l-6 5l20 70q-66 2 -122 27.5t-86 71.5l36 32q58 -84 181 -84q36 0 67 6.5t58.5 29t28.5 58.5q1 21 -9 36.5t-22.5 25t-38 17t-42.5 11t-49 8.5q-37 6 -58 10.5t-50 14.5t-44.5 23t-27.5 34.5t-12 50.5q-1 68 56.5 103.5t139.5 34.5q114 0 184 -66l-30 -32
q-59 52 -154 52q-63 1 -106.5 -22.5t-42.5 -68.5q0 -16 6.5 -28.5t20.5 -22t24.5 -15t33.5 -11t31.5 -7.5t33.5 -6q102 -17 138 -36q69 -34 66 -109q-2 -67 -52.5 -99.5t-123.5 -37.5l-11 -45q55 3 77.5 -25t13.5 -64q-9 -30 -37 -46t-62 -16q-71 0 -99 47l27 24
q25 -34 72 -34q51 0 60 33q9 27 -15.5 43.5t-74.5 6.5z" />
    <glyph glyph-name="Scaron" unicode="&#x160;" horiz-adv-x="657" 
d="M543 565l44 26q-48 71 -108.5 95t-147.5 24q-47 0 -91 -10t-85.5 -31t-66 -60.5t-23.5 -92.5q0 -31 9.5 -56t30.5 -43t40.5 -30t55.5 -22.5t58.5 -15.5t64.5 -13q38 -7 58 -11.5t52 -13.5t49.5 -19t36 -25t26.5 -35.5t8 -45.5q0 -44 -22 -75t-58 -46t-71 -21t-72 -6
q-70 0 -139.5 33.5t-99.5 93.5l-48 -24q38 -75 118 -113.5t169 -38.5q49 0 93.5 9t87.5 29.5t69.5 61t26.5 96.5q0 43 -15 75t-40.5 52t-60.5 34t-72.5 22.5t-78.5 16.5q-5 1 -8 1q-43 8 -68.5 13.5t-57 16.5t-48 23.5t-28.5 32.5t-12 46q0 52 37.5 86t82 45t92.5 11
q72 -1 124.5 -20t87.5 -75zM503 910l-142 -132h-40l-142 132v7h53l109 -96l109 96h53v-7z" />
    <glyph glyph-name="scaron" unicode="&#x161;" horiz-adv-x="501" 
d="M407 404l30 32q-70 66 -184 66q-82 1 -139.5 -34.5t-56.5 -103.5q0 -29 12 -50.5t27.5 -34.5t44.5 -23t50 -14.5t58 -10.5q32 -5 49 -8.5t42.5 -11t38 -17t22.5 -25t9 -36.5q-1 -36 -28.5 -58.5t-58.5 -29t-67 -6.5q-53 0 -102.5 21t-78.5 63l-36 -32q31 -48 89.5 -73.5
t126.5 -25.5q49 0 91.5 11t76.5 43.5t35 83.5q1 32 -11 56t-28.5 37.5t-47.5 24.5t-50.5 15t-54.5 10q-8 1 -12 2q-25 4 -33.5 6t-31.5 7.5t-33.5 11t-24.5 15t-20.5 22t-6.5 28.5q-1 45 42.5 68.5t106.5 22.5q95 0 154 -52zM401 697l-129 -120h-36l-128 120v6h47l99 -87
l99 87h48v-6z" />
    <glyph glyph-name="Tcommaaccent" unicode="&#x162;" horiz-adv-x="590" 
d="M258 -74l-6 5l16 70v650h-253v48h560v-48h-253v-651h-16l-8 -39q57 3 80.5 -28.5t13.5 -72.5q-9 -35 -38 -52.5t-65 -17.5q-74 0 -103 53l28 27q27 -39 75 -39q53 0 63 38q9 30 -16.5 49t-77.5 8z" />
    <glyph glyph-name="tcommaaccent" unicode="&#x163;" horiz-adv-x="376" 
d="M206 -87l-6 5l19 83q-81 26 -81 151v301h-105v41h105v144l48 5v-149h168v-41h-168v-301q0 -57 18.5 -85.5t72.5 -28.5q34 0 76 20l17 -40q-52 -25 -93 -25q-16 0 -22 1l-11 -47q58 5 84 -22t15 -68q-9 -32 -39 -48t-67 -16q-74 0 -104 49l28 24q28 -35 76 -35q55 0 65 35
q9 27 -16.5 42.5t-79.5 4.5z" />
    <glyph glyph-name="Tcaron" unicode="&#x164;" horiz-adv-x="590" 
d="M268 651v-651h54v651h253v48h-560v-48h253zM460 900l-142 -132h-40l-142 132v7h53l109 -96l109 96h53v-7z" />
    <glyph glyph-name="tcaron" unicode="&#x165;" horiz-adv-x="373" 
d="M126 638l48 5v-149h116v-41h-116v-301q0 -57 18.5 -85.5t72.5 -28.5q34 0 76 20l17 -40q-52 -25 -93 -25q-75 0 -107 41t-32 118v301h-93v41h93v144zM377 493h-39l40 151h51z" />
    <glyph glyph-name="Tbar" unicode="&#x166;" horiz-adv-x="600" 
d="M143 308v42h130v301h-253v48h560v-48h-253v-301h130v-42h-130v-308h-54v308h-130z" />
    <glyph glyph-name="tbar" unicode="&#x167;" horiz-adv-x="376" 
d="M57 269v37h81v147h-105v41h105v144l48 5v-149h168v-41h-168v-147h125v-37h-125v-117q0 -57 18.5 -85.5t72.5 -28.5q34 0 76 20l17 -40q-52 -25 -93 -25q-75 0 -107 41t-32 118v117h-81z" />
    <glyph glyph-name="Utilde" unicode="&#x168;" horiz-adv-x="718" 
d="M574 700h53v-435q0 -66 -23 -119.5t-60.5 -86.5t-86 -51t-98.5 -18t-98.5 17.5t-86 50.5t-60.5 87t-23 120v435h53v-435q0 -54 18.5 -98t48.5 -71t69 -42t79 -15t79 15t69 42t48.5 71t18.5 98v435zM278 783l-34 10q5 42 40.5 58.5t71.5 -2.5l41 -21q18 -10 36.5 -4
t24.5 29l34 -10q-4 -43 -40 -59.5t-72 3.5l-41 21q-18 9 -36.5 3t-24.5 -28z" />
    <glyph glyph-name="utilde" unicode="&#x169;" horiz-adv-x="602" 
d="M521 0h-48v89q-53 -95 -176 -97q-100 0 -161.5 58.5t-61.5 159.5v285h49v-284q0 -83 47 -127.5t129 -43.5q76 1 124.5 52t48.5 128v275h49v-495zM217 631l-34 10q5 40 40.5 55.5t71.5 -2.5l41 -20q18 -9 36.5 -3.5t24.5 27.5l34 -10q-4 -41 -40 -56t-72 3l-41 20
q-18 9 -36.5 3t-24.5 -27z" />
    <glyph glyph-name="Umacron" unicode="&#x16a;" horiz-adv-x="718" 
d="M574 700h53v-435q0 -66 -23 -119.5t-60.5 -86.5t-86 -51t-98.5 -18t-98.5 17.5t-86 50.5t-60.5 87t-23 120v435h53v-435q0 -54 18.5 -98t48.5 -71t69 -42t79 -15t79 15t69 42t48.5 71t18.5 98v435zM217 781v44h297v-44h-297z" />
    <glyph glyph-name="umacron" unicode="&#x16b;" horiz-adv-x="602" 
d="M521 0h-48v89q-53 -95 -176 -97q-100 0 -161.5 58.5t-61.5 159.5v285h49v-284q0 -83 47 -127.5t129 -43.5q76 1 124.5 52t48.5 128v275h49v-495zM161 657v41h282v-41h-282z" />
    <glyph glyph-name="Ubreve" unicode="&#x16c;" horiz-adv-x="718" 
d="M574 700h53v-435q0 -66 -23 -119.5t-60.5 -86.5t-86 -51t-98.5 -18t-98.5 17.5t-86 50.5t-60.5 87t-23 120v435h53v-435q0 -54 18.5 -98t48.5 -71t69 -42t79 -15t79 15t69 42t48.5 71t18.5 98v435zM452 893h42q0 -58 -33.5 -90.5t-92.5 -32.5q-60 0 -93 32.5t-33 90.5h40
q0 -83 86 -83q47 0 65.5 24.5t18.5 58.5z" />
    <glyph glyph-name="ubreve" unicode="&#x16d;" horiz-adv-x="602" 
d="M521 0h-48v89q-53 -95 -176 -97q-100 0 -161.5 58.5t-61.5 159.5v285h49v-284q0 -83 47 -127.5t129 -43.5q76 1 124.5 52t48.5 128v275h49v-495zM387 700h41q0 -55 -33 -86.5t-90 -31.5q-59 0 -91 31t-32 87h39q0 -80 84 -80q82 0 82 80z" />
    <glyph glyph-name="Uring" unicode="&#x16e;" horiz-adv-x="718" 
d="M574 700h53v-435q0 -66 -23 -119.5t-60.5 -86.5t-86 -51t-98.5 -18t-98.5 17.5t-86 50.5t-60.5 87t-23 120v435h53v-435q0 -54 18.5 -98t48.5 -71t69 -42t79 -15t79 15t69 42t48.5 71t18.5 98v435zM260 829q0 41 29 63.5t70 22.5t70.5 -22.5t29.5 -63.5t-28.5 -65
t-72.5 -24q-45 0 -71.5 24t-26.5 65zM358 881q-35 0 -49.5 -26t0 -52t49.5 -26q37 0 52 26t0 52t-52 26z" />
    <glyph glyph-name="uring" unicode="&#x16f;" horiz-adv-x="602" 
d="M521 0h-48v89q-53 -95 -176 -97q-100 0 -161.5 58.5t-61.5 159.5v285h49v-284q0 -83 47 -127.5t129 -43.5q76 1 124.5 52t48.5 128v275h49v-495zM207 633q0 40 28.5 62.5t67.5 22.5t68 -22.5t29 -62.5t-27.5 -63t-70.5 -23t-69 23t-26 63zM302 684q-34 0 -48 -25t0 -50.5
t48 -25.5q36 0 50.5 25.5t0 50.5t-50.5 25z" />
    <glyph glyph-name="Uhungarumlaut" unicode="&#x170;" horiz-adv-x="718" 
d="M627 700h-53v-435q0 -54 -18.5 -98t-48.5 -71t-69 -42t-79 -15t-79 15t-69 42t-48.5 71t-18.5 98v435h-53v-435q0 -88 39.5 -152t99.5 -93t129 -29t129 29t99.5 93.5t39.5 151.5v435zM306 774h-46v4l70 106h62v-1zM434 774h-46v4l69 106h63v-1z" />
    <glyph glyph-name="uhungarumlaut" unicode="&#x171;" horiz-adv-x="602" 
d="M473 0h48v495h-49v-275q0 -77 -48.5 -128t-124.5 -52q-82 -1 -129 43.5t-47 127.5v284h-49v-285q0 -101 61.5 -159.5t161.5 -58.5q123 2 176 97v-89zM239 597h-44v4l66 100h60v-1zM361 597h-45v4l67 100h60v-1z" />
    <glyph glyph-name="Uogonek" unicode="&#x172;" horiz-adv-x="719" 
d="M574 700h53v-435q0 -100 -49 -166.5t-127 -93.5q-33 -14 -40 -44t15 -53t61 -22q25 1 51.5 15.5t42.5 39.5l34 -20q-16 -35 -50.5 -54.5t-74.5 -21.5q-77 -3 -108.5 47t-1.5 99q-73 -5 -137.5 22.5t-108 93.5t-43.5 158v435h53v-435q0 -54 18.5 -98t48.5 -71t69 -42
t79 -15t79 15t69 42t48.5 71t18.5 98v435z" />
    <glyph glyph-name="uogonek" unicode="&#x173;" horiz-adv-x="602" 
d="M521 495v-534q-84 5 -107 -36q-17 -30 10 -55q20 -18 54 -17q24 1 48 14t38 36l32 -18q-15 -32 -47 -50t-68 -20q-42 -1 -70.5 15.5t-36 41t-1.5 50t33.5 45t68.5 22.5v100q-53 -95 -178 -97q-100 0 -161.5 58.5t-61.5 159.5v285h49v-284q0 -83 47 -127.5t129 -43.5
q76 1 124.5 52t48.5 128v275h49z" />
    <glyph glyph-name="Wcircumflex" unicode="&#x174;" horiz-adv-x="1078" 
d="M524 700l-215 -640l-216 640h-57l245 -702h58l112 330l88 275l88 -277l111 -328h58l247 702h-58l-217 -640l-214 640h-30zM380 786l140 129h39l139 -129v-7h-52l-107 94l-107 -94h-52v7z" />
    <glyph glyph-name="wcircumflex" unicode="&#x175;" horiz-adv-x="822" 
d="M606 0l175 494h-54l-148 -437l-150 437h-35l-151 -437l-149 437h-54l176 -494h54l80 215l62 193l60 -192l80 -216h54zM255 574l136 127h39l137 -127v-7h-51l-105 92l-105 -92h-51v7z" />
    <glyph glyph-name="Ycircumflex" unicode="&#x176;" horiz-adv-x="659" 
d="M302 280v-280h54v280l274 419v1h-63l-238 -368l-237 368h-63v-1zM175 784l136 127h39l135 -127v-6h-50l-105 92l-104 -92h-51v6z" />
    <glyph glyph-name="ycircumflex" unicode="&#x177;" horiz-adv-x="533" 
d="M499 494h-53l-124 -291l-57 -144l-58 143l-115 292h-53l198 -488l-104 -245h52zM118 577l132 124h38l133 -124v-6h-50l-102 89l-102 -89h-49v6z" />
    <glyph glyph-name="Ydieresis" unicode="&#x178;" horiz-adv-x="659" 
d="M302 280v-280h54v280l274 419v1h-63l-238 -368l-237 368h-63v-1zM192 808q0 24 19 33.5t37.5 0t18.5 -33.5q0 -23 -18.5 -32.5t-37.5 0t-19 32.5zM396 808q0 24 19 33.5t37.5 0t18.5 -33.5q0 -23 -18.5 -32.5t-37.5 0t-19 32.5z" />
    <glyph glyph-name="Zacute" unicode="&#x179;" horiz-adv-x="594" 
d="M50 700v-50h421l-445 -627v-23h531v53h-451l451 628v19h-507zM301 783h-48v4l75 120h65v-1z" />
    <glyph glyph-name="zacute" unicode="&#x17a;" horiz-adv-x="456" 
d="M46 494v-44h299l-315 -433v-17h388v46h-312l312 429v19h-372zM240 585h-45v4l71 112h60v-1z" />
    <glyph glyph-name="Zdotaccent" unicode="&#x17b;" horiz-adv-x="594" 
d="M50 700v-50h421l-445 -627v-23h531v53h-451l451 628v19h-507zM269 826q0 18 12.5 28.5t27 10.5t27 -10.5t12.5 -28.5t-12.5 -28.5t-27 -10.5t-27 10.5t-12.5 28.5z" />
    <glyph glyph-name="zdotaccent" unicode="&#x17c;" horiz-adv-x="456" 
d="M46 494v-44h299l-315 -433v-17h388v46h-312l312 429v19h-372zM206 653q0 18 12.5 28.5t27 10.5t27 -10.5t12.5 -28.5t-12.5 -28.5t-27 -10.5t-27 10.5t-12.5 28.5z" />
    <glyph glyph-name="Zcaron" unicode="&#x17d;" horiz-adv-x="594" 
d="M50 700v-50h421l-445 -627v-23h531v53h-451l451 628v19h-507zM473 910l-142 -132h-40l-142 132v7h53l109 -96l109 96h53v-7z" />
    <glyph glyph-name="zcaron" unicode="&#x17e;" horiz-adv-x="456" 
d="M46 494v-44h299l-315 -433v-17h388v46h-312l312 429v19h-372zM391 694l-128 -120h-36l-128 120v6h48l98 -87l99 87h47v-6z" />
    <glyph glyph-name="longs" unicode="&#x17f;" horiz-adv-x="284" 
d="M183 0h-48v447h-101v43h101v44q0 169 148 169q53 0 98 -34l-24 -36q-42 25 -76 25q-98 0 -98 -124v-534z" />
    <glyph glyph-name="florin" unicode="&#x192;" horiz-adv-x="425" 
d="M159 -1v448h-101v43h101v44q0 169 148 169q53 0 98 -34l-24 -36q-42 25 -76 25q-98 0 -98 -124v-44h163v-43h-163v-448q0 -82 -29.5 -126t-105.5 -44q-47 0 -94 35l23 34q31 -25 73 -25q46 0 65.5 30t19.5 96z" />
    <glyph glyph-name="Aringacute" unicode="&#x1fa;" horiz-adv-x="739" 
d="M557 222h-376l188 426zM369 788q35 0 49.5 -21t0 -42t-49.5 -21q-34 0 -47.5 21t0 42t47.5 21zM275 748q0 -53 55 -71l-304 -677h58l76 172h418l77 -172h58l-304 677q56 19 56 71q0 36 -28.5 56.5t-67.5 20.5q-38 0 -66 -21t-28 -56zM389 848h-50v3l78 81h68v-1z" />
    <glyph glyph-name="aringacute" unicode="&#x1fb;" 
d="M550 494h-49v-108q-30 56 -84.5 85t-117.5 29q-106 0 -178.5 -71t-72.5 -182t73 -183t178 -72q132 0 202 113v-105h49v494zM299 453q66 0 114 -30.5t70 -76.5t22 -99.5t-22 -99.5t-70 -76.5t-114 -30.5q-86 0 -144 58t-58 149t58 148.5t144 57.5zM220 613q0 -37 25 -59
t67 -22t68.5 22t26.5 59t-28 57.5t-66 20.5q-39 0 -66 -20.5t-27 -57.5zM312 660q34 0 48.5 -23.5t0 -47t-48.5 -23.5q-33 0 -46.5 23.5t0 47t46.5 23.5zM332 718h-45v3l71 89h60v-1z" />
    <glyph glyph-name="AEacute" unicode="&#x1fc;" horiz-adv-x="929" 
d="M498 377v274h365v49h-448l-426 -700h62l147 248h250v-248h429v51h-379v277h345v49h-345zM448 659v-362h-221l216 362h5zM503 783h-48v4l75 120h65v-1z" />
    <glyph glyph-name="aeacute" unicode="&#x1fd;" horiz-adv-x="1033" 
d="M746 -7q62 0 120 24.5t93 70.5l-35 28q-27 -35 -77 -55t-101 -20q-80 0 -138 49.5t-65 133.5h447q13 136 -58.5 207t-185.5 71q-65 0 -117.5 -29.5t-83.5 -82.5v104h-41v-108q-29 55 -85.5 84.5t-119.5 29.5q-106 0 -178.5 -71t-72.5 -182t73 -183t178 -72q133 0 203 113
v-105h41v100q31 -51 84 -79t119 -28zM299 453q66 0 114.5 -30.5t70 -76.5t21.5 -99.5t-21.5 -99.5t-70 -76.5t-114.5 -30.5q-86 0 -144 58t-58 149t58 148.5t144 57.5zM543 267q8 88 66 139t137 51q91 0 145 -50t55 -140h-403zM536 588h-44v4l69 110h60z" />
    <glyph glyph-name="Oslashacute" unicode="&#x1fe;" horiz-adv-x="814" 
d="M150 -79h53l54 95q71 -28 150 -28q85 0 153.5 30.5t111 81.5t65.5 115t23 134q0 93 -36.5 172.5t-106.5 128.5l64 111h-54l-50 -88q-74 38 -170 38q-113 0 -195 -51.5t-120 -131.5t-38 -177q0 -98 41.5 -182t120.5 -132zM407 661q79 0 145 -32l-310 -546
q-65 42 -100 113.5t-35 153.5q-1 132 77.5 221.5t222.5 89.5zM407 38q-69 0 -124 23l309 543q56 -43 86 -110t30 -144q0 -82 -32.5 -151t-102.5 -115t-166 -46zM435 785h-48v4l75 120h65v-1z" />
    <glyph glyph-name="oslashacute" unicode="&#x1ff;" horiz-adv-x="599" 
d="M300 -7q107 0 179 69t72 184q0 135 -98 208l51 85h-51l-37 -62q-54 26 -116 26q-107 0 -179 -71t-72 -186q0 -141 104 -210l-54 -90h50l41 69q48 -22 110 -22zM300 457q47 0 91 -21l-213 -358q-81 56 -81 168q0 94 58.5 152.5t144.5 58.5zM300 41q-48 0 -84 16l212 356
q75 -60 75 -167q0 -93 -58 -149t-145 -56zM326 589h-43v4l68 108h58v-1z" />
    <glyph glyph-name="Scommaaccent" unicode="&#x218;" horiz-adv-x="657" 
d="M316 -136q0 18 12.5 28.5t27 10.5t27 -10.5t12.5 -28.5q0 -8 -3 -17l-40 -102h-43l31 83q-24 9 -24 36zM587 591l-44 -26q-35 56 -87.5 75t-124.5 20q-48 0 -92.5 -11t-82 -45t-37.5 -86q0 -26 12 -46t28.5 -32.5t48 -23.5t57 -16.5t68.5 -13.5q131 -25 179 -49
q96 -47 96 -152q0 -56 -26.5 -96.5t-69.5 -61t-87.5 -29.5t-93.5 -9q-89 0 -169 38.5t-118 113.5l48 24q30 -60 99.5 -93.5t139.5 -33.5q37 0 72 6t71 21t58 46t22 75q0 25 -8 45.5t-26.5 35.5t-36 25t-49.5 19t-52 13.5t-58 11.5q-42 8 -64.5 13t-58.5 15.5t-55.5 22.5
t-40.5 30t-30.5 43t-9.5 56q-1 53 23.5 92.5t66 60.5t85.5 31t91 10q87 0 147.5 -24t108.5 -95z" />
    <glyph glyph-name="scommaaccent" unicode="&#x219;" horiz-adv-x="501" 
d="M231 -136q0 18 12.5 28.5t27 10.5t27 -10.5t12.5 -28.5q0 -8 -3 -17l-40 -102h-43l31 83q-24 9 -24 36zM437 436l-30 -32q-59 52 -154 52q-63 1 -106.5 -22.5t-42.5 -68.5q0 -16 6.5 -28.5t20.5 -22t24.5 -15t33.5 -11t31.5 -7.5t33.5 -6q102 -17 138 -36q69 -34 66 -109
q-1 -51 -35 -83.5t-76.5 -43.5t-91.5 -11q-68 0 -126.5 25.5t-89.5 73.5l36 32q29 -42 78.5 -63t102.5 -21q36 0 67 6.5t58.5 29t28.5 58.5q1 21 -9 36.5t-22.5 25t-38 17t-42.5 11t-49 8.5q-37 6 -58 10.5t-50 14.5t-44.5 23t-27.5 34.5t-12 50.5q-1 68 56.5 103.5
t139.5 34.5q114 0 184 -66z" />
    <glyph glyph-name="uni021A" unicode="&#x21a;" horiz-adv-x="590" 
d="M258 -136q0 18 12.5 28.5t27 10.5t27 -10.5t12.5 -28.5q0 -8 -3 -17l-40 -102h-43l31 83q-24 9 -24 36zM268 0v651h-253v48h560v-48h-253v-651h-54z" />
    <glyph glyph-name="uni021B" unicode="&#x21b;" horiz-adv-x="376" 
d="M209 -136q0 18 12.5 28.5t27 10.5t27 -10.5t12.5 -28.5q0 -8 -3 -17l-40 -102h-43l31 83q-24 9 -24 36zM138 638l48 5v-149h168v-41h-168v-301q0 -57 18.5 -85.5t72.5 -28.5q34 0 76 20l17 -40q-52 -25 -93 -25q-75 0 -107 41t-32 118v301h-105v41h105v144z" />
    <glyph glyph-name="dotlessj" unicode="&#x237;" horiz-adv-x="210" 
d="M81 495h48v-570q1 -81 -27.5 -125t-104.5 -44q-44 0 -89 24l14 42q35 -20 75 -20q52 0 68 31.5t16 91.5v570z" />
    <glyph glyph-name="circumflex" unicode="&#x2c6;" horiz-adv-x="421" 
d="M36 569l142 132h40l142 -132v-7h-53l-109 96l-109 -96h-53v7z" />
    <glyph glyph-name="caron" unicode="&#x2c7;" horiz-adv-x="404" 
d="M360 694l-142 -132h-40l-142 132v7h53l109 -96l109 96h53v-7z" />
    <glyph glyph-name="breve" unicode="&#x2d8;" horiz-adv-x="333" 
d="M241 700h42q0 -58 -33.5 -90.5t-92.5 -32.5q-60 0 -93 32.5t-33 90.5h40q0 -83 86 -83q47 0 65.5 24.5t18.5 58.5z" />
    <glyph glyph-name="dotaccent" unicode="&#x2d9;" horiz-adv-x="206" 
d="M56 667q0 18 12.5 28.5t27 10.5t27 -10.5t12.5 -28.5t-12.5 -28.5t-27 -10.5t-27 10.5t-12.5 28.5z" />
    <glyph glyph-name="ring" unicode="&#x2da;" horiz-adv-x="397" 
d="M74 622q0 45 31 70.5t74 25.5t75 -25.5t32 -70.5q0 -46 -30.5 -72.5t-77.5 -26.5q-48 0 -76 26.5t-28 72.5zM178 680q-37 0 -52.5 -29t0 -58t52.5 -29q39 0 55 29t0 58t-55 29z" />
    <glyph glyph-name="ogonek" unicode="&#x2db;" horiz-adv-x="407" 
d="M220 -10l15 -31q-84 15 -113 -29q-20 -30 1 -60q20 -27 60 -25q24 1 48 14t38 36l32 -18q-15 -32 -47 -50t-68 -20q-75 -3 -103 50q-24 45 5 88q39 56 132 45z" />
    <glyph glyph-name="tilde" unicode="&#x2dc;" horiz-adv-x="325" 
d="M65 628l-34 11q5 44 40.5 60.5t71.5 -2.5l41 -22q18 -10 36.5 -4t24.5 30l34 -11q-4 -45 -40 -61.5t-72 3.5l-41 22q-18 10 -36.5 3.5t-24.5 -29.5z" />
    <glyph glyph-name="hungarumlaut" unicode="&#x2dd;" horiz-adv-x="352" 
d="M79 588h-48v4l72 109h65v-1zM211 588h-48v4l72 109h65v-1z" />
    <glyph glyph-name="_375" unicode="&#x394;" horiz-adv-x="693" 
d="M365 700l314 -700h-687l314 700h59zM335 648l-264 -601h529z" />
    <glyph glyph-name="_376" unicode="&#x3a9;" horiz-adv-x="796" 
d="M461 0v45q108 23 166.5 109t59.5 196q1 132 -77.5 221.5t-222.5 89.5t-222.5 -89.5t-77.5 -221.5q1 -110 59.5 -196t166.5 -109v-45h-249v46l146 -2q-85 39 -130.5 122t-45.5 185q0 97 38 177t120 131.5t195 51.5t195 -51.5t120 -131.5t38 -177q0 -102 -45.5 -185
t-130.5 -122l146 2v-46h-249z" />
    <glyph glyph-name="pi" unicode="&#x3c0;" horiz-adv-x="669" 
d="M193 0h-48v453h-122v41h616v-41h-126v-315q0 -59 22 -84t84 -16v-40q-82 -15 -118.5 24t-35.5 116v315h-272v-453z" />
    <glyph glyph-name="Wgrave" unicode="&#x1e80;" horiz-adv-x="1078" 
d="M309 60l215 640h30l214 -640l217 640h58l-247 -702h-58l-111 328l-88 277l-88 -275l-112 -330h-58l-245 702h57zM566 783h-46l-87 117v1h61l72 -114v-4z" />
    <glyph glyph-name="wgrave" unicode="&#x1e81;" horiz-adv-x="822" 
d="M781 494l-175 -494h-54l-80 216l-60 192l-62 -193l-80 -215h-54l-176 494h54l149 -437l151 437h35l150 -437l148 437h54zM437 592h-42l-81 108v1h58l65 -105v-4z" />
    <glyph glyph-name="Wacute" unicode="&#x1e82;" horiz-adv-x="1078" 
d="M524 700l-215 -640l-216 640h-57l245 -702h58l112 330l88 275l88 -277l111 -328h58l247 702h-58l-217 -640l-214 640h-30zM558 783h-45v4l70 111h60v-1z" />
    <glyph glyph-name="wacute" unicode="&#x1e83;" horiz-adv-x="822" 
d="M606 0l175 494h-54l-148 -437l-150 437h-35l-151 -437l-149 437h-54l176 -494h54l80 215l62 193l60 -192l80 -216h54zM422 592h-42v4l66 105h57v-1z" />
    <glyph glyph-name="Wdieresis" unicode="&#x1e84;" horiz-adv-x="1078" 
d="M524 700l-215 -640l-216 640h-57l245 -702h58l112 330l88 275l88 -277l111 -328h58l247 702h-58l-217 -640l-214 640h-30zM392 840q0 18 12.5 28.5t27 10.5t27 -10.5t12.5 -28.5t-12.5 -28.5t-27 -10.5t-27 10.5t-12.5 28.5zM606 840q0 18 12.5 28.5t27 10.5t27 -10.5
t12.5 -28.5t-12.5 -28.5t-27 -10.5t-27 10.5t-12.5 28.5z" />
    <glyph glyph-name="wdieresis" unicode="&#x1e85;" horiz-adv-x="822" 
d="M606 0l175 494h-54l-148 -437l-150 437h-35l-151 -437l-149 437h-54l176 -494h54l80 215l62 193l60 -192l80 -216h54zM277 662q0 23 18.5 32.5t37 0t18.5 -32.5t-18.5 -32t-37 0t-18.5 32zM476 662q0 23 18 32.5t36.5 0t18.5 -32.5t-18.5 -32t-36.5 0t-18 32z" />
    <glyph glyph-name="Ygrave" unicode="&#x1ef2;" horiz-adv-x="659" 
d="M302 0v280l-273 419v1h63l237 -368l238 368h63v-1l-274 -419v-280h-54zM359 783h-45l-84 114h60l69 -110v-4z" />
    <glyph glyph-name="ygrave" unicode="&#x1ef3;" horiz-adv-x="533" 
d="M446 494h53l-314 -733h-52l104 245l-198 488h53l115 -292l58 -143l57 144zM302 589h-43l-83 111v1h59l67 -108v-4z" />
    <glyph glyph-name="endash" unicode="&#x2013;" horiz-adv-x="592" 
d="M73 259v51h446v-51h-446z" />
    <glyph glyph-name="emdash" unicode="&#x2014;" horiz-adv-x="699" 
d="M73 257v51h553v-51h-553z" />
    <glyph glyph-name="quoteleft" unicode="&#x2018;" horiz-adv-x="209" 
d="M115 701h44l-44 -163h-57z" />
    <glyph glyph-name="quoteright" unicode="&#x2019;" horiz-adv-x="207" 
d="M104 532h-44l45 169h57z" />
    <glyph glyph-name="quotesinglbase" unicode="&#x201a;" horiz-adv-x="227" 
d="M88 -105h-44l45 169h57z" />
    <glyph glyph-name="quotedblleft" unicode="&#x201c;" horiz-adv-x="339" 
d="M244 698h44l-47 -168h-57zM118 698h44l-47 -168h-57z" />
    <glyph glyph-name="quotedblright" unicode="&#x201d;" horiz-adv-x="332" 
d="M104 540h-44l45 161h57zM230 540h-44l45 161h57z" />
    <glyph glyph-name="quotedblbase" unicode="&#x201e;" horiz-adv-x="347" 
d="M88 -105h-44l45 169h57zM208 -105h-44l45 169h57z" />
    <glyph glyph-name="dagger" unicode="&#x2020;" horiz-adv-x="549" 
d="M515 503v-47h-216v-588h-49v588h-216v47h216v197h49v-197h216z" />
    <glyph glyph-name="daggerdbl" unicode="&#x2021;" horiz-adv-x="599" 
d="M540 503v-47h-216v-278h216v-47h-216v-263h-49v263h-216v47h216v278h-216v47h216v197h49v-197h216z" />
    <glyph glyph-name="bullet" unicode="&#x2022;" horiz-adv-x="382" 
d="M192 189q-43 0 -70.5 26.5t-27.5 69.5t27.5 69.5t70.5 26.5q41 0 68.5 -26.5t27.5 -69.5t-27.5 -69.5t-68.5 -26.5z" />
    <glyph glyph-name="ellipsis" unicode="&#x2026;" horiz-adv-x="569" 
d="M73 30q0 18 12.5 28.5t27 10.5t27 -10.5t12.5 -28.5t-12.5 -28.5t-27 -10.5t-27 10.5t-12.5 28.5zM246 30q0 18 12.5 28.5t27 10.5t27 -10.5t12.5 -28.5t-12.5 -28.5t-27 -10.5t-27 10.5t-12.5 28.5zM417 30q0 18 12.5 28.5t27 10.5t27 -10.5t12.5 -28.5t-12.5 -28.5
t-27 -10.5t-27 10.5t-12.5 28.5z" />
    <glyph glyph-name="perthousand" unicode="&#x2030;" horiz-adv-x="1084" 
d="M612 703l-55 -1l-446 -702h56zM192 705q49 0 84.5 -22t52 -54.5t16.5 -71t-16.5 -71t-52 -54.5t-84.5 -22q-42 0 -74.5 16.5t-49.5 42.5t-25 57t0 62.5t25 57.5t49.5 42.5t74.5 16.5zM533 289q42 0 75 -16.5t50 -42.5t25 -57t0 -62.5t-25 -57.5t-50 -42.5t-75 -16.5
q-48 0 -84 22t-52 54.5t-16 71t16 71t52 54.5t84 22zM533 248q-40 0 -68 -22t-34 -53t0.5 -62t34.5 -53t68 -22t68 22t34 53t-0.5 62t-34.5 53t-68 22zM192 662q-41 0 -68.5 -21.5t-34 -52t0 -61t34.5 -52t69 -21.5q40 0 67 21.5t33.5 52t0 61t-34 52t-67.5 21.5zM896 289
q42 0 75 -16.5t50 -42.5t25 -57t0 -62.5t-25 -57.5t-50 -42.5t-75 -16.5q-48 0 -84 22t-52 54.5t-16 71t16 71t52 54.5t84 22zM896 248q-40 0 -68 -22t-34 -53t0.5 -62t34.5 -53t68 -22t68 22t34 53t-0.5 62t-34.5 53t-68 22z" />
    <glyph glyph-name="guilsinglleft" unicode="&#x2039;" horiz-adv-x="295" 
d="M50 299l138 219h52v-5l-135 -214l135 -214v-6h-52z" />
    <glyph glyph-name="guilsinglright" unicode="&#x203a;" horiz-adv-x="295" 
d="M245 295l-138 -220h-52v6l135 214l-135 214v5h52z" />
    <glyph glyph-name="fraction" unicode="&#x2044;" horiz-adv-x="145" 
d="M-86 -2h-53l371 705h54z" />
    <glyph glyph-name="zerosuperior" unicode="&#x2070;" horiz-adv-x="376" 
d="M90 653v-52q0 -42 20 -71.5t48.5 -36.5t57 -0.5t48.5 36t20 72.5v52q0 44 -20 74t-48.5 37t-57 0t-48.5 -37t-20 -74zM43 601v52q0 43 16 77t41.5 52t56.5 26t62 -0.5t56.5 -26t41.5 -51.5t16 -77v-52q0 -43 -16 -77t-41.5 -51.5t-56.5 -25.5t-62 0t-56.5 25.5
t-41.5 51.5t-16 77z" />
    <glyph glyph-name="foursuperior" unicode="&#x2074;" horiz-adv-x="345" 
d="M201 807h65v-233h42v-44h-42v-78h-45v78h-192l-3 37zM82 574h139v189z" />
    <glyph glyph-name="fivesuperior" unicode="&#x2075;" horiz-adv-x="358" 
d="M178 631h-126v176h249v-43h-204v-91h81q71 0 107 -31.5t36 -82.5t-36.5 -82t-105.5 -31q-57 0 -96 23.5t-40 78.5h44q0 -59 92 -59q95 0 95 70q0 28 -21 50t-75 22z" />
    <glyph glyph-name="sixsuperior" unicode="&#x2076;" horiz-adv-x="372" 
d="M193 481q38 0 65.5 16.5t27.5 53.5q0 36 -28 53.5t-65 17.5t-65.5 -18t-29.5 -52q0 -37 28.5 -54t66.5 -17zM97 694v-67q34 35 96 35q59 0 99.5 -26t40.5 -85q0 -56 -41.5 -83t-98.5 -27q-59 0 -100.5 27.5t-41.5 83.5v142q0 57 39.5 85.5t96.5 28.5t95 -23t42 -68h-45
q-5 48 -92 48q-90 0 -90 -71z" />
    <glyph glyph-name="sevensuperior" unicode="&#x2077;" horiz-adv-x="312" 
d="M31 764v43h259l4 -22l-182 -334h-55l173 313h-199z" />
    <glyph glyph-name="eightsuperior" unicode="&#x2078;" horiz-adv-x="378" 
d="M189 609q-38 0 -67 -17t-29 -51q0 -31 31 -46t65 -15t65 15t32 46q0 34 -29.5 51t-67.5 17zM189 438q-59 0 -102.5 24t-44.5 78q0 35 22.5 59t56.5 31q-73 23 -73 83q0 50 43 73.5t98 23.5q56 0 98.5 -23t42.5 -74q0 -62 -72 -84q33 -7 55.5 -31t22.5 -58
q0 -54 -43.5 -78t-103.5 -24zM189 771q-34 0 -62.5 -13.5t-28.5 -44.5t26.5 -45.5t64.5 -14.5t65 14.5t27 45.5t-29 44.5t-63 13.5z" />
    <glyph glyph-name="ninesuperior" unicode="&#x2079;" horiz-adv-x="372" 
d="M179 768q-38 0 -65.5 -16.5t-27.5 -53.5q0 -36 28 -53.5t65 -17.5t65.5 18t29.5 52q0 37 -28.5 54t-66.5 17zM275 555v67q-34 -35 -96 -35q-59 0 -99.5 26t-40.5 85q0 56 41.5 83t98.5 27q59 0 100.5 -27.5t41.5 -83.5v-142q0 -57 -39.5 -85.5t-96.5 -28.5t-95 23t-42 68
h45q5 -48 92 -48q90 0 90 71z" />
    <glyph glyph-name="zeroinferior" unicode="&#x2080;" horiz-adv-x="378" 
d="M91 117v-52q0 -42 20 -71.5t48.5 -36.5t57 -0.5t48.5 36t20 72.5v52q0 44 -20 74t-48.5 37t-57 0t-48.5 -37t-20 -74zM44 65v52q0 43 16 77t41.5 51.5t56.5 25.5t62 0t56.5 -25.5t41.5 -51.5t16 -77v-52q0 -43 -16 -76.5t-41.5 -51t-56.5 -25.5t-62 0t-56.5 25.5
t-41.5 51t-16 76.5z" />
    <glyph glyph-name="oneinferior" unicode="&#x2081;" horiz-adv-x="239" 
d="M37 -87v41h63v260l-55 -14v44l103 23v-313h65v-41h-176z" />
    <glyph glyph-name="twoinferior" unicode="&#x2082;" horiz-adv-x="357" 
d="M92 167h-46q0 106 135 106q56 0 94.5 -24t38.5 -82q0 -108 -132 -108q-33 0 -61.5 -15t-28.5 -53v-30h219v-49h-267v80q0 52 40.5 80.5t97.5 28.5q85 0 85 66q0 64 -87 64q-41 0 -64.5 -13t-23.5 -51z" />
    <glyph glyph-name="threeinferior" unicode="&#x2083;" horiz-adv-x="357" 
d="M179 75h-55v43h51q34 0 60 13.5t26 42.5q0 22 -23 39.5t-63 17.5q-32 0 -59.5 -15t-27.5 -50h-43q0 53 37.5 79t92.5 26t93.5 -25.5t38.5 -72.5q0 -30 -16 -50t-42 -27q30 -8 47.5 -31t17.5 -48q0 -110 -139 -110q-58 0 -96 25.5t-39 81.5h48q0 -63 88 -63q91 0 91 66
q0 21 -22 39.5t-66 18.5z" />
    <glyph glyph-name="fourinferior" unicode="&#x2084;" horiz-adv-x="345" 
d="M201 268h65v-233h42v-44h-42v-78h-45v78h-192l-3 37zM82 35h139v189z" />
    <glyph glyph-name="fiveinferior" unicode="&#x2085;" horiz-adv-x="358" 
d="M178 92h-126v176h249v-43h-204v-91h81q71 0 107 -31.5t36 -82.5t-36.5 -82t-105.5 -31q-57 0 -96 23.5t-40 78.5h44q0 -59 92 -59q95 0 95 70q0 28 -21 50t-75 22z" />
    <glyph glyph-name="sixinferior" unicode="&#x2086;" horiz-adv-x="371" 
d="M192 -54q38 0 65.5 16.5t27.5 53.5q0 36 -28 53.5t-65 17.5t-65.5 -18t-29.5 -52q0 -37 28.5 -54t66.5 -17zM96 159v-67q34 35 96 35q59 0 99.5 -26t40.5 -85q0 -56 -41.5 -83t-98.5 -27q-59 0 -100.5 27.5t-41.5 83.5v142q0 57 39.5 85.5t96.5 28.5t95 -23t42 -68h-45
q-5 48 -92 48q-90 0 -90 -71z" />
    <glyph glyph-name="seveninferior" unicode="&#x2087;" horiz-adv-x="310" 
d="M30 226v43h259l4 -22l-182 -334h-55l173 313h-199z" />
    <glyph glyph-name="eightinferior" unicode="&#x2088;" horiz-adv-x="378" 
d="M189 79q-38 0 -67 -17t-29 -51q0 -31 31 -46t65 -15t65 15t32 46q0 34 -29.5 51t-67.5 17zM189 -92q-59 0 -102.5 24t-44.5 78q0 35 22.5 59t56.5 31q-73 23 -73 83q0 50 43 73.5t98 23.5q56 0 98.5 -23t42.5 -74q0 -62 -72 -84q33 -7 55.5 -31t22.5 -58q0 -54 -43.5 -78
t-103.5 -24zM189 241q-34 0 -62.5 -13.5t-28.5 -44.5t26.5 -45.5t64.5 -14.5t65 14.5t27 45.5t-29 44.5t-63 13.5z" />
    <glyph glyph-name="nineinferior" unicode="&#x2089;" horiz-adv-x="371" 
d="M179 233q-38 0 -65.5 -16.5t-27.5 -53.5q0 -36 28 -53.5t65 -17.5t65.5 18t29.5 52q0 37 -28.5 54t-66.5 17zM275 20v67q-34 -35 -96 -35q-59 0 -99.5 26t-40.5 85q0 56 41.5 83t98.5 27q59 0 100.5 -27.5t41.5 -83.5v-142q0 -57 -39.5 -85.5t-96.5 -28.5t-95 23t-42 68
h45q5 -48 92 -48q90 0 90 71z" />
    <glyph glyph-name="Euro" unicode="&#x20ac;" horiz-adv-x="614" 
d="M557 62l14 -48q-63 -22 -124 -22q-290 0 -341 280h-64v46h58q-1 7 -1 28t1 31h-58v46h64q17 127 105 206t236 79q46 0 99 -15l-11 -43q-43 12 -88 12q-248 0 -287 -239h273l-13 -46h-267q-1 -9 -1 -29q0 -23 1 -30h253l-10 -46h-236q17 -112 89 -171t198 -59q56 0 110 20
z" />
    <glyph glyph-name="afii61289" unicode="&#x2113;" horiz-adv-x="404" 
d="M205 242v-95q0 -44 37 -61.5t93 -4.5v-69q-101 -33 -166 2t-65 149l-49 -24l-14 46q34 14 62 30v333q0 91 34 129t122 38q135 0 110 -193q-17 -146 -164 -280zM202 548q0 -26 -0.5 -112.5t-0.5 -124.5q107 123 120 220q2 28 4 57t-14 52t-50 23q-28 0 -43.5 -34.5
t-15.5 -80.5z" />
    <glyph glyph-name="uni2117" unicode="&#x2117;" horiz-adv-x="836" 
d="M418 713q168 0 264.5 -104.5t96.5 -260.5q0 -155 -96.5 -260t-264.5 -105q-167 0 -264 105t-97 260q0 156 97 260.5t264 104.5zM108 348q0 -138 83 -229t227 -91t227.5 91t83.5 229q0 139 -83.5 230t-227.5 91t-227 -91t-83 -230zM463 286q50 0 83.5 25.5t41 62t-1 73.5
t-41 62.5t-79.5 25.5h-170v-383h47v134h120zM343 328v161h123q31 0 51.5 -16.5t25.5 -40.5t-0.5 -47.5t-27 -40t-52.5 -16.5h-120z" />
    <glyph glyph-name="trademark" unicode="&#x2122;" horiz-adv-x="793" 
d="M176 420v240h-112v40h273v-40h-114v-240h-47zM391 420v280h44l115 -147l116 147h42v-280h-47v202l-108 -132h-9l-106 136v-206h-47z" />
    <glyph glyph-name="Omega" unicode="&#x2126;" horiz-adv-x="820" 
d="M484 0v45q108 23 166.5 109t59.5 196q1 132 -77.5 221.5t-222.5 89.5t-222.5 -89.5t-77.5 -221.5q1 -110 59.5 -196t166.5 -109v-45h-249v46l146 -2q-85 39 -130.5 122t-45.5 185q0 97 38 177t120 131.5t195 51.5t195 -51.5t120 -131.5t38 -177q0 -102 -45.5 -185
t-130.5 -122l146 2v-46h-249z" />
    <glyph glyph-name="estimated" unicode="&#x212e;" horiz-adv-x="650" 
d="M333 -7q-116 0 -192 78t-76 218q0 142 75.5 219.5t191.5 77.5q58 0 106.5 -17t87 -53t57 -100.5t11.5 -152.5h-402v-170q58 -53 141 -53q125 0 190 93l37 -29q-43 -61 -98 -86t-129 -25zM332 539q-87 0 -140 -46v-183h283v186q-55 43 -143 43z" />
    <glyph glyph-name="onethird" unicode="&#x2153;" horiz-adv-x="734" 
d="M51 357v41h63v260l-55 -14v44l103 23v-313h65v-41h-176zM558 165h-55v43h51q34 0 60 13.5t26 42.5q0 22 -23 39.5t-63 17.5q-32 0 -59.5 -15t-27.5 -50h-43q0 53 37.5 79t92.5 26t93.5 -25.5t38.5 -72.5q0 -30 -16 -50t-42 -27q30 -8 47.5 -31t17.5 -48q0 -110 -139 -110
q-58 0 -96 25.5t-39 81.5h48q0 -62 88 -62q91 0 91 65q0 21 -22 39.5t-66 18.5zM173 -2h-53l371 705h54z" />
    <glyph glyph-name="twothirds" unicode="&#x2154;" horiz-adv-x="815" 
d="M639 165h-55v43h51q34 0 60 13.5t26 42.5q0 22 -23 39.5t-63 17.5q-32 0 -59.5 -15t-27.5 -50h-43q0 53 37.5 79t92.5 26t93.5 -25.5t38.5 -72.5q0 -30 -16 -50t-42 -27q30 -8 47.5 -31t17.5 -48q0 -110 -139 -110q-58 0 -96 25.5t-39 81.5h48q0 -62 88 -62q91 0 91 65
q0 21 -22 39.5t-66 18.5zM254 -2h-53l371 705h54zM101 603h-46q0 106 135 106q56 0 94.5 -24t38.5 -82q0 -108 -132 -108q-33 0 -62 -15t-29 -53v-32h212v-47h-259v80q0 52 40.5 80.5t97.5 28.5q85 0 85 66q0 64 -87 64q-41 0 -64.5 -13t-23.5 -51z" />
    <glyph glyph-name="oneeighth" unicode="&#x215b;" horiz-adv-x="763" 
d="M51 357v41h63v260l-55 -14v44l104 23v-313h64v-41h-176zM173 -2h-53l371 705h54zM574 163q-38 0 -67 -17t-29 -51q0 -31 31 -46t65 -15t65 15t32 46q0 34 -29.5 51t-67.5 17zM574 -8q-59 0 -102.5 24t-44.5 78q0 35 22.5 59t56.5 31q-73 23 -73 83q0 50 43 73.5t98 23.5
q56 0 98.5 -23t42.5 -74q0 -62 -72 -84q33 -7 55.5 -31t22.5 -58q0 -54 -43.5 -78t-103.5 -24zM574 325q-34 0 -62.5 -13.5t-28.5 -44.5t26.5 -45.5t64.5 -14.5t65 14.5t27 45.5t-29 44.5t-63 13.5z" />
    <glyph glyph-name="threeeighths" unicode="&#x215c;" horiz-adv-x="820" 
d="M239 -2h-53l371 705h54zM631 163q-38 0 -67 -17t-29 -51q0 -31 31 -46t65 -15t65 15t32 46q0 34 -29.5 51t-67.5 17zM631 -8q-59 0 -102.5 24t-44.5 78q0 35 22.5 59t56.5 31q-73 23 -73 83q0 50 43 73.5t98 23.5q56 0 98.5 -23t42.5 -74q0 -62 -72 -84q33 -7 55.5 -31
t22.5 -58q0 -54 -43.5 -78t-103.5 -24zM631 325q-34 0 -62.5 -13.5t-28.5 -44.5t26.5 -45.5t64.5 -14.5t65 14.5t27 45.5t-29 44.5t-63 13.5zM185 510h-55v43h51q34 0 60 13.5t26 42.5q0 22 -23 39.5t-63 17.5q-32 0 -59.5 -15t-27.5 -50h-43q0 53 37.5 79t92.5 26
t93.5 -25.5t38.5 -72.5q0 -30 -16 -50t-42 -27q30 -8 47.5 -31t17.5 -48q0 -110 -139 -110q-58 0 -96 25.5t-39 81.5h48q0 -62 88 -62q91 0 91 65q0 21 -22 39.5t-66 18.5z" />
    <glyph glyph-name="fiveeighths" unicode="&#x215d;" horiz-adv-x="825" 
d="M244 -2h-53l371 705h54zM636 163q-38 0 -67 -17t-29 -51q0 -31 31 -46t65 -15t65 15t32 46q0 34 -29.5 51t-67.5 17zM636 -8q-59 0 -102.5 24t-44.5 78q0 35 22.5 59t56.5 31q-73 23 -73 83q0 50 43 73.5t98 23.5q56 0 98.5 -23t42.5 -74q0 -62 -72 -84q33 -7 55.5 -31
t22.5 -58q0 -54 -43.5 -78t-103.5 -24zM636 325q-34 0 -62.5 -13.5t-28.5 -44.5t26.5 -45.5t64.5 -14.5t65 14.5t27 45.5t-29 44.5t-63 13.5zM182 527h-126v176h249v-43h-204v-91h81q71 0 107 -31.5t36 -82.5t-36.5 -82t-105.5 -31q-57 0 -96 23.5t-40 78.5h44q0 -59 92 -59
q95 0 95 70q0 28 -21 50t-75 22z" />
    <glyph glyph-name="seveneighths" unicode="&#x215e;" horiz-adv-x="744" 
d="M163 -2h-53l371 705h54zM555 163q-38 0 -67 -17t-29 -51q0 -31 31 -46t65 -15t65 15t32 46q0 34 -29.5 51t-67.5 17zM555 -8q-59 0 -102.5 24t-44.5 78q0 35 22.5 59t56.5 31q-73 23 -73 83q0 50 43 73.5t98 23.5q56 0 98.5 -23t42.5 -74q0 -62 -72 -84q33 -7 55.5 -31
t22.5 -58q0 -54 -43.5 -78t-103.5 -24zM555 325q-34 0 -62.5 -13.5t-28.5 -44.5t26.5 -45.5t64.5 -14.5t65 14.5t27 45.5t-29 44.5t-63 13.5zM41 659v43h259l4 -22l-182 -334h-55l173 313h-199z" />
    <glyph glyph-name="arrowleft" unicode="&#x2190;" horiz-adv-x="645" 
d="M260 140l-211 211l211 211l29 -28l-156 -159h443v-49h-442l155 -158z" />
    <glyph glyph-name="arrowup" unicode="&#x2191;" horiz-adv-x="490" 
d="M34 404l211 211l211 -211l-28 -29l-159 156v-443h-49v442l-158 -155z" />
    <glyph glyph-name="arrowright" unicode="&#x2192;" horiz-adv-x="645" 
d="M385 562l211 -211l-211 -211l-29 28l156 159h-443v49h442l-155 158z" />
    <glyph glyph-name="arrowdown" unicode="&#x2193;" horiz-adv-x="492" 
d="M457 288l-211 -211l-211 211l28 29l159 -156v443h49v-442l158 155z" />
    <glyph glyph-name="uni2196" unicode="&#x2196;" horiz-adv-x="501" 
d="M68 239v299h299v-41l-222 -2l313 -313l-35 -35l-312 313l-2 -221h-41z" />
    <glyph glyph-name="uni2197" unicode="&#x2197;" horiz-adv-x="501" 
d="M433 538v-299h-41l-2 221l-312 -313l-35 35l313 313l-222 2v41h299z" />
    <glyph glyph-name="uni2198" unicode="&#x2198;" horiz-adv-x="547" 
d="M440 462v-299h-299v41l222 2l-313 313l35 35l312 -313l2 221h41z" />
    <glyph glyph-name="uni2199" unicode="&#x2199;" horiz-adv-x="547" 
d="M107 163v299h41l2 -221l312 313l35 -35l-313 -313l222 -2v-41h-299z" />
    <glyph glyph-name="partialdiff" unicode="&#x2202;" horiz-adv-x="608" 
d="M556 253q2 -118 -67.5 -191t-186.5 -73q-70 0 -124.5 27.5t-83 71.5t-41.5 97t0 106.5t41.5 97.5t83 71.5t124.5 27.5q104 0 185 -81q-30 89 -110.5 157t-173.5 92l14 42q335 -114 339 -445zM302 35q56 0 100 22.5t66.5 58.5t33 79.5t0 87t-33 79.5t-66.5 58.5t-100 22.5
t-100 -22.5t-66.5 -58.5t-33 -79.5t0 -87t33 -79.5t66.5 -58.5t100 -22.5z" />
    <glyph glyph-name="Delta" unicode="&#x2206;" horiz-adv-x="743" 
d="M401 700l314 -700h-687l314 700h59zM371 648l-264 -601h529z" />
    <glyph glyph-name="product" unicode="&#x220f;" horiz-adv-x="681" 
d="M584 -188h-54v839h-379v-839h-54v888h487v-888z" />
    <glyph glyph-name="summation" unicode="&#x2211;" horiz-adv-x="575" 
d="M335 367l-219 -314h405v-53h-485v23l240 345l-222 313v19h461v-50h-375z" />
    <glyph glyph-name="minus" unicode="&#x2212;" horiz-adv-x="529" 
d="M77 313v51h375v-51h-375z" />
    <glyph glyph-name="uni2215" unicode="&#x2215;" horiz-adv-x="419" 
d="M51 -2h-53l371 705h54z" />
    <glyph glyph-name="uni2219" unicode="&#x2219;" horiz-adv-x="225" 
d="M73 310q0 18 12.5 28.5t27 10.5t27 -10.5t12.5 -28.5t-12.5 -28.5t-27 -10.5t-27 10.5t-12.5 28.5z" />
    <glyph glyph-name="radical" unicode="&#x221a;" horiz-adv-x="616" 
d="M601 698l-239 -698h-55l-168 364l-96 -43l-18 42l154 68l156 -363l221 642z" />
    <glyph glyph-name="infinity" unicode="&#x221e;" horiz-adv-x="803" 
d="M225 217q25 0 49.5 12.5t36 22t38.5 39.5t31 35q-2 2 -13 16t-14.5 18l-14 16t-16 16.5t-16 14t-18.5 13.5t-19 9t-21.5 7t-22.5 2q-45 0 -75.5 -22.5t-38.5 -54.5t-1 -64.5t38 -55.5t77 -24zM579 217q46 1 77 24t38 55.5t-1 64.5t-38.5 54.5t-75.5 22.5q-25 0 -48.5 -12
t-37 -25.5t-36 -39t-32.5 -35.5q8 -7 40 -43t57 -51t57 -15zM223 171q-45 0 -80.5 17t-53.5 44.5t-26 61t1 67t28 61t54.5 44.5t80.5 17q50 0 90.5 -31.5t85.5 -87.5q44 55 85 87t88 32q45 0 80.5 -17t54.5 -44.5t28 -61t1 -67t-26 -61t-53.5 -44.5t-80.5 -17
q-50 0 -91 30.5t-86 85.5q-45 -56 -86 -86t-94 -30z" />
    <glyph glyph-name="integral" unicode="&#x222b;" horiz-adv-x="445" 
d="M192 -1v535q0 169 148 169q53 0 98 -34l-24 -36q-42 25 -76 25q-98 0 -98 -124v-535q0 -82 -29.5 -126t-105.5 -44q-47 0 -94 35l23 34q31 -25 73 -25q46 0 65.5 30t19.5 96z" />
    <glyph glyph-name="approxequal" unicode="&#x2248;" horiz-adv-x="558" 
d="M111 384l-33 24q26 38 65 50.5t93 -3.5l101 -41q78 -26 108 31l36 -21q-44 -87 -150 -53l-109 43q-69 23 -111 -30zM111 192l-33 24q26 38 65 50.5t93 -3.5l101 -42q77 -26 108 32l36 -21q-44 -87 -150 -53l-109 43q-69 23 -111 -30z" />
    <glyph glyph-name="notequal" unicode="&#x2260;" horiz-adv-x="552" 
d="M75 193v49h132l94 148h-226v50h257l43 67l29 -17l-32 -50h102v-50h-133l-93 -148h226v-49h-257l-45 -72l-30 17l34 55h-101z" />
    <glyph glyph-name="lessequal" unicode="&#x2264;" horiz-adv-x="451" 
d="M85 429l243 156l22 -35l-221 -140l225 -152l-27 -34l-242 166v39zM80 101v44h291v-44h-291z" />
    <glyph glyph-name="greaterequal" unicode="&#x2265;" horiz-adv-x="451" 
d="M123 585l243 -156v-39l-242 -166l-27 34l225 152l-221 140zM371 145v-44h-291v44h291z" />
    <glyph glyph-name="lozenge" unicode="&#x25ca;" horiz-adv-x="552" 
d="M516 352l-221 -345h-40l-216 345l216 344h40zM274 645l-174 -294l174 -294l187 294z" />
    <glyph glyph-name="fi" unicode="&#xfb01;" horiz-adv-x="547" 
d="M343 643l17 40q-35 20 -77 20q-148 0 -148 -169v-44h-101v-43h101v-447h48v447h155v43h-155v44q0 124 98 124q35 0 62 -15zM468 496h-49v-496h49v496zM405 655q0 18 12.5 28.5t27 10.5t27 -10.5t12.5 -28.5t-12.5 -28.5t-27 -10.5t-27 10.5t-12.5 28.5z" />
    <glyph glyph-name="fl" unicode="&#xfb02;" horiz-adv-x="543" 
d="M357 683l-17 -39q-27 15 -59 15q-98 0 -98 -125v-44h152v-43h-152v-447h-48v447h-101v43h101v44q0 169 148 169q39 0 74 -20zM406 700h49v-700h-49v700z" />
    <glyph glyph-name="CR" horiz-adv-x="322" 
 />
    <glyph glyph-name="_0004" horiz-adv-x="0" 
 />
    <glyph glyph-name="g.alt" 
d="M299 453q-86 0 -144 -57.5t-58 -148.5t58 -149t144 -58q57 0 101 23t67 59t34 80t0 88.5t-34 80.5t-67 59t-101 23zM504 494h46v-503q0 -117 -67.5 -181t-170.5 -64q-104 0 -166.5 47.5t-67.5 128.5h47q5 -63 56 -96.5t131 -33.5q81 0 136 50.5t55 147.5v115
q-35 -56 -88.5 -84.5t-115.5 -28.5q-105 0 -178 72t-73 183t72.5 182t178.5 71q63 0 118.5 -29.5t85.5 -84.5z" />
    <glyph glyph-name="gcircumflex.alt" 
d="M299 453q66 0 114 -30.5t70 -76.5t22 -99.5t-22 -99.5t-70 -76.5t-114 -30.5q-86 0 -144 58t-58 149t58 148.5t144 57.5zM550 494h-46l-1 -108q-30 55 -85.5 84.5t-118.5 29.5q-106 0 -178.5 -71t-72.5 -182t73 -183t178 -72q62 0 115.5 28.5t88.5 84.5v-115
q0 -97 -55 -147.5t-136 -50.5q-80 0 -131 33.5t-56 96.5h-47q5 -81 67.5 -128.5t166.5 -47.5q103 0 170.5 64t67.5 181v503zM156 581l142 132h40l142 -132v-7h-51l-111 97l-111 -97h-51v7z" />
    <glyph glyph-name="gbreve.alt" 
d="M299 453q-86 0 -144 -57.5t-58 -148.5t58 -149t144 -58q57 0 101 23t67 59t34 80t0 88.5t-34 80.5t-67 59t-101 23zM504 494h46v-503q0 -117 -67.5 -181t-170.5 -64q-104 0 -166.5 47.5t-67.5 128.5h47q5 -63 56 -96.5t131 -33.5q81 0 136 50.5t55 147.5v115
q-35 -56 -88.5 -84.5t-115.5 -28.5q-105 0 -178 72t-73 183t72.5 182t178.5 71q63 0 118.5 -29.5t85.5 -84.5zM406 705h42q0 -58 -33.5 -90.5t-92.5 -32.5q-60 0 -93 32.5t-33 90.5h40q0 -83 86 -83q47 0 65.5 24.5t18.5 58.5z" />
    <glyph glyph-name="gdotaccent.alt" 
d="M299 453q66 0 114 -30.5t70 -76.5t22 -99.5t-22 -99.5t-70 -76.5t-114 -30.5q-86 0 -144 58t-58 149t58 148.5t144 57.5zM550 494h-46l-1 -108q-30 55 -85.5 84.5t-118.5 29.5q-106 0 -178.5 -71t-72.5 -182t73 -183t178 -72q62 0 115.5 28.5t88.5 84.5v-115
q0 -97 -55 -147.5t-136 -50.5q-80 0 -131 33.5t-56 96.5h-47q5 -81 67.5 -128.5t166.5 -47.5q103 0 170.5 64t67.5 181v503zM279 667q0 18 12.5 28.5t27 10.5t27 -10.5t12.5 -28.5t-12.5 -28.5t-27 -10.5t-27 10.5t-12.5 28.5z" />
    <glyph glyph-name="gcommaaccent.alt" 
d="M299 453q66 0 114 -30.5t70 -76.5t22 -99.5t-22 -99.5t-70 -76.5t-114 -30.5q-86 0 -144 58t-58 149t58 148.5t144 57.5zM550 494h-46l-1 -108q-30 55 -85.5 84.5t-118.5 29.5q-106 0 -178.5 -71t-72.5 -182t73 -183t178 -72q62 0 115.5 28.5t88.5 84.5v-115
q0 -97 -55 -147.5t-136 -50.5q-80 0 -131 33.5t-56 96.5h-47q5 -81 67.5 -128.5t166.5 -47.5q103 0 170.5 64t67.5 181v503zM352 618q0 -18 -12.5 -28.5t-27 -10.5t-27 10.5t-12.5 28.5q0 8 3 17l36 90h43l-27 -71q24 -9 24 -36z" />
    <glyph glyph-name="commaaccent" horiz-adv-x="462" 
d="M182 -142q0 18 12.5 28.5t27 10.5t27 -10.5t12.5 -28.5q0 -8 -3 -17l-40 -102h-43l31 83q-24 9 -24 36z" />
    <glyph glyph-name="commaaccent.alt" horiz-adv-x="462" 
d="M254 676q0 -18 -12.5 -28.5t-27 -10.5t-27 10.5t-12.5 28.5q0 8 3 17l40 102h43l-31 -83q24 -9 24 -36z" />
    <glyph glyph-name="zero.tf" horiz-adv-x="685" 
d="M127 434v-167q0 -54 18.5 -98t48.5 -71t69 -41.5t79 -14.5t79 14.5t69 41.5t48.5 71t18.5 98v167q0 54 -18.5 97.5t-48.5 70.5t-69 41.5t-79 14.5t-79 -14.5t-69 -41t-48.5 -70.5t-18.5 -98zM74 267v167q0 88 39.5 152t99.5 93t129 29t129 -29t99.5 -93.5t39.5 -151.5
v-167q0 -66 -23 -119.5t-60.5 -86.5t-86 -51t-98.5 -18t-98.5 17.5t-86 50.5t-60.5 87t-23 120z" />
    <glyph glyph-name="one.tf" horiz-adv-x="685" 
d="M137 0v45h185v594l-172 -33v47l226 47v-655h199v-45h-438z" />
    <glyph glyph-name="two.tf" horiz-adv-x="685" 
d="M132 514h-53q0 53 23.5 92.5t63.5 61t85 31.5t96 10q70 0 128 -18.5t100 -66.5t42 -119q0 -68 -42.5 -115t-101 -66.5t-124.5 -19.5q-221 -2 -221 -145v-107h482v-52h-535v158q0 56 23.5 95.5t64.5 60.5t86 30t98 9q37 0 73 7.5t70.5 24t55.5 47.5t21 73q0 44 -20.5 76
t-54 49t-70 24.5t-75.5 7.5q-38 0 -73.5 -7t-68.5 -23t-53 -46.5t-20 -71.5z" />
    <glyph glyph-name="three.tf" horiz-adv-x="685" 
d="M132 529h-51q0 52 24 89t64 56t82.5 27t90.5 8q121 0 189 -52t69 -133q0 -59 -43 -105.5t-105 -57.5q66 -12 113.5 -61t47.5 -111q0 -86 -71 -142t-198 -56q-50 0 -94.5 8.5t-87 27.5t-67.5 58t-25 93h52q0 -36 15.5 -62.5t37 -40.5t54 -22t58.5 -10t58 -2
q105 0 161 41.5t56 104.5q0 60 -58 105t-160 45h-116v45h113q98 0 153.5 43.5t56.5 98.5q1 58 -54 99t-154 41q-211 0 -211 -135z" />
    <glyph glyph-name="four.tf" horiz-adv-x="685" 
d="M447 700h89v-493h88v-49h-88v-158h-54v158h-429l-11 65zM482 207v453l-382 -453h382z" />
    <glyph glyph-name="five.tf" horiz-adv-x="685" 
d="M370 380h-275v320h487v-48h-437v-224h225q68 0 118.5 -18t78.5 -49t41 -68t13 -80q0 -93 -70 -155.5t-202 -62.5q-52 0 -96.5 9.5t-85.5 30.5t-65 61.5t-24 96.5h54q0 -144 217 -144q108 0 163 45t55 118t-45 120.5t-152 47.5z" />
    <glyph glyph-name="six.tf" horiz-adv-x="685" 
d="M133 516v-191q69 99 224 99q52 0 99 -12.5t87 -37t63.5 -67.5t23.5 -99q0 -57 -24 -100.5t-64 -67.5t-87 -36t-99 -12q-71 0 -131 20.5t-102.5 71.5t-42.5 126v306q0 93 78.5 143.5t187.5 50.5q110 0 185.5 -46t81.5 -131h-54q-4 61 -63.5 95t-149.5 34
q-86 0 -149.5 -38.5t-63.5 -107.5zM356 43q41 0 77.5 8t70 26t53.5 51.5t20 79.5q0 80 -67.5 123.5t-152.5 43.5t-153.5 -43t-69.5 -123q0 -45 20 -78.5t53.5 -52t71 -27t77.5 -8.5z" />
    <glyph glyph-name="seven.tf" horiz-adv-x="685" 
d="M170 0l378 650h-454v50h510l7 -44l-380 -656h-61z" />
    <glyph glyph-name="eight.tf" horiz-adv-x="685" 
d="M343 340q-34 0 -71.5 -8t-76 -24.5t-63 -49t-24.5 -74.5q0 -54 43.5 -89.5t93 -47t98.5 -11.5q35 0 72 7t75 23t63 46.5t25 71.5t-25 73t-63 49t-75.5 25.5t-71.5 8.5zM343 -15q-52 0 -100 10.5t-92 32t-70.5 62t-26.5 94.5q0 68 46 115.5t112 61.5q-146 45 -146 162
q0 52 25.5 91t68 60t88.5 31t95 10t94.5 -9.5t88 -30t68.5 -60t26 -92.5q0 -62 -42 -102.5t-110 -61.5q66 -14 114.5 -61.5t48.5 -113.5q0 -54 -26.5 -94.5t-70 -62t-91.5 -32t-100 -10.5zM343 669q-36 0 -71.5 -7t-71.5 -22.5t-58.5 -45.5t-22.5 -71q0 -38 22.5 -66
t58.5 -43t72 -21.5t71 -6.5t71 6.5t72 21.5t58.5 43t22.5 66q0 40 -22.5 70t-58 45.5t-72 23t-71.5 7.5z" />
    <glyph glyph-name="nine.tf" horiz-adv-x="685" 
d="M552 186v191q-69 -99 -225 -99q-52 0 -99 12.5t-87 37t-63.5 67.5t-23.5 99q0 57 24 100.5t64 67.5t87 36t99 12q71 0 131 -20.5t102.5 -71.5t42.5 -126v-306q0 -93 -78.5 -143.5t-187.5 -50.5q-110 0 -185.5 46t-81.5 131h54q4 -61 63.5 -95t149.5 -34q86 0 150 38.5
t64 107.5zM328 659q-41 0 -77.5 -8t-70 -26t-53.5 -51.5t-20 -79.5q0 -44 20 -78t53 -52.5t70 -27.5t77 -9q85 0 153.5 43t69.5 123q0 45 -20 78.5t-53.5 52t-71 27t-77.5 8.5z" />
    <glyph glyph-name="Euro.tf" horiz-adv-x="685" 
d="M592 62l14 -48q-63 -22 -124 -22q-290 0 -341 280h-64v46h58q-1 7 -1 28t1 31h-58v46h64q17 127 105 206t236 79q46 0 99 -15l-11 -43q-43 12 -88 12q-248 0 -287 -239h273l-13 -46h-267q-1 -9 -1 -29q0 -23 1 -30h253l-10 -46h-236q17 -112 89 -171t198 -59q56 0 110 20
z" />
    <glyph glyph-name="cent.tf" horiz-adv-x="685" 
d="M401 -14v-71h-48v71q-101 9 -166 75t-65 176q0 106 65 174t166 77v60h48v-60q91 -10 156 -73l-34 -31q-61 60 -146 60q-89 0 -148 -54.5t-59 -152.5q0 -100 58.5 -153t148.5 -53q82 0 146 62l34 -35q-66 -64 -156 -72z" />
    <glyph glyph-name="sterling.tf" horiz-adv-x="685" 
d="M79 308v43h80q-27 101 -27 156q0 98 67.5 148.5t171.5 50.5q99 0 162 -42t64 -139h-46q0 52 -29 83.5t-66 41.5t-85 10q-86 0 -138 -39.5t-52 -113.5q0 -19 3 -41.5t6 -37t9.5 -41t8.5 -36.5h259v-43h-250q7 -46 7 -87.5t-21 -86.5t-64 -86h465v-48h-525v45q50 51 74 98
t24.5 85t-7.5 80h-91z" />
    <glyph glyph-name="florin.tf" horiz-adv-x="685" 
d="M300 -1v448h-143v43h143v44q0 169 148 169q53 0 98 -34l-24 -36q-42 25 -76 25q-98 0 -98 -124v-44h181v-43h-181v-448q0 -82 -29.5 -126t-105.5 -44q-47 0 -94 35l23 34q31 -25 73 -25q46 0 65.5 30t19.5 96z" />
    <glyph glyph-name="yen.tf" horiz-adv-x="685" 
d="M161 167v41h154v63h-154v41h133l-252 387v1h61l239 -368l240 368h61v-1l-254 -387h139v-41h-160v-63h160v-41h-160v-167h-53v167h-154z" />
    <glyph glyph-name="dollar.tf" horiz-adv-x="685" 
d="M324 805h45v-100q75 -4 138 -34t95 -87l-47 -26q-26 49 -85 72.5t-124 24.5q-34 0 -69 -7.5t-68.5 -22t-54.5 -43t-20 -64.5q1 -26 12.5 -45.5t28.5 -32.5t48 -23.5t57 -16.5t68 -14q131 -25 179 -49q96 -47 96 -152q0 -62 -41.5 -105.5t-96 -61.5t-117.5 -21v-97h-44v97
q-85 3 -157.5 37t-106.5 100l48 24q29 -56 96.5 -82.5t141.5 -26.5q36 0 72 7t71.5 21.5t57.5 42.5t22 66q0 25 -8 45.5t-26.5 35.5t-36 25t-49.5 19t-52 13.5t-58 11.5q-37 7 -55 11t-51 12.5t-49.5 16.5t-39.5 22t-34 29.5t-20 38.5t-10 50q-1 47 20.5 83.5t58.5 58
t78.5 33.5t86.5 14v100z" />
    <glyph glyph-name="zero.denom" horiz-adv-x="397" 
d="M100 203v-52q0 -42 20 -71.5t48.5 -36.5t57 -0.5t48.5 36t20 72.5v52q0 44 -20 74t-48.5 37t-57 0t-48.5 -37t-20 -74zM53 151v52q0 43 16 77t41.5 52t56.5 26t62 -0.5t56.5 -26t41.5 -51.5t16 -77v-52q0 -43 -16 -77t-41.5 -51.5t-56.5 -25.5t-62 0t-56.5 25.5
t-41.5 51.5t-16 77z" />
    <glyph glyph-name="one.denom" horiz-adv-x="254" 
d="M44 0v41h63v260l-55 -14v44l103 23v-313h65v-41h-176z" />
    <glyph glyph-name="two.denom" horiz-adv-x="360" 
d="M94 255h-46q0 106 135 106q56 0 94.5 -24t38.5 -82q0 -108 -132 -108q-33 0 -61.5 -15t-28.5 -53v-30h219v-49h-267v80q0 52 40.5 80.5t97.5 28.5q85 0 85 66q0 64 -87 64q-41 0 -64.5 -13t-23.5 -51z" />
    <glyph glyph-name="three.denom" horiz-adv-x="369" 
d="M181 165h-55v43h51q34 0 60 13.5t26 42.5q0 22 -23 39.5t-63 17.5q-32 0 -59.5 -15t-27.5 -50h-43q0 53 37.5 79t92.5 26t93.5 -25.5t38.5 -72.5q0 -30 -16 -50t-42 -27q30 -8 47.5 -31t17.5 -48q0 -110 -139 -110q-58 0 -96 25.5t-39 81.5h48q0 -62 88 -62q91 0 91 65
q0 21 -22 39.5t-66 18.5z" />
    <glyph glyph-name="four.denom" horiz-adv-x="339" 
d="M191 356h65v-233h42v-44h-42v-78h-45v78h-192l-3 37zM72 123h139v189z" />
    <glyph glyph-name="five.denom" horiz-adv-x="369" 
d="M182 180h-126v176h249v-43h-204v-91h81q71 0 107 -31.5t36 -82.5t-36.5 -82t-105.5 -31q-57 0 -96 23.5t-40 78.5h44q0 -59 92 -59q95 0 95 70q0 28 -21 50t-75 22z" />
    <glyph glyph-name="six.denom" horiz-adv-x="390" 
d="M207 35q38 0 65.5 16.5t27.5 53.5q0 36 -28 53.5t-65 17.5t-65.5 -18t-29.5 -52q0 -37 28.5 -54t66.5 -17zM111 248v-67q34 35 96 35q59 0 99.5 -26t40.5 -85q0 -56 -41.5 -83t-98.5 -27q-59 0 -100.5 27.5t-41.5 83.5v142q0 57 39.5 85.5t96.5 28.5t95 -23t42 -68h-45
q-5 48 -92 48q-90 0 -90 -71z" />
    <glyph glyph-name="seven.denom" horiz-adv-x="318" 
d="M38 313v43h259l4 -22l-182 -334h-55l173 313h-199z" />
    <glyph glyph-name="eight.denom" horiz-adv-x="398" 
d="M199 163q-38 0 -67 -17t-29 -51q0 -31 31 -46t65 -15t65 15t32 46q0 34 -29.5 51t-67.5 17zM199 -8q-59 0 -102.5 24t-44.5 78q0 35 22.5 59t56.5 31q-73 23 -73 83q0 50 43 73.5t98 23.5q56 0 98.5 -23t42.5 -74q0 -62 -72 -84q33 -7 55.5 -31t22.5 -58q0 -54 -43.5 -78
t-103.5 -24zM199 325q-34 0 -62.5 -13.5t-28.5 -44.5t26.5 -45.5t64.5 -14.5t65 14.5t27 45.5t-29 44.5t-63 13.5z" />
    <glyph glyph-name="nine.denom" horiz-adv-x="390" 
d="M183 321q-38 0 -65.5 -16.5t-27.5 -53.5q0 -36 28 -53.5t65 -17.5t65.5 18t29.5 52q0 37 -28.5 54t-66.5 17zM279 108v67q-34 -35 -96 -35q-59 0 -99.5 26t-40.5 85q0 56 41.5 83t98.5 27q59 0 100.5 -27.5t41.5 -83.5v-142q0 -57 -39.5 -85.5t-96.5 -28.5t-95 23t-42 68
h45q5 -48 92 -48q90 0 90 71z" />
    <glyph glyph-name="zero.num" horiz-adv-x="378" 
d="M91 553v-52q0 -42 20 -71.5t48.5 -36.5t57 -0.5t48.5 36t20 72.5v52q0 44 -20 74t-48.5 37t-57 0t-48.5 -37t-20 -74zM44 501v52q0 43 16 77t41.5 52t56.5 26t62 -0.5t56.5 -26t41.5 -51.5t16 -77v-52q0 -43 -16 -77t-41.5 -51.5t-56.5 -25.5t-62 0t-56.5 25.5
t-41.5 51.5t-16 77z" />
    <glyph glyph-name="one.num" horiz-adv-x="242" 
d="M38 355v41h63v260l-55 -14v44l103 23v-313h65v-41h-176z" />
    <glyph glyph-name="two.num" horiz-adv-x="358" 
d="M93 603h-46q0 106 135 106q56 0 94.5 -24t38.5 -82q0 -108 -132 -108q-33 0 -61.5 -15t-28.5 -53v-30h219v-49h-267v80q0 52 40.5 80.5t97.5 28.5q85 0 85 66q0 64 -87 64q-41 0 -64.5 -13t-23.5 -51z" />
    <glyph glyph-name="three.num" horiz-adv-x="356" 
d="M179 512h-55v43h51q34 0 60 13.5t26 42.5q0 22 -23 39.5t-63 17.5q-32 0 -59.5 -15t-27.5 -50h-43q0 53 37.5 79t92.5 26t93.5 -25.5t38.5 -72.5q0 -30 -16 -50t-42 -27q30 -8 47.5 -31t17.5 -48q0 -110 -139 -110q-58 0 -96 25.5t-39 81.5h48q0 -62 88 -62q91 0 91 65
q0 21 -22 39.5t-66 18.5z" />
    <glyph glyph-name="four.num" horiz-adv-x="346" 
d="M201 702h65v-233h42v-44h-42v-78h-45v78h-192l-3 37zM82 469h139v189z" />
    <glyph glyph-name="five.num" horiz-adv-x="358" 
d="M178 525h-126v176h249v-43h-204v-91h81q71 0 107 -31.5t36 -82.5t-36.5 -82t-105.5 -31q-57 0 -96 23.5t-40 78.5h44q0 -59 92 -59q95 0 95 70q0 28 -21 50t-75 22z" />
    <glyph glyph-name="six.num" horiz-adv-x="371" 
d="M192 382q38 0 65.5 16.5t27.5 53.5q0 36 -28 53.5t-65 17.5t-65.5 -18t-29.5 -52q0 -37 28.5 -54t66.5 -17zM96 595v-67q34 35 96 35q59 0 99.5 -26t40.5 -85q0 -56 -41.5 -83t-98.5 -27q-59 0 -100.5 27.5t-41.5 83.5v142q0 57 39.5 85.5t96.5 28.5t95 -23t42 -68h-45
q-5 48 -92 48q-90 0 -90 -71z" />
    <glyph glyph-name="seven.num" horiz-adv-x="310" 
d="M30 659v43h259l4 -22l-182 -334h-55l173 313h-199z" />
    <glyph glyph-name="eight.num" horiz-adv-x="380" 
d="M190 508q-38 0 -67 -17t-29 -51q0 -31 31 -46t65 -15t65 15t32 46q0 34 -29.5 51t-67.5 17zM190 337q-59 0 -102.5 24t-44.5 78q0 35 22.5 59t56.5 31q-73 23 -73 83q0 50 43 73.5t98 23.5q56 0 98.5 -23t42.5 -74q0 -62 -72 -84q33 -7 55.5 -31t22.5 -58
q0 -54 -43.5 -78t-103.5 -24zM190 670q-34 0 -62.5 -13.5t-28.5 -44.5t26.5 -45.5t64.5 -14.5t65 14.5t27 45.5t-29 44.5t-63 13.5z" />
    <glyph glyph-name="nine.num" horiz-adv-x="371" 
d="M179 670q-38 0 -65.5 -16.5t-27.5 -53.5q0 -36 28 -53.5t65 -17.5t65.5 18t29.5 52q0 37 -28.5 54t-66.5 17zM275 457v67q-34 -35 -96 -35q-59 0 -99.5 26t-40.5 85q0 56 41.5 83t98.5 27q59 0 100.5 -27.5t41.5 -83.5v-142q0 -57 -39.5 -85.5t-96.5 -28.5t-95 23t-42 68
h45q5 -48 92 -48q90 0 90 71z" />
    <glyph glyph-name="parenleft.case" horiz-adv-x="332" 
d="M274 802l26 -38q-92 -64 -142.5 -173.5t-52 -224t48.5 -227t146 -182.5l-26 -39q-106 69 -163.5 191.5t-57.5 250.5t57.5 250.5t163.5 191.5z" />
    <glyph glyph-name="parenright.case" horiz-adv-x="333" 
d="M33 765l26 38q106 -69 163.5 -191.5t57.5 -250.5t-57.5 -250.5t-163.5 -191.5l-26 39q96 70 146 182.5t48.5 227t-52 224t-142.5 173.5z" />
    <glyph glyph-name="hyphen.case" horiz-adv-x="504" 
d="M77 312v52h350v-52h-350z" />
    <glyph glyph-name="bracketleft.case" horiz-adv-x="320" 
d="M97 -93v882h181v-48h-129v-786h129v-48h-181z" />
    <glyph glyph-name="bracketright.case" horiz-adv-x="320" 
d="M223 788v-882h-181v48h129v787h-129v47h181z" />
    <glyph glyph-name="braceleft.case" horiz-adv-x="315" 
d="M272 -20v-38q-90 -13 -121 17.5t-31 118.5v147q0 118 -79 118v39q79 0 79 118v135q0 87 33.5 120t118.5 17v-34q-64 10 -86 -12t-22 -91v-135q0 -20 -1 -33.5t-5 -32.5t-11 -31t-21 -23.5t-34 -16.5q24 -6 40 -20.5t22 -36t8 -39t2 -42.5v-147q0 -68 22 -88.5t86 -9.5z
" />
    <glyph glyph-name="bar.case" horiz-adv-x="249" 
d="M151 759v-828h-53v828h53z" />
    <glyph glyph-name="braceright.case" horiz-adv-x="315" 
d="M43 -57v38q64 -11 86 9.5t22 88.5v147q0 25 2 42.5t8 39t22 36t40 20.5q-20 5 -34 16.5t-21 23.5t-11 31t-5 32.5t-1 33.5v135q0 69 -22 91t-86 12v34q85 16 118.5 -17t33.5 -120v-135q0 -118 79 -118v-39q-79 0 -79 -118v-147q0 -88 -31 -118.5t-121 -17.5z" />
    <glyph glyph-name="guilsinglleft.case" horiz-adv-x="328" 
d="M63 347l138 219h52v-5l-135 -214l135 -214v-6h-52z" />
    <glyph glyph-name="guilsinglright.case" horiz-adv-x="328" 
d="M265 341l-138 -220h-52v6l135 214l-135 214v5h52z" />
    <glyph glyph-name="guillemotleft.case" horiz-adv-x="406" 
d="M50 327l138 219h52v-5l-135 -214l135 -214v-6h-52zM294 107l-138 220l138 219h52v-5l-135 -214l135 -214v-6h-52z" />
    <glyph glyph-name="guillemotright.case" horiz-adv-x="434" 
d="M371 336l-138 -220h-52v6l135 214l-135 214v5h52zM264 336l-138 -220h-52v6l135 214l-135 214v5h52z" />
    <glyph glyph-name="endash.case" horiz-adv-x="592" 
d="M73 313v51h446v-51h-446z" />
    <glyph glyph-name="emdash.case" horiz-adv-x="699" 
d="M73 315v51h553v-51h-553z" />
    <glyph glyph-name="bullet.case" horiz-adv-x="378" 
d="M190 249q-43 0 -70.5 26.5t-27.5 69.5t27.5 69.5t70.5 26.5q41 0 68.5 -26.5t27.5 -69.5t-27.5 -69.5t-68.5 -26.5z" />
    <glyph glyph-name="periodcentered.case" horiz-adv-x="233" 
d="M77 339q0 18 12.5 28.5t27 10.5t27 -10.5t12.5 -28.5t-12.5 -28.5t-27 -10.5t-27 10.5t-12.5 28.5z" />
    <glyph glyph-name="a.alt" horiz-adv-x="555" 
d="M252 500q102 0 164.5 -45.5t62.5 -141.5v-313h-43l-1 102q-65 -112 -194 -112q-83 0 -141.5 40t-58.5 119q0 78 58 118.5t140 39.5q96 0 191 -46v52q0 141 -178 141q-83 0 -165 -40l-11 45q97 41 176 41zM429 215q-85 44 -190 46q-61 0 -105 -27t-44 -85
q1 -58 47.5 -85.5t103.5 -27.5q80 0 131.5 49.5t56.5 129.5z" />
    <glyph glyph-name="agrave.alt" horiz-adv-x="555" 
d="M252 500q102 0 164.5 -45.5t62.5 -141.5v-313h-43l-1 102q-65 -112 -194 -112q-83 0 -141.5 40t-58.5 119q0 78 58 118.5t140 39.5q96 0 191 -46v52q0 141 -178 141q-83 0 -165 -40l-11 45q97 41 176 41zM429 215q-85 44 -190 46q-61 0 -105 -27t-44 -85
q1 -58 47.5 -85.5t103.5 -27.5q80 0 131.5 49.5t56.5 129.5zM314 584h-45l-86 115v1h61l70 -112v-4z" />
    <glyph glyph-name="aacute.alt" horiz-adv-x="555" 
d="M252 500q-79 0 -176 -41l11 -45q82 40 165 40q178 0 178 -141v-52q-95 46 -191 46q-82 1 -140 -39.5t-58 -118.5q0 -79 58.5 -119t141.5 -40q129 0 194 112l1 -102h43v313q0 96 -62.5 141.5t-164.5 45.5zM429 215q-5 -80 -56.5 -129.5t-131.5 -49.5q-57 0 -103.5 27.5
t-47.5 85.5q0 58 44 85t105 27q105 -2 190 -46zM274 584h-45v4l70 112h61v-1z" />
    <glyph glyph-name="acircumflex.alt" horiz-adv-x="555" 
d="M252 500q-79 0 -176 -41l11 -45q82 40 165 40q178 0 178 -141v-52q-95 46 -191 46q-82 1 -140 -39.5t-58 -118.5q0 -79 58.5 -119t141.5 -40q129 0 194 112l1 -102h43v313q0 96 -62.5 141.5t-164.5 45.5zM429 215q-5 -80 -56.5 -129.5t-131.5 -49.5q-57 0 -103.5 27.5
t-47.5 85.5q0 58 44 85t105 27q105 -2 190 -46zM118 576l136 127h39l137 -127v-7h-49l-107 94l-106 -94h-50v7z" />
    <glyph glyph-name="atilde.alt" horiz-adv-x="555" 
d="M252 500q102 0 164.5 -45.5t62.5 -141.5v-313h-43l-1 102q-65 -112 -194 -112q-83 0 -141.5 40t-58.5 119q0 78 58 118.5t140 39.5q96 0 191 -46v52q0 141 -178 141q-83 0 -165 -40l-11 45q97 41 176 41zM429 215q-85 44 -190 46q-61 0 -105 -27t-44 -85
q1 -58 47.5 -85.5t103.5 -27.5q80 0 131.5 49.5t56.5 129.5zM185 623l-34 11q5 44 40.5 59.5t71.5 -3.5l41 -22q18 -10 36.5 -3t24.5 31l34 -11q-4 -45 -40 -60.5t-72 4.5l-41 22q-18 10 -36.5 2.5t-24.5 -30.5z" />
    <glyph glyph-name="adieresis.alt" horiz-adv-x="555" 
d="M252 500q-79 0 -176 -41l11 -45q82 40 165 40q178 0 178 -141v-52q-95 46 -191 46q-82 1 -140 -39.5t-58 -118.5q0 -79 58.5 -119t141.5 -40q129 0 194 112l1 -102h43v313q0 96 -62.5 141.5t-164.5 45.5zM429 215q-5 -80 -56.5 -129.5t-131.5 -49.5q-57 0 -103.5 27.5
t-47.5 85.5q0 58 44 85t105 27q105 -2 190 -46zM144 662q0 18 12.5 28.5t27 10.5t27 -10.5t12.5 -28.5t-12.5 -28.5t-27 -10.5t-27 10.5t-12.5 28.5zM340 662q0 18 12.5 28.5t27 10.5t27 -10.5t12.5 -28.5t-12.5 -28.5t-27 -10.5t-27 10.5t-12.5 28.5z" />
    <glyph glyph-name="amacron.alt" horiz-adv-x="555" 
d="M252 500q102 0 164.5 -45.5t62.5 -141.5v-313h-43l-1 102q-65 -112 -194 -112q-83 0 -141.5 40t-58.5 119q0 78 58 118.5t140 39.5q96 0 191 -46v52q0 141 -178 141q-83 0 -165 -40l-11 45q97 41 176 41zM429 215q-85 44 -190 46q-61 0 -105 -27t-44 -85
q1 -58 47.5 -85.5t103.5 -27.5q80 0 131.5 49.5t56.5 129.5zM128 629v46h297v-46h-297z" />
    <glyph glyph-name="abreve.alt" horiz-adv-x="555" 
d="M252 500q102 0 164.5 -45.5t62.5 -141.5v-313h-43l-1 102q-65 -112 -194 -112q-83 0 -141.5 40t-58.5 119q0 78 58 118.5t140 39.5q96 0 191 -46v52q0 141 -178 141q-83 0 -165 -40l-11 45q97 41 176 41zM429 215q-85 44 -190 46q-61 0 -105 -27t-44 -85
q1 -58 47.5 -85.5t103.5 -27.5q80 0 131.5 49.5t56.5 129.5zM361 702h42q0 -58 -33.5 -90.5t-92.5 -32.5q-60 0 -93 32.5t-33 90.5h40q0 -83 86 -83q47 0 65.5 24.5t18.5 58.5z" />
    <glyph glyph-name="aring.alt" horiz-adv-x="555" 
d="M252 500q102 0 164.5 -45.5t62.5 -141.5v-313h-43l-1 102q-65 -112 -194 -112q-83 0 -141.5 40t-58.5 119q0 78 58 118.5t140 39.5q96 0 191 -46v52q0 141 -178 141q-83 0 -165 -40l-11 45q97 41 176 41zM429 215q-85 44 -190 46q-61 0 -105 -27t-44 -85
q1 -58 47.5 -85.5t103.5 -27.5q80 0 131.5 49.5t56.5 129.5zM178 646q0 39 29.5 61.5t70.5 22.5t71 -22t30 -62t-28.5 -63t-73.5 -23t-72 23t-27 63zM277 697q-35 0 -50 -25.5t0 -50.5t50 -25q37 0 52 25t0 50.5t-52 25.5z" />
    <glyph glyph-name="aringacute.alt" horiz-adv-x="555" 
d="M252 500q-79 0 -176 -41l11 -45q82 40 165 40q178 0 178 -141v-52q-95 46 -191 46q-82 1 -140 -39.5t-58 -118.5q0 -79 58.5 -119t141.5 -40q129 0 194 112l1 -102h43v313q0 96 -62.5 141.5t-164.5 45.5zM429 215q-5 -80 -56.5 -129.5t-131.5 -49.5q-57 0 -103.5 27.5
t-47.5 85.5q0 58 44 85t105 27q105 -2 190 -46zM175 625q0 -37 25 -59t67 -22t68.5 22t26.5 59t-28 57.5t-66 20.5q-39 0 -66 -20.5t-27 -57.5zM267 672q34 0 48.5 -23.5t0 -47t-48.5 -23.5q-33 0 -46.5 23.5t0 47t46.5 23.5zM287 730h-45v3l71 89h60v-1z" />
    <glyph glyph-name="aogonek.alt" horiz-adv-x="555" 
d="M429 215q-85 44 -190 46q-61 0 -105 -27t-44 -85q1 -58 47.5 -85.5t103.5 -27.5q80 0 131.5 49.5t56.5 129.5zM252 500q102 0 164.5 -45.5t62.5 -141.5v-348q-77 8 -102 -33q-18 -30 5 -55q19 -19 54 -18q24 1 48 14t38 36l32 -18q-15 -32 -47 -50t-68 -20
q-41 -1 -69.5 15t-35.5 40.5t-0.5 50.5t33.5 46.5t67 25.5l1 103q-65 -112 -194 -112q-83 0 -141.5 40t-58.5 119q0 78 58 118.5t140 39.5q96 0 191 -46v52q0 141 -178 141q-83 0 -165 -40l-11 45q97 41 176 41z" />
    <glyph glyph-name="y.alt" horiz-adv-x="602" 
d="M474 -19v108q-53 -95 -177 -97q-100 0 -161.5 58.5t-61.5 159.5v285h49v-284q0 -83 47 -127.5t129 -43.5q76 1 124.5 52t48.5 128v275h49v-513q0 -117 -60.5 -176.5t-163.5 -59.5q-101 0 -154.5 46.5t-58.5 129.5h46q10 -130 167 -130q80 0 128.5 46t48.5 143z" />
    <glyph glyph-name="yacute.alt" horiz-adv-x="602" 
d="M474 -19q0 -97 -48.5 -143t-128.5 -46q-157 0 -167 130h-46q5 -83 58.5 -129.5t154.5 -46.5q103 0 163.5 59.5t60.5 176.5v513h-49v-275q0 -77 -48.5 -128t-124.5 -52q-82 -1 -129 43.5t-47 127.5v284h-49v-285q0 -101 61.5 -159.5t161.5 -58.5q124 2 177 97v-108z
M312 584h-45v4l70 113h62v-1z" />
    <glyph glyph-name="ycircumflex.alt" horiz-adv-x="602" 
d="M474 -19q0 -97 -48.5 -143t-128.5 -46q-157 0 -167 130h-46q5 -83 58.5 -129.5t154.5 -46.5q103 0 163.5 59.5t60.5 176.5v513h-49v-275q0 -77 -48.5 -128t-124.5 -52q-82 -1 -129 43.5t-47 127.5v284h-49v-285q0 -101 61.5 -159.5t161.5 -58.5q124 2 177 97v-108z
M149 577l132 124h38l133 -124v-6h-50l-102 89l-102 -89h-49v6z" />
    <glyph glyph-name="ydieresis.alt" horiz-adv-x="602" 
d="M474 -19q0 -97 -48.5 -143t-128.5 -46q-157 0 -167 130h-46q5 -83 58.5 -129.5t154.5 -46.5q103 0 163.5 59.5t60.5 176.5v513h-49v-275q0 -77 -48.5 -128t-124.5 -52q-82 -1 -129 43.5t-47 127.5v284h-49v-285q0 -101 61.5 -159.5t161.5 -58.5q124 2 177 97v-108z
M170 667q0 24 19 33.5t37.5 0t18.5 -33.5q0 -23 -18.5 -32.5t-37.5 0t-19 32.5zM374 667q0 24 19 33.5t37.5 0t18.5 -33.5q0 -23 -18.5 -32.5t-37.5 0t-19 32.5z" />
    <glyph glyph-name="ygrave.alt" horiz-adv-x="602" 
d="M474 -19v108q-53 -95 -177 -97q-100 0 -161.5 58.5t-61.5 159.5v285h49v-284q0 -83 47 -127.5t129 -43.5q76 1 124.5 52t48.5 128v275h49v-513q0 -117 -60.5 -176.5t-163.5 -59.5q-101 0 -154.5 46.5t-58.5 129.5h46q10 -130 167 -130q80 0 128.5 46t48.5 143zM341 584
h-45l-87 116v1h62l70 -113v-4z" />
    </font>
</defs>
</svg>
